<svg width="1282" height="537" viewBox="0 0 1282 537" fill="none" xmlns="http://www.w3.org/2000/svg">
<path d="M669.046 214.648L675.012 178.32L789.962 34.8182H821.283L812.974 85.1023H794.33L721.887 175.976L721.674 177.68H851.006L844.934 214.648H669.046ZM767.377 253L775.687 203.462L779.202 187.588L804.451 34.8182H847.704L811.482 253H767.377ZM954.078 257.794C935.754 257.794 920.733 253.32 909.014 244.371C897.295 235.351 889.305 222.354 885.044 205.379C880.854 188.405 880.747 167.986 884.724 144.122C888.773 120.33 895.697 100.053 905.498 83.2912C915.371 66.5298 927.586 53.7812 942.146 45.0455C956.777 36.2386 973.219 31.8352 991.471 31.8352C1009.65 31.8352 1024.6 36.2386 1036.32 45.0455C1048.04 53.8523 1056.07 66.6008 1060.4 83.2912C1064.8 99.9815 1065.02 120.259 1061.04 144.122C1057.06 168.057 1050.14 188.511 1040.26 205.486C1030.39 222.389 1018.14 235.351 1003.51 244.371C988.879 253.32 972.402 257.794 954.078 257.794ZM960.47 219.548C973.041 219.548 984.05 213.263 993.496 200.692C1002.94 188.121 1009.76 169.264 1013.95 144.122C1016.72 127.645 1017.32 113.902 1015.76 102.893C1014.27 91.8139 1010.9 83.5043 1005.64 77.9645C1000.38 72.4247 993.602 69.6548 985.292 69.6548C972.863 69.6548 961.855 75.9048 952.267 88.4048C942.75 100.834 935.932 119.406 931.812 144.122C929.042 160.884 928.439 174.875 930.001 186.097C931.564 197.247 934.973 205.628 940.229 211.239C945.484 216.778 952.231 219.548 960.47 219.548ZM1078.91 214.648L1084.88 178.32L1199.83 34.8182H1231.15L1222.84 85.1023H1204.19L1131.75 175.976L1131.54 177.68H1260.87L1254.8 214.648H1078.91ZM1177.24 253L1185.55 203.462L1189.07 187.588L1214.31 34.8182H1257.57L1221.35 253H1177.24Z" fill="black"/>
<path d="M8.50142 154.545H18.2493V176.151C18.2493 179.155 18.7713 181.531 19.8153 183.278C20.8594 185.004 22.3722 186.229 24.3537 186.953C26.3565 187.678 28.7855 188.04 31.6406 188.04C33.1534 188.04 34.6875 187.987 36.2429 187.88C37.8196 187.752 39.3857 187.582 40.9411 187.369C42.4965 187.134 43.9986 186.868 45.4474 186.57C46.9176 186.25 48.2812 185.898 49.5384 185.515V193.92C48.3026 194.325 46.9922 194.688 45.6072 195.007C44.2436 195.305 42.8161 195.572 41.3246 195.806C39.8331 196.019 38.2777 196.19 36.6584 196.317C35.0391 196.445 33.3665 196.509 31.6406 196.509C26.8679 196.509 22.745 195.827 19.272 194.464C15.8203 193.079 13.157 190.895 11.282 187.912C9.42827 184.929 8.50142 181.009 8.50142 176.151V154.545ZM48.0682 154.545H57.848V220H48.0682V154.545ZM69.5055 179.155V170.909H110.926V179.155H94.9139V220H85.5815V179.155H69.5055ZM139.426 220.991C134.824 220.991 130.808 219.936 127.377 217.827C123.947 215.717 121.284 212.766 119.387 208.974C117.491 205.181 116.543 200.749 116.543 195.678C116.543 190.586 117.491 186.133 119.387 182.319C121.284 178.505 123.947 175.543 127.377 173.434C130.808 171.325 134.824 170.27 139.426 170.27C144.029 170.27 148.045 171.325 151.475 173.434C154.906 175.543 157.569 178.505 159.466 182.319C161.362 186.133 162.31 190.586 162.31 195.678C162.31 200.749 161.362 205.181 159.466 208.974C157.569 212.766 154.906 215.717 151.475 217.827C148.045 219.936 144.029 220.991 139.426 220.991ZM139.458 212.969C142.441 212.969 144.913 212.18 146.873 210.604C148.833 209.027 150.282 206.928 151.22 204.308C152.179 201.687 152.658 198.8 152.658 195.646C152.658 192.514 152.179 189.638 151.22 187.017C150.282 184.375 148.833 182.255 146.873 180.657C144.913 179.059 142.441 178.26 139.458 178.26C136.454 178.26 133.961 179.059 131.98 180.657C130.02 182.255 128.56 184.375 127.601 187.017C126.664 189.638 126.195 192.514 126.195 195.646C126.195 198.8 126.664 201.687 127.601 204.308C128.56 206.928 130.02 209.027 131.98 210.604C133.961 212.18 136.454 212.969 139.458 212.969ZM194.047 179.155V170.909H235.467V179.155H219.455V220H210.123V179.155H194.047ZM252.765 187.784H267.02C273.028 187.784 277.652 189.276 280.89 192.259C284.129 195.241 285.748 199.087 285.748 203.796C285.748 206.864 285.024 209.624 283.575 212.074C282.126 214.524 280.006 216.463 277.215 217.891C274.424 219.297 271.025 220 267.02 220H245.574V170.909H254.939V211.754H267.02C269.768 211.754 272.027 211.04 273.795 209.613C275.564 208.164 276.448 206.321 276.448 204.084C276.448 201.719 275.564 199.79 273.795 198.299C272.027 196.786 269.768 196.03 267.02 196.03H252.765V187.784ZM292.716 220V170.909H302.272V220H292.716ZM335.047 220L335.015 211.722H336.773C338.137 211.722 339.276 211.435 340.193 210.859C341.13 210.263 341.897 209.261 342.494 207.855C343.09 206.449 343.548 204.51 343.868 202.038C344.188 199.545 344.422 196.413 344.571 192.642L345.434 170.909H379.695V220H370.331V179.155H354.287L353.52 195.838C353.328 199.886 352.913 203.423 352.274 206.449C351.656 209.474 350.75 211.999 349.557 214.023C348.364 216.026 346.83 217.528 344.955 218.53C343.08 219.51 340.8 220 338.115 220H335.047ZM399.631 187.784H413.885C419.893 187.784 424.517 189.276 427.756 192.259C430.994 195.241 432.614 199.087 432.614 203.796C432.614 206.864 431.889 209.624 430.44 212.074C428.991 214.524 426.871 216.463 424.08 217.891C421.289 219.297 417.891 220 413.885 220H392.44V170.909H401.804V211.754H413.885C416.634 211.754 418.892 211.04 420.661 209.613C422.429 208.164 423.313 206.321 423.313 204.084C423.313 201.719 422.429 199.79 420.661 198.299C418.892 196.786 416.634 196.03 413.885 196.03H399.631V187.784ZM439.581 220V170.909H449.137V220H439.581ZM482.639 220.991C477.888 220.991 473.797 219.915 470.367 217.763C466.958 215.589 464.337 212.596 462.504 208.782C460.672 204.968 459.756 200.6 459.756 195.678C459.756 190.692 460.693 186.293 462.568 182.479C464.443 178.643 467.085 175.65 470.494 173.498C473.904 171.346 477.92 170.27 482.544 170.27C486.272 170.27 489.596 170.962 492.515 172.347C495.434 173.711 497.789 175.629 499.578 178.1C501.389 180.572 502.465 183.459 502.806 186.761H493.506C492.994 184.46 491.823 182.479 489.99 180.817C488.179 179.155 485.75 178.324 482.703 178.324C480.04 178.324 477.707 179.027 475.704 180.433C473.722 181.818 472.178 183.8 471.07 186.378C469.962 188.935 469.408 191.96 469.408 195.455C469.408 199.034 469.951 202.124 471.038 204.723C472.124 207.322 473.659 209.336 475.64 210.763C477.643 212.191 479.997 212.905 482.703 212.905C484.514 212.905 486.155 212.575 487.625 211.914C489.117 211.232 490.363 210.263 491.365 209.006C492.387 207.749 493.101 206.236 493.506 204.467H502.806C502.465 207.642 501.432 210.476 499.706 212.969C497.98 215.462 495.669 217.422 492.771 218.849C489.894 220.277 486.517 220.991 482.639 220.991ZM520.217 187.784H534.471C540.479 187.784 545.103 189.276 548.342 192.259C551.58 195.241 553.2 199.087 553.2 203.796C553.2 206.864 552.475 209.624 551.026 212.074C549.577 214.524 547.457 216.463 544.666 217.891C541.875 219.297 538.477 220 534.471 220H513.026V170.909H522.39V211.754H534.471C537.219 211.754 539.478 211.04 541.246 209.613C543.015 208.164 543.899 206.321 543.899 204.084C543.899 201.719 543.015 199.79 541.246 198.299C539.478 196.786 537.219 196.03 534.471 196.03H520.217V187.784ZM560.167 220V170.909H569.723V220H560.167ZM591.911 206.609L613.548 170.909H623.84V220H614.475V184.268L592.934 220H582.547V170.909H591.911V206.609ZM609.458 154.29H617.32C617.32 157.891 616.041 160.82 613.485 163.079C610.949 165.316 607.519 166.435 603.193 166.435C598.889 166.435 595.47 165.316 592.934 163.079C590.399 160.82 589.131 157.891 589.131 154.29H596.961C596.961 155.888 597.43 157.305 598.367 158.54C599.305 159.755 600.914 160.362 603.193 160.362C605.431 160.362 607.029 159.755 607.987 158.54C608.968 157.326 609.458 155.909 609.458 154.29Z" fill="#747474"/>
<path d="M0 237.898H630.264V244.034H0V237.898Z" fill="#747474"/>
<path d="M11.6754 313.155V304.909H53.0959V313.155H37.0838V354H27.7514V313.155H11.6754ZM75.2044 355.087C72.0936 355.087 69.2811 354.511 66.7669 353.361C64.2527 352.189 62.2605 350.495 60.7903 348.279C59.3414 346.063 58.617 343.347 58.617 340.129C58.617 337.359 59.1497 335.08 60.215 333.29C61.2804 331.5 62.7186 330.083 64.5297 329.039C66.3407 327.995 68.3649 327.207 70.6021 326.674C72.8393 326.141 75.1191 325.737 77.4416 325.46C80.3819 325.119 82.7683 324.842 84.6007 324.629C86.4331 324.394 87.7647 324.021 88.5957 323.51C89.4267 322.999 89.8422 322.168 89.8422 321.017V320.793C89.8422 318.002 89.0538 315.839 87.4771 314.305C85.9217 312.771 83.5993 312.004 80.5098 312.004C77.2924 312.004 74.7569 312.718 72.9032 314.146C71.0708 315.552 69.8031 317.118 69.1 318.844L60.1191 316.798C61.1845 313.815 62.7399 311.408 64.7853 309.575C66.8521 307.722 69.2278 306.379 71.9125 305.548C74.5971 304.696 77.4203 304.27 80.3819 304.27C82.3422 304.27 84.4196 304.504 86.6142 304.973C88.8301 305.42 90.8968 306.251 92.8145 307.466C94.7534 308.68 96.3407 310.417 97.5765 312.675C98.8123 314.913 99.4302 317.821 99.4302 321.401V354H90.0978V347.288H89.7143C89.0964 348.524 88.1696 349.739 86.9338 350.932C85.698 352.125 84.1106 353.116 82.1717 353.904C80.2328 354.692 77.9103 355.087 75.2044 355.087ZM77.2818 347.416C79.9238 347.416 82.1824 346.894 84.0574 345.85C85.9537 344.806 87.3919 343.442 88.372 341.759C89.3734 340.055 89.8741 338.233 89.8741 336.294V329.966C89.5332 330.307 88.8727 330.626 87.8926 330.925C86.9338 331.202 85.8365 331.447 84.6007 331.66C83.3649 331.852 82.161 332.033 80.9892 332.203C79.8173 332.352 78.8372 332.48 78.0488 332.587C76.1951 332.821 74.5012 333.215 72.9672 333.769C71.4544 334.323 70.2399 335.122 69.3237 336.166C68.4288 337.189 67.9814 338.553 67.9814 340.257C67.9814 342.622 68.8549 344.412 70.6021 345.626C72.3493 346.82 74.5758 347.416 77.2818 347.416ZM112.158 354V304.909H121.714V325.491H126.317L142.521 304.909H154.346L135.33 328.783L154.57 354H142.712L127.915 334.376H121.714V354H112.158ZM168.297 372.409C166.869 372.409 165.569 372.292 164.397 372.058C163.225 371.844 162.352 371.61 161.777 371.354L164.078 363.524C165.825 363.993 167.38 364.195 168.744 364.131C170.108 364.067 171.311 363.556 172.355 362.597C173.421 361.638 174.358 360.072 175.168 357.899L176.35 354.639L158.389 304.909H168.616L181.049 343.006H181.56L193.993 304.909H204.252L184.021 360.552C183.083 363.109 181.89 365.271 180.441 367.04C178.993 368.83 177.267 370.172 175.264 371.067C173.261 371.962 170.939 372.409 168.297 372.409ZM237.938 325.683V333.993H211.762V325.683H237.938ZM219.529 304.909V354H209.973V304.909H219.529ZM252.895 354.991C248.336 354.991 244.351 353.925 240.942 351.795C237.533 349.664 234.891 346.702 233.016 342.91C231.141 339.096 230.203 334.675 230.203 329.646C230.203 324.575 231.141 320.143 233.016 316.351C234.891 312.537 237.533 309.575 240.942 307.466C244.351 305.335 248.336 304.27 252.895 304.27C257.476 304.27 261.461 305.335 264.848 307.466C268.257 309.575 270.9 312.537 272.775 316.351C274.671 320.143 275.619 324.575 275.619 329.646C275.619 334.675 274.671 339.096 272.775 342.91C270.9 346.702 268.257 349.664 264.848 351.795C261.461 353.925 257.476 354.991 252.895 354.991ZM252.895 346.809C255.985 346.809 258.51 346.031 260.47 344.476C262.451 342.899 263.911 340.811 264.848 338.212C265.786 335.612 266.255 332.757 266.255 329.646C266.255 326.514 265.786 323.648 264.848 321.049C263.911 318.428 262.451 316.33 260.47 314.753C258.51 313.176 255.985 312.388 252.895 312.388C249.827 312.388 247.302 313.176 245.321 314.753C243.339 316.33 241.88 318.428 240.942 321.049C240.005 323.648 239.536 326.514 239.536 329.646C239.536 332.757 240.005 335.612 240.942 338.212C241.88 340.811 243.339 342.899 245.321 344.476C247.302 346.031 249.827 346.809 252.895 346.809ZM331.382 354.991C326.63 354.991 322.539 353.915 319.109 351.763C315.7 349.589 313.079 346.596 311.247 342.782C309.414 338.968 308.498 334.6 308.498 329.678C308.498 324.692 309.436 320.293 311.311 316.479C313.186 312.643 315.828 309.65 319.237 307.498C322.646 305.346 326.662 304.27 331.286 304.27C335.014 304.27 338.338 304.962 341.257 306.347C344.176 307.711 346.531 309.629 348.32 312.1C350.132 314.572 351.208 317.459 351.548 320.761H342.248C341.737 318.46 340.565 316.479 338.732 314.817C336.921 313.155 334.492 312.324 331.445 312.324C328.782 312.324 326.449 313.027 324.446 314.433C322.465 315.818 320.92 317.8 319.812 320.378C318.704 322.935 318.15 325.96 318.15 329.455C318.15 333.034 318.693 336.124 319.78 338.723C320.867 341.322 322.401 343.336 324.382 344.763C326.385 346.191 328.74 346.905 331.445 346.905C333.257 346.905 334.897 346.575 336.367 345.914C337.859 345.232 339.105 344.263 340.107 343.006C341.129 341.749 341.843 340.236 342.248 338.467H351.548C351.208 341.642 350.174 344.476 348.448 346.969C346.722 349.462 344.411 351.422 341.513 352.849C338.637 354.277 335.259 354.991 331.382 354.991ZM358.052 313.155V304.909H399.473V313.155H383.461V354H374.128V313.155H358.052ZM409.58 372.409V304.909H418.913V312.867H419.712C420.266 311.844 421.065 310.662 422.109 309.32C423.153 307.977 424.602 306.805 426.455 305.804C428.309 304.781 430.759 304.27 433.806 304.27C437.769 304.27 441.306 305.271 444.417 307.274C447.528 309.277 449.967 312.164 451.736 315.935C453.526 319.707 454.42 324.245 454.42 329.55C454.42 334.856 453.536 339.405 451.768 343.197C449.999 346.969 447.57 349.877 444.481 351.923C441.391 353.947 437.865 354.959 433.902 354.959C430.919 354.959 428.479 354.458 426.583 353.457C424.708 352.455 423.238 351.283 422.173 349.941C421.107 348.599 420.287 347.406 419.712 346.362H419.136V372.409H409.58ZM418.945 329.455C418.945 332.906 419.445 335.932 420.447 338.531C421.448 341.131 422.897 343.165 424.793 344.636C426.69 346.085 429.012 346.809 431.761 346.809C434.616 346.809 437.002 346.053 438.92 344.54C440.837 343.006 442.286 340.928 443.266 338.308C444.268 335.687 444.768 332.736 444.768 329.455C444.768 326.216 444.278 323.308 443.298 320.729C442.339 318.151 440.891 316.116 438.952 314.625C437.034 313.134 434.637 312.388 431.761 312.388C428.991 312.388 426.647 313.102 424.729 314.529C422.833 315.957 421.395 317.949 420.415 320.506C419.435 323.062 418.945 326.045 418.945 329.455ZM479.413 355.087C476.303 355.087 473.49 354.511 470.976 353.361C468.462 352.189 466.469 350.495 464.999 348.279C463.55 346.063 462.826 343.347 462.826 340.129C462.826 337.359 463.359 335.08 464.424 333.29C465.489 331.5 466.928 330.083 468.739 329.039C470.55 327.995 472.574 327.207 474.811 326.674C477.048 326.141 479.328 325.737 481.651 325.46C484.591 325.119 486.977 324.842 488.81 324.629C490.642 324.394 491.974 324.021 492.805 323.51C493.636 322.999 494.051 322.168 494.051 321.017V320.793C494.051 318.002 493.263 315.839 491.686 314.305C490.131 312.771 487.808 312.004 484.719 312.004C481.501 312.004 478.966 312.718 477.112 314.146C475.28 315.552 474.012 317.118 473.309 318.844L464.328 316.798C465.393 313.815 466.949 311.408 468.994 309.575C471.061 307.722 473.437 306.379 476.121 305.548C478.806 304.696 481.629 304.27 484.591 304.27C486.551 304.27 488.629 304.504 490.823 304.973C493.039 305.42 495.106 306.251 497.023 307.466C498.962 308.68 500.55 310.417 501.786 312.675C503.021 314.913 503.639 317.821 503.639 321.401V354H494.307V347.288H493.923C493.305 348.524 492.379 349.739 491.143 350.932C489.907 352.125 488.32 353.116 486.381 353.904C484.442 354.692 482.119 355.087 479.413 355.087ZM481.491 347.416C484.133 347.416 486.391 346.894 488.266 345.85C490.163 344.806 491.601 343.442 492.581 341.759C493.582 340.055 494.083 338.233 494.083 336.294V329.966C493.742 330.307 493.082 330.626 492.102 330.925C491.143 331.202 490.045 331.447 488.81 331.66C487.574 331.852 486.37 332.033 485.198 332.203C484.026 332.352 483.046 332.48 482.258 332.587C480.404 332.821 478.71 333.215 477.176 333.769C475.663 334.323 474.449 335.122 473.533 336.166C472.638 337.189 472.19 338.553 472.19 340.257C472.19 342.622 473.064 344.412 474.811 345.626C476.558 346.82 478.785 347.416 481.491 347.416ZM549.638 325.332V333.609H523.047V325.332H549.638ZM525.732 304.909V354H516.367V304.909H525.732ZM556.318 304.909V354H546.985V304.909H556.318ZM578.466 340.609L600.103 304.909H610.394V354H601.03V318.268L579.489 354H569.102V304.909H578.466V340.609ZM662.649 304.909V354H653.317V304.909H662.649ZM658.59 327.697V335.942C657.12 336.539 655.565 337.072 653.924 337.54C652.284 337.988 650.558 338.339 648.747 338.595C646.936 338.851 645.05 338.979 643.09 338.979C637.017 338.979 632.191 337.498 628.612 334.536C625.032 331.553 623.242 326.994 623.242 320.857V304.813H632.543V320.857C632.543 323.18 632.969 325.065 633.821 326.514C634.673 327.963 635.888 329.028 637.465 329.71C639.041 330.392 640.916 330.733 643.09 330.733C645.966 330.733 648.619 330.467 651.048 329.934C653.498 329.38 656.012 328.634 658.59 327.697ZM675.362 354V304.909H684.918V325.491H689.52L705.724 304.909H717.549L698.533 328.783L717.773 354H705.915L691.118 334.376H684.918V354H675.362ZM731.5 372.409C730.072 372.409 728.772 372.292 727.6 372.058C726.429 371.844 725.555 371.61 724.98 371.354L727.281 363.524C729.028 363.993 730.583 364.195 731.947 364.131C733.311 364.067 734.515 363.556 735.559 362.597C736.624 361.638 737.561 360.072 738.371 357.899L739.554 354.639L721.592 304.909H731.819L744.252 343.006H744.763L757.196 304.909H767.455L747.224 360.552C746.287 363.109 745.093 365.271 743.645 367.04C742.196 368.83 740.47 370.172 738.467 371.067C736.464 371.962 734.142 372.409 731.5 372.409ZM821.412 354.991C816.575 354.991 812.41 353.957 808.915 351.891C805.442 349.803 802.758 346.873 800.861 343.102C798.986 339.309 798.049 334.866 798.049 329.774C798.049 324.746 798.986 320.314 800.861 316.479C802.758 312.643 805.4 309.65 808.787 307.498C812.197 305.346 816.181 304.27 820.741 304.27C823.51 304.27 826.195 304.728 828.795 305.644C831.394 306.56 833.727 307.999 835.794 309.959C837.861 311.919 839.491 314.465 840.684 317.597C841.877 320.708 842.474 324.49 842.474 328.943V332.331H803.45V325.172H833.109C833.109 322.658 832.598 320.431 831.575 318.492C830.552 316.532 829.114 314.987 827.26 313.858C825.428 312.729 823.276 312.164 820.805 312.164C818.12 312.164 815.776 312.825 813.773 314.146C811.792 315.445 810.258 317.15 809.171 319.259C808.106 321.347 807.573 323.616 807.573 326.067V331.66C807.573 334.941 808.148 337.732 809.299 340.033C810.471 342.335 812.101 344.092 814.189 345.307C816.277 346.5 818.716 347.097 821.508 347.097C823.319 347.097 824.97 346.841 826.461 346.33C827.953 345.797 829.242 345.009 830.329 343.964C831.415 342.92 832.246 341.631 832.822 340.097L841.866 341.727C841.142 344.391 839.842 346.724 837.967 348.727C836.113 350.708 833.78 352.253 830.968 353.361C828.177 354.447 824.991 354.991 821.412 354.991ZM923.421 345.754L922.526 368.062H913.162V354H907.057V345.754H923.421ZM853.076 304.909H862.441V345.722H879.412V304.909H888.776V345.722H905.747V304.909H915.111V354H853.076V304.909ZM954.127 354.991C949.29 354.991 945.124 353.957 941.63 351.891C938.157 349.803 935.472 346.873 933.576 343.102C931.701 339.309 930.764 334.866 930.764 329.774C930.764 324.746 931.701 320.314 933.576 316.479C935.472 312.643 938.115 309.65 941.502 307.498C944.911 305.346 948.896 304.27 953.455 304.27C956.225 304.27 958.91 304.728 961.509 305.644C964.109 306.56 966.442 307.999 968.509 309.959C970.575 311.919 972.205 314.465 973.399 317.597C974.592 320.708 975.188 324.49 975.188 328.943V332.331H936.165V325.172H965.824C965.824 322.658 965.313 320.431 964.29 318.492C963.267 316.532 961.829 314.987 959.975 313.858C958.143 312.729 955.991 312.164 953.519 312.164C950.835 312.164 948.491 312.825 946.488 314.146C944.507 315.445 942.972 317.15 941.886 319.259C940.82 321.347 940.288 323.616 940.288 326.067V331.66C940.288 334.941 940.863 337.732 942.014 340.033C943.186 342.335 944.816 344.092 946.904 345.307C948.992 346.5 951.431 347.097 954.222 347.097C956.034 347.097 957.685 346.841 959.176 346.33C960.668 345.797 961.957 345.009 963.044 343.964C964.13 342.92 964.961 341.631 965.536 340.097L974.581 341.727C973.857 344.391 972.557 346.724 970.682 348.727C968.828 350.708 966.495 352.253 963.683 353.361C960.892 354.447 957.706 354.991 954.127 354.991ZM943.708 297.207C942.195 297.207 940.874 296.653 939.744 295.545C938.615 294.415 938.051 293.116 938.051 291.646C938.051 290.048 938.615 288.716 939.744 287.651C940.874 286.585 942.195 286.053 943.708 286.053C945.306 286.053 946.637 286.585 947.703 287.651C948.789 288.716 949.333 290.048 949.333 291.646C949.333 293.116 948.789 294.415 947.703 295.545C946.637 296.653 945.306 297.207 943.708 297.207ZM962.5 297.207C960.987 297.207 959.666 296.653 958.537 295.545C957.408 294.415 956.843 293.116 956.843 291.646C956.843 290.048 957.408 288.716 958.537 287.651C959.666 286.585 960.987 286.053 962.5 286.053C964.098 286.053 965.43 286.585 966.495 287.651C967.582 288.716 968.125 290.048 968.125 291.646C968.125 293.116 967.582 294.415 966.495 295.545C965.43 296.653 964.098 297.207 962.5 297.207ZM1042.88 325.332V333.609H1016.29V325.332H1042.88ZM1018.97 304.909V354H1009.61V304.909H1018.97ZM1049.56 304.909V354H1040.23V304.909H1049.56ZM1083.5 354.991C1078.66 354.991 1074.5 353.957 1071.01 351.891C1067.53 349.803 1064.85 346.873 1062.95 343.102C1061.08 339.309 1060.14 334.866 1060.14 329.774C1060.14 324.746 1061.08 320.314 1062.95 316.479C1064.85 312.643 1067.49 309.65 1070.88 307.498C1074.29 305.346 1078.27 304.27 1082.83 304.27C1085.6 304.27 1088.28 304.728 1090.88 305.644C1093.48 306.56 1095.82 307.999 1097.88 309.959C1099.95 311.919 1101.58 314.465 1102.77 317.597C1103.97 320.708 1104.56 324.49 1104.56 328.943V332.331H1065.54V325.172H1095.2C1095.2 322.658 1094.69 320.431 1093.66 318.492C1092.64 316.532 1091.2 314.987 1089.35 313.858C1087.52 312.729 1085.37 312.164 1082.89 312.164C1080.21 312.164 1077.87 312.825 1075.86 314.146C1073.88 315.445 1072.35 317.15 1071.26 319.259C1070.2 321.347 1069.66 323.616 1069.66 326.067V331.66C1069.66 334.941 1070.24 337.732 1071.39 340.033C1072.56 342.335 1074.19 344.092 1076.28 345.307C1078.37 346.5 1080.81 347.097 1083.6 347.097C1085.41 347.097 1087.06 346.841 1088.55 346.33C1090.04 345.797 1091.33 345.009 1092.42 343.964C1093.51 342.92 1094.34 341.631 1094.91 340.097L1103.96 341.727C1103.23 344.391 1101.93 346.724 1100.06 348.727C1098.2 350.708 1095.87 352.253 1093.06 353.361C1090.27 354.447 1087.08 354.991 1083.5 354.991ZM14.424 454V404.909H54.4702V454H45.1058V413.155H23.7244V454H14.424ZM67.2463 472.409V404.909H76.5787V412.867H77.3777C77.9316 411.844 78.7306 410.662 79.7747 409.32C80.8187 407.977 82.2676 406.805 84.1213 405.804C85.975 404.781 88.4253 404.27 91.4721 404.27C95.4352 404.27 98.9721 405.271 102.083 407.274C105.194 409.277 107.633 412.164 109.402 415.935C111.192 419.707 112.086 424.245 112.086 429.55C112.086 434.856 111.202 439.405 109.434 443.197C107.665 446.969 105.236 449.877 102.147 451.923C99.0574 453.947 95.5311 454.959 91.568 454.959C88.5851 454.959 86.1454 454.458 84.2491 453.457C82.3741 452.455 80.9039 451.283 79.8386 449.941C78.7733 448.599 77.9529 447.406 77.3777 446.362H76.8024V472.409H67.2463ZM76.6106 429.455C76.6106 432.906 77.1113 435.932 78.1127 438.531C79.1142 441.131 80.563 443.165 82.4593 444.636C84.3556 446.085 86.6781 446.809 89.4267 446.809C92.2818 446.809 94.6681 446.053 96.5858 444.54C98.5034 443.006 99.9522 440.928 100.932 438.308C101.934 435.687 102.434 432.736 102.434 429.455C102.434 426.216 101.944 423.308 100.964 420.729C100.006 418.151 98.5566 416.116 96.6177 414.625C94.7001 413.134 92.3031 412.388 89.4267 412.388C86.6568 412.388 84.313 413.102 82.3954 414.529C80.4991 415.957 79.0609 417.949 78.0808 420.506C77.1007 423.062 76.6106 426.045 76.6106 429.455ZM132.157 440.609L153.795 404.909H164.086V454H154.721V418.268L133.18 454H122.793V404.909H132.157V440.609ZM172.14 468.158V445.722H176.135C177.157 444.785 178.02 443.666 178.724 442.366C179.448 441.067 180.055 439.522 180.545 437.732C181.057 435.942 181.483 433.854 181.824 431.468C182.165 429.06 182.463 426.312 182.719 423.222L184.253 404.909H217.619V445.722H225.162V468.158H215.829V454H181.6V468.158H172.14ZM186.362 445.722H208.287V413.091H192.818L191.795 423.222C191.305 428.379 190.687 432.853 189.942 436.646C189.196 440.417 188.003 443.442 186.362 445.722ZM240.543 472.409C239.115 472.409 237.815 472.292 236.643 472.058C235.472 471.844 234.598 471.61 234.023 471.354L236.324 463.524C238.071 463.993 239.626 464.195 240.99 464.131C242.354 464.067 243.558 463.556 244.602 462.597C245.667 461.638 246.604 460.072 247.414 457.899L248.597 454.639L230.635 404.909H240.862L253.295 443.006H253.806L266.239 404.909H276.498L256.267 460.552C255.33 463.109 254.136 465.271 252.688 467.04C251.239 468.83 249.513 470.172 247.51 471.067C245.507 471.962 243.185 472.409 240.543 472.409ZM313.028 442.175L328.881 404.909H337.126L316.576 454H309.481L289.346 404.909H297.496L313.028 442.175ZM294.843 404.909V454H285.479V404.909H294.843ZM331.469 454V404.909H340.77V454H331.469ZM367.792 455.087C364.681 455.087 361.869 454.511 359.355 453.361C356.841 452.189 354.848 450.495 353.378 448.279C351.929 446.063 351.205 443.347 351.205 440.129C351.205 437.359 351.738 435.08 352.803 433.29C353.868 431.5 355.306 430.083 357.118 429.039C358.929 427.995 360.953 427.207 363.19 426.674C365.427 426.141 367.707 425.737 370.029 425.46C372.97 425.119 375.356 424.842 377.189 424.629C379.021 424.394 380.353 424.021 381.184 423.51C382.015 422.999 382.43 422.168 382.43 421.017V420.793C382.43 418.002 381.642 415.839 380.065 414.305C378.51 412.771 376.187 412.004 373.098 412.004C369.88 412.004 367.345 412.718 365.491 414.146C363.659 415.552 362.391 417.118 361.688 418.844L352.707 416.798C353.772 413.815 355.328 411.408 357.373 409.575C359.44 407.722 361.816 406.379 364.5 405.548C367.185 404.696 370.008 404.27 372.97 404.27C374.93 404.27 377.007 404.504 379.202 404.973C381.418 405.42 383.485 406.251 385.402 407.466C387.341 408.68 388.929 410.417 390.164 412.675C391.4 414.913 392.018 417.821 392.018 421.401V454H382.686V447.288H382.302C381.684 448.524 380.757 449.739 379.522 450.932C378.286 452.125 376.699 453.116 374.76 453.904C372.821 454.692 370.498 455.087 367.792 455.087ZM369.87 447.416C372.512 447.416 374.77 446.894 376.645 445.85C378.542 444.806 379.98 443.442 380.96 441.759C381.961 440.055 382.462 438.233 382.462 436.294V429.966C382.121 430.307 381.461 430.626 380.48 430.925C379.522 431.202 378.424 431.447 377.189 431.66C375.953 431.852 374.749 432.033 373.577 432.203C372.405 432.352 371.425 432.48 370.637 432.587C368.783 432.821 367.089 433.215 365.555 433.769C364.042 434.323 362.828 435.122 361.912 436.166C361.017 437.189 360.569 438.553 360.569 440.257C360.569 442.622 361.443 444.412 363.19 445.626C364.937 446.82 367.164 447.416 369.87 447.416ZM400.879 454L400.847 445.722H402.605C403.969 445.722 405.108 445.435 406.025 444.859C406.962 444.263 407.729 443.261 408.326 441.855C408.922 440.449 409.381 438.51 409.7 436.038C410.02 433.545 410.254 430.413 410.403 426.642L411.266 404.909H445.528V454H436.163V413.155H420.119L419.352 429.838C419.16 433.886 418.745 437.423 418.106 440.449C417.488 443.474 416.582 445.999 415.389 448.023C414.196 450.026 412.662 451.528 410.787 452.53C408.912 453.51 406.632 454 403.947 454H400.879ZM467.636 440.609L489.273 404.909H499.564V454H490.2V418.268L468.659 454H458.272V404.909H467.636V440.609Z" fill="#747474"/>
<rect x="562.5" y="413.5" width="565" height="122" rx="18.5" fill="black" stroke="black" stroke-width="3"/>
<path d="M722.759 493.628V483.722H724.462C725.034 483.266 725.568 482.624 726.066 481.795C726.563 480.967 726.985 479.832 727.333 478.39C727.681 476.948 727.922 475.084 728.054 472.797L728.725 462.033H744.995V483.722H747.829V493.603H743.404V487.488H727.184V493.628H722.759ZM729.832 483.722H740.57V465.899H732.877L732.479 472.797C732.371 474.529 732.197 476.078 731.957 477.445C731.717 478.812 731.414 480.018 731.05 481.062C730.685 482.098 730.279 482.984 729.832 483.722ZM756.88 487.873C755.67 487.873 754.581 487.658 753.611 487.227C752.65 486.788 751.888 486.141 751.324 485.288C750.769 484.434 750.492 483.382 750.492 482.131C750.492 481.054 750.69 480.163 751.088 479.459C751.486 478.754 752.029 478.191 752.716 477.768C753.404 477.346 754.179 477.027 755.041 476.811C755.911 476.588 756.81 476.426 757.738 476.327C758.856 476.211 759.764 476.107 760.46 476.016C761.156 475.916 761.661 475.767 761.976 475.568C762.299 475.361 762.461 475.042 762.461 474.611V474.537C762.461 473.601 762.183 472.876 761.628 472.362C761.073 471.848 760.273 471.591 759.229 471.591C758.127 471.591 757.253 471.831 756.607 472.312C755.969 472.793 755.538 473.36 755.314 474.015L751.113 473.418C751.444 472.258 751.991 471.289 752.754 470.51C753.516 469.723 754.448 469.134 755.55 468.745C756.652 468.347 757.87 468.148 759.204 468.148C760.124 468.148 761.04 468.256 761.951 468.472C762.863 468.687 763.695 469.043 764.449 469.54C765.203 470.029 765.808 470.696 766.264 471.541C766.728 472.387 766.96 473.443 766.96 474.711V487.488H762.635V484.865H762.486C762.212 485.396 761.827 485.893 761.33 486.357C760.841 486.813 760.223 487.181 759.478 487.463C758.74 487.736 757.874 487.873 756.88 487.873ZM758.048 484.567C758.952 484.567 759.735 484.389 760.398 484.033C761.06 483.668 761.57 483.187 761.926 482.591C762.291 481.994 762.473 481.344 762.473 480.639V478.39C762.332 478.506 762.092 478.614 761.752 478.713C761.421 478.812 761.048 478.899 760.634 478.974C760.219 479.049 759.809 479.115 759.403 479.173C758.997 479.231 758.645 479.281 758.347 479.322C757.676 479.413 757.075 479.562 756.545 479.769C756.014 479.977 755.596 480.267 755.289 480.639C754.983 481.004 754.829 481.476 754.829 482.056C754.829 482.885 755.132 483.511 755.737 483.933C756.342 484.356 757.112 484.567 758.048 484.567ZM771.484 487.488V468.397H779.501C781.763 468.397 783.549 468.849 784.858 469.752C786.175 470.655 786.834 471.914 786.834 473.53C786.834 474.599 786.461 475.473 785.715 476.153C784.978 476.824 783.971 477.275 782.695 477.507C783.698 477.59 784.576 477.843 785.33 478.266C786.092 478.688 786.689 479.243 787.12 479.931C787.551 480.619 787.766 481.41 787.766 482.305C787.766 483.357 787.489 484.273 786.933 485.052C786.386 485.822 785.587 486.423 784.535 486.854C783.491 487.277 782.223 487.488 780.731 487.488H771.484ZM775.698 483.946H780.731C781.56 483.946 782.21 483.751 782.683 483.361C783.155 482.964 783.391 482.425 783.391 481.746C783.391 480.958 783.155 480.341 782.683 479.894C782.21 479.438 781.56 479.21 780.731 479.21H775.698V483.946ZM775.698 476.302H779.588C780.201 476.302 780.727 476.215 781.166 476.041C781.605 475.858 781.941 475.606 782.173 475.283C782.405 474.951 782.521 474.558 782.521 474.102C782.521 473.447 782.252 472.934 781.713 472.561C781.183 472.188 780.445 472.001 779.501 472.001H775.698V476.302ZM796.973 487.873C795.763 487.873 794.674 487.658 793.704 487.227C792.743 486.788 791.981 486.141 791.417 485.288C790.862 484.434 790.584 483.382 790.584 482.131C790.584 481.054 790.783 480.163 791.181 479.459C791.579 478.754 792.121 478.191 792.809 477.768C793.497 477.346 794.272 477.027 795.133 476.811C796.003 476.588 796.902 476.426 797.83 476.327C798.949 476.211 799.856 476.107 800.552 476.016C801.248 475.916 801.754 475.767 802.069 475.568C802.392 475.361 802.553 475.042 802.553 474.611V474.537C802.553 473.601 802.276 472.876 801.721 472.362C801.166 471.848 800.366 471.591 799.322 471.591C798.22 471.591 797.346 471.831 796.699 472.312C796.061 472.793 795.631 473.36 795.407 474.015L791.206 473.418C791.537 472.258 792.084 471.289 792.846 470.51C793.609 469.723 794.541 469.134 795.643 468.745C796.745 468.347 797.963 468.148 799.297 468.148C800.217 468.148 801.132 468.256 802.044 468.472C802.955 468.687 803.788 469.043 804.542 469.54C805.296 470.029 805.901 470.696 806.357 471.541C806.821 472.387 807.053 473.443 807.053 474.711V487.488H802.727V484.865H802.578C802.305 485.396 801.92 485.893 801.422 486.357C800.934 486.813 800.316 487.181 799.571 487.463C798.833 487.736 797.967 487.873 796.973 487.873ZM798.141 484.567C799.044 484.567 799.827 484.389 800.49 484.033C801.153 483.668 801.663 483.187 802.019 482.591C802.384 481.994 802.566 481.344 802.566 480.639V478.39C802.425 478.506 802.185 478.614 801.845 478.713C801.514 478.812 801.141 478.899 800.726 478.974C800.312 479.049 799.902 479.115 799.496 479.173C799.09 479.231 798.738 479.281 798.439 479.322C797.768 479.413 797.168 479.562 796.637 479.769C796.107 479.977 795.689 480.267 795.382 480.639C795.075 481.004 794.922 481.476 794.922 482.056C794.922 482.885 795.225 483.511 795.829 483.933C796.434 484.356 797.205 484.567 798.141 484.567ZM815.915 481.398L823.558 468.397H828.182V487.488H823.832V474.475L816.213 487.488H811.577V468.397H815.915V481.398ZM822.328 461.834H825.696C825.696 463.284 825.17 464.461 824.118 465.364C823.074 466.259 821.657 466.707 819.867 466.707C818.094 466.707 816.681 466.259 815.629 465.364C814.585 464.461 814.067 463.284 814.075 461.834H817.419C817.419 462.431 817.601 462.965 817.965 463.438C818.338 463.902 818.972 464.134 819.867 464.134C820.745 464.134 821.371 463.902 821.744 463.438C822.125 462.974 822.32 462.439 822.328 461.834ZM864.428 474.761C864.428 477.503 863.914 479.852 862.887 481.808C861.868 483.755 860.476 485.246 858.711 486.282C856.954 487.318 854.961 487.836 852.732 487.836C850.503 487.836 848.507 487.318 846.742 486.282C844.985 485.238 843.593 483.743 842.565 481.795C841.546 479.84 841.037 477.495 841.037 474.761C841.037 472.018 841.546 469.673 842.565 467.726C843.593 465.77 844.985 464.275 846.742 463.239C848.507 462.203 850.503 461.685 852.732 461.685C854.961 461.685 856.954 462.203 858.711 463.239C860.476 464.275 861.868 465.77 862.887 467.726C863.914 469.673 864.428 472.018 864.428 474.761ZM859.792 474.761C859.792 472.83 859.49 471.202 858.885 469.876C858.288 468.542 857.46 467.535 856.399 466.856C855.338 466.168 854.116 465.824 852.732 465.824C851.349 465.824 850.126 466.168 849.066 466.856C848.005 467.535 847.172 468.542 846.568 469.876C845.971 471.202 845.673 472.83 845.673 474.761C845.673 476.691 845.971 478.324 846.568 479.658C847.172 480.983 848.005 481.99 849.066 482.678C850.126 483.357 851.349 483.697 852.732 483.697C854.116 483.697 855.338 483.357 856.399 482.678C857.46 481.99 858.288 480.983 858.885 479.658C859.49 478.324 859.792 476.691 859.792 474.761ZM883.889 461.337L885.455 464.246C884.9 464.726 884.278 465.074 883.59 465.29C882.903 465.505 882.095 465.646 881.167 465.712C880.247 465.77 879.153 465.812 877.886 465.837C876.46 465.87 875.296 466.139 874.393 466.644C873.49 467.15 872.798 467.916 872.317 468.944C871.837 469.963 871.522 471.264 871.373 472.847H871.584C872.181 471.678 873.018 470.787 874.095 470.174C875.172 469.561 876.435 469.255 877.886 469.255C879.468 469.255 880.864 469.611 882.074 470.323C883.292 471.028 884.241 472.051 884.92 473.393C885.608 474.736 885.952 476.36 885.952 478.266C885.952 480.229 885.583 481.932 884.846 483.374C884.108 484.807 883.06 485.914 881.701 486.692C880.351 487.471 878.747 487.861 876.891 487.861C875.043 487.861 873.436 487.459 872.069 486.655C870.71 485.843 869.658 484.646 868.912 483.063C868.174 481.472 867.806 479.513 867.806 477.184V475.469C867.806 470.978 868.643 467.626 870.316 465.414C871.99 463.202 874.472 462.075 877.761 462.033C878.739 462.017 879.613 462.013 880.384 462.021C881.163 462.029 881.842 461.992 882.422 461.909C883.002 461.826 883.491 461.636 883.889 461.337ZM876.916 484.256C877.836 484.256 878.631 484.02 879.302 483.548C879.974 483.067 880.487 482.388 880.844 481.51C881.208 480.631 881.39 479.591 881.39 478.39C881.39 477.205 881.208 476.198 880.844 475.37C880.479 474.533 879.961 473.895 879.29 473.456C878.619 473.016 877.819 472.797 876.891 472.797C876.195 472.797 875.57 472.921 875.014 473.17C874.459 473.418 873.987 473.783 873.598 474.263C873.208 474.744 872.91 475.328 872.703 476.016C872.495 476.704 872.384 477.495 872.367 478.39C872.367 480.188 872.773 481.617 873.585 482.678C874.397 483.73 875.507 484.256 876.916 484.256ZM889.78 494.647V468.397H894.205V471.554H894.466C894.698 471.09 895.025 470.597 895.448 470.075C895.87 469.545 896.442 469.093 897.163 468.72C897.884 468.339 898.803 468.148 899.922 468.148C901.397 468.148 902.727 468.525 903.912 469.279C905.105 470.025 906.05 471.131 906.746 472.598C907.45 474.056 907.802 475.846 907.802 477.967C907.802 480.064 907.458 481.845 906.77 483.312C906.083 484.778 905.146 485.897 903.962 486.668C902.777 487.438 901.434 487.823 899.935 487.823C898.841 487.823 897.933 487.641 897.213 487.277C896.492 486.912 895.912 486.473 895.473 485.959C895.042 485.437 894.706 484.944 894.466 484.48H894.279V494.647H889.78ZM894.192 477.942C894.192 479.177 894.366 480.258 894.714 481.186C895.071 482.114 895.58 482.839 896.243 483.361C896.914 483.875 897.726 484.132 898.679 484.132C899.674 484.132 900.506 483.867 901.177 483.337C901.849 482.798 902.354 482.065 902.694 481.137C903.042 480.2 903.216 479.136 903.216 477.942C903.216 476.758 903.046 475.705 902.706 474.785C902.366 473.866 901.861 473.145 901.19 472.623C900.519 472.101 899.682 471.84 898.679 471.84C897.718 471.84 896.902 472.092 896.231 472.598C895.56 473.103 895.05 473.812 894.702 474.723C894.362 475.635 894.192 476.708 894.192 477.942ZM917.149 487.873C915.939 487.873 914.849 487.658 913.88 487.227C912.919 486.788 912.156 486.141 911.593 485.288C911.038 484.434 910.76 483.382 910.76 482.131C910.76 481.054 910.959 480.163 911.357 479.459C911.754 478.754 912.297 478.191 912.985 477.768C913.673 477.346 914.447 477.027 915.309 476.811C916.179 476.588 917.078 476.426 918.006 476.327C919.125 476.211 920.032 476.107 920.728 476.016C921.424 475.916 921.93 475.767 922.245 475.568C922.568 475.361 922.729 475.042 922.729 474.611V474.537C922.729 473.601 922.452 472.876 921.897 472.362C921.341 471.848 920.542 471.591 919.498 471.591C918.396 471.591 917.522 471.831 916.875 472.312C916.237 472.793 915.806 473.36 915.583 474.015L911.382 473.418C911.713 472.258 912.26 471.289 913.022 470.51C913.785 469.723 914.717 469.134 915.819 468.745C916.921 468.347 918.139 468.148 919.473 468.148C920.393 468.148 921.308 468.256 922.22 468.472C923.131 468.687 923.964 469.043 924.718 469.54C925.472 470.029 926.077 470.696 926.533 471.541C926.997 472.387 927.229 473.443 927.229 474.711V487.488H922.903V484.865H922.754C922.481 485.396 922.095 485.893 921.598 486.357C921.109 486.813 920.492 487.181 919.746 487.463C919.009 487.736 918.143 487.873 917.149 487.873ZM918.317 484.567C919.22 484.567 920.003 484.389 920.666 484.033C921.329 483.668 921.839 483.187 922.195 482.591C922.559 481.994 922.742 481.344 922.742 480.639V478.39C922.601 478.506 922.361 478.614 922.021 478.713C921.689 478.812 921.317 478.899 920.902 478.974C920.488 479.049 920.078 479.115 919.672 479.173C919.266 479.231 918.914 479.281 918.615 479.322C917.944 479.413 917.343 479.562 916.813 479.769C916.283 479.977 915.864 480.267 915.558 480.639C915.251 481.004 915.098 481.476 915.098 482.056C915.098 482.885 915.4 483.511 916.005 483.933C916.61 484.356 917.381 484.567 918.317 484.567ZM929.615 472.088V468.397H946.319V472.088H940.142V487.488H935.792V472.088H929.615ZM957.443 487.861C955.579 487.861 953.963 487.451 952.596 486.63C951.229 485.81 950.168 484.662 949.414 483.187C948.669 481.713 948.296 479.989 948.296 478.017C948.296 476.045 948.669 474.317 949.414 472.834C950.168 471.351 951.229 470.199 952.596 469.379C953.963 468.559 955.579 468.148 957.443 468.148C959.308 468.148 960.924 468.559 962.291 469.379C963.658 470.199 964.714 471.351 965.46 472.834C966.214 474.317 966.591 476.045 966.591 478.017C966.591 479.989 966.214 481.713 965.46 483.187C964.714 484.662 963.658 485.81 962.291 486.63C960.924 487.451 959.308 487.861 957.443 487.861ZM957.468 484.256C958.479 484.256 959.324 483.979 960.004 483.424C960.683 482.86 961.189 482.106 961.52 481.162C961.86 480.217 962.03 479.165 962.03 478.005C962.03 476.836 961.86 475.78 961.52 474.835C961.189 473.882 960.683 473.124 960.004 472.561C959.324 471.997 958.479 471.715 957.468 471.715C956.433 471.715 955.571 471.997 954.883 472.561C954.204 473.124 953.694 473.882 953.354 474.835C953.023 475.78 952.857 476.836 952.857 478.005C952.857 479.165 953.023 480.217 953.354 481.162C953.694 482.106 954.204 482.86 954.883 483.424C955.571 483.979 956.433 484.256 957.468 484.256Z" fill="white"/>
<path d="M1005.78 124C1005.78 128.418 1002.24 132 997.888 132C993.532 132 990 128.418 990 124C990 119.582 993.532 116 997.888 116C1002.24 116 1005.78 119.582 1005.78 124Z" fill="black"/>
<path d="M965.777 121C965.777 125.418 962.245 129 957.888 129C953.532 129 950 125.418 950 121C950 116.582 953.532 113 957.888 113C962.245 113 965.777 116.582 965.777 121Z" fill="black"/>
<path d="M966.535 164.017C978.605 164.782 988.669 172.274 993.409 182.667L983.875 182.062C979.846 176.398 973.44 172.542 966.025 172.072C958.609 171.602 951.768 174.618 947.056 179.728L937.521 179.123C943.536 169.412 954.466 163.252 966.535 164.017Z" fill="black"/>
<path d="M1066.78 15.7216C1068.56 13.3533 1072.28 14.6382 1072.23 17.604L1071.65 48.0931C1071.63 49.069 1072.07 49.9919 1072.84 50.5794L1096.76 68.9342C1099.09 70.7197 1097.78 74.4926 1094.85 74.4614L1064.7 74.1412C1063.73 74.131 1062.82 74.585 1062.23 75.3643L1043.87 99.7115C1042.08 102.08 1038.36 100.795 1038.42 97.8292L1039 67.3401C1039.02 66.3641 1038.57 65.4413 1037.81 64.8537L1013.89 46.4989C1011.56 44.7135 1012.86 40.9406 1015.8 40.9717L1045.95 41.2919C1046.91 41.3022 1047.83 40.8482 1048.42 40.0689L1066.78 15.7216Z" fill="black"/>
<path d="M1064.78 14.2159C1068.03 9.91313 1074.83 12.2627 1074.73 17.6511L1074.15 48.1406C1074.15 48.3335 1074.23 48.4979 1074.36 48.5957L1098.28 66.9506C1102.51 70.1983 1100.16 77.0173 1094.82 76.9611L1064.67 76.6409C1064.51 76.6392 1064.34 76.7158 1064.23 76.8699L1045.87 101.216C1042.62 105.52 1035.82 103.17 1035.92 97.7813L1036.5 67.2929C1036.5 67.1001 1036.41 66.9348 1036.29 66.837L1012.37 48.4821C1008.13 45.2343 1010.49 38.4149 1015.82 38.4715L1045.97 38.7917C1046.13 38.7933 1046.3 38.7176 1046.42 38.5637L1064.78 14.2159Z" stroke="#F9F9F9" stroke-width="5"/>
</svg>
