<svg width="1422" height="553" viewBox="0 0 1422 553" fill="none" xmlns="http://www.w3.org/2000/svg">
<mask id="mask0_14_813" style="mask-type:alpha" maskUnits="userSpaceOnUse" x="0" y="0" width="533" height="553">
<rect x="6.10352e-05" width="533" height="553" fill="white"/>
</mask>
<g mask="url(#mask0_14_813)">
<path d="M497.939 132.476L446.379 141.056L446.379 123.897L497.939 132.476Z" fill="black"/>
<path d="M444.47 187.952L436.201 134.457L452.738 134.457L444.47 187.952Z" fill="black"/>
<path d="M391 132.476L442.56 123.897L442.56 141.056L391 132.476Z" fill="black"/>
<path d="M444.47 77L452.739 130.495L436.201 130.495L444.47 77Z" fill="black"/>
<rect x="440.65" y="126.532" width="7.63855" height="11.8878" fill="black"/>
<path d="M252.749 237.53C252.176 237.53 251.653 237.39 251.18 237.111C250.706 236.827 250.327 236.448 250.043 235.974C249.764 235.501 249.624 234.978 249.624 234.405C249.624 233.827 249.764 233.304 250.043 232.835C250.327 232.362 250.706 231.985 251.18 231.706C251.653 231.422 252.176 231.28 252.749 231.28C253.327 231.28 253.85 231.422 254.319 231.706C254.792 231.985 255.169 232.362 255.448 232.835C255.732 233.304 255.874 233.827 255.874 234.405C255.874 234.978 255.732 235.501 255.448 235.974C255.169 236.448 254.792 236.827 254.319 237.111C253.85 237.39 253.327 237.53 252.749 237.53ZM266.499 244.916C265.211 244.916 264.108 244.793 263.189 244.547C262.271 244.305 261.485 243.972 260.832 243.545C260.178 243.124 259.605 242.643 259.113 242.104L260.192 241.337C260.846 241.791 261.67 242.175 262.664 242.487C263.658 242.8 264.937 242.956 266.499 242.956C267.541 242.956 268.466 242.88 269.276 242.729C270.091 242.577 270.803 242.378 271.414 242.132C272.029 241.886 272.56 241.621 273.005 241.337L273.914 242.104C273.516 242.605 272.984 243.07 272.316 243.496C271.653 243.922 270.839 244.265 269.873 244.525C268.912 244.786 267.787 244.916 266.499 244.916ZM280.249 237.53C279.676 237.53 279.153 237.39 278.68 237.111C278.206 236.827 277.827 236.448 277.543 235.974C277.264 235.501 277.124 234.978 277.124 234.405C277.124 233.827 277.264 233.304 277.543 232.835C277.827 232.362 278.206 231.985 278.68 231.706C279.153 231.422 279.676 231.28 280.249 231.28C280.827 231.28 281.35 231.422 281.819 231.706C282.292 231.985 282.669 232.362 282.948 232.835C283.232 233.304 283.374 233.827 283.374 234.405C283.374 234.978 283.232 235.501 282.948 235.974C282.669 236.448 282.292 236.827 281.819 237.111C281.35 237.39 280.827 237.53 280.249 237.53Z" fill="black"/>
<mask id="mask1_14_813" style="mask-type:alpha" maskUnits="userSpaceOnUse" x="71" y="119" width="391" height="370">
<rect x="71.0658" y="119.817" width="390.867" height="368.667" fill="#D9D9D9"/>
</mask>
<g mask="url(#mask1_14_813)">
<path d="M121.066 123.817L411.933 123.817C437.338 123.817 457.933 144.412 457.933 169.817L457.933 502.917L75.0664 502.917L75.0664 169.817C75.0665 144.412 95.6614 123.817 121.066 123.817Z" stroke="black" stroke-width="8"/>
</g>
</g>
<mask id="mask2_14_813" style="mask-type:alpha" maskUnits="userSpaceOnUse" x="447" y="0" width="533" height="553">
<rect x="447" width="533" height="553" fill="white"/>
</mask>
<g mask="url(#mask2_14_813)">
<path d="M767.94 130.476L716.38 139.056L716.38 121.897L767.94 130.476Z" fill="black"/>
<path d="M714.47 185.952L706.201 132.457L722.739 132.457L714.47 185.952Z" fill="black"/>
<path d="M661 130.476L712.56 121.897L712.56 139.056L661 130.476Z" fill="black"/>
<path d="M714.47 75L722.739 128.495L706.201 128.495L714.47 75Z" fill="black"/>
<rect x="710.651" y="124.532" width="7.63855" height="11.8878" fill="black"/>
<path d="M699.749 237.531C699.176 237.531 698.652 237.391 698.179 237.112C697.705 236.828 697.327 236.449 697.043 235.975C696.763 235.502 696.624 234.979 696.624 234.406C696.624 233.828 696.763 233.305 697.043 232.836C697.327 232.363 697.705 231.986 698.179 231.707C698.652 231.423 699.176 231.281 699.749 231.281C700.326 231.281 700.849 231.423 701.318 231.707C701.792 231.986 702.168 232.363 702.447 232.836C702.731 233.305 702.874 233.828 702.874 234.406C702.874 234.979 702.731 235.502 702.447 235.975C702.168 236.449 701.792 236.828 701.318 237.112C700.849 237.391 700.326 237.531 699.749 237.531ZM713.499 244.917C712.211 244.917 711.107 244.794 710.189 244.548C709.27 244.306 708.484 243.972 707.831 243.546C707.177 243.125 706.605 242.644 706.112 242.105L707.192 241.338C707.845 241.792 708.669 242.176 709.663 242.488C710.658 242.801 711.936 242.957 713.499 242.957C714.54 242.957 715.466 242.881 716.276 242.73C717.09 242.578 717.802 242.379 718.413 242.133C719.029 241.887 719.559 241.622 720.004 241.338L720.913 242.105C720.516 242.606 719.983 243.07 719.315 243.497C718.652 243.923 717.838 244.266 716.872 244.526C715.911 244.787 714.786 244.917 713.499 244.917ZM727.249 237.531C726.676 237.531 726.152 237.391 725.679 237.112C725.205 236.828 724.827 236.449 724.543 235.975C724.263 235.502 724.124 234.979 724.124 234.406C724.124 233.828 724.263 233.305 724.543 232.836C724.827 232.363 725.205 231.986 725.679 231.707C726.152 231.423 726.676 231.281 727.249 231.281C727.826 231.281 728.349 231.423 728.818 231.707C729.292 231.986 729.668 232.363 729.947 232.836C730.231 233.305 730.374 233.828 730.374 234.406C730.374 234.979 730.231 235.502 729.947 235.975C729.668 236.449 729.292 236.828 728.818 237.112C728.349 237.391 727.826 237.531 727.249 237.531Z" fill="black"/>
<mask id="mask3_14_813" style="mask-type:alpha" maskUnits="userSpaceOnUse" x="518" y="119" width="391" height="370">
<rect x="518.065" y="119.817" width="390.867" height="368.667" fill="#D9D9D9"/>
</mask>
<g mask="url(#mask3_14_813)">
<path d="M902.432 502.917L524.566 502.917L713.499 128.692L902.432 502.917Z" stroke="black" stroke-width="8"/>
</g>
</g>
<mask id="mask4_14_813" style="mask-type:alpha" maskUnits="userSpaceOnUse" x="889" y="0" width="533" height="553">
<rect x="889" width="533" height="553" fill="white"/>
</mask>
<g mask="url(#mask4_14_813)">
<path d="M1316.94 152.476L1265.38 161.056L1265.38 143.897L1316.94 152.476Z" fill="black"/>
<path d="M1263.47 207.952L1255.2 154.457L1271.74 154.457L1263.47 207.952Z" fill="black"/>
<path d="M1210 152.476L1261.56 143.897L1261.56 161.056L1210 152.476Z" fill="black"/>
<path d="M1263.47 97L1271.74 150.495L1255.2 150.495L1263.47 97Z" fill="black"/>
<rect x="1259.65" y="146.532" width="7.63855" height="11.8878" fill="black"/>
<path d="M1141.75 237.53C1141.18 237.53 1140.65 237.39 1140.18 237.111C1139.71 236.827 1139.33 236.448 1139.04 235.974C1138.76 235.501 1138.62 234.978 1138.62 234.405C1138.62 233.827 1138.76 233.304 1139.04 232.835C1139.33 232.362 1139.71 231.985 1140.18 231.706C1140.65 231.422 1141.18 231.28 1141.75 231.28C1142.33 231.28 1142.85 231.422 1143.32 231.706C1143.79 231.985 1144.17 232.362 1144.45 232.835C1144.73 233.304 1144.87 233.827 1144.87 234.405C1144.87 234.978 1144.73 235.501 1144.45 235.974C1144.17 236.448 1143.79 236.827 1143.32 237.111C1142.85 237.39 1142.33 237.53 1141.75 237.53ZM1155.5 244.916C1154.21 244.916 1153.11 244.793 1152.19 244.547C1151.27 244.305 1150.48 243.972 1149.83 243.545C1149.18 243.124 1148.61 242.643 1148.11 242.104L1149.19 241.337C1149.85 241.791 1150.67 242.175 1151.66 242.487C1152.66 242.8 1153.94 242.956 1155.5 242.956C1156.54 242.956 1157.47 242.88 1158.28 242.729C1159.09 242.577 1159.8 242.378 1160.41 242.132C1161.03 241.886 1161.56 241.621 1162 241.337L1162.91 242.104C1162.52 242.605 1161.98 243.07 1161.32 243.496C1160.65 243.922 1159.84 244.265 1158.87 244.525C1157.91 244.786 1156.79 244.916 1155.5 244.916ZM1169.25 237.53C1168.68 237.53 1168.15 237.39 1167.68 237.111C1167.21 236.827 1166.83 236.448 1166.54 235.974C1166.26 235.501 1166.12 234.978 1166.12 234.405C1166.12 233.827 1166.26 233.304 1166.54 232.835C1166.83 232.362 1167.21 231.985 1167.68 231.706C1168.15 231.422 1168.68 231.28 1169.25 231.28C1169.83 231.28 1170.35 231.422 1170.82 231.706C1171.29 231.985 1171.67 232.362 1171.95 232.835C1172.23 233.304 1172.37 233.827 1172.37 234.405C1172.37 234.978 1172.23 235.501 1171.95 235.974C1171.67 236.448 1171.29 236.827 1170.82 237.111C1170.35 237.39 1169.83 237.53 1169.25 237.53Z" fill="black"/>
<mask id="mask5_14_813" style="mask-type:alpha" maskUnits="userSpaceOnUse" x="960" y="119" width="391" height="370">
<rect x="960.066" y="119.817" width="390.867" height="368.667" fill="#D9D9D9"/>
</mask>
<g mask="url(#mask5_14_813)">
<path d="M1155.5 123.817C1261.23 123.817 1346.93 209.525 1346.93 315.25L1346.93 502.917L964.067 502.917L964.067 315.25C964.067 209.525 1049.77 123.817 1155.5 123.817Z" stroke="black" stroke-width="8"/>
</g>
</g>
</svg>
