<svg width="1249" height="327" viewBox="0 0 1249 327" fill="none" xmlns="http://www.w3.org/2000/svg">
<path d="M19.5653 19.4119V24.9517H0.21875V19.4119H19.5653ZM44.4464 44V0.363635H51.0302V19.3267H72.7844V0.363635H79.3896V44H72.7844V24.973H51.0302V44H44.4464ZM102.571 44.6605C99.3469 44.6605 96.57 43.9716 94.2404 42.5938C91.9251 41.2017 90.1353 39.2486 88.8711 36.7344C87.6211 34.206 86.9961 31.2443 86.9961 27.8494C86.9961 24.4972 87.6211 21.5426 88.8711 18.9858C90.1353 16.429 91.8967 14.4332 94.1552 12.9986C96.4279 11.5639 99.0842 10.8466 102.124 10.8466C103.971 10.8466 105.76 11.152 107.493 11.7628C109.226 12.3736 110.782 13.3324 112.159 14.6392C113.537 15.946 114.624 17.6435 115.419 19.7315C116.215 21.8054 116.613 24.3267 116.613 27.2955V29.554H90.5969V24.7812H110.37C110.37 23.1051 110.029 21.6207 109.347 20.3281C108.665 19.0213 107.706 17.9915 106.471 17.2386C105.249 16.4858 103.814 16.1094 102.167 16.1094C100.377 16.1094 98.8143 16.5497 97.479 17.4304C96.158 18.2969 95.1353 19.4332 94.4109 20.8395C93.7006 22.2315 93.3455 23.7443 93.3455 25.3778V29.1065C93.3455 31.294 93.729 33.1548 94.4961 34.6889C95.2773 36.223 96.364 37.3949 97.756 38.2045C99.1481 39 100.775 39.3977 102.635 39.3977C103.843 39.3977 104.944 39.2273 105.938 38.8864C106.932 38.5312 107.792 38.0057 108.516 37.3097C109.24 36.6136 109.794 35.7543 110.178 34.7315L116.208 35.8182C115.725 37.5937 114.858 39.1491 113.608 40.4844C112.373 41.8054 110.817 42.8352 108.942 43.5739C107.081 44.2983 104.958 44.6605 102.571 44.6605ZM123.681 44V11.2727H137.254C140.947 11.2727 143.873 12.0611 146.032 13.6378C148.191 15.2003 149.271 17.3239 149.271 20.0085C149.271 21.9261 148.66 23.446 147.438 24.5682C146.217 25.6903 144.597 26.4432 142.58 26.8267C144.043 26.9972 145.386 27.4375 146.607 28.1477C147.829 28.8437 148.809 29.7812 149.548 30.9602C150.3 32.1392 150.677 33.5455 150.677 35.179C150.677 36.9119 150.229 38.446 149.335 39.7812C148.44 41.1023 147.14 42.1392 145.435 42.892C143.745 43.6307 141.707 44 139.32 44H123.681ZM129.668 38.6733H139.32C140.897 38.6733 142.133 38.2969 143.028 37.544C143.923 36.7912 144.37 35.7685 144.37 34.4759C144.37 32.956 143.923 31.7628 143.028 30.8963C142.133 30.0156 140.897 29.5753 139.32 29.5753H129.668V38.6733ZM129.668 24.9091H137.317C138.511 24.9091 139.533 24.7386 140.386 24.3977C141.252 24.0568 141.913 23.5739 142.367 22.9489C142.836 22.3097 143.07 21.5568 143.07 20.6903C143.07 19.4261 142.552 18.4389 141.515 17.7287C140.478 17.0185 139.058 16.6634 137.254 16.6634H129.668V24.9091ZM167.19 44.7244C165.116 44.7244 163.241 44.3409 161.565 43.5739C159.888 42.7926 158.56 41.6634 157.58 40.1861C156.614 38.7088 156.131 36.8977 156.131 34.7528C156.131 32.9062 156.487 31.3864 157.197 30.1932C157.907 29 158.866 28.0554 160.073 27.3594C161.281 26.6634 162.63 26.1378 164.121 25.7827C165.613 25.4276 167.133 25.1577 168.681 24.973C170.641 24.7457 172.232 24.5611 173.454 24.419C174.675 24.2628 175.563 24.0142 176.117 23.6733C176.671 23.3324 176.948 22.7784 176.948 22.0114V21.8622C176.948 20.0014 176.423 18.5597 175.371 17.5369C174.335 16.5142 172.786 16.0028 170.727 16.0028C168.582 16.0028 166.891 16.4787 165.656 17.4304C164.434 18.3679 163.589 19.4119 163.12 20.5625L157.133 19.1989C157.843 17.2102 158.88 15.6051 160.244 14.3835C161.621 13.1477 163.205 12.2528 164.995 11.6989C166.785 11.1307 168.667 10.8466 170.641 10.8466C171.948 10.8466 173.333 11.0028 174.796 11.3153C176.273 11.6136 177.651 12.1676 178.93 12.9773C180.222 13.7869 181.281 14.9446 182.104 16.4503C182.928 17.9418 183.34 19.8807 183.34 22.267V44H177.119V39.5256H176.863C176.451 40.3494 175.833 41.1591 175.009 41.9545C174.185 42.75 173.127 43.4105 171.835 43.9361C170.542 44.4616 168.994 44.7244 167.19 44.7244ZM168.575 39.6108C170.336 39.6108 171.842 39.2628 173.092 38.5668C174.356 37.8707 175.315 36.9616 175.968 35.8395C176.636 34.7031 176.969 33.4886 176.969 32.196V27.9773C176.742 28.2045 176.302 28.4176 175.648 28.6165C175.009 28.8011 174.278 28.9645 173.454 29.1065C172.63 29.2344 171.827 29.3551 171.046 29.4688C170.265 29.5682 169.612 29.6534 169.086 29.7244C167.85 29.8807 166.721 30.1435 165.698 30.5128C164.69 30.8821 163.88 31.4148 163.269 32.1108C162.673 32.7926 162.374 33.7017 162.374 34.8381C162.374 36.4148 162.957 37.608 164.121 38.4176C165.286 39.2131 166.771 39.6108 168.575 39.6108ZM189.738 44L202.415 27.2528L189.887 11.2727H197.301L207.422 24.8665H209.702V11.2727H216.073V24.8665H218.289L228.409 11.2727H235.824L223.36 27.2528L235.973 44H228.409L218.203 30.3636H216.073V44H209.702V30.3636H207.571L197.301 44H189.738ZM264.631 24.8878V30.4062H246.904V24.8878H264.631ZM248.694 11.2727V44H242.451V11.2727H248.694ZM269.084 11.2727V44H262.863V11.2727H269.084ZM291.392 44.6605C288.324 44.6605 285.647 43.9574 283.36 42.5511C281.073 41.1449 279.297 39.1776 278.033 36.6491C276.769 34.1207 276.137 31.1662 276.137 27.7855C276.137 24.3906 276.769 21.4219 278.033 18.8793C279.297 16.3366 281.073 14.3622 283.36 12.956C285.647 11.5497 288.324 10.8466 291.392 10.8466C294.461 10.8466 297.138 11.5497 299.425 12.956C301.712 14.3622 303.488 16.3366 304.752 18.8793C306.016 21.4219 306.648 24.3906 306.648 27.7855C306.648 31.1662 306.016 34.1207 304.752 36.6491C303.488 39.1776 301.712 41.1449 299.425 42.5511C297.138 43.9574 294.461 44.6605 291.392 44.6605ZM291.414 39.3125C293.402 39.3125 295.05 38.7869 296.357 37.7358C297.664 36.6847 298.63 35.2855 299.255 33.5384C299.894 31.7912 300.213 29.8665 300.213 27.7642C300.213 25.6761 299.894 23.7585 299.255 22.0114C298.63 20.25 297.664 18.8366 296.357 17.7713C295.05 16.706 293.402 16.1733 291.414 16.1733C289.411 16.1733 287.749 16.706 286.428 17.7713C285.121 18.8366 284.148 20.25 283.509 22.0114C282.884 23.7585 282.571 25.6761 282.571 27.7642C282.571 29.8665 282.884 31.7912 283.509 33.5384C284.148 35.2855 285.121 36.6847 286.428 37.7358C287.749 38.7869 289.411 39.3125 291.414 39.3125ZM329.638 44V11.2727H336.009V24.9943H339.077L349.88 11.2727H357.763L345.086 27.1889L357.912 44H350.007L340.142 30.9176H336.009V44H329.638ZM372.385 44.7244C370.311 44.7244 368.436 44.3409 366.76 43.5739C365.084 42.7926 363.756 41.6634 362.776 40.1861C361.81 38.7088 361.327 36.8977 361.327 34.7528C361.327 32.9062 361.682 31.3864 362.392 30.1932C363.102 29 364.061 28.0554 365.268 27.3594C366.476 26.6634 367.825 26.1378 369.317 25.7827C370.808 25.4276 372.328 25.1577 373.876 24.973C375.837 24.7457 377.428 24.5611 378.649 24.419C379.871 24.2628 380.759 24.0142 381.312 23.6733C381.866 23.3324 382.143 22.7784 382.143 22.0114V21.8622C382.143 20.0014 381.618 18.5597 380.567 17.5369C379.53 16.5142 377.982 16.0028 375.922 16.0028C373.777 16.0028 372.087 16.4787 370.851 17.4304C369.629 18.3679 368.784 19.4119 368.315 20.5625L362.328 19.1989C363.038 17.2102 364.075 15.6051 365.439 14.3835C366.817 13.1477 368.401 12.2528 370.19 11.6989C371.98 11.1307 373.862 10.8466 375.837 10.8466C377.143 10.8466 378.528 11.0028 379.991 11.3153C381.469 11.6136 382.847 12.1676 384.125 12.9773C385.418 13.7869 386.476 14.9446 387.3 16.4503C388.124 17.9418 388.536 19.8807 388.536 22.267V44H382.314V39.5256H382.058C381.646 40.3494 381.028 41.1591 380.205 41.9545C379.381 42.75 378.322 43.4105 377.03 43.9361C375.737 44.4616 374.189 44.7244 372.385 44.7244ZM373.77 39.6108C375.531 39.6108 377.037 39.2628 378.287 38.5668C379.551 37.8707 380.51 36.9616 381.163 35.8395C381.831 34.7031 382.165 33.4886 382.165 32.196V27.9773C381.938 28.2045 381.497 28.4176 380.844 28.6165C380.205 28.8011 379.473 28.9645 378.649 29.1065C377.825 29.2344 377.023 29.3551 376.241 29.4688C375.46 29.5682 374.807 29.6534 374.281 29.7244C373.045 29.8807 371.916 30.1435 370.893 30.5128C369.885 30.8821 369.075 31.4148 368.464 32.1108C367.868 32.7926 367.57 33.7017 367.57 34.8381C367.57 36.4148 368.152 37.608 369.317 38.4176C370.482 39.2131 371.966 39.6108 373.77 39.6108ZM397.021 44V11.2727H403.392V24.9943H406.46L417.262 11.2727H425.146L412.468 27.1889L425.295 44H417.39L407.525 30.9176H403.392V44H397.021ZM442.681 44.6605C439.613 44.6605 436.936 43.9574 434.649 42.5511C432.362 41.1449 430.586 39.1776 429.322 36.6491C428.058 34.1207 427.426 31.1662 427.426 27.7855C427.426 24.3906 428.058 21.4219 429.322 18.8793C430.586 16.3366 432.362 14.3622 434.649 12.956C436.936 11.5497 439.613 10.8466 442.681 10.8466C445.75 10.8466 448.427 11.5497 450.714 12.956C453.001 14.3622 454.777 16.3366 456.041 18.8793C457.305 21.4219 457.937 24.3906 457.937 27.7855C457.937 31.1662 457.305 34.1207 456.041 36.6491C454.777 39.1776 453.001 41.1449 450.714 42.5511C448.427 43.9574 445.75 44.6605 442.681 44.6605ZM442.703 39.3125C444.691 39.3125 446.339 38.7869 447.646 37.7358C448.953 36.6847 449.919 35.2855 450.544 33.5384C451.183 31.7912 451.502 29.8665 451.502 27.7642C451.502 25.6761 451.183 23.7585 450.544 22.0114C449.919 20.25 448.953 18.8366 447.646 17.7713C446.339 16.706 444.691 16.1733 442.703 16.1733C440.7 16.1733 439.038 16.706 437.717 17.7713C436.41 18.8366 435.437 20.25 434.798 22.0114C434.173 23.7585 433.86 25.6761 433.86 27.7642C433.86 29.8665 434.173 31.7912 434.798 33.5384C435.437 35.2855 436.41 36.6847 437.717 37.7358C439.038 38.7869 440.7 39.3125 442.703 39.3125ZM471.291 35.0724L485.716 11.2727H492.577V44H486.334V20.179L471.973 44H465.048V11.2727H471.291V35.0724ZM482.989 0.193179H488.23C488.23 2.59375 487.378 4.54687 485.673 6.05256C483.983 7.54403 481.696 8.28977 478.812 8.28977C475.943 8.28977 473.663 7.54403 471.973 6.05256C470.283 4.54687 469.438 2.59375 469.438 0.193179H474.658C474.658 1.25852 474.97 2.20312 475.595 3.02699C476.22 3.83665 477.293 4.24148 478.812 4.24148C480.304 4.24148 481.369 3.83665 482.009 3.02699C482.662 2.21733 482.989 1.27273 482.989 0.193179ZM515.189 16.7699V11.2727H542.802V16.7699H532.127V44H525.906V16.7699H515.189ZM554.335 22.5227H563.837C567.843 22.5227 570.925 23.517 573.085 25.5057C575.244 27.4943 576.323 30.0582 576.323 33.1974C576.323 35.2429 575.84 37.0824 574.874 38.7159C573.908 40.3494 572.495 41.642 570.634 42.5938C568.773 43.5312 566.508 44 563.837 44H549.54V11.2727H555.783V38.5028H563.837C565.67 38.5028 567.175 38.027 568.354 37.0753C569.533 36.1094 570.123 34.8807 570.123 33.3892C570.123 31.8125 569.533 30.527 568.354 29.5327C567.175 28.5241 565.67 28.0199 563.837 28.0199H554.335V22.5227ZM580.968 44V11.2727H587.339V44H580.968ZM600.086 44.4048C598.921 44.4048 597.919 43.9929 597.081 43.169C596.243 42.331 595.824 41.3224 595.824 40.1435C595.824 38.9787 596.243 37.9844 597.081 37.1605C597.919 36.3224 598.921 35.9034 600.086 35.9034C601.25 35.9034 602.252 36.3224 603.09 37.1605C603.928 37.9844 604.347 38.9787 604.347 40.1435C604.347 40.9247 604.148 41.642 603.75 42.2955C603.367 42.9347 602.855 43.446 602.216 43.8295C601.577 44.2131 600.867 44.4048 600.086 44.4048ZM19.5653 109.412V114.952H0.21875V109.412H19.5653ZM44.4464 134V90.3636H51.0302V109.327H72.7844V90.3636H79.3896V134H72.7844V114.973H51.0302V134H44.4464ZM102.571 134.661C99.3469 134.661 96.57 133.972 94.2404 132.594C91.9251 131.202 90.1353 129.249 88.8711 126.734C87.6211 124.206 86.9961 121.244 86.9961 117.849C86.9961 114.497 87.6211 111.543 88.8711 108.986C90.1353 106.429 91.8967 104.433 94.1552 102.999C96.4279 101.564 99.0842 100.847 102.124 100.847C103.971 100.847 105.76 101.152 107.493 101.763C109.226 102.374 110.782 103.332 112.159 104.639C113.537 105.946 114.624 107.643 115.419 109.732C116.215 111.805 116.613 114.327 116.613 117.295V119.554H90.5969V114.781H110.37C110.37 113.105 110.029 111.621 109.347 110.328C108.665 109.021 107.706 107.991 106.471 107.239C105.249 106.486 103.814 106.109 102.167 106.109C100.377 106.109 98.8143 106.55 97.479 107.43C96.158 108.297 95.1353 109.433 94.4109 110.839C93.7006 112.232 93.3455 113.744 93.3455 115.378V119.107C93.3455 121.294 93.729 123.155 94.4961 124.689C95.2773 126.223 96.364 127.395 97.756 128.205C99.1481 129 100.775 129.398 102.635 129.398C103.843 129.398 104.944 129.227 105.938 128.886C106.932 128.531 107.792 128.006 108.516 127.31C109.24 126.614 109.794 125.754 110.178 124.732L116.208 125.818C115.725 127.594 114.858 129.149 113.608 130.484C112.373 131.805 110.817 132.835 108.942 133.574C107.081 134.298 104.958 134.661 102.571 134.661ZM123.681 134V101.273H137.254C140.947 101.273 143.873 102.061 146.032 103.638C148.191 105.2 149.271 107.324 149.271 110.009C149.271 111.926 148.66 113.446 147.438 114.568C146.217 115.69 144.597 116.443 142.58 116.827C144.043 116.997 145.386 117.437 146.607 118.148C147.829 118.844 148.809 119.781 149.548 120.96C150.3 122.139 150.677 123.545 150.677 125.179C150.677 126.912 150.229 128.446 149.335 129.781C148.44 131.102 147.14 132.139 145.435 132.892C143.745 133.631 141.707 134 139.32 134H123.681ZM129.668 128.673H139.32C140.897 128.673 142.133 128.297 143.028 127.544C143.923 126.791 144.37 125.768 144.37 124.476C144.37 122.956 143.923 121.763 143.028 120.896C142.133 120.016 140.897 119.575 139.32 119.575H129.668V128.673ZM129.668 114.909H137.317C138.511 114.909 139.533 114.739 140.386 114.398C141.252 114.057 141.913 113.574 142.367 112.949C142.836 112.31 143.07 111.557 143.07 110.69C143.07 109.426 142.552 108.439 141.515 107.729C140.478 107.018 139.058 106.663 137.254 106.663H129.668V114.909ZM167.19 134.724C165.116 134.724 163.241 134.341 161.565 133.574C159.888 132.793 158.56 131.663 157.58 130.186C156.614 128.709 156.131 126.898 156.131 124.753C156.131 122.906 156.487 121.386 157.197 120.193C157.907 119 158.866 118.055 160.073 117.359C161.281 116.663 162.63 116.138 164.121 115.783C165.613 115.428 167.133 115.158 168.681 114.973C170.641 114.746 172.232 114.561 173.454 114.419C174.675 114.263 175.563 114.014 176.117 113.673C176.671 113.332 176.948 112.778 176.948 112.011V111.862C176.948 110.001 176.423 108.56 175.371 107.537C174.335 106.514 172.786 106.003 170.727 106.003C168.582 106.003 166.891 106.479 165.656 107.43C164.434 108.368 163.589 109.412 163.12 110.562L157.133 109.199C157.843 107.21 158.88 105.605 160.244 104.384C161.621 103.148 163.205 102.253 164.995 101.699C166.785 101.131 168.667 100.847 170.641 100.847C171.948 100.847 173.333 101.003 174.796 101.315C176.273 101.614 177.651 102.168 178.93 102.977C180.222 103.787 181.281 104.945 182.104 106.45C182.928 107.942 183.34 109.881 183.34 112.267V134H177.119V129.526H176.863C176.451 130.349 175.833 131.159 175.009 131.955C174.185 132.75 173.127 133.411 171.835 133.936C170.542 134.462 168.994 134.724 167.19 134.724ZM168.575 129.611C170.336 129.611 171.842 129.263 173.092 128.567C174.356 127.871 175.315 126.962 175.968 125.839C176.636 124.703 176.969 123.489 176.969 122.196V117.977C176.742 118.205 176.302 118.418 175.648 118.616C175.009 118.801 174.278 118.964 173.454 119.107C172.63 119.234 171.827 119.355 171.046 119.469C170.265 119.568 169.612 119.653 169.086 119.724C167.85 119.881 166.721 120.143 165.698 120.513C164.69 120.882 163.88 121.415 163.269 122.111C162.673 122.793 162.374 123.702 162.374 124.838C162.374 126.415 162.957 127.608 164.121 128.418C165.286 129.213 166.771 129.611 168.575 129.611ZM189.738 134L202.415 117.253L189.887 101.273H197.301L207.422 114.866H209.702V101.273H216.073V114.866H218.289L228.409 101.273H235.824L223.36 117.253L235.973 134H228.409L218.203 120.364H216.073V134H209.702V120.364H207.571L197.301 134H189.738ZM264.631 114.888V120.406H246.904V114.888H264.631ZM248.694 101.273V134H242.451V101.273H248.694ZM269.084 101.273V134H262.863V101.273H269.084ZM291.392 134.661C288.324 134.661 285.647 133.957 283.36 132.551C281.073 131.145 279.297 129.178 278.033 126.649C276.769 124.121 276.137 121.166 276.137 117.786C276.137 114.391 276.769 111.422 278.033 108.879C279.297 106.337 281.073 104.362 283.36 102.956C285.647 101.55 288.324 100.847 291.392 100.847C294.461 100.847 297.138 101.55 299.425 102.956C301.712 104.362 303.488 106.337 304.752 108.879C306.016 111.422 306.648 114.391 306.648 117.786C306.648 121.166 306.016 124.121 304.752 126.649C303.488 129.178 301.712 131.145 299.425 132.551C297.138 133.957 294.461 134.661 291.392 134.661ZM291.414 129.312C293.402 129.312 295.05 128.787 296.357 127.736C297.664 126.685 298.63 125.286 299.255 123.538C299.894 121.791 300.213 119.866 300.213 117.764C300.213 115.676 299.894 113.759 299.255 112.011C298.63 110.25 297.664 108.837 296.357 107.771C295.05 106.706 293.402 106.173 291.414 106.173C289.411 106.173 287.749 106.706 286.428 107.771C285.121 108.837 284.148 110.25 283.509 112.011C282.884 113.759 282.571 115.676 282.571 117.764C282.571 119.866 282.884 121.791 283.509 123.538C284.148 125.286 285.121 126.685 286.428 127.736C287.749 128.787 289.411 129.312 291.414 129.312ZM327.06 134L327.039 128.482H328.211C329.12 128.482 329.88 128.29 330.49 127.906C331.115 127.509 331.627 126.841 332.025 125.903C332.422 124.966 332.728 123.673 332.941 122.026C333.154 120.364 333.31 118.276 333.409 115.761L333.985 101.273H356.826V134H350.583V106.77H339.887L339.375 117.892C339.248 120.591 338.971 122.949 338.544 124.966C338.132 126.983 337.529 128.666 336.733 130.016C335.938 131.351 334.915 132.352 333.665 133.02C332.415 133.673 330.895 134 329.105 134H327.06ZM370.116 112.523H379.619C383.624 112.523 386.707 113.517 388.866 115.506C391.025 117.494 392.104 120.058 392.104 123.197C392.104 125.243 391.621 127.082 390.656 128.716C389.69 130.349 388.276 131.642 386.415 132.594C384.555 133.531 382.289 134 379.619 134H365.322V101.273H371.565V128.503H379.619C381.451 128.503 382.957 128.027 384.136 127.075C385.315 126.109 385.904 124.881 385.904 123.389C385.904 121.812 385.315 120.527 384.136 119.533C382.957 118.524 381.451 118.02 379.619 118.02H370.116V112.523ZM396.749 134V101.273H403.12V134H396.749ZM425.455 134.661C422.287 134.661 419.56 133.943 417.273 132.509C415 131.06 413.253 129.064 412.032 126.521C410.81 123.979 410.199 121.067 410.199 117.786C410.199 114.462 410.824 111.528 412.074 108.986C413.324 106.429 415.086 104.433 417.358 102.999C419.631 101.564 422.309 100.847 425.391 100.847C427.877 100.847 430.093 101.308 432.039 102.232C433.985 103.141 435.554 104.419 436.748 106.067C437.955 107.714 438.672 109.639 438.9 111.841H432.699C432.358 110.307 431.577 108.986 430.355 107.878C429.148 106.77 427.529 106.216 425.498 106.216C423.722 106.216 422.167 106.685 420.831 107.622C419.51 108.545 418.48 109.866 417.742 111.585C417.003 113.29 416.634 115.307 416.634 117.636C416.634 120.023 416.996 122.082 417.721 123.815C418.445 125.548 419.468 126.891 420.789 127.842C422.124 128.794 423.694 129.27 425.498 129.27C426.705 129.27 427.799 129.05 428.779 128.609C429.773 128.155 430.604 127.509 431.272 126.67C431.953 125.832 432.429 124.824 432.699 123.645H438.9C438.672 125.761 437.983 127.651 436.833 129.312C435.682 130.974 434.141 132.281 432.209 133.233C430.292 134.185 428.04 134.661 425.455 134.661ZM450.506 112.523H460.009C464.015 112.523 467.097 113.517 469.256 115.506C471.415 117.494 472.495 120.058 472.495 123.197C472.495 125.243 472.012 127.082 471.046 128.716C470.08 130.349 468.667 131.642 466.806 132.594C464.945 133.531 462.68 134 460.009 134H445.712V101.273H451.955V128.503H460.009C461.842 128.503 463.347 128.027 464.526 127.075C465.705 126.109 466.295 124.881 466.295 123.389C466.295 121.812 465.705 120.527 464.526 119.533C463.347 118.524 461.842 118.02 460.009 118.02H450.506V112.523ZM477.14 134V101.273H483.511V134H477.14ZM498.303 125.072L512.728 101.273H519.588V134H513.346V110.179L498.985 134H492.06V101.273H498.303V125.072ZM510 90.1932H515.242C515.242 92.5937 514.39 94.5469 512.685 96.0526C510.995 97.544 508.708 98.2898 505.824 98.2898C502.955 98.2898 500.675 97.544 498.985 96.0526C497.294 94.5469 496.449 92.5937 496.449 90.1932H501.669C501.669 91.2585 501.982 92.2031 502.607 93.027C503.232 93.8366 504.304 94.2415 505.824 94.2415C507.316 94.2415 508.381 93.8366 509.02 93.027C509.674 92.2173 510 91.2727 510 90.1932ZM542.2 106.77V101.273H569.814V106.77H559.139V134H552.918V106.77H542.2ZM581.346 112.523H590.849C594.855 112.523 597.937 113.517 600.096 115.506C602.255 117.494 603.335 120.058 603.335 123.197C603.335 125.243 602.852 127.082 601.886 128.716C600.92 130.349 599.507 131.642 597.646 132.594C595.785 133.531 593.52 134 590.849 134H576.552V101.273H582.795V128.503H590.849C592.681 128.503 594.187 128.027 595.366 127.075C596.545 126.109 597.135 124.881 597.135 123.389C597.135 121.812 596.545 120.527 595.366 119.533C594.187 118.524 592.681 118.02 590.849 118.02H581.346V112.523ZM607.98 134V101.273H614.35V134H607.98ZM652.564 134.661C649.496 134.661 646.819 133.957 644.532 132.551C642.245 131.145 640.469 129.178 639.205 126.649C637.941 124.121 637.309 121.166 637.309 117.786C637.309 114.391 637.941 111.422 639.205 108.879C640.469 106.337 642.245 104.362 644.532 102.956C646.819 101.55 649.496 100.847 652.564 100.847C655.632 100.847 658.31 101.55 660.597 102.956C662.884 104.362 664.659 106.337 665.924 108.879C667.188 111.422 667.82 114.391 667.82 117.786C667.82 121.166 667.188 124.121 665.924 126.649C664.659 129.178 662.884 131.145 660.597 132.551C658.31 133.957 655.632 134.661 652.564 134.661ZM652.586 129.312C654.574 129.312 656.222 128.787 657.529 127.736C658.836 126.685 659.801 125.286 660.426 123.538C661.066 121.791 661.385 119.866 661.385 117.764C661.385 115.676 661.066 113.759 660.426 112.011C659.801 110.25 658.836 108.837 657.529 107.771C656.222 106.706 654.574 106.173 652.586 106.173C650.583 106.173 648.921 106.706 647.6 107.771C646.293 108.837 645.32 110.25 644.681 112.011C644.056 113.759 643.743 115.676 643.743 117.764C643.743 119.866 644.056 121.791 644.681 123.538C645.32 125.286 646.293 126.685 647.6 127.736C648.921 128.787 650.583 129.312 652.586 129.312ZM670.989 106.77V101.273H698.603V106.77H687.928V134H681.707V106.77H670.989ZM721.22 134V101.273H747.918V134H741.675V106.77H727.42V134H721.22ZM756.435 146.273V101.273H762.657V106.578H763.189C763.559 105.896 764.091 105.108 764.787 104.213C765.483 103.318 766.449 102.537 767.685 101.869C768.921 101.188 770.554 100.847 772.586 100.847C775.228 100.847 777.586 101.514 779.659 102.849C781.733 104.185 783.36 106.109 784.539 108.624C785.732 111.138 786.328 114.163 786.328 117.7C786.328 121.237 785.739 124.27 784.56 126.798C783.381 129.312 781.762 131.251 779.702 132.615C777.642 133.964 775.292 134.639 772.65 134.639C770.661 134.639 769.034 134.305 767.77 133.638C766.52 132.97 765.54 132.189 764.83 131.294C764.12 130.399 763.573 129.604 763.189 128.908H762.806V146.273H756.435ZM762.678 117.636C762.678 119.937 763.012 121.955 763.679 123.688C764.347 125.42 765.313 126.777 766.577 127.757C767.841 128.723 769.39 129.206 771.222 129.206C773.125 129.206 774.716 128.702 775.995 127.693C777.273 126.67 778.239 125.286 778.892 123.538C779.56 121.791 779.894 119.824 779.894 117.636C779.894 115.477 779.567 113.538 778.914 111.82C778.275 110.101 777.309 108.744 776.016 107.75C774.738 106.756 773.14 106.259 771.222 106.259C769.375 106.259 767.813 106.734 766.534 107.686C765.27 108.638 764.311 109.966 763.658 111.67C763.005 113.375 762.678 115.364 762.678 117.636ZM799.709 125.072L814.134 101.273H820.995V134H814.752V110.179L800.391 134H793.466V101.273H799.709V125.072ZM829.56 146.273V101.273H835.782V106.578H836.314C836.684 105.896 837.216 105.108 837.912 104.213C838.608 103.318 839.574 102.537 840.81 101.869C842.046 101.188 843.679 100.847 845.711 100.847C848.353 100.847 850.711 101.514 852.784 102.849C854.858 104.185 856.485 106.109 857.664 108.624C858.857 111.138 859.453 114.163 859.453 117.7C859.453 121.237 858.864 124.27 857.685 126.798C856.506 129.312 854.887 131.251 852.827 132.615C850.767 133.964 848.417 134.639 845.775 134.639C843.786 134.639 842.159 134.305 840.895 133.638C839.645 132.97 838.665 132.189 837.955 131.294C837.245 130.399 836.698 129.604 836.314 128.908H835.931V146.273H829.56ZM835.803 117.636C835.803 119.937 836.137 121.955 836.804 123.688C837.472 125.42 838.438 126.777 839.702 127.757C840.966 128.723 842.515 129.206 844.347 129.206C846.25 129.206 847.841 128.702 849.12 127.693C850.398 126.67 851.364 125.286 852.017 123.538C852.685 121.791 853.019 119.824 853.019 117.636C853.019 115.477 852.692 113.538 852.039 111.82C851.4 110.101 850.434 108.744 849.141 107.75C847.863 106.756 846.265 106.259 844.347 106.259C842.5 106.259 840.938 106.734 839.659 107.686C838.395 108.638 837.436 109.966 836.783 111.67C836.13 113.375 835.803 115.364 835.803 117.636ZM880.377 134.661C877.309 134.661 874.631 133.957 872.344 132.551C870.057 131.145 868.282 129.178 867.017 126.649C865.753 124.121 865.121 121.166 865.121 117.786C865.121 114.391 865.753 111.422 867.017 108.879C868.282 106.337 870.057 104.362 872.344 102.956C874.631 101.55 877.309 100.847 880.377 100.847C883.445 100.847 886.123 101.55 888.409 102.956C890.696 104.362 892.472 106.337 893.736 108.879C895 111.422 895.632 114.391 895.632 117.786C895.632 121.166 895 124.121 893.736 126.649C892.472 129.178 890.696 131.145 888.409 132.551C886.123 133.957 883.445 134.661 880.377 134.661ZM880.398 129.312C882.387 129.312 884.034 128.787 885.341 127.736C886.648 126.685 887.614 125.286 888.239 123.538C888.878 121.791 889.198 119.866 889.198 117.764C889.198 115.676 888.878 113.759 888.239 112.011C887.614 110.25 886.648 108.837 885.341 107.771C884.034 106.706 882.387 106.173 880.398 106.173C878.395 106.173 876.733 106.706 875.412 107.771C874.105 108.837 873.132 110.25 872.493 112.011C871.868 113.759 871.556 115.676 871.556 117.764C871.556 119.866 871.868 121.791 872.493 123.538C873.132 125.286 874.105 126.685 875.412 127.736C876.733 128.787 878.395 129.312 880.398 129.312ZM899.548 143.439V128.482H902.211C902.893 127.857 903.468 127.111 903.937 126.244C904.42 125.378 904.825 124.348 905.151 123.155C905.492 121.962 905.776 120.57 906.004 118.979C906.231 117.374 906.43 115.541 906.6 113.482L907.623 101.273H929.867V128.482H934.896V143.439H928.674V134H905.854V143.439H899.548ZM909.029 128.482H923.646V106.727H913.333L912.651 113.482C912.325 116.919 911.913 119.902 911.415 122.43C910.918 124.945 910.123 126.962 909.029 128.482ZM945.917 112.523H955.419C959.425 112.523 962.507 113.517 964.667 115.506C966.826 117.494 967.905 120.058 967.905 123.197C967.905 125.243 967.422 127.082 966.456 128.716C965.49 130.349 964.077 131.642 962.216 132.594C960.355 133.531 958.09 134 955.419 134H941.123V101.273H947.365V128.503H955.419C957.252 128.503 958.757 128.027 959.936 127.075C961.115 126.109 961.705 124.881 961.705 123.389C961.705 121.812 961.115 120.527 959.936 119.533C958.757 118.524 957.252 118.02 955.419 118.02H945.917V112.523ZM972.55 134V101.273H978.921V134H972.55ZM995.759 128.034L995.439 130.357C995.226 132.061 994.864 133.837 994.352 135.683C993.855 137.544 993.337 139.27 992.797 140.861C992.271 142.452 991.838 143.716 991.497 144.653H986.98C987.165 143.773 987.42 142.58 987.747 141.074C988.074 139.582 988.393 137.913 988.706 136.067C989.018 134.22 989.253 132.338 989.409 130.42L989.622 128.034H995.759ZM1026.17 125.072L1040.6 101.273H1047.46V134H1041.22V110.179L1026.86 134H1019.93V101.273H1026.17V125.072ZM1053.45 134L1053.43 128.482H1054.6C1055.51 128.482 1056.27 128.29 1056.88 127.906C1057.5 127.509 1058.01 126.841 1058.41 125.903C1058.81 124.966 1059.11 123.673 1059.33 122.026C1059.54 120.364 1059.7 118.276 1059.8 115.761L1060.37 101.273H1083.21V134H1076.97V106.77H1066.27L1065.76 117.892C1065.63 120.591 1065.36 122.949 1064.93 124.966C1064.52 126.983 1063.92 128.666 1063.12 130.016C1062.32 131.351 1061.3 132.352 1060.05 133.02C1058.8 133.673 1057.28 134 1055.49 134H1053.45ZM1097.95 125.072L1112.38 101.273H1119.24V134H1112.99V110.179L1098.63 134H1091.71V101.273H1097.95V125.072ZM1157.47 134.661C1154.3 134.661 1151.57 133.943 1149.28 132.509C1147.01 131.06 1145.26 129.064 1144.04 126.521C1142.82 123.979 1142.21 121.067 1142.21 117.786C1142.21 114.462 1142.84 111.528 1144.09 108.986C1145.34 106.429 1147.1 104.433 1149.37 102.999C1151.64 101.564 1154.32 100.847 1157.4 100.847C1159.89 100.847 1162.1 101.308 1164.05 102.232C1166 103.141 1167.57 104.419 1168.76 106.067C1169.97 107.714 1170.68 109.639 1170.91 111.841H1164.71C1164.37 110.307 1163.59 108.986 1162.37 107.878C1161.16 106.77 1159.54 106.216 1157.51 106.216C1155.73 106.216 1154.18 106.685 1152.84 107.622C1151.52 108.545 1150.49 109.866 1149.75 111.585C1149.01 113.29 1148.65 115.307 1148.65 117.636C1148.65 120.023 1149.01 122.082 1149.73 123.815C1150.46 125.548 1151.48 126.891 1152.8 127.842C1154.14 128.794 1155.71 129.27 1157.51 129.27C1158.72 129.27 1159.81 129.05 1160.79 128.609C1161.78 128.155 1162.62 127.509 1163.28 126.67C1163.97 125.832 1164.44 124.824 1164.71 123.645H1170.91C1170.68 125.761 1170 127.651 1168.84 129.312C1167.69 130.974 1166.15 132.281 1164.22 133.233C1162.3 134.185 1160.05 134.661 1157.47 134.661ZM1187.25 134.724C1185.17 134.724 1183.3 134.341 1181.62 133.574C1179.95 132.793 1178.62 131.663 1177.64 130.186C1176.67 128.709 1176.19 126.898 1176.19 124.753C1176.19 122.906 1176.55 121.386 1177.26 120.193C1177.97 119 1178.92 118.055 1180.13 117.359C1181.34 116.663 1182.69 116.138 1184.18 115.783C1185.67 115.428 1187.19 115.158 1188.74 114.973C1190.7 114.746 1192.29 114.561 1193.51 114.419C1194.73 114.263 1195.62 114.014 1196.18 113.673C1196.73 113.332 1197.01 112.778 1197.01 112.011V111.862C1197.01 110.001 1196.48 108.56 1195.43 107.537C1194.39 106.514 1192.84 106.003 1190.79 106.003C1188.64 106.003 1186.95 106.479 1185.71 107.43C1184.49 108.368 1183.65 109.412 1183.18 110.562L1177.19 109.199C1177.9 107.21 1178.94 105.605 1180.3 104.384C1181.68 103.148 1183.26 102.253 1185.05 101.699C1186.84 101.131 1188.73 100.847 1190.7 100.847C1192.01 100.847 1193.39 101.003 1194.85 101.315C1196.33 101.614 1197.71 102.168 1198.99 102.977C1200.28 103.787 1201.34 104.945 1202.16 106.45C1202.99 107.942 1203.4 109.881 1203.4 112.267V134H1197.18V129.526H1196.92C1196.51 130.349 1195.89 131.159 1195.07 131.955C1194.24 132.75 1193.19 133.411 1191.89 133.936C1190.6 134.462 1189.05 134.724 1187.25 134.724ZM1188.63 129.611C1190.39 129.611 1191.9 129.263 1193.15 128.567C1194.41 127.871 1195.37 126.962 1196.03 125.839C1196.69 124.703 1197.03 123.489 1197.03 122.196V117.977C1196.8 118.205 1196.36 118.418 1195.71 118.616C1195.07 118.801 1194.34 118.964 1193.51 119.107C1192.69 119.234 1191.89 119.355 1191.1 119.469C1190.32 119.568 1189.67 119.653 1189.14 119.724C1187.91 119.881 1186.78 120.143 1185.76 120.513C1184.75 120.882 1183.94 121.415 1183.33 122.111C1182.73 122.793 1182.43 123.702 1182.43 124.838C1182.43 126.415 1183.02 127.608 1184.18 128.418C1185.34 129.213 1186.83 129.611 1188.63 129.611ZM1230.25 126.116L1240.82 101.273H1246.32L1232.62 134H1227.89L1214.46 101.273H1219.9L1230.25 126.116ZM1218.13 101.273V134H1211.88V101.273H1218.13ZM1242.54 134V101.273H1248.75V134H1242.54ZM0.282671 191.273V146.273H6.50426V151.578H7.03693C7.40625 150.896 7.93892 150.108 8.63494 149.213C9.33097 148.318 10.2969 147.537 11.5327 146.869C12.7685 146.188 14.402 145.847 16.4332 145.847C19.0753 145.847 21.4332 146.514 23.5071 147.849C25.581 149.185 27.2074 151.109 28.3864 153.624C29.5795 156.138 30.1761 159.163 30.1761 162.7C30.1761 166.237 29.5866 169.27 28.4077 171.798C27.2287 174.312 25.6094 176.251 23.5497 177.615C21.4901 178.964 19.1392 179.639 16.4972 179.639C14.5085 179.639 12.8821 179.305 11.6179 178.638C10.3679 177.97 9.38778 177.189 8.67756 176.294C7.96733 175.399 7.42045 174.604 7.03693 173.908H6.65341V191.273H0.282671ZM6.52557 162.636C6.52557 164.937 6.85938 166.955 7.52699 168.688C8.1946 170.42 9.16051 171.777 10.4247 172.757C11.6889 173.723 13.2372 174.206 15.0696 174.206C16.973 174.206 18.5639 173.702 19.8423 172.693C21.1207 171.67 22.0866 170.286 22.7401 168.538C23.4077 166.791 23.7415 164.824 23.7415 162.636C23.7415 160.477 23.4148 158.538 22.7614 156.82C22.1222 155.101 21.1563 153.744 19.8636 152.75C18.5852 151.756 16.9872 151.259 15.0696 151.259C13.223 151.259 11.6605 151.734 10.3821 152.686C9.1179 153.638 8.15909 154.966 7.50568 156.67C6.85227 158.375 6.52557 160.364 6.52557 162.636ZM51.419 179.661C48.1946 179.661 45.4176 178.972 43.0881 177.594C40.7727 176.202 38.983 174.249 37.7188 171.734C36.4688 169.206 35.8438 166.244 35.8438 162.849C35.8438 159.497 36.4688 156.543 37.7188 153.986C38.983 151.429 40.7443 149.433 43.0028 147.999C45.2756 146.564 47.9318 145.847 50.9716 145.847C52.8182 145.847 54.608 146.152 56.3409 146.763C58.0739 147.374 59.6293 148.332 61.0071 149.639C62.3849 150.946 63.4716 152.643 64.267 154.732C65.0625 156.805 65.4602 159.327 65.4602 162.295V164.554H39.4446V159.781H59.2173C59.2173 158.105 58.8764 156.621 58.1946 155.328C57.5128 154.021 56.554 152.991 55.3182 152.239C54.0966 151.486 52.6619 151.109 51.0142 151.109C49.2244 151.109 47.6619 151.55 46.3267 152.43C45.0057 153.297 43.983 154.433 43.2585 155.839C42.5483 157.232 42.1932 158.744 42.1932 160.378V164.107C42.1932 166.294 42.5767 168.155 43.3438 169.689C44.125 171.223 45.2116 172.395 46.6037 173.205C47.9957 174 49.6222 174.398 51.483 174.398C52.6903 174.398 53.7912 174.227 54.7855 173.886C55.7798 173.531 56.6392 173.006 57.3636 172.31C58.0881 171.614 58.642 170.754 59.0256 169.732L65.0554 170.818C64.5724 172.594 63.706 174.149 62.456 175.484C61.2202 176.805 59.6648 177.835 57.7898 178.574C55.929 179.298 53.8054 179.661 51.419 179.661ZM72.5288 146.273H78.7717V173.482H90.0856V146.273H96.3285V173.482H107.642V146.273H113.885V179H72.5288V146.273ZM128.635 170.072L143.06 146.273H149.92V179H143.678V155.179L129.317 179H122.392V146.273H128.635V170.072ZM155.908 179L155.886 173.482H157.058C157.967 173.482 158.727 173.29 159.338 172.906C159.963 172.509 160.474 171.841 160.872 170.903C161.27 169.966 161.575 168.673 161.788 167.026C162.001 165.364 162.158 163.276 162.257 160.761L162.832 146.273H185.673V179H179.43V151.77H168.734L168.223 162.892C168.095 165.591 167.818 167.949 167.392 169.966C166.98 171.983 166.376 173.666 165.581 175.016C164.786 176.351 163.763 177.352 162.513 178.02C161.263 178.673 159.743 179 157.953 179H155.908ZM223.834 179.661C220.666 179.661 217.939 178.943 215.652 177.509C213.379 176.06 211.632 174.064 210.411 171.521C209.189 168.979 208.578 166.067 208.578 162.786C208.578 159.462 209.203 156.528 210.453 153.986C211.703 151.429 213.464 149.433 215.737 147.999C218.01 146.564 220.688 145.847 223.77 145.847C226.256 145.847 228.472 146.308 230.418 147.232C232.364 148.141 233.933 149.419 235.126 151.067C236.334 152.714 237.051 154.639 237.278 156.841H231.078C230.737 155.307 229.956 153.986 228.734 152.878C227.527 151.77 225.908 151.216 223.876 151.216C222.101 151.216 220.545 151.685 219.21 152.622C217.889 153.545 216.859 154.866 216.121 156.585C215.382 158.29 215.013 160.307 215.013 162.636C215.013 165.023 215.375 167.082 216.099 168.815C216.824 170.548 217.847 171.891 219.168 172.842C220.503 173.794 222.072 174.27 223.876 174.27C225.084 174.27 226.178 174.05 227.158 173.609C228.152 173.155 228.983 172.509 229.651 171.67C230.332 170.832 230.808 169.824 231.078 168.645H237.278C237.051 170.761 236.362 172.651 235.212 174.312C234.061 175.974 232.52 177.281 230.588 178.233C228.67 179.185 226.419 179.661 223.834 179.661ZM241.614 151.77V146.273H269.228V151.77H258.553V179H252.332V151.77H241.614ZM283.967 179.724C281.893 179.724 280.018 179.341 278.342 178.574C276.666 177.793 275.338 176.663 274.358 175.186C273.392 173.709 272.909 171.898 272.909 169.753C272.909 167.906 273.264 166.386 273.974 165.193C274.684 164 275.643 163.055 276.85 162.359C278.058 161.663 279.407 161.138 280.899 160.783C282.39 160.428 283.91 160.158 285.458 159.973C287.419 159.746 289.01 159.561 290.231 159.419C291.453 159.263 292.341 159.014 292.895 158.673C293.449 158.332 293.725 157.778 293.725 157.011V156.862C293.725 155.001 293.2 153.56 292.149 152.537C291.112 151.514 289.564 151.003 287.504 151.003C285.359 151.003 283.669 151.479 282.433 152.43C281.211 153.368 280.366 154.412 279.897 155.562L273.91 154.199C274.62 152.21 275.657 150.605 277.021 149.384C278.399 148.148 279.983 147.253 281.772 146.699C283.562 146.131 285.444 145.847 287.419 145.847C288.725 145.847 290.11 146.003 291.574 146.315C293.051 146.614 294.429 147.168 295.707 147.977C297 148.787 298.058 149.945 298.882 151.45C299.706 152.942 300.118 154.881 300.118 157.267V179H293.896V174.526H293.64C293.228 175.349 292.61 176.159 291.787 176.955C290.963 177.75 289.904 178.411 288.612 178.936C287.319 179.462 285.771 179.724 283.967 179.724ZM285.352 174.611C287.113 174.611 288.619 174.263 289.869 173.567C291.133 172.871 292.092 171.962 292.745 170.839C293.413 169.703 293.747 168.489 293.747 167.196V162.977C293.52 163.205 293.079 163.418 292.426 163.616C291.787 163.801 291.055 163.964 290.231 164.107C289.407 164.234 288.605 164.355 287.824 164.469C287.042 164.568 286.389 164.653 285.863 164.724C284.627 164.881 283.498 165.143 282.475 165.513C281.467 165.882 280.657 166.415 280.047 167.111C279.45 167.793 279.152 168.702 279.152 169.838C279.152 171.415 279.734 172.608 280.899 173.418C282.064 174.213 283.548 174.611 285.352 174.611ZM304.544 151.77V146.273H332.158V151.77H321.483V179H315.261V151.77H304.544ZM343.69 157.523H353.193C357.199 157.523 360.281 158.517 362.44 160.506C364.599 162.494 365.679 165.058 365.679 168.197C365.679 170.243 365.196 172.082 364.23 173.716C363.264 175.349 361.85 176.642 359.99 177.594C358.129 178.531 355.863 179 353.193 179H338.896V146.273H345.139V173.503H353.193C355.025 173.503 356.531 173.027 357.71 172.075C358.889 171.109 359.478 169.881 359.478 168.389C359.478 166.812 358.889 165.527 357.71 164.533C356.531 163.524 355.025 163.02 353.193 163.02H343.69V157.523ZM386.123 179L386.101 173.482H387.273C388.182 173.482 388.942 173.29 389.553 172.906C390.178 172.509 390.689 171.841 391.087 170.903C391.485 169.966 391.79 168.673 392.003 167.026C392.216 165.364 392.373 163.276 392.472 160.761L393.047 146.273H415.888V179H409.645V151.77H398.949L398.438 162.892C398.31 165.591 398.033 167.949 397.607 169.966C397.195 171.983 396.591 173.666 395.796 175.016C395 176.351 393.978 177.352 392.728 178.02C391.478 178.673 389.958 179 388.168 179H386.123ZM429.178 157.523H438.681C442.687 157.523 445.769 158.517 447.928 160.506C450.087 162.494 451.167 165.058 451.167 168.197C451.167 170.243 450.684 172.082 449.718 173.716C448.752 175.349 447.339 176.642 445.478 177.594C443.617 178.531 441.352 179 438.681 179H424.384V146.273H430.627V173.503H438.681C440.513 173.503 442.019 173.027 443.198 172.075C444.377 171.109 444.967 169.881 444.967 168.389C444.967 166.812 444.377 165.527 443.198 164.533C442.019 163.524 440.513 163.02 438.681 163.02H429.178V157.523ZM455.812 179V146.273H462.183V179H455.812ZM484.517 179.661C481.35 179.661 478.623 178.943 476.336 177.509C474.063 176.06 472.316 174.064 471.094 171.521C469.873 168.979 469.262 166.067 469.262 162.786C469.262 159.462 469.887 156.528 471.137 153.986C472.387 151.429 474.148 149.433 476.421 147.999C478.694 146.564 481.371 145.847 484.453 145.847C486.939 145.847 489.155 146.308 491.101 147.232C493.047 148.141 494.617 149.419 495.81 151.067C497.017 152.714 497.735 154.639 497.962 156.841H491.762C491.421 155.307 490.64 153.986 489.418 152.878C488.211 151.77 486.591 151.216 484.56 151.216C482.784 151.216 481.229 151.685 479.894 152.622C478.573 153.545 477.543 154.866 476.804 156.585C476.066 158.29 475.696 160.307 475.696 162.636C475.696 165.023 476.059 167.082 476.783 168.815C477.507 170.548 478.53 171.891 479.851 172.842C481.186 173.794 482.756 174.27 484.56 174.27C485.767 174.27 486.861 174.05 487.841 173.609C488.836 173.155 489.667 172.509 490.334 171.67C491.016 170.832 491.492 169.824 491.762 168.645H497.962C497.735 170.761 497.046 172.651 495.895 174.312C494.745 175.974 493.203 177.281 491.272 178.233C489.354 179.185 487.103 179.661 484.517 179.661ZM509.569 157.523H519.072C523.077 157.523 526.16 158.517 528.319 160.506C530.478 162.494 531.558 165.058 531.558 168.197C531.558 170.243 531.075 172.082 530.109 173.716C529.143 175.349 527.729 176.642 525.869 177.594C524.008 178.531 521.742 179 519.072 179H504.775V146.273H511.018V173.503H519.072C520.904 173.503 522.41 173.027 523.589 172.075C524.768 171.109 525.357 169.881 525.357 168.389C525.357 166.812 524.768 165.527 523.589 164.533C522.41 163.524 520.904 163.02 519.072 163.02H509.569V157.523ZM536.202 179V146.273H542.573V179H536.202ZM569.489 171.116L580.057 146.273H585.554L571.854 179H567.124L553.701 146.273H559.134L569.489 171.116ZM557.365 146.273V179H551.123V146.273H557.365ZM581.783 179V146.273H587.983V179H581.783ZM600.672 179.405C599.507 179.405 598.505 178.993 597.667 178.169C596.829 177.331 596.41 176.322 596.41 175.143C596.41 173.979 596.829 172.984 597.667 172.161C598.505 171.322 599.507 170.903 600.672 170.903C601.836 170.903 602.838 171.322 603.676 172.161C604.514 172.984 604.933 173.979 604.933 175.143C604.933 175.925 604.734 176.642 604.336 177.295C603.953 177.935 603.441 178.446 602.802 178.83C602.163 179.213 601.453 179.405 600.672 179.405ZM19.5653 244.412V249.952H0.21875V244.412H19.5653ZM44.4464 269V225.364H60.4265C63.5231 225.364 66.087 225.875 68.1183 226.898C70.1495 227.906 71.6694 229.277 72.6779 231.01C73.6864 232.729 74.1907 234.668 74.1907 236.827C74.1907 238.645 73.8569 240.179 73.1893 241.429C72.5217 242.665 71.6268 243.659 70.5046 244.412C69.3967 245.151 68.1751 245.69 66.8398 246.031V246.457C68.2887 246.528 69.7021 246.997 71.0799 247.864C72.4719 248.716 73.6225 249.93 74.5316 251.507C75.4407 253.084 75.8952 255.001 75.8952 257.26C75.8952 259.49 75.3697 261.493 74.3185 263.268C73.2816 265.03 71.6765 266.429 69.5032 267.466C67.3299 268.489 64.5529 269 61.1722 269H44.4464ZM51.0302 263.354H60.533C63.6864 263.354 65.945 262.743 67.3086 261.521C68.6722 260.3 69.354 258.773 69.354 256.94C69.354 255.562 69.006 254.298 68.31 253.148C67.614 251.997 66.6197 251.081 65.3271 250.399C64.0487 249.717 62.5288 249.376 60.7674 249.376H51.0302V263.354ZM51.0302 244.241H59.8512C61.3285 244.241 62.6566 243.957 63.8356 243.389C65.0288 242.821 65.9734 242.026 66.6694 241.003C67.3796 239.966 67.7347 238.744 67.7347 237.338C67.7347 235.534 67.1026 234.021 65.8384 232.8C64.5742 231.578 62.6353 230.967 60.0217 230.967H51.0302V244.241ZM92.717 269.724C90.6431 269.724 88.7681 269.341 87.092 268.574C85.4158 267.793 84.0877 266.663 83.1076 265.186C82.1417 263.709 81.6587 261.898 81.6587 259.753C81.6587 257.906 82.0138 256.386 82.7241 255.193C83.4343 254 84.3931 253.055 85.6005 252.359C86.8079 251.663 88.1573 251.138 89.6488 250.783C91.1403 250.428 92.6602 250.158 94.2085 249.973C96.1687 249.746 97.7596 249.561 98.9812 249.419C100.203 249.263 101.091 249.014 101.645 248.673C102.199 248.332 102.475 247.778 102.475 247.011V246.862C102.475 245.001 101.95 243.56 100.899 242.537C99.8619 241.514 98.3136 241.003 96.2539 241.003C94.109 241.003 92.4187 241.479 91.1829 242.43C89.9613 243.368 89.1161 244.412 88.6474 245.562L82.6602 244.199C83.3704 242.21 84.4073 240.605 85.771 239.384C87.1488 238.148 88.7326 237.253 90.5224 236.699C92.3121 236.131 94.1942 235.847 96.1687 235.847C97.4755 235.847 98.8604 236.003 100.324 236.315C101.801 236.614 103.179 237.168 104.457 237.977C105.75 238.787 106.808 239.945 107.632 241.45C108.456 242.942 108.868 244.881 108.868 247.267V269H102.646V264.526H102.39C101.978 265.349 101.36 266.159 100.537 266.955C99.7127 267.75 98.6545 268.411 97.3619 268.936C96.0692 269.462 94.521 269.724 92.717 269.724ZM94.1019 264.611C95.8633 264.611 97.369 264.263 98.619 263.567C99.8832 262.871 100.842 261.962 101.495 260.839C102.163 259.703 102.497 258.489 102.497 257.196V252.977C102.27 253.205 101.829 253.418 101.176 253.616C100.537 253.801 99.805 253.964 98.9812 254.107C98.1573 254.234 97.3548 254.355 96.5735 254.469C95.7923 254.568 95.1388 254.653 94.6133 254.724C93.3775 254.881 92.2482 255.143 91.2255 255.513C90.217 255.882 89.4073 256.415 88.7965 257.111C88.1999 257.793 87.9016 258.702 87.9016 259.838C87.9016 261.415 88.484 262.608 89.6488 263.418C90.8136 264.213 92.2979 264.611 94.1019 264.611ZM115.265 269L127.942 252.253L115.414 236.273H122.829L132.95 249.866H135.229V236.273H141.6V249.866H143.816L153.937 236.273H161.352L148.887 252.253L161.501 269H153.937L143.731 255.364H141.6V269H135.229V255.364H133.099L122.829 269H115.265ZM190.158 249.888V255.406H172.431V249.888H190.158ZM174.221 236.273V269H167.978V236.273H174.221ZM194.612 236.273V269H188.39V236.273H194.612ZM216.92 269.661C213.852 269.661 211.174 268.957 208.887 267.551C206.6 266.145 204.825 264.178 203.56 261.649C202.296 259.121 201.664 256.166 201.664 252.786C201.664 249.391 202.296 246.422 203.56 243.879C204.825 241.337 206.6 239.362 208.887 237.956C211.174 236.55 213.852 235.847 216.92 235.847C219.988 235.847 222.665 236.55 224.952 237.956C227.239 239.362 229.015 241.337 230.279 243.879C231.543 246.422 232.175 249.391 232.175 252.786C232.175 256.166 231.543 259.121 230.279 261.649C229.015 264.178 227.239 266.145 224.952 267.551C222.665 268.957 219.988 269.661 216.92 269.661ZM216.941 264.312C218.93 264.312 220.577 263.787 221.884 262.736C223.191 261.685 224.157 260.286 224.782 258.538C225.421 256.791 225.741 254.866 225.741 252.764C225.741 250.676 225.421 248.759 224.782 247.011C224.157 245.25 223.191 243.837 221.884 242.771C220.577 241.706 218.93 241.173 216.941 241.173C214.938 241.173 213.276 241.706 211.955 242.771C210.648 243.837 209.675 245.25 209.036 247.011C208.411 248.759 208.099 250.676 208.099 252.764C208.099 254.866 208.411 256.791 209.036 258.538C209.675 260.286 210.648 261.685 211.955 262.736C213.276 263.787 214.938 264.312 216.941 264.312ZM252.587 269L252.566 263.482H253.738C254.647 263.482 255.407 263.29 256.018 262.906C256.643 262.509 257.154 261.841 257.552 260.903C257.95 259.966 258.255 258.673 258.468 257.026C258.681 255.364 258.837 253.276 258.937 250.761L259.512 236.273H282.353V269H276.11V241.77H265.414L264.903 252.892C264.775 255.591 264.498 257.949 264.072 259.966C263.66 261.983 263.056 263.666 262.261 265.016C261.465 266.351 260.442 267.352 259.192 268.02C257.942 268.673 256.423 269 254.633 269H252.587ZM297.092 260.072L311.517 236.273H318.377V269H312.135V245.179L297.774 269H290.849V236.273H297.092V260.072ZM326.943 236.273H333.186V263.482H344.5V236.273H350.743V263.482H362.056V236.273H368.299V269H326.943V236.273ZM381.6 247.523H391.103C395.109 247.523 398.191 248.517 400.35 250.506C402.509 252.494 403.589 255.058 403.589 258.197C403.589 260.243 403.106 262.082 402.14 263.716C401.174 265.349 399.761 266.642 397.9 267.594C396.039 268.531 393.773 269 391.103 269H376.806V236.273H383.049V263.503H391.103C392.935 263.503 394.441 263.027 395.62 262.075C396.799 261.109 397.388 259.881 397.388 258.389C397.388 256.812 396.799 255.527 395.62 254.533C394.441 253.524 392.935 253.02 391.103 253.02H381.6V247.523ZM424.778 241.77V236.273H452.392V241.77H441.717V269H435.496V241.77H424.778ZM471.392 269.661C468.324 269.661 465.647 268.957 463.36 267.551C461.073 266.145 459.297 264.178 458.033 261.649C456.769 259.121 456.137 256.166 456.137 252.786C456.137 249.391 456.769 246.422 458.033 243.879C459.297 241.337 461.073 239.362 463.36 237.956C465.647 236.55 468.324 235.847 471.392 235.847C474.461 235.847 477.138 236.55 479.425 237.956C481.712 239.362 483.488 241.337 484.752 243.879C486.016 246.422 486.648 249.391 486.648 252.786C486.648 256.166 486.016 259.121 484.752 261.649C483.488 264.178 481.712 266.145 479.425 267.551C477.138 268.957 474.461 269.661 471.392 269.661ZM471.414 264.312C473.402 264.312 475.05 263.787 476.357 262.736C477.664 261.685 478.63 260.286 479.255 258.538C479.894 256.791 480.213 254.866 480.213 252.764C480.213 250.676 479.894 248.759 479.255 247.011C478.63 245.25 477.664 243.837 476.357 242.771C475.05 241.706 473.402 241.173 471.414 241.173C469.411 241.173 467.749 241.706 466.428 242.771C465.121 243.837 464.148 245.25 463.509 247.011C462.884 248.759 462.571 250.676 462.571 252.764C462.571 254.866 462.884 256.791 463.509 258.538C464.148 260.286 465.121 261.685 466.428 262.736C467.749 263.787 469.411 264.312 471.414 264.312ZM502.048 263.034L501.728 265.357C501.515 267.061 501.153 268.837 500.641 270.683C500.144 272.544 499.626 274.27 499.086 275.861C498.56 277.452 498.127 278.716 497.786 279.653H493.269C493.454 278.773 493.71 277.58 494.036 276.074C494.363 274.582 494.683 272.913 494.995 271.067C495.308 269.22 495.542 267.338 495.698 265.42L495.911 263.034H502.048ZM552.491 236.273V269H546.27V236.273H552.491ZM549.786 251.464V256.962C548.805 257.359 547.768 257.714 546.675 258.027C545.581 258.325 544.43 258.56 543.223 258.73C542.016 258.901 540.759 258.986 539.452 258.986C535.403 258.986 532.186 257.999 529.8 256.024C527.413 254.036 526.22 250.996 526.22 246.905V236.209H532.42V246.905C532.42 248.453 532.705 249.71 533.273 250.676C533.841 251.642 534.651 252.352 535.702 252.807C536.753 253.261 538.003 253.489 539.452 253.489C541.369 253.489 543.138 253.311 544.757 252.956C546.391 252.587 548.067 252.089 549.786 251.464ZM556.907 241.77V236.273H584.521V241.77H573.846V269H567.625V241.77H556.907ZM603.521 269.661C600.453 269.661 597.776 268.957 595.489 267.551C593.202 266.145 591.426 264.178 590.162 261.649C588.898 259.121 588.266 256.166 588.266 252.786C588.266 249.391 588.898 246.422 590.162 243.879C591.426 241.337 593.202 239.362 595.489 237.956C597.776 236.55 600.453 235.847 603.521 235.847C606.589 235.847 609.267 236.55 611.554 237.956C613.841 239.362 615.616 241.337 616.881 243.879C618.145 246.422 618.777 249.391 618.777 252.786C618.777 256.166 618.145 259.121 616.881 261.649C615.616 264.178 613.841 266.145 611.554 267.551C609.267 268.957 606.589 269.661 603.521 269.661ZM603.543 264.312C605.531 264.312 607.179 263.787 608.486 262.736C609.793 261.685 610.759 260.286 611.384 258.538C612.023 256.791 612.342 254.866 612.342 252.764C612.342 250.676 612.023 248.759 611.384 247.011C610.759 245.25 609.793 243.837 608.486 242.771C607.179 241.706 605.531 241.173 603.543 241.173C601.54 241.173 599.878 241.706 598.557 242.771C597.25 243.837 596.277 245.25 595.638 247.011C595.013 248.759 594.7 250.676 594.7 252.764C594.7 254.866 595.013 256.791 595.638 258.538C596.277 260.286 597.25 261.685 598.557 262.736C599.878 263.787 601.54 264.312 603.543 264.312ZM639.935 241.77V236.273H667.548V241.77H656.874V269H650.652V241.77H639.935ZM679.081 247.523H688.583C692.589 247.523 695.672 248.517 697.831 250.506C699.99 252.494 701.069 255.058 701.069 258.197C701.069 260.243 700.586 262.082 699.62 263.716C698.654 265.349 697.241 266.642 695.38 267.594C693.52 268.531 691.254 269 688.583 269H674.287V236.273H680.529V263.503H688.583C690.416 263.503 691.922 263.027 693.1 262.075C694.279 261.109 694.869 259.881 694.869 258.389C694.869 256.812 694.279 255.527 693.1 254.533C691.922 253.524 690.416 253.02 688.583 253.02H679.081V247.523ZM705.714 269V236.273H712.085V269H705.714ZM733.935 269L733.914 263.482H735.086C735.995 263.482 736.755 263.29 737.365 262.906C737.99 262.509 738.502 261.841 738.9 260.903C739.297 259.966 739.603 258.673 739.816 257.026C740.029 255.364 740.185 253.276 740.284 250.761L740.86 236.273H763.701V269H757.458V241.77H746.762L746.25 252.892C746.123 255.591 745.846 257.949 745.419 259.966C745.007 261.983 744.404 263.666 743.608 265.016C742.813 266.351 741.79 267.352 740.54 268.02C739.29 268.673 737.77 269 735.98 269H733.935ZM776.991 247.523H786.494C790.499 247.523 793.582 248.517 795.741 250.506C797.9 252.494 798.979 255.058 798.979 258.197C798.979 260.243 798.496 262.082 797.531 263.716C796.565 265.349 795.151 266.642 793.29 267.594C791.43 268.531 789.164 269 786.494 269H772.197V236.273H778.44V263.503H786.494C788.326 263.503 789.832 263.027 791.011 262.075C792.19 261.109 792.779 259.881 792.779 258.389C792.779 256.812 792.19 255.527 791.011 254.533C789.832 253.524 788.326 253.02 786.494 253.02H776.991V247.523ZM803.624 269V236.273H809.995V269H803.624ZM832.33 269.661C829.162 269.661 826.435 268.943 824.148 267.509C821.875 266.06 820.128 264.064 818.907 261.521C817.685 258.979 817.074 256.067 817.074 252.786C817.074 249.462 817.699 246.528 818.949 243.986C820.199 241.429 821.961 239.433 824.233 237.999C826.506 236.564 829.184 235.847 832.266 235.847C834.752 235.847 836.968 236.308 838.914 237.232C840.86 238.141 842.429 239.419 843.623 241.067C844.83 242.714 845.547 244.639 845.775 246.841H839.574C839.233 245.307 838.452 243.986 837.23 242.878C836.023 241.77 834.404 241.216 832.373 241.216C830.597 241.216 829.042 241.685 827.706 242.622C826.385 243.545 825.355 244.866 824.617 246.585C823.878 248.29 823.509 250.307 823.509 252.636C823.509 255.023 823.871 257.082 824.596 258.815C825.32 260.548 826.343 261.891 827.664 262.842C828.999 263.794 830.569 264.27 832.373 264.27C833.58 264.27 834.674 264.05 835.654 263.609C836.648 263.155 837.479 262.509 838.147 261.67C838.828 260.832 839.304 259.824 839.574 258.645H845.775C845.547 260.761 844.858 262.651 843.708 264.312C842.557 265.974 841.016 267.281 839.084 268.233C837.167 269.185 834.915 269.661 832.33 269.661ZM857.381 247.523H866.884C870.89 247.523 873.972 248.517 876.131 250.506C878.29 252.494 879.37 255.058 879.37 258.197C879.37 260.243 878.887 262.082 877.921 263.716C876.955 265.349 875.542 266.642 873.681 267.594C871.82 268.531 869.555 269 866.884 269H852.587V236.273H858.83V263.503H866.884C868.717 263.503 870.222 263.027 871.401 262.075C872.58 261.109 873.17 259.881 873.17 258.389C873.17 256.812 872.58 255.527 871.401 254.533C870.222 253.524 868.717 253.02 866.884 253.02H857.381V247.523ZM884.015 269V236.273H890.386V269H884.015ZM905.178 260.072L919.603 236.273H926.463V269H920.221V245.179L905.86 269H898.935V236.273H905.178V260.072ZM916.875 225.193H922.117C922.117 227.594 921.265 229.547 919.56 231.053C917.87 232.544 915.583 233.29 912.699 233.29C909.83 233.29 907.55 232.544 905.86 231.053C904.169 229.547 903.324 227.594 903.324 225.193H908.544C908.544 226.259 908.857 227.203 909.482 228.027C910.107 228.837 911.179 229.241 912.699 229.241C914.191 229.241 915.256 228.837 915.895 228.027C916.549 227.217 916.875 226.273 916.875 225.193ZM6.52557 305.072L20.9503 281.273H27.8111V314H21.5682V290.179L7.20739 314H0.282671V281.273H6.52557V305.072ZM63.5053 286.365C62.3974 286.379 61.332 286.642 60.3093 287.153C59.2866 287.665 58.4414 288.347 57.7738 289.199C57.1204 290.051 56.7937 291.017 56.7937 292.097H50.7852C50.7852 290.562 51.1261 289.114 51.8079 287.75C52.4897 286.386 53.4201 285.186 54.5991 284.149C55.7781 283.112 57.1346 282.295 58.6687 281.699C60.2028 281.102 61.815 280.804 63.5053 280.804C66.5877 280.804 69.1942 281.557 71.3249 283.062C73.4698 284.554 75.0962 286.543 76.2042 289.028C77.3121 291.5 77.8661 294.213 77.8661 297.168V298.233C77.8661 301.188 77.3121 303.908 76.2042 306.393C75.0962 308.879 73.4698 310.868 71.3249 312.359C69.1942 313.851 66.5877 314.597 63.5053 314.597C61.0337 314.597 58.8391 314.071 56.9215 313.02C55.0039 311.969 53.4982 310.534 52.4045 308.716C51.3249 306.884 50.7852 304.795 50.7852 302.452H56.7937C56.7937 303.616 57.0991 304.696 57.7099 305.69C58.3207 306.685 59.1303 307.487 60.1388 308.098C61.1616 308.695 62.2837 309 63.5053 309.014C65.3377 309 66.8505 308.446 68.0437 307.352C69.2511 306.259 70.146 304.888 70.7283 303.24C71.3249 301.578 71.6232 299.909 71.6232 298.233V297.168C71.6232 295.42 71.3249 293.723 70.7283 292.075C70.146 290.428 69.2511 289.071 68.0437 288.006C66.8505 286.926 65.3377 286.379 63.5053 286.365ZM73.8604 295.101V300.001H60.4585V295.101H73.8604ZM81.0089 286.77V281.273H108.623V286.77H97.9478V314H91.7262V286.77H81.0089ZM127.623 314.661C124.555 314.661 121.877 313.957 119.59 312.551C117.303 311.145 115.528 309.178 114.263 306.649C112.999 304.121 112.367 301.166 112.367 297.786C112.367 294.391 112.999 291.422 114.263 288.879C115.528 286.337 117.303 284.362 119.59 282.956C121.877 281.55 124.555 280.847 127.623 280.847C130.691 280.847 133.369 281.55 135.656 282.956C137.942 284.362 139.718 286.337 140.982 288.879C142.246 291.422 142.879 294.391 142.879 297.786C142.879 301.166 142.246 304.121 140.982 306.649C139.718 309.178 137.942 311.145 135.656 312.551C133.369 313.957 130.691 314.661 127.623 314.661ZM127.644 309.312C129.633 309.312 131.281 308.787 132.587 307.736C133.894 306.685 134.86 305.286 135.485 303.538C136.124 301.791 136.444 299.866 136.444 297.764C136.444 295.676 136.124 293.759 135.485 292.011C134.86 290.25 133.894 288.837 132.587 287.771C131.281 286.706 129.633 286.173 127.644 286.173C125.641 286.173 123.979 286.706 122.658 287.771C121.352 288.837 120.379 290.25 119.739 292.011C119.114 293.759 118.802 295.676 118.802 297.764C118.802 299.866 119.114 301.791 119.739 303.538C120.379 305.286 121.352 306.685 122.658 307.736C123.979 308.787 125.641 309.312 127.644 309.312ZM165.869 314V281.273H172.239V294.994H175.308L186.11 281.273H193.994L181.316 297.189L194.143 314H186.238L176.373 300.918H172.239V314H165.869ZM199.091 326.273V281.273H205.313V286.578H205.846C206.215 285.896 206.748 285.108 207.444 284.213C208.14 283.318 209.105 282.537 210.341 281.869C211.577 281.188 213.211 280.847 215.242 280.847C217.884 280.847 220.242 281.514 222.316 282.849C224.39 284.185 226.016 286.109 227.195 288.624C228.388 291.138 228.985 294.163 228.985 297.7C228.985 301.237 228.395 304.27 227.216 306.798C226.037 309.312 224.418 311.251 222.358 312.615C220.299 313.964 217.948 314.639 215.306 314.639C213.317 314.639 211.691 314.305 210.426 313.638C209.176 312.97 208.196 312.189 207.486 311.294C206.776 310.399 206.229 309.604 205.846 308.908H205.462V326.273H199.091ZM205.334 297.636C205.334 299.937 205.668 301.955 206.336 303.688C207.003 305.42 207.969 306.777 209.233 307.757C210.498 308.723 212.046 309.206 213.878 309.206C215.782 309.206 217.373 308.702 218.651 307.693C219.929 306.67 220.895 305.286 221.549 303.538C222.216 301.791 222.55 299.824 222.55 297.636C222.55 295.477 222.223 293.538 221.57 291.82C220.931 290.101 219.965 288.744 218.672 287.75C217.394 286.756 215.796 286.259 213.878 286.259C212.032 286.259 210.469 286.734 209.191 287.686C207.926 288.638 206.968 289.966 206.314 291.67C205.661 293.375 205.334 295.364 205.334 297.636ZM239.036 326.273C238.085 326.273 237.218 326.195 236.437 326.038C235.656 325.896 235.073 325.74 234.69 325.57L236.224 320.349C237.388 320.662 238.425 320.797 239.335 320.754C240.244 320.712 241.046 320.371 241.742 319.732C242.452 319.092 243.077 318.048 243.617 316.599L244.406 314.426L232.431 281.273H239.249L247.538 306.67H247.879L256.167 281.273H263.006L249.519 318.368C248.894 320.072 248.099 321.514 247.133 322.693C246.167 323.886 245.016 324.781 243.681 325.378C242.346 325.974 240.798 326.273 239.036 326.273ZM267.161 286.77V281.273H294.775V286.77H284.1V314H277.879V286.77H267.161ZM313.775 314.661C310.707 314.661 308.029 313.957 305.743 312.551C303.456 311.145 301.68 309.178 300.416 306.649C299.152 304.121 298.52 301.166 298.52 297.786C298.52 294.391 299.152 291.422 300.416 288.879C301.68 286.337 303.456 284.362 305.743 282.956C308.029 281.55 310.707 280.847 313.775 280.847C316.843 280.847 319.521 281.55 321.808 282.956C324.095 284.362 325.87 286.337 327.135 288.879C328.399 291.422 329.031 294.391 329.031 297.786C329.031 301.166 328.399 304.121 327.135 306.649C325.87 309.178 324.095 311.145 321.808 312.551C319.521 313.957 316.843 314.661 313.775 314.661ZM313.797 309.312C315.785 309.312 317.433 308.787 318.74 307.736C320.047 306.685 321.012 305.286 321.637 303.538C322.277 301.791 322.596 299.866 322.596 297.764C322.596 295.676 322.277 293.759 321.637 292.011C321.012 290.25 320.047 288.837 318.74 287.771C317.433 286.706 315.785 286.173 313.797 286.173C311.794 286.173 310.132 286.706 308.811 287.771C307.504 288.837 306.531 290.25 305.892 292.011C305.267 293.759 304.954 295.676 304.954 297.764C304.954 299.866 305.267 301.791 305.892 303.538C306.531 305.286 307.504 306.685 308.811 307.736C310.132 308.787 311.794 309.312 313.797 309.312ZM344.175 270.364L343.621 301.45H337.719L337.165 270.364H344.175ZM340.68 314.405C339.501 314.405 338.493 313.993 337.655 313.169C336.817 312.331 336.405 311.322 336.419 310.143C336.405 308.979 336.817 307.984 337.655 307.161C338.493 306.322 339.501 305.903 340.68 305.903C341.831 305.903 342.825 306.322 343.663 307.161C344.501 307.984 344.928 308.979 344.942 310.143C344.928 310.925 344.722 311.642 344.324 312.295C343.94 312.935 343.429 313.446 342.79 313.83C342.151 314.213 341.447 314.405 340.68 314.405Z" fill="black"/>
</svg>
