<svg width="1270" height="174" viewBox="0 0 1270 174" fill="none" xmlns="http://www.w3.org/2000/svg">
<path d="M0 60C0 26.8629 26.8629 0 60 0H677C710.137 0 737 26.8629 737 60V114C737 147.137 710.137 174 677 174H0V60Z" fill="black"/>
<path d="M278.55 123.7L277.55 118.95C278.083 118.883 278.55 118.817 278.95 118.75C279.35 118.65 279.683 118.55 279.95 118.45C280.617 118.217 281.15 117.9 281.55 117.5C281.95 117.067 282.267 116.367 282.5 115.4C282.733 114.4 282.9 113 283 111.2L284.6 87.95H306.55V123H299.7L299.9 93.75L290.75 93.8L289.5 112.35C289.333 114.717 289.017 116.65 288.55 118.15C288.083 119.65 287.25 120.833 286.05 121.7C285.383 122.2 284.4 122.65 283.1 123.05C281.833 123.45 280.317 123.667 278.55 123.7ZM312.784 123L319.384 112.45C317.851 111.85 316.584 110.833 315.584 109.4C314.584 107.933 314.084 105.833 314.084 103.1C314.084 100.733 314.501 98.8167 315.334 97.35C316.168 95.85 317.334 94.75 318.834 94.05C320.368 93.35 322.168 93 324.234 93C324.834 93 325.634 93.0167 326.634 93.05C327.668 93.05 328.768 93.0833 329.934 93.15C331.101 93.1833 332.251 93.2333 333.384 93.3C334.518 93.3333 335.518 93.3833 336.384 93.45C337.251 93.4833 337.868 93.5333 338.234 93.6L338.034 109.15L338.234 123H331.484V113.2C330.884 113.233 330.101 113.283 329.134 113.35C328.201 113.383 327.068 113.4 325.734 113.4L320.134 123H312.784ZM326.434 108C327.334 108 328.234 107.967 329.134 107.9C330.068 107.833 330.851 107.75 331.484 107.65V98.6C330.884 98.5333 330.134 98.4667 329.234 98.4C328.368 98.3333 327.501 98.3 326.634 98.3C325.568 98.3 324.618 98.35 323.784 98.45C322.951 98.55 322.418 98.7 322.184 98.9C321.851 99.1 321.551 99.4667 321.284 100C321.051 100.533 320.934 101.483 320.934 102.85C320.934 103.983 321.001 104.917 321.134 105.65C321.301 106.383 321.568 106.9 321.934 107.2C322.234 107.433 322.801 107.633 323.634 107.8C324.501 107.933 325.434 108 326.434 108ZM348.436 131.65L344.636 129.65C345.169 128.883 345.569 128.017 345.836 127.05C346.102 126.083 346.236 124.917 346.236 123.55V117.05H352.786V121.3C352.786 124.1 352.336 126.3 351.436 127.9C350.569 129.533 349.569 130.783 348.436 131.65ZM378.385 123L378.535 93.7L368.735 93.85V87.95H395.035V93.85L385.085 93.7L385.235 123H378.385ZM398.98 123L398.83 93.7H405.23L404.73 115.35H404.98L416.18 93.7H424.98V123H418.58L419.13 100.45H418.98L407.28 123H398.98ZM446.196 123V87.95H453.046L452.846 105.05V120.2L449.746 117.15H466.346L463.246 120.2L463.396 105.15L463.196 87.95H470.046L469.846 105.2L469.996 120.2L466.896 117.15H483.446L480.396 120.2L480.346 105.1L480.146 87.95H486.996V123H446.196ZM508.653 123.65C506.686 123.65 504.836 123.383 503.103 122.85C501.37 122.317 499.836 121.4 498.503 120.1C497.17 118.767 496.12 116.917 495.353 114.55C494.62 112.15 494.253 109.1 494.253 105.4C494.253 101.7 494.62 98.6833 495.353 96.35C496.12 93.9833 497.17 92.15 498.503 90.85C499.836 89.5167 501.37 88.6 503.103 88.1C504.836 87.5667 506.686 87.3 508.653 87.3C510.62 87.3 512.47 87.5667 514.203 88.1C515.936 88.6 517.47 89.5167 518.803 90.85C520.136 92.15 521.17 93.9833 521.903 96.35C522.67 98.6833 523.053 101.7 523.053 105.4C523.053 109.1 522.67 112.15 521.903 114.55C521.17 116.917 520.136 118.767 518.803 120.1C517.47 121.4 515.936 122.317 514.203 122.85C512.503 123.383 510.653 123.65 508.653 123.65ZM508.653 117.6C509.92 117.6 511.003 117.467 511.903 117.2C512.803 116.9 513.553 116.333 514.153 115.5C514.753 114.667 515.186 113.45 515.453 111.85C515.753 110.217 515.903 108.1 515.903 105.5C515.903 102.9 515.77 100.8 515.503 99.2C515.236 97.5667 514.803 96.3333 514.203 95.5C513.603 94.6667 512.836 94.1 511.903 93.8C511.003 93.5 509.92 93.35 508.653 93.35C507.353 93.35 506.236 93.5 505.303 93.8C504.403 94.1 503.653 94.6667 503.053 95.5C502.486 96.3333 502.07 97.5667 501.803 99.2C501.536 100.8 501.403 102.9 501.403 105.5C501.403 108.133 501.536 110.25 501.803 111.85C502.103 113.45 502.536 114.667 503.103 115.5C503.703 116.333 504.453 116.9 505.353 117.2C506.286 117.467 507.386 117.6 508.653 117.6ZM537.127 123.7C535.894 123.7 534.544 123.533 533.077 123.2C531.61 122.9 530.244 122.467 528.977 121.9L530.677 116.6C531.71 116.933 532.844 117.233 534.077 117.5C535.31 117.733 536.327 117.85 537.127 117.85C537.494 117.85 537.777 117.767 537.977 117.6C538.21 117.433 538.41 117.15 538.577 116.75L528.177 87.95H535.127L541.927 110.85H542.277L548.077 87.95H555.127L547.077 112.75C546.21 115.417 545.427 117.517 544.727 119.05C544.06 120.55 543.21 121.65 542.177 122.35C541.544 122.85 540.794 123.2 539.927 123.4C539.06 123.6 538.127 123.7 537.127 123.7ZM560.938 113.05L560.188 87.95H567.538L566.688 113.05H560.938ZM559.987 123V116.9H567.788V123H559.987Z" fill="white"/>
<path d="M53.6825 35.6364H56.8608L54.8544 47.6925C54.5348 49.5982 54.6177 51.1252 55.103 52.2734C55.6001 53.4098 56.4406 54.2266 57.6243 54.7237C58.8198 55.2209 60.2876 55.4695 62.0277 55.4695C62.9865 55.4695 63.9453 55.428 64.9041 55.3452C65.8629 55.2505 66.8217 55.1262 67.7805 54.9723C68.7512 54.8066 69.71 54.6113 70.657 54.3864C71.6039 54.1496 72.5331 53.8892 73.4446 53.6051L72.9474 56.6768C71.9531 56.9728 71.0002 57.2391 70.0888 57.4759C69.1773 57.7008 68.2718 57.8902 67.3722 58.044C66.4725 58.1979 65.5552 58.3163 64.62 58.3991C63.6849 58.4702 62.6906 58.5057 61.6371 58.5057C59.175 58.5057 57.1271 58.1387 55.4936 57.4048C53.8601 56.6591 52.7119 55.4931 52.049 53.907C51.3861 52.3089 51.2678 50.2375 51.6939 47.6925L53.6825 35.6364ZM76.1435 35.6364H79.2507L73.2138 72H70.1065L76.1435 35.6364ZM84.7461 47.7102L85.2255 44.7273H106.532L106.053 47.7102H97.033L93.0735 72H89.8952L93.8548 47.7102H84.7461ZM117.976 72.5682C115.585 72.5682 113.572 71.9645 111.939 70.7571C110.305 69.5379 109.151 67.8511 108.477 65.6967C107.802 63.5424 107.689 61.0566 108.139 58.2393C108.589 55.4931 109.483 53.0784 110.82 50.995C112.17 48.8999 113.827 47.2723 115.792 46.1122C117.757 44.9403 119.893 44.3544 122.202 44.3544C124.605 44.3544 126.617 44.964 128.239 46.1832C129.872 47.4025 131.026 49.0893 131.701 51.2436C132.388 53.398 132.506 55.8897 132.056 58.7188C131.606 61.4531 130.707 63.862 129.357 65.9453C128.008 68.0168 126.351 69.6385 124.386 70.8104C122.433 71.9822 120.296 72.5682 117.976 72.5682ZM118.011 69.674C119.953 69.674 121.681 69.1591 123.196 68.1293C124.723 67.0876 125.984 65.7027 126.978 63.9744C127.972 62.2344 128.641 60.3227 128.984 58.2393C129.304 56.2507 129.268 54.4219 128.878 52.7528C128.487 51.0838 127.736 49.7462 126.623 48.7401C125.51 47.7339 124.031 47.2308 122.184 47.2308C120.254 47.2308 118.526 47.7576 116.999 48.8111C115.472 49.8527 114.212 51.2495 113.217 53.0014C112.223 54.7415 111.56 56.6473 111.229 58.7188C110.897 60.7192 110.921 62.5481 111.3 64.2053C111.69 65.8625 112.442 67.1882 113.555 68.1825C114.679 69.1768 116.165 69.674 118.011 69.674ZM153.252 47.7102L153.731 44.7273H175.038L174.559 47.7102H165.539L161.579 72H158.401L162.361 47.7102H153.252ZM183.303 72.6214C181.658 72.6214 180.208 72.3018 178.953 71.6626C177.699 71.0116 176.763 70.0765 176.148 68.8572C175.544 67.6262 175.378 66.1347 175.651 64.3828C175.887 63.0334 176.337 61.897 177 60.9737C177.675 60.0504 178.527 59.2929 179.557 58.701C180.587 58.0973 181.771 57.6238 183.108 57.2805C184.446 56.9373 185.902 56.6768 187.476 56.4993C189.015 56.3099 190.329 56.1442 191.418 56.0021C192.507 55.8601 193.353 55.6352 193.957 55.3274C194.561 55.0196 194.922 54.5225 195.04 53.8359L195.146 53.1967C195.454 51.3383 195.17 49.8764 194.294 48.8111C193.418 47.7339 191.95 47.1953 189.891 47.1953C187.926 47.1953 186.221 47.6333 184.777 48.5092C183.345 49.3733 182.28 50.3854 181.581 51.5455L178.776 50.4624C179.628 48.9709 180.676 47.7812 181.919 46.8935C183.161 45.9938 184.493 45.3487 185.914 44.9581C187.334 44.5556 188.737 44.3544 190.122 44.3544C191.163 44.3544 192.223 44.4905 193.3 44.7628C194.377 45.035 195.342 45.5085 196.194 46.1832C197.058 46.8461 197.691 47.7753 198.094 48.9709C198.508 50.1546 198.567 51.6579 198.271 53.4808L195.182 72H192.021L192.749 67.6854H192.554C192.057 68.4903 191.37 69.2715 190.494 70.0291C189.63 70.7867 188.595 71.4081 187.387 71.8935C186.18 72.3788 184.819 72.6214 183.303 72.6214ZM184.102 69.7273C185.783 69.7273 187.304 69.3544 188.666 68.6087C190.039 67.8629 191.163 66.8745 192.039 65.6435C192.927 64.4006 193.495 63.0334 193.744 61.5419L194.401 57.6001C194.14 57.825 193.714 58.0263 193.122 58.2038C192.542 58.3814 191.885 58.5412 191.151 58.6832C190.429 58.8134 189.701 58.9259 188.968 59.0206C188.245 59.1153 187.606 59.1982 187.05 59.2692C185.476 59.4586 184.102 59.7545 182.931 60.157C181.771 60.5594 180.841 61.1158 180.143 61.826C179.445 62.5244 179.007 63.424 178.829 64.5249C178.557 66.1821 178.918 67.4664 179.912 68.3778C180.918 69.2775 182.315 69.7273 184.102 69.7273ZM203.589 72L208.135 44.7273H211.295L209.236 56.9964H212.165L224.363 44.7273H228.483L215.344 57.8487L224.186 72H220.138L212.716 59.9794H208.774L206.75 72H203.589ZM238.972 72.5682C236.581 72.5682 234.569 71.9645 232.935 70.7571C231.301 69.5379 230.147 67.8511 229.473 65.6967C228.798 63.5424 228.685 61.0566 229.135 58.2393C229.585 55.4931 230.479 53.0784 231.816 50.995C233.166 48.8999 234.823 47.2723 236.788 46.1122C238.753 44.9403 240.89 44.3544 243.198 44.3544C245.601 44.3544 247.613 44.964 249.235 46.1832C250.868 47.4025 252.022 49.0893 252.697 51.2436C253.384 53.398 253.502 55.8897 253.052 58.7188C252.602 61.4531 251.703 63.862 250.353 65.9453C249.004 68.0168 247.347 69.6385 245.382 70.8104C243.429 71.9822 241.292 72.5682 238.972 72.5682ZM239.007 69.674C240.949 69.674 242.677 69.1591 244.192 68.1293C245.719 67.0876 246.98 65.7027 247.974 63.9744C248.968 62.2344 249.637 60.3227 249.98 58.2393C250.3 56.2507 250.265 54.4219 249.874 52.7528C249.483 51.0838 248.732 49.7462 247.619 48.7401C246.506 47.7339 245.027 47.2308 243.18 47.2308C241.251 47.2308 239.522 47.7576 237.995 48.8111C236.468 49.8527 235.208 51.2495 234.213 53.0014C233.219 54.7415 232.556 56.6473 232.225 58.7188C231.893 60.7192 231.917 62.5481 232.296 64.2053C232.686 65.8625 233.438 67.1882 234.551 68.1825C235.675 69.1768 237.161 69.674 239.007 69.674ZM268.744 72.5682C266.199 72.5682 264.098 71.9763 262.441 70.7926C260.783 69.5971 259.623 67.9458 258.96 65.8388C258.298 63.7199 258.197 61.2815 258.659 58.5234C259.12 55.7772 260.032 53.3388 261.393 51.2081C262.754 49.0656 264.435 47.3906 266.436 46.1832C268.436 44.964 270.608 44.3544 272.952 44.3544C274.432 44.3544 275.816 44.6267 277.107 45.1712C278.397 45.7038 279.492 46.5265 280.392 47.6392C281.303 48.7401 281.936 50.1309 282.291 51.8118C282.646 53.4808 282.635 55.4576 282.256 57.7422L282.007 59.3047H260.7L261.144 56.517H279.237C279.533 54.7652 279.45 53.1908 278.989 51.794C278.527 50.3973 277.74 49.2905 276.627 48.4737C275.526 47.6451 274.159 47.2308 272.526 47.2308C270.857 47.2308 269.276 47.6984 267.785 48.6335C266.305 49.5687 265.051 50.7879 264.021 52.2912C263.003 53.7827 262.346 55.3748 262.05 57.0675L261.695 59.1626C261.316 61.4709 261.363 63.4062 261.837 64.9688C262.31 66.5194 263.169 67.6913 264.411 68.4844C265.654 69.2775 267.246 69.674 269.188 69.674C270.49 69.674 271.668 69.4728 272.721 69.0703C273.775 68.6679 274.692 68.1293 275.473 67.4545C276.254 66.768 276.882 66.0163 277.355 65.1996L280.178 66.1761C279.575 67.3243 278.722 68.3838 277.622 69.3544C276.533 70.325 275.236 71.1063 273.733 71.6982C272.242 72.2782 270.579 72.5682 268.744 72.5682ZM59.6484 97.3729C58.5357 97.3847 57.4053 97.657 56.2571 98.1896C55.1089 98.7223 54.1264 99.4266 53.3097 100.303C52.4929 101.179 51.9957 102.137 51.8182 103.179H48.6932C48.8826 102.019 49.3383 100.912 50.0604 99.8587C50.7824 98.8052 51.6821 97.87 52.7592 97.0533C53.8364 96.2247 55.0083 95.5736 56.2749 95.1001C57.5533 94.6267 58.8376 94.3899 60.1278 94.3899C62.4834 94.3899 64.401 95.0114 65.8807 96.2543C67.3603 97.4972 68.3842 99.1425 68.9524 101.19C69.5206 103.238 69.6035 105.481 69.201 107.92L69.0589 108.914C68.6446 111.341 67.8101 113.59 66.5554 115.661C65.3007 117.721 63.7204 119.378 61.8146 120.633C59.9207 121.876 57.8018 122.497 55.4581 122.497C53.5997 122.497 51.9839 122.071 50.6108 121.219C49.2495 120.366 48.2434 119.224 47.5923 117.792C46.9413 116.348 46.7637 114.75 47.0597 112.998H50.1847C49.9953 114.146 50.1373 115.217 50.6108 116.212C51.0961 117.194 51.8063 117.987 52.7415 118.591C53.6884 119.195 54.7597 119.502 55.9553 119.514C57.6125 119.502 59.1335 118.987 60.5185 117.969C61.9152 116.94 63.0812 115.62 64.0163 114.01C64.9633 112.388 65.5848 110.69 65.8807 108.914L66.0227 107.92C66.3187 106.121 66.2713 104.422 65.8807 102.824C65.4901 101.214 64.7739 99.906 63.7322 98.8999C62.6906 97.8937 61.3293 97.3847 59.6484 97.3729ZM67.5142 106.801L67.0348 109.784H54.5881L55.0675 106.801H67.5142ZM74.1992 97.7102L74.6786 94.7273H95.9854L95.506 97.7102H86.4862L82.5266 122H79.3484L83.3079 97.7102H74.1992ZM107.429 122.568C105.038 122.568 103.026 121.964 101.392 120.757C99.7585 119.538 98.6044 117.851 97.9297 115.697C97.255 113.542 97.1425 111.057 97.5923 108.239C98.0421 105.493 98.9358 103.078 100.273 100.995C101.623 98.8999 103.28 97.2723 105.245 96.1122C107.21 94.9403 109.347 94.3544 111.655 94.3544C114.058 94.3544 116.07 94.964 117.692 96.1832C119.325 97.4025 120.479 99.0893 121.154 101.244C121.841 103.398 121.959 105.89 121.509 108.719C121.059 111.453 120.16 113.862 118.81 115.945C117.461 118.017 115.804 119.638 113.839 120.81C111.886 121.982 109.749 122.568 107.429 122.568ZM107.464 119.674C109.406 119.674 111.134 119.159 112.649 118.129C114.176 117.088 115.437 115.703 116.431 113.974C117.425 112.234 118.094 110.323 118.438 108.239C118.757 106.251 118.722 104.422 118.331 102.753C117.94 101.084 117.189 99.7462 116.076 98.7401C114.963 97.7339 113.484 97.2308 111.637 97.2308C109.708 97.2308 107.979 97.7576 106.452 98.8111C104.925 99.8527 103.665 101.25 102.67 103.001C101.676 104.741 101.013 106.647 100.682 108.719C100.35 110.719 100.374 112.548 100.753 114.205C101.143 115.862 101.895 117.188 103.008 118.183C104.132 119.177 105.618 119.674 107.464 119.674ZM140.308 122L144.854 94.7273H155.596C158.46 94.7273 160.632 95.3665 162.112 96.6449C163.592 97.9115 164.154 99.6101 163.799 101.741C163.527 103.362 162.846 104.647 161.757 105.594C160.668 106.541 159.307 107.221 157.673 107.636C158.679 107.813 159.585 108.198 160.39 108.79C161.206 109.382 161.816 110.169 162.219 111.151C162.621 112.122 162.71 113.276 162.485 114.614C162.248 116.046 161.686 117.318 160.798 118.431C159.91 119.544 158.768 120.42 157.371 121.059C155.986 121.686 154.4 122 152.613 122H140.308ZM143.824 119.07H153.11C154.767 119.07 156.158 118.638 157.282 117.774C158.419 116.91 159.094 115.768 159.307 114.347C159.579 112.808 159.33 111.583 158.561 110.672C157.791 109.76 156.637 109.305 155.099 109.305H145.457L143.824 119.07ZM145.901 106.499H153.802C155.01 106.499 156.099 106.31 157.069 105.931C158.04 105.54 158.833 104.996 159.449 104.298C160.076 103.587 160.461 102.771 160.603 101.847C160.828 100.533 160.455 99.5095 159.484 98.7756C158.525 98.0298 157.064 97.657 155.099 97.657H147.375L145.901 106.499ZM175.735 122.621C174.09 122.621 172.64 122.302 171.385 121.663C170.13 121.012 169.195 120.076 168.58 118.857C167.976 117.626 167.81 116.135 168.082 114.383C168.319 113.033 168.769 111.897 169.432 110.974C170.107 110.05 170.959 109.293 171.989 108.701C173.018 108.097 174.202 107.624 175.54 107.281C176.877 106.937 178.333 106.677 179.908 106.499C181.446 106.31 182.76 106.144 183.849 106.002C184.938 105.86 185.785 105.635 186.388 105.327C186.992 105.02 187.353 104.522 187.472 103.836L187.578 103.197C187.886 101.338 187.602 99.8764 186.726 98.8111C185.85 97.7339 184.382 97.1953 182.322 97.1953C180.357 97.1953 178.653 97.6333 177.209 98.5092C175.777 99.3733 174.711 100.385 174.013 101.545L171.207 100.462C172.06 98.9709 173.107 97.7812 174.35 96.8935C175.593 95.9938 176.925 95.3487 178.345 94.9581C179.766 94.5556 181.168 94.3544 182.553 94.3544C183.595 94.3544 184.654 94.4905 185.732 94.7628C186.809 95.035 187.773 95.5085 188.626 96.1832C189.49 96.8461 190.123 97.7753 190.526 98.9709C190.94 100.155 190.999 101.658 190.703 103.481L187.614 122H184.453L185.181 117.685H184.986C184.489 118.49 183.802 119.272 182.926 120.029C182.062 120.787 181.026 121.408 179.819 121.893C178.612 122.379 177.25 122.621 175.735 122.621ZM176.534 119.727C178.215 119.727 179.736 119.354 181.097 118.609C182.47 117.863 183.595 116.875 184.471 115.643C185.359 114.401 185.927 113.033 186.175 111.542L186.832 107.6C186.572 107.825 186.146 108.026 185.554 108.204C184.974 108.381 184.317 108.541 183.583 108.683C182.861 108.813 182.133 108.926 181.399 109.021C180.677 109.115 180.038 109.198 179.482 109.269C177.907 109.459 176.534 109.754 175.362 110.157C174.202 110.559 173.273 111.116 172.575 111.826C171.876 112.524 171.438 113.424 171.261 114.525C170.988 116.182 171.349 117.466 172.344 118.378C173.35 119.277 174.747 119.727 176.534 119.727ZM200.566 94.7273H203.727L199.679 119.017H210.865L214.913 94.7273H218.074L214.025 119.017H225.211L229.26 94.7273H232.42L227.875 122H196.021L200.566 94.7273ZM247.211 122.568C244.666 122.568 242.565 121.976 240.907 120.793C239.25 119.597 238.09 117.946 237.427 115.839C236.764 113.72 236.664 111.281 237.125 108.523C237.587 105.777 238.498 103.339 239.86 101.208C241.221 99.0656 242.902 97.3906 244.902 96.1832C246.903 94.964 249.075 94.3544 251.419 94.3544C252.898 94.3544 254.283 94.6267 255.574 95.1712C256.864 95.7038 257.959 96.5265 258.858 97.6392C259.77 98.7401 260.403 100.131 260.758 101.812C261.113 103.481 261.101 105.458 260.723 107.742L260.474 109.305H239.167L239.611 106.517H257.704C258 104.765 257.917 103.191 257.456 101.794C256.994 100.397 256.207 99.2905 255.094 98.4737C253.993 97.6451 252.626 97.2308 250.993 97.2308C249.324 97.2308 247.743 97.6984 246.252 98.6335C244.772 99.5687 243.517 100.788 242.488 102.291C241.47 103.783 240.813 105.375 240.517 107.067L240.162 109.163C239.783 111.471 239.83 113.406 240.304 114.969C240.777 116.519 241.635 117.691 242.878 118.484C244.121 119.277 245.713 119.674 247.654 119.674C248.957 119.674 250.134 119.473 251.188 119.07C252.241 118.668 253.159 118.129 253.94 117.455C254.721 116.768 255.349 116.016 255.822 115.2L258.645 116.176C258.042 117.324 257.189 118.384 256.088 119.354C254.999 120.325 253.703 121.106 252.2 121.698C250.708 122.278 249.045 122.568 247.211 122.568Z" fill="#F2F2F2"/>
<path d="M603.144 114.577L603.322 113.477C603.653 111.618 604.115 110.109 604.707 108.949C605.31 107.789 606.068 106.812 606.979 106.019C607.891 105.214 608.98 104.445 610.246 103.711C611.182 103.155 612.004 102.575 612.714 101.971C613.437 101.367 614.022 100.692 614.472 99.9467C614.934 99.201 615.236 98.3369 615.378 97.3544C615.579 96.0642 615.467 94.9455 615.04 93.9986C614.614 93.0398 613.946 92.3 613.034 91.7791C612.134 91.2464 611.063 90.9801 609.82 90.9801C608.613 90.9801 607.447 91.2464 606.322 91.7791C605.198 92.3 604.227 93.0634 603.411 94.0696C602.594 95.0758 602.037 96.295 601.741 97.7273H598.386C598.764 95.7741 599.528 94.0814 600.676 92.6491C601.836 91.205 603.239 90.0923 604.884 89.3111C606.541 88.5298 608.311 88.1392 610.193 88.1392C612.17 88.1392 613.833 88.5476 615.183 89.3643C616.544 90.1811 617.52 91.2997 618.112 92.7202C618.716 94.1288 618.876 95.7209 618.592 97.4964C618.39 98.7749 618.018 99.9053 617.473 100.888C616.929 101.858 616.212 102.74 615.325 103.533C614.437 104.326 613.371 105.084 612.129 105.806C610.957 106.493 609.998 107.185 609.252 107.884C608.518 108.57 607.938 109.357 607.512 110.245C607.098 111.121 606.778 112.198 606.553 113.477L606.358 114.577H603.144ZM603.464 125.266C602.754 125.266 602.156 125.018 601.67 124.521C601.197 124.023 600.96 123.42 600.96 122.71C600.96 121.999 601.221 121.402 601.741 120.916C602.262 120.431 602.872 120.188 603.57 120.188C604.269 120.188 604.866 120.437 605.364 120.934C605.861 121.431 606.098 122.023 606.074 122.71C606.062 123.183 605.932 123.615 605.683 124.006C605.446 124.384 605.133 124.692 604.742 124.929C604.363 125.154 603.937 125.266 603.464 125.266ZM627.998 114.577L628.175 113.477C628.507 111.618 628.968 110.109 629.56 108.949C630.164 107.789 630.921 106.812 631.833 106.019C632.744 105.214 633.833 104.445 635.1 103.711C636.035 103.155 636.858 102.575 637.568 101.971C638.29 101.367 638.876 100.692 639.326 99.9467C639.787 99.201 640.089 98.3369 640.231 97.3544C640.433 96.0642 640.32 94.9455 639.894 93.9986C639.468 93.0398 638.799 92.3 637.888 91.7791C636.988 91.2464 635.917 90.9801 634.674 90.9801C633.466 90.9801 632.3 91.2464 631.176 91.7791C630.051 92.3 629.081 93.0634 628.264 94.0696C627.447 95.0758 626.891 96.295 626.595 97.7273H623.239C623.618 95.7741 624.381 94.0814 625.53 92.6491C626.69 91.205 628.092 90.0923 629.738 89.3111C631.395 88.5298 633.165 88.1392 635.047 88.1392C637.023 88.1392 638.687 88.5476 640.036 89.3643C641.397 90.1811 642.374 91.2997 642.966 92.7202C643.569 94.1288 643.729 95.7209 643.445 97.4964C643.244 98.7749 642.871 99.9053 642.327 100.888C641.782 101.858 641.066 102.74 640.178 103.533C639.29 104.326 638.225 105.084 636.982 105.806C635.81 106.493 634.851 107.185 634.106 107.884C633.372 108.57 632.792 109.357 632.366 110.245C631.951 111.121 631.632 112.198 631.407 113.477L631.211 114.577H627.998ZM628.317 125.266C627.607 125.266 627.009 125.018 626.524 124.521C626.05 124.023 625.814 123.42 625.814 122.71C625.814 121.999 626.074 121.402 626.595 120.916C627.116 120.431 627.725 120.188 628.424 120.188C629.122 120.188 629.72 120.437 630.217 120.934C630.714 121.431 630.951 122.023 630.927 122.71C630.916 123.183 630.785 123.615 630.537 124.006C630.3 124.384 629.986 124.692 629.596 124.929C629.217 125.154 628.791 125.266 628.317 125.266ZM652.851 114.577L653.029 113.477C653.36 111.618 653.822 110.109 654.414 108.949C655.017 107.789 655.775 106.812 656.686 106.019C657.598 105.214 658.687 104.445 659.953 103.711C660.889 103.155 661.711 102.575 662.422 101.971C663.144 101.367 663.73 100.692 664.179 99.9467C664.641 99.201 664.943 98.3369 665.085 97.3544C665.286 96.0642 665.174 94.9455 664.748 93.9986C664.321 93.0398 663.653 92.3 662.741 91.7791C661.842 91.2464 660.77 90.9801 659.527 90.9801C658.32 90.9801 657.154 91.2464 656.029 91.7791C654.905 92.3 653.934 93.0634 653.118 94.0696C652.301 95.0758 651.744 96.295 651.449 97.7273H648.093C648.471 95.7741 649.235 94.0814 650.383 92.6491C651.543 91.205 652.946 90.0923 654.591 89.3111C656.248 88.5298 658.018 88.1392 659.9 88.1392C661.877 88.1392 663.54 88.5476 664.89 89.3643C666.251 90.1811 667.227 91.2997 667.819 92.7202C668.423 94.1288 668.583 95.7209 668.299 97.4964C668.097 98.7749 667.725 99.9053 667.18 100.888C666.636 101.858 665.919 102.74 665.032 103.533C664.144 104.326 663.078 105.084 661.836 105.806C660.664 106.493 659.705 107.185 658.959 107.884C658.225 108.57 657.645 109.357 657.219 110.245C656.805 111.121 656.485 112.198 656.26 113.477L656.065 114.577H652.851ZM653.171 125.266C652.461 125.266 651.863 125.018 651.377 124.521C650.904 124.023 650.667 123.42 650.667 122.71C650.667 121.999 650.928 121.402 651.449 120.916C651.969 120.431 652.579 120.188 653.277 120.188C653.976 120.188 654.574 120.437 655.071 120.934C655.568 121.431 655.805 122.023 655.781 122.71C655.769 123.183 655.639 123.615 655.39 124.006C655.154 124.384 654.84 124.692 654.449 124.929C654.07 125.154 653.644 125.266 653.171 125.266Z" fill="#F2F2F2"/>
</svg>
