<svg width="1274" height="82" viewBox="0 0 1274 82" fill="none" xmlns="http://www.w3.org/2000/svg">
<rect x="1.5" y="1.5" width="1271" height="79" rx="18.5" fill="black" stroke="black" stroke-width="3"/>
<path d="M515.378 36.5H513.041C512.867 35.63 512.552 34.8262 512.097 34.0888C511.649 33.343 511.086 32.6926 510.406 32.1374C509.727 31.5823 508.956 31.1514 508.094 30.8448C507.233 30.5382 506.301 30.3849 505.298 30.3849C503.69 30.3849 502.224 30.8034 500.898 31.6403C499.581 32.4772 498.524 33.7076 497.729 35.3317C496.941 36.9474 496.548 38.9278 496.548 41.2727C496.548 43.6342 496.941 45.6229 497.729 47.2386C498.524 48.8544 499.581 50.0807 500.898 50.9176C502.224 51.7462 503.69 52.1605 505.298 52.1605C506.301 52.1605 507.233 52.0072 508.094 51.7006C508.956 51.3941 509.727 50.9673 510.406 50.4205C511.086 49.8653 511.649 49.2148 512.097 48.4691C512.552 47.7234 512.867 46.9155 513.041 46.0455H515.378C515.171 47.2138 514.781 48.3034 514.209 49.3143C513.646 50.3169 512.925 51.1952 512.047 51.9492C511.177 52.7032 510.174 53.2915 509.039 53.7141C507.904 54.1367 506.657 54.348 505.298 54.348C503.16 54.348 501.263 53.8136 499.605 52.7447C497.948 51.6675 496.647 50.1512 495.703 48.1957C494.766 46.2402 494.298 43.9325 494.298 41.2727C494.298 38.6129 494.766 36.3053 495.703 34.3498C496.647 32.3943 497.948 30.8821 499.605 29.8132C501.263 28.736 503.16 28.1974 505.298 28.1974C506.657 28.1974 507.904 28.4087 509.039 28.8313C510.174 29.2456 511.177 29.8339 512.047 30.5962C512.925 31.3503 513.646 32.2286 514.209 33.2312C514.781 34.2338 515.171 35.3234 515.378 36.5ZM520.377 54V34.9091H522.59V43.4975H524.665L531.762 34.9091H534.621L526.965 44.0941L534.795 54H531.936L525.349 45.5856H522.59V54H520.377ZM543.756 54.435C542.605 54.435 541.552 54.2113 540.599 53.7638C539.646 53.3081 538.888 52.6535 538.325 51.8001C537.761 50.9383 537.48 49.8943 537.48 48.668C537.48 47.7234 537.658 46.9279 538.014 46.2816C538.37 45.6353 538.876 45.105 539.53 44.6907C540.185 44.2764 540.96 43.9491 541.855 43.7088C542.75 43.4685 543.736 43.2821 544.813 43.1495C545.882 43.0169 546.785 42.9009 547.522 42.8015C548.268 42.7021 548.836 42.5446 549.225 42.3292C549.614 42.1138 549.809 41.7657 549.809 41.2852V40.8377C549.809 39.5368 549.42 38.5135 548.641 37.7678C547.87 37.0137 546.76 36.6367 545.31 36.6367C543.934 36.6367 542.812 36.9392 541.942 37.544C541.08 38.1489 540.475 38.8615 540.127 39.6818L538.027 38.9237C538.457 37.8796 539.054 37.0469 539.816 36.4254C540.579 35.7957 541.432 35.3441 542.377 35.0707C543.321 34.7889 544.278 34.6481 545.248 34.6481C545.977 34.6481 546.735 34.7434 547.522 34.9339C548.318 35.1245 549.055 35.456 549.735 35.9283C550.414 36.3923 550.965 37.0427 551.388 37.8796C551.81 38.7082 552.022 39.7605 552.022 41.0366V54H549.809V50.9798H549.672C549.407 51.5432 549.014 52.0901 548.492 52.6204C547.97 53.1507 547.315 53.5857 546.528 53.9254C545.741 54.2652 544.817 54.435 543.756 54.435ZM544.055 52.4091C545.231 52.4091 546.25 52.1481 547.112 51.6261C547.974 51.104 548.637 50.4122 549.101 49.5504C549.573 48.6804 549.809 47.7234 549.809 46.6793V43.9201C549.643 44.0775 549.366 44.2184 548.976 44.3427C548.595 44.467 548.152 44.5788 547.647 44.6783C547.149 44.7694 546.652 44.8481 546.155 44.9144C545.658 44.9807 545.21 45.0387 544.813 45.0884C543.736 45.221 542.816 45.4281 542.053 45.7099C541.291 45.9916 540.707 46.381 540.301 46.8782C539.895 47.3671 539.692 47.9968 539.692 48.7674C539.692 49.9274 540.106 50.8265 540.935 51.4645C541.763 52.0942 542.803 52.4091 544.055 52.4091ZM571.989 34.9091V54H569.764V34.9091H571.989ZM571.168 44.3427V46.4556C570.414 46.729 569.698 46.9611 569.018 47.1516C568.339 47.3339 567.655 47.4748 566.967 47.5742C566.288 47.6737 565.563 47.7234 564.792 47.7234C562.646 47.7151 560.96 47.1641 559.734 46.0703C558.516 44.9766 557.907 43.3111 557.907 41.0739V34.8469H560.119V41.0739C560.119 42.1345 560.31 43.0004 560.691 43.6715C561.072 44.3427 561.61 44.8398 562.307 45.163C563.003 45.4779 563.823 45.6353 564.767 45.6353C565.927 45.6353 567.021 45.5193 568.049 45.2873C569.076 45.0553 570.116 44.7404 571.168 44.3427ZM583.2 54.435C582.048 54.435 580.996 54.2113 580.043 53.7638C579.09 53.3081 578.332 52.6535 577.768 51.8001C577.205 50.9383 576.923 49.8943 576.923 48.668C576.923 47.7234 577.101 46.9279 577.457 46.2816C577.814 45.6353 578.319 45.105 578.974 44.6907C579.628 44.2764 580.403 43.9491 581.298 43.7088C582.193 43.4685 583.179 43.2821 584.256 43.1495C585.325 43.0169 586.228 42.9009 586.966 42.8015C587.711 42.7021 588.279 42.5446 588.668 42.3292C589.058 42.1138 589.253 41.7657 589.253 41.2852V40.8377C589.253 39.5368 588.863 38.5135 588.084 37.7678C587.314 37.0137 586.203 36.6367 584.753 36.6367C583.378 36.6367 582.255 36.9392 581.385 37.544C580.523 38.1489 579.918 38.8615 579.57 39.6818L577.47 38.9237C577.901 37.8796 578.497 37.0469 579.26 36.4254C580.022 35.7957 580.875 35.3441 581.82 35.0707C582.765 34.7889 583.722 34.6481 584.691 34.6481C585.42 34.6481 586.178 34.7434 586.966 34.9339C587.761 35.1245 588.499 35.456 589.178 35.9283C589.857 36.3923 590.408 37.0427 590.831 37.8796C591.254 38.7082 591.465 39.7605 591.465 41.0366V54H589.253V50.9798H589.116C588.851 51.5432 588.457 52.0901 587.935 52.6204C587.413 53.1507 586.758 53.5857 585.971 53.9254C585.184 54.2652 584.26 54.435 583.2 54.435ZM583.498 52.4091C584.675 52.4091 585.694 52.1481 586.555 51.6261C587.417 51.104 588.08 50.4122 588.544 49.5504C589.016 48.6804 589.253 47.7234 589.253 46.6793V43.9201C589.087 44.0775 588.809 44.2184 588.42 44.3427C588.039 44.467 587.595 44.5788 587.09 44.6783C586.593 44.7694 586.096 44.8481 585.598 44.9144C585.101 44.9807 584.654 45.0387 584.256 45.0884C583.179 45.221 582.259 45.4281 581.497 45.7099C580.735 45.9916 580.15 46.381 579.744 46.8782C579.338 47.3671 579.135 47.9968 579.135 48.7674C579.135 49.9274 579.55 50.8265 580.378 51.4645C581.207 52.0942 582.247 52.4091 583.498 52.4091ZM594.678 36.9972V34.9091H609.593V36.9972H603.279V54H601.066V36.9972H594.678ZM616.108 42.2795H621.689C623.835 42.2795 625.492 42.8015 626.661 43.8455C627.829 44.8896 628.413 46.3023 628.413 48.0838C628.413 49.2687 628.152 50.3045 627.63 51.1911C627.108 52.0777 626.346 52.7695 625.343 53.2667C624.341 53.7556 623.123 54 621.689 54H614.269V34.9091H616.481V51.9119H621.689C623.04 51.9119 624.129 51.5888 624.958 50.9425C625.786 50.2962 626.201 49.3764 626.201 48.1832C626.201 46.9652 625.786 46.0247 624.958 45.3619C624.129 44.699 623.04 44.3675 621.689 44.3675H616.108V42.2795ZM658.33 54L649.567 41.9936H645.901V54H643.576V28.5455H645.901V39.918H648.2L657.584 28.5455H660.343L650.91 40.0174L661.114 54H658.33ZM670.358 54.435C669.206 54.435 668.154 54.2113 667.201 53.7638C666.248 53.3081 665.49 52.6535 664.926 51.8001C664.363 50.9383 664.081 49.8943 664.081 48.668C664.081 47.7234 664.259 46.9279 664.616 46.2816C664.972 45.6353 665.477 45.105 666.132 44.6907C666.787 44.2764 667.561 43.9491 668.456 43.7088C669.351 43.4685 670.337 43.2821 671.414 43.1495C672.483 43.0169 673.386 42.9009 674.124 42.8015C674.87 42.7021 675.437 42.5446 675.827 42.3292C676.216 42.1138 676.411 41.7657 676.411 41.2852V40.8377C676.411 39.5368 676.021 38.5135 675.242 37.7678C674.472 37.0137 673.361 36.6367 671.911 36.6367C670.536 36.6367 669.413 36.9392 668.543 37.544C667.681 38.1489 667.077 38.8615 666.729 39.6818L664.628 38.9237C665.059 37.8796 665.656 37.0469 666.418 36.4254C667.18 35.7957 668.034 35.3441 668.978 35.0707C669.923 34.7889 670.88 34.6481 671.849 34.6481C672.578 34.6481 673.337 34.7434 674.124 34.9339C674.919 35.1245 675.657 35.456 676.336 35.9283C677.016 36.3923 677.567 37.0427 677.989 37.8796C678.412 38.7082 678.623 39.7605 678.623 41.0366V54H676.411V50.9798H676.274C676.009 51.5432 675.615 52.0901 675.093 52.6204C674.571 53.1507 673.917 53.5857 673.129 53.9254C672.342 54.2652 671.418 54.435 670.358 54.435ZM670.656 52.4091C671.833 52.4091 672.852 52.1481 673.714 51.6261C674.575 51.104 675.238 50.4122 675.702 49.5504C676.175 48.6804 676.411 47.7234 676.411 46.6793V43.9201C676.245 44.0775 675.967 44.2184 675.578 44.3427C675.197 44.467 674.754 44.5788 674.248 44.6783C673.751 44.7694 673.254 44.8481 672.757 44.9144C672.259 44.9807 671.812 45.0387 671.414 45.0884C670.337 45.221 669.417 45.4281 668.655 45.7099C667.893 45.9916 667.309 46.381 666.903 46.8782C666.497 47.3671 666.294 47.9968 666.294 48.7674C666.294 49.9274 666.708 50.8265 667.536 51.4645C668.365 52.0942 669.405 52.4091 670.656 52.4091ZM684.508 61.1591V34.9091H686.658V38.5508H686.919C687.185 37.979 687.549 37.3949 688.013 36.7983C688.477 36.1934 689.09 35.6838 689.853 35.2695C690.623 34.8552 691.593 34.6481 692.761 34.6481C694.335 34.6481 695.711 35.0624 696.887 35.891C698.072 36.7113 698.992 37.863 699.647 39.3462C700.31 40.8211 700.641 42.5405 700.641 44.5043C700.641 46.4763 700.31 48.204 699.647 49.6871C698.992 51.1703 698.072 52.3262 696.887 53.1548C695.711 53.9834 694.344 54.3977 692.786 54.3977C691.634 54.3977 690.669 54.1906 689.89 53.7763C689.119 53.362 688.494 52.8524 688.013 52.2475C687.541 51.6344 687.176 51.0378 686.919 50.4577H686.721V61.1591H684.508ZM686.696 44.467C686.696 46.0082 686.924 47.3754 687.379 48.5685C687.843 49.7534 688.506 50.6856 689.368 51.3651C690.238 52.0362 691.29 52.3718 692.525 52.3718C693.793 52.3718 694.862 52.0238 695.732 51.3278C696.61 50.6235 697.277 49.6747 697.733 48.4815C698.197 47.2884 698.429 45.9502 698.429 44.467C698.429 43.0004 698.201 41.6787 697.745 40.5021C697.298 39.3255 696.635 38.3933 695.756 37.7056C694.878 37.0096 693.801 36.6616 692.525 36.6616C691.282 36.6616 690.226 36.9972 689.356 37.6683C688.485 38.3312 687.823 39.2509 687.367 40.4276C686.919 41.5959 686.696 42.9424 686.696 44.467ZM702.925 36.9972V34.9091H717.84V36.9972H711.526V54H709.313V36.9972H702.925ZM724.057 61.1591C723.618 61.1591 723.208 61.1177 722.827 61.0348C722.446 60.9519 722.143 60.8608 721.919 60.7614L722.516 58.81C723.27 59.042 723.941 59.1249 724.53 59.0586C725.118 59.0006 725.64 58.7354 726.096 58.2631C726.551 57.7991 726.957 57.0865 727.314 56.1254L728.01 54.1864L720.987 34.9091H723.386L729.054 51.0792H729.228L734.895 34.9091H737.294L729.215 57.0202C728.876 57.94 728.457 58.7064 727.96 59.3196C727.463 59.9411 726.887 60.4009 726.232 60.6992C725.586 61.0058 724.861 61.1591 724.057 61.1591ZM766.294 28.5455V50.1967L774.932 41.5462L776.411 43.0128L765.25 54.1491L754.114 43.0128L755.555 41.5462L764.206 50.1967V28.5455H766.294Z" fill="white"/>
</svg>
