<svg width="1920" height="418" viewBox="0 0 1920 418" fill="none" xmlns="http://www.w3.org/2000/svg">
<rect x="277" y="78" width="674" height="262" rx="27.9902" fill="white"/>
<rect x="969" y="78" width="674" height="262" rx="27.9902" fill="white"/>
<path d="M335.037 168H328.888L338.258 140.858H345.653L355.009 168H348.86L342.061 147.06H341.849L335.037 168ZM334.653 157.331H349.178V161.811H334.653V157.331ZM358.17 168V147.643H366.851C369.36 147.643 371.344 148.121 372.802 149.075C374.259 150.029 374.988 151.385 374.988 153.143C374.988 154.248 374.577 155.167 373.756 155.9C372.934 156.633 371.794 157.128 370.336 157.384C371.556 157.473 372.594 157.751 373.451 158.219C374.317 158.679 374.975 159.275 375.426 160.008C375.885 160.742 376.115 161.555 376.115 162.447C376.115 163.604 375.806 164.598 375.187 165.429C374.577 166.259 373.681 166.896 372.497 167.337C371.322 167.779 369.886 168 368.19 168H358.17ZM363.432 163.772H368.19C368.976 163.772 369.59 163.587 370.032 163.216C370.482 162.836 370.708 162.319 370.708 161.665C370.708 160.941 370.482 160.371 370.032 159.955C369.59 159.54 368.976 159.333 368.19 159.333H363.432V163.772ZM363.432 156.019H366.97C367.536 156.019 368.017 155.94 368.415 155.781C368.821 155.613 369.13 155.374 369.343 155.065C369.563 154.756 369.674 154.389 369.674 153.965C369.674 153.338 369.422 152.847 368.918 152.494C368.415 152.141 367.726 151.964 366.851 151.964H363.432V156.019ZM378.613 152.083V147.643H397.061V152.083H390.501V168H385.12V152.083H378.613ZM408.952 168.398C406.894 168.398 405.113 167.96 403.611 167.086C402.118 166.202 400.965 164.974 400.152 163.401C399.339 161.82 398.933 159.986 398.933 157.901C398.933 155.798 399.339 153.961 400.152 152.388C400.965 150.807 402.118 149.578 403.611 148.704C405.113 147.82 406.894 147.378 408.952 147.378C411.011 147.378 412.787 147.82 414.28 148.704C415.782 149.578 416.939 150.807 417.752 152.388C418.565 153.961 418.971 155.798 418.971 157.901C418.971 159.986 418.565 161.82 417.752 163.401C416.939 164.974 415.782 166.202 414.28 167.086C412.787 167.96 411.011 168.398 408.952 168.398ZM408.979 164.024C409.915 164.024 410.697 163.759 411.324 163.229C411.952 162.69 412.424 161.957 412.743 161.029C413.069 160.101 413.233 159.045 413.233 157.862C413.233 156.678 413.069 155.622 412.743 154.694C412.424 153.766 411.952 153.033 411.324 152.494C410.697 151.955 409.915 151.686 408.979 151.686C408.033 151.686 407.238 151.955 406.593 152.494C405.957 153.033 405.476 153.766 405.149 154.694C404.831 155.622 404.672 156.678 404.672 157.862C404.672 159.045 404.831 160.101 405.149 161.029C405.476 161.957 405.957 162.69 406.593 163.229C407.238 163.759 408.033 164.024 408.979 164.024ZM422.643 175.634V147.643H428.209V151.063H428.461C428.708 150.515 429.066 149.958 429.534 149.393C430.011 148.819 430.63 148.341 431.389 147.962C432.158 147.573 433.112 147.378 434.252 147.378C435.736 147.378 437.106 147.767 438.36 148.545C439.615 149.313 440.618 150.475 441.369 152.03C442.12 153.576 442.495 155.516 442.495 157.848C442.495 160.119 442.129 162.036 441.395 163.6C440.671 165.155 439.681 166.335 438.427 167.139C437.181 167.934 435.785 168.331 434.239 168.331C433.143 168.331 432.211 168.15 431.442 167.788C430.683 167.426 430.06 166.971 429.574 166.423C429.088 165.866 428.717 165.305 428.461 164.74H428.288V175.634H422.643ZM428.169 157.822C428.169 159.032 428.337 160.088 428.673 160.989C429.008 161.89 429.494 162.593 430.13 163.096C430.767 163.591 431.54 163.839 432.45 163.839C433.369 163.839 434.146 163.587 434.782 163.083C435.418 162.571 435.9 161.864 436.227 160.963C436.562 160.053 436.73 159.006 436.73 157.822C436.73 156.647 436.567 155.613 436.24 154.721C435.913 153.828 435.432 153.13 434.795 152.627C434.159 152.123 433.377 151.871 432.45 151.871C431.531 151.871 430.753 152.114 430.117 152.6C429.49 153.086 429.008 153.775 428.673 154.668C428.337 155.56 428.169 156.611 428.169 157.822ZM449.559 168.345C448.685 168.345 447.934 168.035 447.306 167.417C446.688 166.79 446.379 166.039 446.379 165.164C446.379 164.298 446.688 163.556 447.306 162.937C447.934 162.319 448.685 162.01 449.559 162.01C450.407 162.01 451.15 162.319 451.786 162.937C452.422 163.556 452.74 164.298 452.74 165.164C452.74 165.747 452.59 166.282 452.289 166.767C451.998 167.245 451.613 167.629 451.136 167.92C450.659 168.203 450.133 168.345 449.559 168.345ZM449.559 154.084C448.685 154.084 447.934 153.775 447.306 153.157C446.688 152.538 446.379 151.787 446.379 150.904C446.379 150.038 446.688 149.3 447.306 148.69C447.934 148.072 448.685 147.763 449.559 147.763C450.407 147.763 451.15 148.072 451.786 148.69C452.422 149.3 452.74 150.038 452.74 150.904C452.74 151.496 452.59 152.035 452.289 152.521C451.998 152.998 451.613 153.378 451.136 153.66C450.659 153.943 450.133 154.084 449.559 154.084ZM467.209 168L471.715 140.858H488.095L487.618 143.774H474.524L473.093 152.256H479.985C481.928 152.256 483.519 152.574 484.756 153.21C485.993 153.846 486.863 154.743 487.367 155.9C487.87 157.057 487.989 158.423 487.724 159.995C487.459 161.568 486.881 162.955 485.988 164.157C485.096 165.358 483.925 166.299 482.476 166.98C481.027 167.66 479.331 168 477.387 168H467.209ZM470.973 165.137H477.864C479.101 165.137 480.188 164.89 481.124 164.395C482.07 163.892 482.83 163.247 483.404 162.46C483.987 161.665 484.349 160.826 484.491 159.942C484.703 158.643 484.389 157.526 483.55 156.589C482.71 155.644 481.363 155.171 479.508 155.171H472.616L470.973 165.137ZM499.788 168.424C497.915 168.424 496.346 167.978 495.083 167.086C493.82 166.193 492.927 164.943 492.406 163.335C491.893 161.727 491.81 159.854 492.154 157.716C492.49 155.631 493.157 153.815 494.155 152.269C495.163 150.714 496.413 149.512 497.906 148.664C499.408 147.807 501.06 147.378 502.862 147.378C504.736 147.378 506.299 147.829 507.554 148.73C508.817 149.623 509.71 150.877 510.231 152.494C510.752 154.102 510.841 155.984 510.496 158.14C510.16 160.207 509.485 162.014 508.468 163.56C507.461 165.098 506.211 166.295 504.718 167.152C503.234 168 501.59 168.424 499.788 168.424ZM499.841 165.614C501.272 165.614 502.513 165.248 503.565 164.514C504.625 163.781 505.482 162.814 506.136 161.612C506.799 160.41 507.245 159.112 507.475 157.716C507.687 156.39 507.678 155.158 507.448 154.018C507.218 152.87 506.728 151.946 505.977 151.248C505.226 150.541 504.17 150.188 502.809 150.188C501.378 150.188 500.128 150.559 499.059 151.301C497.999 152.043 497.142 153.02 496.488 154.23C495.834 155.441 495.397 156.744 495.176 158.14C494.964 159.465 494.968 160.698 495.189 161.837C495.419 162.968 495.909 163.883 496.66 164.581C497.42 165.27 498.48 165.614 499.841 165.614ZM521.871 168.424C519.953 168.424 518.381 167.973 517.152 167.072C515.933 166.171 515.085 164.93 514.608 163.348C514.131 161.767 514.06 159.96 514.396 157.928C514.732 155.86 515.412 154.036 516.437 152.454C517.462 150.864 518.738 149.623 520.267 148.73C521.795 147.829 523.479 147.378 525.316 147.378C526.748 147.378 527.993 147.643 529.054 148.174C530.114 148.704 530.931 149.446 531.505 150.4C532.08 151.354 532.349 152.468 532.314 153.74H529.186C529.098 152.812 528.7 151.99 527.993 151.275C527.295 150.55 526.262 150.188 524.892 150.188C523.673 150.188 522.551 150.506 521.526 151.142C520.501 151.77 519.64 152.658 518.942 153.806C518.244 154.946 517.771 156.284 517.524 157.822C517.258 159.394 517.281 160.764 517.59 161.93C517.899 163.096 518.46 164.002 519.273 164.647C520.086 165.292 521.111 165.614 522.348 165.614C523.16 165.614 523.92 165.473 524.627 165.19C525.334 164.908 525.961 164.501 526.509 163.971C527.057 163.441 527.49 162.805 527.808 162.063H530.936C530.547 163.264 529.924 164.347 529.067 165.31C528.21 166.264 527.172 167.024 525.952 167.589C524.733 168.146 523.373 168.424 521.871 168.424ZM538.423 163.388L550.828 147.643H554.433L551.04 168H547.913L550.51 152.256L538.158 168H534.501L537.893 147.643H541.021L538.423 163.388ZM572.301 156.39L571.824 159.306H560.586L561.063 156.39H572.301ZM563.289 147.643L559.896 168H556.769L560.162 147.643H563.289ZM576.171 147.643L572.778 168H569.651L573.043 147.643H576.171ZM589.411 168L593.917 140.858H603.088C605.208 140.858 606.883 141.238 608.111 141.998C609.348 142.758 610.183 143.787 610.615 145.086C611.057 146.384 611.146 147.838 610.881 149.446C610.615 151.036 610.046 152.485 609.171 153.793C608.305 155.1 607.13 156.143 605.646 156.921C604.17 157.698 602.381 158.087 600.278 158.087H593.705L594.182 155.171H600.649C602.098 155.171 603.309 154.919 604.281 154.416C605.252 153.912 606.012 153.227 606.56 152.362C607.108 151.496 607.47 150.524 607.647 149.446C607.823 148.35 607.779 147.378 607.514 146.53C607.258 145.673 606.724 145.002 605.911 144.516C605.107 144.021 603.971 143.774 602.505 143.774H596.726L592.697 168H589.411ZM613.408 175.634C612.878 175.634 612.41 175.59 612.004 175.501C611.606 175.422 611.332 175.342 611.182 175.263L612.454 172.506C613.179 172.7 613.824 172.758 614.389 172.678C614.964 172.608 615.507 172.329 616.019 171.843C616.541 171.366 617.084 170.615 617.649 169.59L618.524 168L614.442 147.643H617.702L620.618 163.918H620.83L629.153 147.643H632.678L620.194 170.942C619.611 172.029 618.97 172.917 618.272 173.606C617.574 174.295 616.819 174.803 616.006 175.13C615.193 175.466 614.327 175.634 613.408 175.634ZM640.902 168.424C638.984 168.424 637.412 167.973 636.184 167.072C634.964 166.171 634.116 164.93 633.639 163.348C633.162 161.767 633.091 159.96 633.427 157.928C633.763 155.86 634.443 154.036 635.468 152.454C636.493 150.864 637.77 149.623 639.298 148.73C640.827 147.829 642.51 147.378 644.347 147.378C645.779 147.378 647.025 147.643 648.085 148.174C649.145 148.704 649.962 149.446 650.537 150.4C651.111 151.354 651.38 152.468 651.345 153.74H648.217C648.129 152.812 647.731 151.99 647.025 151.275C646.327 150.55 645.293 150.188 643.923 150.188C642.704 150.188 641.582 150.506 640.557 151.142C639.532 151.77 638.671 152.658 637.973 153.806C637.275 154.946 636.802 156.284 636.555 157.822C636.29 159.394 636.312 160.764 636.621 161.93C636.93 163.096 637.491 164.002 638.304 164.647C639.117 165.292 640.142 165.614 641.379 165.614C642.192 165.614 642.952 165.473 643.658 165.19C644.365 164.908 644.992 164.501 645.54 163.971C646.088 163.441 646.521 162.805 646.839 162.063H649.967C649.578 163.264 648.955 164.347 648.098 165.31C647.241 166.264 646.203 167.024 644.984 167.589C643.764 168.146 642.404 168.424 640.902 168.424ZM651.729 168L652.206 165.084H652.949C653.558 165.084 654.084 164.965 654.526 164.727C654.976 164.479 655.378 164.051 655.732 163.441C656.094 162.823 656.434 161.965 656.752 160.87C657.079 159.766 657.419 158.361 657.773 156.655L659.628 147.643H673.199L669.806 168H666.679L669.594 150.559H662.12L660.582 157.822C660.238 159.492 659.845 160.963 659.403 162.235C658.97 163.498 658.453 164.559 657.852 165.416C657.26 166.273 656.549 166.918 655.719 167.351C654.897 167.784 653.921 168 652.79 168H651.729ZM681.482 168.477C680.192 168.477 679.061 168.234 678.089 167.748C677.118 167.253 676.397 166.542 675.929 165.614C675.461 164.678 675.333 163.547 675.545 162.222C675.748 161.055 676.141 160.11 676.724 159.386C677.308 158.652 678.014 158.078 678.845 157.663C679.684 157.239 680.585 156.925 681.548 156.722C682.52 156.51 683.488 156.346 684.451 156.231C685.705 156.072 686.726 155.949 687.512 155.86C688.299 155.772 688.891 155.626 689.288 155.423C689.686 155.22 689.929 154.871 690.017 154.376V154.27C690.229 152.971 690.057 151.96 689.5 151.235C688.944 150.502 687.95 150.135 686.518 150.135C685.034 150.135 683.793 150.462 682.794 151.116C681.796 151.77 681.058 152.468 680.581 153.21L677.824 152.149C678.549 150.913 679.415 149.95 680.422 149.26C681.429 148.562 682.485 148.076 683.589 147.803C684.694 147.52 685.758 147.378 686.783 147.378C687.437 147.378 688.175 147.458 688.997 147.617C689.818 147.767 690.587 148.081 691.303 148.558C692.027 149.035 692.57 149.755 692.933 150.718C693.304 151.681 693.357 152.971 693.092 154.588L690.865 168H687.738L688.215 165.243H688.056C687.773 165.685 687.34 166.158 686.757 166.661C686.183 167.165 685.454 167.594 684.57 167.947C683.695 168.3 682.666 168.477 681.482 168.477ZM682.383 165.667C683.62 165.667 684.703 165.425 685.63 164.939C686.567 164.453 687.318 163.825 687.883 163.057C688.458 162.288 688.815 161.48 688.957 160.631L689.434 157.769C689.275 157.928 688.961 158.074 688.493 158.206C688.025 158.33 687.495 158.44 686.903 158.537C686.32 158.626 685.75 158.705 685.193 158.776C684.645 158.838 684.203 158.891 683.868 158.935C683.037 159.041 682.246 159.213 681.495 159.452C680.753 159.682 680.126 160.031 679.614 160.499C679.11 160.958 678.796 161.586 678.673 162.381C678.487 163.467 678.748 164.289 679.455 164.846C680.161 165.394 681.138 165.667 682.383 165.667ZM712.106 156.39L711.629 159.306H700.391L700.868 156.39H712.106ZM703.094 147.643L699.702 168H696.574L699.967 147.643H703.094ZM715.976 147.643L712.584 168H709.456L712.849 147.643H715.976ZM728.834 158.004L732.198 137.719H737.422L737.112 139.603H734.162L731.427 156.119H734.377L734.067 158.004H728.834ZM737.531 156L740.235 139.715H750.389L750.039 141.83H742.342L741.595 146.283H745.237C746.445 146.283 747.442 146.479 748.226 146.871C749.011 147.264 749.568 147.818 749.896 148.533C750.225 149.249 750.307 150.092 750.143 151.062C749.978 152.032 749.61 152.888 749.038 153.63C748.47 154.373 747.728 154.953 746.811 155.372C745.899 155.791 744.839 156 743.63 156H737.531ZM740.338 153.933H743.972C744.672 153.933 745.287 153.795 745.817 153.519C746.347 153.243 746.774 152.886 747.097 152.446C747.426 152.006 747.633 151.534 747.718 151.03C747.834 150.299 747.654 149.67 747.177 149.146C746.705 148.615 745.944 148.35 744.895 148.35H741.261L740.338 153.933ZM752.697 156L753.007 154.219L759.448 148.509C760.137 147.889 760.713 147.346 761.174 146.879C761.64 146.408 762.003 145.96 762.263 145.535C762.528 145.111 762.703 144.661 762.788 144.184C762.878 143.643 762.83 143.176 762.645 142.784C762.465 142.387 762.176 142.082 761.778 141.87C761.38 141.652 760.903 141.544 760.347 141.544C759.764 141.544 759.234 141.663 758.756 141.902C758.279 142.14 757.882 142.477 757.564 142.911C757.246 143.346 757.036 143.855 756.935 144.438H754.598C754.762 143.447 755.138 142.58 755.727 141.838C756.315 141.096 757.044 140.521 757.914 140.112C758.783 139.699 759.724 139.492 760.736 139.492C761.765 139.492 762.632 139.696 763.337 140.104C764.047 140.507 764.561 141.059 764.879 141.758C765.197 142.453 765.282 143.237 765.134 144.112C765.028 144.722 764.813 145.315 764.49 145.893C764.166 146.466 763.668 147.107 762.995 147.818C762.321 148.523 761.404 149.379 760.243 150.386L756.458 153.774L756.434 153.893H763.758L763.416 156H752.697ZM766.951 152.819L767.269 150.831L776.151 139.715H777.717L777.232 142.641H776.238L769.877 150.609V150.736H779.514L779.172 152.819H766.951ZM774.131 156L774.759 152.199L774.934 151.316L776.85 139.715H779.18L776.477 156H774.131ZM783.45 156.223L783.816 154.06H784.786C785.194 154.06 785.544 153.991 785.836 153.853C786.127 153.715 786.377 153.53 786.583 153.296C786.795 153.058 786.981 152.798 787.14 152.517L787.474 151.937L783.768 139.715H786.377L789.08 149.13L794.456 139.715H797.024L789.176 153.177C788.842 153.718 788.481 154.219 788.094 154.68C787.707 155.141 787.233 155.515 786.671 155.801C786.109 156.082 785.404 156.223 784.556 156.223H783.45ZM806.997 156L802.735 148.7H801.01L799.793 156H797.336L800.039 139.715H802.497L801.352 146.593H802.155L809.454 139.715H812.452L804.739 147.007L809.995 156H806.997ZM815.647 139.715H818.08L816.108 151.674H816.259L826.517 139.715H828.791L826.087 156H823.63L825.618 144.056H825.467L815.209 156H812.943L815.647 139.715ZM838.876 146.824L838.534 148.891H831.305L831.647 146.824H838.876ZM840.502 156L840.812 154.219L847.253 148.509C847.942 147.889 848.517 147.346 848.978 146.879C849.445 146.408 849.808 145.96 850.067 145.535C850.333 145.111 850.507 144.661 850.592 144.184C850.682 143.643 850.635 143.176 850.449 142.784C850.269 142.387 849.98 142.082 849.582 141.87C849.185 141.652 848.708 141.544 848.151 141.544C847.568 141.544 847.038 141.663 846.561 141.902C846.084 142.14 845.686 142.477 845.368 142.911C845.05 143.346 844.841 143.855 844.74 144.438H842.402C842.566 143.447 842.943 142.58 843.531 141.838C844.12 141.096 844.848 140.521 845.718 140.112C846.587 139.699 847.528 139.492 848.541 139.492C849.569 139.492 850.436 139.696 851.141 140.104C851.851 140.507 852.366 141.059 852.684 141.758C853.002 142.453 853.087 143.237 852.938 144.112C852.832 144.722 852.617 145.315 852.294 145.893C851.971 146.466 851.472 147.107 850.799 147.818C850.126 148.523 849.209 149.379 848.048 150.386L844.263 153.774L844.239 153.893H851.562L851.22 156H840.502ZM862.301 137.719L858.938 158.004H853.713L854.023 156.119H856.973L859.709 139.603H856.759L857.069 137.719H862.301Z" fill="black"/>
<path d="M346.779 231.444L338.059 219.875H336.098V231.444H330.359V204.302H336.098V215.143H337.251L346.263 204.302H353.406L342.817 216.893L353.896 231.444H346.779ZM358.667 239.078C357.952 239.078 357.28 239.021 356.653 238.906C356.034 238.8 355.522 238.663 355.115 238.495L356.388 234.28C357.05 234.484 357.647 234.594 358.177 234.612C358.716 234.629 359.18 234.506 359.568 234.241C359.966 233.976 360.289 233.525 360.536 232.889L360.867 232.027L353.565 211.088H359.502L363.717 226.037H363.929L368.183 211.088H374.16L366.248 233.644C365.868 234.74 365.351 235.694 364.697 236.507C364.052 237.329 363.235 237.96 362.246 238.402C361.256 238.853 360.063 239.078 358.667 239.078ZM377.049 239.078V211.088H382.615V214.507H382.867C383.115 213.959 383.472 213.403 383.941 212.837C384.418 212.263 385.036 211.786 385.796 211.406C386.565 211.017 387.519 210.823 388.659 210.823C390.143 210.823 391.512 211.212 392.767 211.989C394.022 212.758 395.024 213.92 395.775 215.475C396.526 217.021 396.902 218.96 396.902 221.293C396.902 223.563 396.535 225.481 395.802 227.044C395.078 228.599 394.088 229.779 392.833 230.583C391.588 231.378 390.192 231.776 388.645 231.776C387.55 231.776 386.618 231.595 385.849 231.232C385.089 230.87 384.466 230.415 383.98 229.867C383.494 229.311 383.123 228.75 382.867 228.184H382.695V239.078H377.049ZM382.576 221.266C382.576 222.477 382.743 223.532 383.079 224.434C383.415 225.335 383.901 226.037 384.537 226.541C385.173 227.036 385.946 227.283 386.856 227.283C387.775 227.283 388.553 227.031 389.189 226.527C389.825 226.015 390.306 225.308 390.633 224.407C390.969 223.497 391.137 222.45 391.137 221.266C391.137 220.091 390.974 219.057 390.647 218.165C390.32 217.273 389.838 216.575 389.202 216.071C388.566 215.567 387.784 215.316 386.856 215.316C385.937 215.316 385.16 215.558 384.524 216.044C383.896 216.53 383.415 217.22 383.079 218.112C382.743 219.004 382.576 220.056 382.576 221.266ZM406.471 231.829C405.172 231.829 404.014 231.603 402.998 231.153C401.982 230.693 401.178 230.017 400.586 229.125C400.003 228.224 399.712 227.102 399.712 225.759C399.712 224.628 399.919 223.678 400.335 222.909C400.75 222.141 401.315 221.522 402.031 221.054C402.747 220.586 403.559 220.232 404.469 219.994C405.388 219.755 406.351 219.587 407.359 219.49C408.542 219.366 409.497 219.252 410.221 219.146C410.946 219.031 411.471 218.863 411.798 218.642C412.125 218.421 412.289 218.094 412.289 217.661V217.582C412.289 216.742 412.024 216.093 411.493 215.634C410.972 215.174 410.23 214.944 409.267 214.944C408.251 214.944 407.442 215.17 406.842 215.62C406.241 216.062 405.843 216.619 405.649 217.29L400.427 216.866C400.692 215.629 401.214 214.56 401.991 213.659C402.769 212.749 403.771 212.051 405 211.565C406.236 211.07 407.668 210.823 409.293 210.823C410.424 210.823 411.507 210.955 412.54 211.22C413.583 211.485 414.506 211.896 415.31 212.453C416.123 213.01 416.764 213.725 417.232 214.6C417.7 215.466 417.934 216.504 417.934 217.714V231.444H412.58V228.621H412.421C412.094 229.258 411.657 229.819 411.109 230.305C410.561 230.782 409.903 231.157 409.134 231.431C408.366 231.696 407.478 231.829 406.471 231.829ZM408.087 227.932C408.918 227.932 409.651 227.769 410.287 227.442C410.924 227.106 411.423 226.656 411.785 226.09C412.147 225.525 412.328 224.884 412.328 224.168V222.008C412.152 222.123 411.909 222.229 411.599 222.326C411.299 222.415 410.959 222.499 410.579 222.578C410.199 222.649 409.819 222.715 409.439 222.777C409.059 222.83 408.715 222.879 408.406 222.923C407.743 223.02 407.164 223.175 406.669 223.387C406.175 223.599 405.79 223.886 405.516 224.248C405.243 224.601 405.106 225.043 405.106 225.573C405.106 226.342 405.384 226.93 405.94 227.336C406.506 227.734 407.222 227.932 408.087 227.932ZM420.27 215.528V211.088H438.718V215.528H432.158V231.444H426.777V215.528H420.27ZM450.609 231.842C448.551 231.842 446.771 231.405 445.269 230.53C443.775 229.646 442.622 228.418 441.81 226.846C440.997 225.264 440.59 223.431 440.59 221.346C440.59 219.243 440.997 217.405 441.81 215.832C442.622 214.251 443.775 213.023 445.269 212.148C446.771 211.265 448.551 210.823 450.609 210.823C452.668 210.823 454.444 211.265 455.937 212.148C457.439 213.023 458.597 214.251 459.409 215.832C460.222 217.405 460.629 219.243 460.629 221.346C460.629 223.431 460.222 225.264 459.409 226.846C458.597 228.418 457.439 229.646 455.937 230.53C454.444 231.405 452.668 231.842 450.609 231.842ZM450.636 227.468C451.573 227.468 452.354 227.203 452.982 226.673C453.609 226.134 454.082 225.401 454.4 224.473C454.727 223.546 454.89 222.49 454.89 221.306C454.89 220.122 454.727 219.066 454.4 218.138C454.082 217.211 453.609 216.477 452.982 215.938C452.354 215.399 451.573 215.13 450.636 215.13C449.691 215.13 448.895 215.399 448.25 215.938C447.614 216.477 447.133 217.211 446.806 218.138C446.488 219.066 446.329 220.122 446.329 221.306C446.329 222.49 446.488 223.546 446.806 224.473C447.133 225.401 447.614 226.134 448.25 226.673C448.895 227.203 449.691 227.468 450.636 227.468ZM464.3 239.078V211.088H469.866V214.507H470.118C470.365 213.959 470.723 213.403 471.191 212.837C471.668 212.263 472.287 211.786 473.047 211.406C473.815 211.017 474.77 210.823 475.909 210.823C477.394 210.823 478.763 211.212 480.018 211.989C481.272 212.758 482.275 213.92 483.026 215.475C483.777 217.021 484.153 218.96 484.153 221.293C484.153 223.563 483.786 225.481 483.053 227.044C482.328 228.599 481.339 229.779 480.084 230.583C478.838 231.378 477.442 231.776 475.896 231.776C474.801 231.776 473.868 231.595 473.1 231.232C472.34 230.87 471.717 230.415 471.231 229.867C470.745 229.311 470.374 228.75 470.118 228.184H469.946V239.078H464.3ZM469.826 221.266C469.826 222.477 469.994 223.532 470.33 224.434C470.666 225.335 471.152 226.037 471.788 226.541C472.424 227.036 473.197 227.283 474.107 227.283C475.026 227.283 475.803 227.031 476.439 226.527C477.076 226.015 477.557 225.308 477.884 224.407C478.22 223.497 478.388 222.45 478.388 221.266C478.388 220.091 478.224 219.057 477.897 218.165C477.57 217.273 477.089 216.575 476.453 216.071C475.817 215.567 475.035 215.316 474.107 215.316C473.188 215.316 472.411 215.558 471.774 216.044C471.147 216.53 470.666 217.22 470.33 218.112C469.994 219.004 469.826 220.056 469.826 221.266ZM491.455 217.343H497.538C500.233 217.343 502.336 217.988 503.847 219.278C505.357 220.559 506.113 222.273 506.113 224.42C506.113 225.816 505.773 227.044 505.092 228.105C504.412 229.156 503.431 229.978 502.15 230.57C500.869 231.153 499.332 231.444 497.538 231.444H487.916V211.088H493.31V227.005H497.538C498.484 227.005 499.261 226.766 499.871 226.289C500.48 225.812 500.79 225.202 500.798 224.46C500.79 223.674 500.48 223.033 499.871 222.538C499.261 222.035 498.484 221.783 497.538 221.783H491.455V217.343ZM508.3 231.444V211.088H513.945V231.444H508.3ZM521.758 231.789C520.883 231.789 520.132 231.48 519.505 230.861C518.886 230.234 518.577 229.483 518.577 228.608C518.577 227.742 518.886 227 519.505 226.382C520.132 225.763 520.883 225.454 521.758 225.454C522.606 225.454 523.348 225.763 523.984 226.382C524.62 227 524.939 227.742 524.939 228.608C524.939 229.191 524.788 229.726 524.488 230.212C524.196 230.689 523.812 231.073 523.335 231.365C522.858 231.648 522.332 231.789 521.758 231.789ZM521.758 217.529C520.883 217.529 520.132 217.22 519.505 216.601C518.886 215.983 518.577 215.232 518.577 214.348C518.577 213.482 518.886 212.744 519.505 212.135C520.132 211.516 520.883 211.207 521.758 211.207C522.606 211.207 523.348 211.516 523.984 212.135C524.62 212.744 524.939 213.482 524.939 214.348C524.939 214.94 524.788 215.479 524.488 215.965C524.196 216.442 523.812 216.822 523.335 217.105C522.858 217.387 522.332 217.529 521.758 217.529ZM555.364 231.444L548.101 218.987H544.762L542.694 231.444H539.407L543.913 204.302H547.2L545.239 216.071H546.67L559.499 204.302H563.422L550.487 216.23L559.287 231.444H555.364ZM569.048 231.921C567.758 231.921 566.627 231.678 565.655 231.193C564.683 230.698 563.963 229.987 563.495 229.059C563.026 228.122 562.898 226.991 563.11 225.666C563.314 224.5 563.707 223.554 564.29 222.83C564.873 222.097 565.58 221.522 566.41 221.107C567.25 220.683 568.151 220.369 569.114 220.166C570.086 219.954 571.053 219.791 572.016 219.676C573.271 219.517 574.291 219.393 575.078 219.305C575.864 219.216 576.456 219.071 576.854 218.867C577.251 218.664 577.494 218.315 577.583 217.82V217.714C577.795 216.416 577.622 215.404 577.066 214.679C576.509 213.946 575.515 213.579 574.084 213.579C572.599 213.579 571.358 213.906 570.36 214.56C569.361 215.214 568.624 215.912 568.146 216.654L565.39 215.594C566.114 214.357 566.98 213.394 567.987 212.705C568.995 212.007 570.05 211.521 571.155 211.247C572.259 210.964 573.324 210.823 574.349 210.823C575.003 210.823 575.74 210.902 576.562 211.061C577.384 211.212 578.152 211.525 578.868 212.002C579.593 212.479 580.136 213.199 580.498 214.163C580.869 215.126 580.922 216.416 580.657 218.032L578.431 231.444H575.303L575.78 228.688H575.621C575.338 229.129 574.905 229.602 574.322 230.106C573.748 230.609 573.019 231.038 572.136 231.391C571.261 231.745 570.232 231.921 569.048 231.921ZM569.949 229.112C571.186 229.112 572.268 228.869 573.196 228.383C574.132 227.897 574.883 227.27 575.449 226.501C576.023 225.732 576.381 224.924 576.522 224.076L576.999 221.213C576.84 221.372 576.527 221.518 576.058 221.65C575.59 221.774 575.06 221.885 574.468 221.982C573.885 222.07 573.315 222.15 572.758 222.22C572.211 222.282 571.769 222.335 571.433 222.379C570.603 222.485 569.812 222.658 569.061 222.896C568.319 223.126 567.691 223.475 567.179 223.943C566.675 224.403 566.362 225.03 566.238 225.825C566.052 226.912 566.313 227.734 567.02 228.29C567.727 228.838 568.703 229.112 569.949 229.112ZM595.961 227.203L605.768 211.088H608.737L596.544 231.444H594L588.751 211.088H591.667L595.961 227.203ZM590.66 211.088L587.267 231.444H584.139L587.532 211.088H590.66ZM603.277 231.444L606.669 211.088H609.797L606.404 231.444H603.277ZM616.052 226.832L628.457 211.088H632.062L628.669 231.444H625.542L628.139 215.7L615.787 231.444H612.13L615.522 211.088H618.65L616.052 226.832ZM632.595 231.444L633.073 228.529H633.815C634.424 228.529 634.95 228.409 635.392 228.171C635.842 227.923 636.244 227.495 636.598 226.885C636.96 226.267 637.3 225.41 637.618 224.314C637.945 223.21 638.285 221.805 638.639 220.1L640.494 211.088H654.065L650.672 231.444H647.545L650.46 214.003H642.986L641.448 221.266C641.104 222.936 640.711 224.407 640.269 225.679C639.836 226.943 639.319 228.003 638.718 228.86C638.126 229.717 637.415 230.362 636.585 230.795C635.763 231.228 634.787 231.444 633.656 231.444H632.595ZM662.348 231.921C661.058 231.921 659.927 231.678 658.956 231.193C657.984 230.698 657.264 229.987 656.795 229.059C656.327 228.122 656.199 226.991 656.411 225.666C656.614 224.5 657.007 223.554 657.59 222.83C658.174 222.097 658.88 221.522 659.711 221.107C660.55 220.683 661.451 220.369 662.415 220.166C663.386 219.954 664.354 219.791 665.317 219.676C666.572 219.517 667.592 219.393 668.378 219.305C669.165 219.216 669.757 219.071 670.154 218.867C670.552 218.664 670.795 218.315 670.883 217.82V217.714C671.095 216.416 670.923 215.404 670.366 214.679C669.81 213.946 668.816 213.579 667.384 213.579C665.9 213.579 664.659 213.906 663.66 214.56C662.662 215.214 661.924 215.912 661.447 216.654L658.69 215.594C659.415 214.357 660.281 213.394 661.288 212.705C662.295 212.007 663.351 211.521 664.455 211.247C665.56 210.964 666.625 210.823 667.649 210.823C668.303 210.823 669.041 210.902 669.863 211.061C670.684 211.212 671.453 211.525 672.169 212.002C672.893 212.479 673.437 213.199 673.799 214.163C674.17 215.126 674.223 216.416 673.958 218.032L671.731 231.444H668.604L669.081 228.688H668.922C668.639 229.129 668.206 229.602 667.623 230.106C667.049 230.609 666.32 231.038 665.436 231.391C664.562 231.745 663.532 231.921 662.348 231.921ZM663.249 229.112C664.486 229.112 665.569 228.869 666.496 228.383C667.433 227.897 668.184 227.27 668.749 226.501C669.324 225.732 669.682 224.924 669.823 224.076L670.3 221.213C670.141 221.372 669.827 221.518 669.359 221.65C668.891 221.774 668.361 221.885 667.769 221.982C667.186 222.07 666.616 222.15 666.059 222.22C665.511 222.282 665.07 222.335 664.734 222.379C663.903 222.485 663.113 222.658 662.362 222.896C661.619 223.126 660.992 223.475 660.48 223.943C659.976 224.403 659.662 225.03 659.539 225.825C659.353 226.912 659.614 227.734 660.321 228.29C661.027 228.838 662.004 229.112 663.249 229.112ZM688.36 231.444L692.866 204.302H702.037C704.158 204.302 705.832 204.682 707.06 205.442C708.297 206.202 709.132 207.231 709.565 208.53C710.007 209.829 710.095 211.282 709.83 212.89C709.565 214.481 708.995 215.93 708.121 217.237C707.255 218.545 706.08 219.587 704.595 220.365C703.12 221.142 701.331 221.531 699.228 221.531H692.654L693.132 218.615H699.599C701.048 218.615 702.258 218.364 703.23 217.86C704.202 217.356 704.962 216.672 705.51 215.806C706.058 214.94 706.42 213.968 706.596 212.89C706.773 211.795 706.729 210.823 706.464 209.975C706.208 209.118 705.673 208.446 704.86 207.96C704.056 207.465 702.921 207.218 701.454 207.218H695.676L691.647 231.444H688.36ZM715.512 226.832L727.917 211.088H731.522L728.129 231.444H725.002L727.599 215.7L715.247 231.444H711.59L714.982 211.088H718.11L715.512 226.832ZM739.583 211.088L743.082 219.411L749.337 211.088H752.942L744.672 221.266L749.549 231.444H745.944L742.393 223.546L736.19 231.444H732.586L740.749 221.266L735.978 211.088H739.583ZM755.762 214.003L756.239 211.088H772.778L772.301 214.003H765.622L762.759 231.444H759.631L762.494 214.003H755.762ZM781.373 231.868C779.42 231.868 777.808 231.436 776.536 230.57C775.263 229.695 774.375 228.476 773.872 226.912C773.368 225.339 773.289 223.51 773.633 221.425C773.978 219.34 774.662 217.502 775.687 215.912C776.712 214.313 777.989 213.067 779.517 212.175C781.046 211.273 782.725 210.823 784.554 210.823C785.614 210.823 786.634 210.999 787.615 211.353C788.596 211.706 789.444 212.281 790.16 213.076C790.875 213.862 791.374 214.905 791.657 216.203C791.94 217.502 791.922 219.101 791.604 221.001L791.392 222.326H775.701L776.125 219.623H788.635C788.839 218.474 788.786 217.449 788.476 216.548C788.176 215.647 787.65 214.936 786.899 214.414C786.157 213.893 785.216 213.632 784.076 213.632C782.901 213.632 781.806 213.95 780.79 214.587C779.774 215.214 778.925 216.009 778.245 216.972C777.565 217.926 777.141 218.898 776.973 219.888L776.602 222.22C776.337 223.908 776.376 225.251 776.721 226.249C777.074 227.248 777.689 227.968 778.563 228.409C779.438 228.842 780.533 229.059 781.85 229.059C782.689 229.059 783.462 228.944 784.169 228.714C784.876 228.476 785.508 228.122 786.064 227.654C786.621 227.177 787.089 226.585 787.469 225.878L790.332 226.726C789.846 227.751 789.161 228.652 788.278 229.43C787.403 230.199 786.378 230.799 785.203 231.232C784.037 231.656 782.76 231.868 781.373 231.868ZM793.413 239.078L798.105 211.088H801.126L800.596 214.322H800.967C801.25 213.968 801.639 213.518 802.134 212.97C802.637 212.413 803.313 211.918 804.161 211.485C805.018 211.044 806.109 210.823 807.435 210.823C809.149 210.823 810.585 211.251 811.742 212.108C812.899 212.965 813.717 214.18 814.194 215.753C814.671 217.326 814.733 219.181 814.379 221.319C814.026 223.475 813.35 225.344 812.352 226.925C811.353 228.498 810.134 229.717 808.694 230.583C807.254 231.44 805.685 231.868 803.989 231.868C802.681 231.868 801.67 231.652 800.954 231.219C800.238 230.777 799.717 230.278 799.39 229.721C799.063 229.156 798.812 228.688 798.635 228.317H798.37L796.567 239.078H793.413ZM799.483 221.266C799.236 222.803 799.236 224.16 799.483 225.335C799.739 226.501 800.247 227.415 801.007 228.078C801.776 228.732 802.787 229.059 804.042 229.059C805.35 229.059 806.494 228.714 807.475 228.025C808.464 227.327 809.277 226.391 809.913 225.215C810.558 224.032 811.004 222.715 811.252 221.266C811.481 219.835 811.472 218.545 811.225 217.396C810.978 216.239 810.474 215.324 809.714 214.653C808.954 213.973 807.912 213.632 806.587 213.632C805.314 213.632 804.188 213.955 803.207 214.6C802.235 215.236 801.431 216.128 800.795 217.277C800.168 218.417 799.73 219.746 799.483 221.266ZM823.825 227.734L823.613 229.165C823.463 230.172 823.233 231.25 822.924 232.399C822.624 233.547 822.31 234.629 821.983 235.646C821.656 236.662 821.387 237.47 821.175 238.071H818.789C818.904 237.505 819.054 236.759 819.24 235.831C819.425 234.903 819.611 233.865 819.796 232.717C819.991 231.577 820.15 230.411 820.274 229.218L820.433 227.734H823.825ZM330.704 276.444H327.258L341.73 249.302H345.123L350.583 276.444H347.137L342.843 253.596H342.631L330.704 276.444ZM333.725 265.842H347.614L347.137 268.758H333.248L333.725 265.842ZM369.919 264.835L369.442 267.75H358.203L358.681 264.835H369.919ZM360.907 256.088L357.514 276.444H354.387L357.779 256.088H360.907ZM373.789 256.088L370.396 276.444H367.268L370.661 256.088H373.789ZM391.641 264.835L391.163 267.75H379.925L380.402 264.835H391.641ZM382.629 256.088L379.236 276.444H376.108L379.501 256.088H382.629ZM395.51 256.088L392.118 276.444H388.99L392.383 256.088H395.51ZM403.767 276.921C402.477 276.921 401.346 276.678 400.374 276.193C399.402 275.698 398.682 274.987 398.214 274.059C397.746 273.122 397.618 271.991 397.83 270.666C398.033 269.5 398.426 268.554 399.009 267.83C399.592 267.097 400.299 266.522 401.13 266.107C401.969 265.683 402.87 265.369 403.833 265.166C404.805 264.954 405.773 264.791 406.736 264.676C407.99 264.517 409.011 264.393 409.797 264.305C410.583 264.216 411.175 264.071 411.573 263.867C411.971 263.664 412.214 263.315 412.302 262.82V262.714C412.514 261.416 412.342 260.404 411.785 259.679C411.228 258.946 410.234 258.579 408.803 258.579C407.319 258.579 406.077 258.906 405.079 259.56C404.081 260.214 403.343 260.912 402.866 261.654L400.109 260.594C400.834 259.357 401.7 258.394 402.707 257.705C403.714 257.007 404.77 256.521 405.874 256.247C406.979 255.964 408.043 255.823 409.068 255.823C409.722 255.823 410.46 255.902 411.281 256.061C412.103 256.212 412.872 256.525 413.587 257.002C414.312 257.479 414.855 258.199 415.218 259.163C415.589 260.126 415.642 261.416 415.377 263.032L413.15 276.444H410.022L410.499 273.688H410.34C410.058 274.129 409.625 274.602 409.042 275.106C408.467 275.609 407.738 276.038 406.855 276.391C405.98 276.745 404.951 276.921 403.767 276.921ZM404.668 274.112C405.905 274.112 406.987 273.869 407.915 273.383C408.852 272.897 409.603 272.27 410.168 271.501C410.742 270.732 411.1 269.924 411.242 269.076L411.719 266.213C411.56 266.372 411.246 266.518 410.778 266.65C410.31 266.774 409.779 266.885 409.187 266.982C408.604 267.07 408.034 267.15 407.478 267.22C406.93 267.282 406.488 267.335 406.153 267.379C405.322 267.485 404.531 267.658 403.78 267.896C403.038 268.126 402.411 268.475 401.898 268.943C401.395 269.403 401.081 270.03 400.957 270.825C400.772 271.912 401.032 272.734 401.739 273.29C402.446 273.838 403.422 274.112 404.668 274.112ZM445.736 276.444L438.473 263.987H435.133L433.066 276.444H429.779L434.285 249.302H437.572L435.61 261.071H437.042L449.871 249.302H453.794L440.859 261.23L449.659 276.444H445.736ZM460.39 276.868C458.517 276.868 456.949 276.422 455.685 275.53C454.422 274.638 453.53 273.387 453.008 271.779C452.496 270.171 452.412 268.298 452.756 266.16C453.092 264.075 453.759 262.259 454.758 260.713C455.765 259.158 457.015 257.956 458.508 257.108C460.01 256.251 461.662 255.823 463.465 255.823C465.338 255.823 466.902 256.273 468.156 257.175C469.42 258.067 470.312 259.322 470.833 260.938C471.355 262.546 471.443 264.428 471.099 266.584C470.763 268.652 470.087 270.458 469.071 272.005C468.064 273.542 466.813 274.739 465.32 275.596C463.836 276.444 462.193 276.868 460.39 276.868ZM460.443 274.059C461.874 274.059 463.116 273.692 464.167 272.959C465.227 272.225 466.085 271.258 466.738 270.056C467.401 268.855 467.847 267.556 468.077 266.16C468.289 264.835 468.28 263.602 468.05 262.462C467.821 261.314 467.33 260.391 466.579 259.693C465.828 258.986 464.772 258.632 463.412 258.632C461.981 258.632 460.73 259.003 459.661 259.746C458.601 260.488 457.744 261.464 457.09 262.675C456.436 263.885 455.999 265.188 455.778 266.584C455.566 267.909 455.571 269.142 455.791 270.282C456.021 271.413 456.511 272.327 457.262 273.025C458.022 273.714 459.083 274.059 460.443 274.059ZM486.078 272.203L495.885 256.088H498.853L486.661 276.444H484.116L478.868 256.088H481.784L486.078 272.203ZM480.776 256.088L477.384 276.444H474.256L477.649 256.088H480.776ZM493.393 276.444L496.786 256.088H499.914L496.521 276.444H493.393ZM502.246 276.444L505.639 256.088H508.767L507.282 264.941H509.35L518.15 256.088H522.179L512.318 265.895L518.892 276.444H514.863L509.615 267.856H506.805L505.374 276.444H502.246ZM529.855 276.868C527.982 276.868 526.414 276.422 525.151 275.53C523.887 274.638 522.995 273.387 522.474 271.779C521.961 270.171 521.877 268.298 522.222 266.16C522.557 264.075 523.225 262.259 524.223 260.713C525.23 259.158 526.48 257.956 527.973 257.108C529.475 256.251 531.128 255.823 532.93 255.823C534.803 255.823 536.367 256.273 537.622 257.175C538.885 258.067 539.777 259.322 540.299 260.938C540.82 262.546 540.908 264.428 540.564 266.584C540.228 268.652 539.552 270.458 538.536 272.005C537.529 273.542 536.279 274.739 534.785 275.596C533.301 276.444 531.658 276.868 529.855 276.868ZM529.908 274.059C531.34 274.059 532.581 273.692 533.632 272.959C534.693 272.225 535.55 271.258 536.204 270.056C536.866 268.855 537.312 267.556 537.542 266.16C537.754 264.835 537.745 263.602 537.516 262.462C537.286 261.314 536.796 260.391 536.045 259.693C535.294 258.986 534.238 258.632 532.877 258.632C531.446 258.632 530.196 259.003 529.126 259.746C528.066 260.488 527.209 261.464 526.555 262.675C525.902 263.885 525.464 265.188 525.243 266.584C525.031 267.909 525.036 269.142 525.257 270.282C525.486 271.413 525.977 272.327 526.728 273.025C527.488 273.714 528.548 274.059 529.908 274.059ZM543.721 276.444L547.114 256.088H555.437C557.61 256.088 559.263 256.587 560.393 257.585C561.524 258.575 561.957 259.878 561.692 261.495C561.48 262.741 560.95 263.699 560.102 264.371C559.254 265.042 558.246 265.497 557.08 265.736C557.805 265.842 558.485 266.107 559.121 266.531C559.766 266.955 560.257 267.538 560.592 268.281C560.937 269.023 561.021 269.924 560.844 270.984C560.667 272.027 560.243 272.959 559.572 273.78C558.909 274.602 558.043 275.252 556.974 275.729C555.914 276.206 554.695 276.444 553.316 276.444H543.721ZM547.167 273.582H553.794C554.88 273.582 555.773 273.325 556.471 272.813C557.169 272.292 557.584 271.594 557.716 270.719C557.902 269.659 557.734 268.828 557.213 268.228C556.7 267.627 555.914 267.326 554.854 267.326H548.227L547.167 273.582ZM548.651 264.623H554.006C554.836 264.623 555.574 264.508 556.219 264.278C556.864 264.04 557.385 263.704 557.783 263.271C558.18 262.829 558.423 262.308 558.512 261.707C558.671 260.859 558.428 260.187 557.783 259.693C557.147 259.198 556.206 258.95 554.96 258.95H549.606L548.651 264.623ZM570.615 276.921C569.325 276.921 568.194 276.678 567.222 276.193C566.25 275.698 565.53 274.987 565.062 274.059C564.594 273.122 564.465 271.991 564.677 270.666C564.881 269.5 565.274 268.554 565.857 267.83C566.44 267.097 567.147 266.522 567.977 266.107C568.817 265.683 569.718 265.369 570.681 265.166C571.653 264.954 572.62 264.791 573.583 264.676C574.838 264.517 575.859 264.393 576.645 264.305C577.431 264.216 578.023 264.071 578.421 263.867C578.818 263.664 579.061 263.315 579.15 262.82V262.714C579.362 261.416 579.189 260.404 578.633 259.679C578.076 258.946 577.082 258.579 575.651 258.579C574.167 258.579 572.925 258.906 571.927 259.56C570.928 260.214 570.191 260.912 569.714 261.654L566.957 260.594C567.681 259.357 568.547 258.394 569.555 257.705C570.562 257.007 571.618 256.521 572.722 256.247C573.826 255.964 574.891 255.823 575.916 255.823C576.57 255.823 577.308 255.902 578.129 256.061C578.951 256.212 579.72 256.525 580.435 257.002C581.16 257.479 581.703 258.199 582.065 259.163C582.436 260.126 582.489 261.416 582.224 263.032L579.998 276.444H576.87L577.347 273.688H577.188C576.906 274.129 576.473 274.602 575.889 275.106C575.315 275.609 574.586 276.038 573.703 276.391C572.828 276.745 571.799 276.921 570.615 276.921ZM571.516 274.112C572.753 274.112 573.835 273.869 574.763 273.383C575.7 272.897 576.451 272.27 577.016 271.501C577.59 270.732 577.948 269.924 578.089 269.076L578.567 266.213C578.408 266.372 578.094 266.518 577.626 266.65C577.157 266.774 576.627 266.885 576.035 266.982C575.452 267.07 574.882 267.15 574.326 267.22C573.778 267.282 573.336 267.335 573 267.379C572.17 267.485 571.379 267.658 570.628 267.896C569.886 268.126 569.259 268.475 568.746 268.943C568.243 269.403 567.929 270.03 567.805 270.825C567.62 271.912 567.88 272.734 568.587 273.29C569.294 273.838 570.27 274.112 571.516 274.112ZM592.068 272.734L591.856 274.165C591.706 275.172 591.476 276.25 591.167 277.399C590.866 278.547 590.553 279.629 590.226 280.646C589.899 281.662 589.629 282.47 589.417 283.071H587.032C587.147 282.505 587.297 281.759 587.482 280.831C587.668 279.903 587.854 278.865 588.039 277.717C588.233 276.577 588.392 275.411 588.516 274.218L588.675 272.734H592.068ZM608.2 276.444H604.754L619.227 249.302H622.619L628.08 276.444H624.634L620.34 253.596H620.128L608.2 276.444ZM611.222 265.842H625.111L624.634 268.758H610.745L611.222 265.842ZM630.611 284.078L635.302 256.088H638.324L637.794 259.322H638.165C638.448 258.968 638.836 258.518 639.331 257.97C639.835 257.413 640.511 256.918 641.359 256.485C642.216 256.044 643.307 255.823 644.632 255.823C646.346 255.823 647.782 256.251 648.94 257.108C650.097 257.965 650.914 259.18 651.391 260.753C651.869 262.326 651.93 264.181 651.577 266.319C651.224 268.475 650.548 270.344 649.549 271.925C648.551 273.498 647.332 274.717 645.891 275.583C644.451 276.44 642.883 276.868 641.187 276.868C639.879 276.868 638.867 276.652 638.152 276.219C637.436 275.777 636.915 275.278 636.588 274.721C636.261 274.156 636.009 273.688 635.832 273.317H635.567L633.765 284.078H630.611ZM636.681 266.266C636.433 267.803 636.433 269.16 636.681 270.335C636.937 271.501 637.445 272.415 638.205 273.078C638.973 273.732 639.985 274.059 641.24 274.059C642.547 274.059 643.691 273.714 644.672 273.025C645.662 272.327 646.475 271.391 647.111 270.215C647.756 269.032 648.202 267.715 648.449 266.266C648.679 264.835 648.67 263.545 648.423 262.396C648.175 261.239 647.672 260.324 646.912 259.653C646.152 258.973 645.11 258.632 643.784 258.632C642.512 258.632 641.385 258.955 640.405 259.6C639.433 260.236 638.629 261.128 637.993 262.277C637.365 263.417 636.928 264.746 636.681 266.266ZM654.917 259.003L655.394 256.088H671.933L671.456 259.003H664.777L661.914 276.444H658.787L661.649 259.003H654.917ZM680.528 276.868C678.575 276.868 676.963 276.436 675.691 275.57C674.418 274.695 673.53 273.476 673.027 271.912C672.523 270.339 672.444 268.51 672.788 266.425C673.133 264.34 673.818 262.502 674.842 260.912C675.867 259.313 677.144 258.067 678.673 257.175C680.201 256.273 681.88 255.823 683.709 255.823C684.769 255.823 685.789 255.999 686.77 256.353C687.751 256.706 688.599 257.281 689.315 258.076C690.03 258.862 690.53 259.905 690.812 261.203C691.095 262.502 691.077 264.101 690.759 266.001L690.547 267.326H674.856L675.28 264.623H687.791C687.994 263.474 687.941 262.449 687.632 261.548C687.331 260.647 686.805 259.936 686.054 259.414C685.312 258.893 684.371 258.632 683.232 258.632C682.056 258.632 680.961 258.95 679.945 259.587C678.929 260.214 678.081 261.009 677.4 261.972C676.72 262.926 676.296 263.898 676.128 264.888L675.757 267.22C675.492 268.908 675.532 270.251 675.876 271.249C676.23 272.248 676.844 272.968 677.718 273.409C678.593 273.842 679.689 274.059 681.005 274.059C681.844 274.059 682.618 273.944 683.324 273.714C684.031 273.476 684.663 273.122 685.22 272.654C685.776 272.177 686.244 271.585 686.624 270.878L689.487 271.726C689.001 272.751 688.316 273.652 687.433 274.43C686.558 275.199 685.533 275.799 684.358 276.232C683.192 276.656 681.915 276.868 680.528 276.868ZM680.395 252.695C679.812 252.695 679.326 252.461 678.938 251.993C678.549 251.516 678.399 250.972 678.487 250.363C678.567 249.806 678.832 249.351 679.282 248.998C679.733 248.635 680.21 248.454 680.714 248.454C681.376 248.454 681.893 248.679 682.264 249.13C682.644 249.572 682.781 250.124 682.675 250.787C682.595 251.29 682.339 251.736 681.906 252.125C681.482 252.505 680.979 252.695 680.395 252.695ZM688.029 252.695C687.446 252.695 686.956 252.465 686.558 252.006C686.16 251.546 686.015 250.999 686.121 250.363C686.218 249.806 686.487 249.351 686.929 248.998C687.371 248.635 687.844 248.454 688.347 248.454C689.01 248.454 689.527 248.679 689.898 249.13C690.278 249.572 690.415 250.124 690.309 250.787C690.229 251.29 689.973 251.736 689.54 252.125C689.116 252.505 688.612 252.695 688.029 252.695ZM705.662 272.203L715.469 256.088H718.438L706.245 276.444H703.701L698.453 256.088H701.368L705.662 272.203ZM700.361 256.088L696.968 276.444H693.841L697.233 256.088H700.361ZM712.978 276.444L716.371 256.088H719.498L716.105 276.444H712.978ZM730.419 276.444L730.949 273.423H731.744C732.875 273.423 733.811 273.06 734.554 272.336C735.305 271.611 735.95 270.441 736.488 268.824C737.036 267.207 737.575 265.064 738.105 262.396L740.756 249.302H757.296L752.79 276.444H749.503L753.532 252.218H743.407L741.18 263.032C740.597 265.877 739.93 268.298 739.179 270.295C738.437 272.292 737.456 273.816 736.237 274.867C735.026 275.919 733.423 276.444 731.426 276.444H730.419ZM764.87 276.921C763.58 276.921 762.449 276.678 761.477 276.193C760.505 275.698 759.785 274.987 759.317 274.059C758.848 273.122 758.72 271.991 758.932 270.666C759.136 269.5 759.529 268.554 760.112 267.83C760.695 267.097 761.402 266.522 762.232 266.107C763.072 265.683 763.973 265.369 764.936 265.166C765.908 264.954 766.875 264.791 767.838 264.676C769.093 264.517 770.113 264.393 770.9 264.305C771.686 264.216 772.278 264.071 772.676 263.867C773.073 263.664 773.316 263.315 773.405 262.82V262.714C773.617 261.416 773.444 260.404 772.888 259.679C772.331 258.946 771.337 258.579 769.906 258.579C768.421 258.579 767.18 258.906 766.182 259.56C765.183 260.214 764.446 260.912 763.968 261.654L761.212 260.594C761.936 259.357 762.802 258.394 763.809 257.705C764.817 257.007 765.872 256.521 766.977 256.247C768.081 255.964 769.146 255.823 770.171 255.823C770.825 255.823 771.562 255.902 772.384 256.061C773.206 256.212 773.974 256.525 774.69 257.002C775.415 257.479 775.958 258.199 776.32 259.163C776.691 260.126 776.744 261.416 776.479 263.032L774.253 276.444H771.125L771.602 273.688H771.443C771.16 274.129 770.727 274.602 770.144 275.106C769.57 275.609 768.841 276.038 767.958 276.391C767.083 276.745 766.054 276.921 764.87 276.921ZM765.771 274.112C767.008 274.112 768.09 273.869 769.018 273.383C769.954 272.897 770.705 272.27 771.271 271.501C771.845 270.732 772.203 269.924 772.344 269.076L772.821 266.213C772.662 266.372 772.349 266.518 771.88 266.65C771.412 266.774 770.882 266.885 770.29 266.982C769.707 267.07 769.137 267.15 768.58 267.22C768.033 267.282 767.591 267.335 767.255 267.379C766.425 267.485 765.634 267.658 764.883 267.896C764.141 268.126 763.513 268.475 763.001 268.943C762.497 269.403 762.184 270.03 762.06 270.825C761.874 271.912 762.135 272.734 762.842 273.29C763.549 273.838 764.525 274.112 765.771 274.112ZM780.107 259.003L780.584 256.088H797.124L796.647 259.003H789.967L787.105 276.444H783.977L786.84 259.003H780.107ZM803.171 263.456H809.002C811.387 263.456 813.106 264.062 814.157 265.272C815.218 266.483 815.602 268.015 815.31 269.871C815.098 271.09 814.626 272.199 813.892 273.197C813.159 274.187 812.196 274.978 811.003 275.57C809.81 276.153 808.419 276.444 806.828 276.444H798.294L801.686 256.088H804.814L801.898 273.529H807.306C808.551 273.529 809.625 273.206 810.526 272.561C811.436 271.907 811.971 271.064 812.13 270.03C812.315 268.943 812.063 268.064 811.374 267.393C810.694 266.712 809.744 266.372 808.525 266.372H802.694L803.171 263.456ZM817.431 276.444L820.824 256.088H823.951L820.558 276.444H817.431ZM829.676 256.088H832.804L829.889 273.529H837.575L840.491 256.088H843.619L840.703 273.529H848.39L851.305 256.088H854.433L851.04 276.444H826.284L829.676 256.088ZM865.234 276.868C863.281 276.868 861.669 276.436 860.397 275.57C859.124 274.695 858.237 273.476 857.733 271.912C857.229 270.339 857.15 268.51 857.494 266.425C857.839 264.34 858.524 262.502 859.549 260.912C860.573 259.313 861.85 258.067 863.379 257.175C864.907 256.273 866.586 255.823 868.415 255.823C869.475 255.823 870.495 255.999 871.476 256.353C872.457 256.706 873.305 257.281 874.021 258.076C874.736 258.862 875.236 259.905 875.518 261.203C875.801 262.502 875.783 264.101 875.465 266.001L875.253 267.326H859.562L859.986 264.623H872.497C872.7 263.474 872.647 262.449 872.338 261.548C872.037 260.647 871.512 259.936 870.761 259.414C870.018 258.893 869.077 258.632 867.938 258.632C866.763 258.632 865.667 258.95 864.651 259.587C863.635 260.214 862.787 261.009 862.106 261.972C861.426 262.926 861.002 263.898 860.834 264.888L860.463 267.22C860.198 268.908 860.238 270.251 860.582 271.249C860.936 272.248 861.55 272.968 862.424 273.409C863.299 273.842 864.395 274.059 865.711 274.059C866.551 274.059 867.324 273.944 868.03 273.714C868.737 273.476 869.369 273.122 869.926 272.654C870.482 272.177 870.951 271.585 871.33 270.878L874.193 271.726C873.707 272.751 873.022 273.652 872.139 274.43C871.264 275.199 870.239 275.799 869.064 276.232C867.898 276.656 866.621 276.868 865.234 276.868ZM878.547 276.444L881.939 256.088H890.262C892.436 256.088 894.088 256.587 895.219 257.585C896.35 258.575 896.783 259.878 896.518 261.495C896.306 262.741 895.776 263.699 894.927 264.371C894.079 265.042 893.072 265.497 891.906 265.736C892.63 265.842 893.31 266.107 893.947 266.531C894.592 266.955 895.082 267.538 895.418 268.281C895.762 269.023 895.846 269.924 895.669 270.984C895.493 272.027 895.069 272.959 894.397 273.78C893.735 274.602 892.869 275.252 891.8 275.729C890.739 276.206 889.52 276.444 888.142 276.444H878.547ZM881.992 273.582H888.619C889.706 273.582 890.598 273.325 891.296 272.813C891.994 272.292 892.409 271.594 892.542 270.719C892.727 269.659 892.559 268.828 892.038 268.228C891.526 267.627 890.739 267.326 889.679 267.326H883.053L881.992 273.582ZM883.477 264.623H888.831C889.661 264.623 890.399 264.508 891.044 264.278C891.689 264.04 892.21 263.704 892.608 263.271C893.006 262.829 893.249 262.308 893.337 261.707C893.496 260.859 893.253 260.187 892.608 259.693C891.972 259.198 891.031 258.95 889.785 258.95H884.431L883.477 264.623Z" fill="black"/>
<path d="M1207.01 221.398C1205.1 221.398 1203.45 221.047 1202.07 220.347C1200.69 219.646 1199.62 218.685 1198.87 217.463C1198.13 216.241 1197.75 214.845 1197.75 213.273C1197.75 212.061 1198.01 210.986 1198.52 210.048C1199.04 209.101 1199.76 208.225 1200.66 207.42C1201.58 206.606 1202.64 205.792 1203.83 204.977L1208.04 201.852C1208.86 201.312 1209.52 200.735 1210.01 200.119C1210.51 199.504 1210.76 198.699 1210.76 197.705C1210.76 196.966 1210.44 196.251 1209.78 195.56C1209.14 194.868 1208.29 194.523 1207.24 194.523C1206.5 194.523 1205.85 194.712 1205.28 195.091C1204.72 195.46 1204.28 195.934 1203.96 196.511C1203.65 197.08 1203.49 197.667 1203.49 198.273C1203.49 198.955 1203.68 199.646 1204.05 200.347C1204.42 201.038 1204.9 201.748 1205.48 202.477C1206.07 203.197 1206.67 203.936 1207.3 204.693L1220.65 221H1216.62L1205.59 207.705C1204.57 206.473 1203.64 205.356 1202.81 204.352C1201.98 203.348 1201.31 202.359 1200.82 201.384C1200.33 200.408 1200.08 199.352 1200.08 198.216C1200.08 196.909 1200.37 195.763 1200.95 194.778C1201.54 193.784 1202.35 193.012 1203.41 192.463C1204.47 191.904 1205.71 191.625 1207.13 191.625C1208.59 191.625 1209.84 191.909 1210.89 192.477C1211.94 193.036 1212.75 193.779 1213.32 194.707C1213.89 195.626 1214.17 196.625 1214.17 197.705C1214.17 199.097 1213.83 200.304 1213.14 201.327C1212.44 202.349 1211.5 203.301 1210.31 204.182L1204.51 208.5C1203.21 209.466 1202.32 210.403 1201.86 211.312C1201.39 212.222 1201.16 212.875 1201.16 213.273C1201.16 214.182 1201.4 215.029 1201.87 215.815C1202.35 216.601 1203.01 217.236 1203.87 217.719C1204.74 218.202 1205.74 218.443 1206.9 218.443C1208 218.443 1209.07 218.211 1210.11 217.747C1211.15 217.274 1212.09 216.592 1212.94 215.702C1213.79 214.812 1214.46 213.741 1214.95 212.491C1215.46 211.241 1215.71 209.835 1215.71 208.273H1218.95C1218.95 210.205 1218.72 211.781 1218.28 213.003C1217.83 214.224 1217.33 215.181 1216.77 215.872C1216.21 216.563 1215.76 217.08 1215.42 217.42C1215.31 217.562 1215.21 217.705 1215.11 217.847C1215.02 217.989 1214.91 218.131 1214.8 218.273C1213.86 219.324 1212.68 220.11 1211.25 220.631C1209.82 221.142 1208.41 221.398 1207.01 221.398Z" fill="#6A6A6A"/>
<path d="M1155.8 228.999L1155.51 245.135H1152.45L1152.16 228.999H1155.8ZM1153.98 251.86C1153.37 251.86 1152.85 251.646 1152.41 251.219C1151.98 250.784 1151.76 250.26 1151.77 249.648C1151.76 249.043 1151.98 248.527 1152.41 248.1C1152.85 247.665 1153.37 247.447 1153.98 247.447C1154.58 247.447 1155.1 247.665 1155.53 248.1C1155.97 248.527 1156.19 249.043 1156.2 249.648C1156.19 250.054 1156.08 250.426 1155.87 250.765C1155.68 251.097 1155.41 251.362 1155.08 251.561C1154.75 251.761 1154.38 251.86 1153.98 251.86Z" fill="black"/>
<path d="M1135.44 251.96V248.951H1136.8C1137.37 248.951 1137.84 248.855 1138.21 248.664C1138.58 248.472 1138.89 248.214 1139.13 247.889C1139.37 247.558 1139.57 247.196 1139.73 246.806L1140.06 245.998L1132.09 228.999H1135.72L1141.66 242.094L1146.95 228.999H1150.53L1142.7 247.724C1142.37 248.476 1141.98 249.172 1141.55 249.814C1141.12 250.455 1140.55 250.975 1139.83 251.373C1139.12 251.764 1138.17 251.96 1136.99 251.96H1135.44Z" fill="black"/>
<path d="M1132.6 240.324C1132.6 242.742 1132.16 244.822 1131.28 246.562C1130.39 248.295 1129.18 249.629 1127.64 250.566C1126.1 251.495 1124.36 251.959 1122.41 251.959C1120.44 251.959 1118.69 251.495 1117.15 250.566C1115.62 249.629 1114.41 248.291 1113.52 246.551C1112.64 244.811 1112.2 242.735 1112.2 240.324C1112.2 237.905 1112.64 235.83 1113.52 234.097C1114.41 232.357 1115.62 231.022 1117.15 230.093C1118.69 229.157 1120.44 228.688 1122.41 228.688C1124.36 228.688 1126.1 229.157 1127.64 230.093C1129.18 231.022 1130.39 232.357 1131.28 234.097C1132.16 235.83 1132.6 237.905 1132.6 240.324ZM1129.22 240.324C1129.22 238.481 1128.92 236.928 1128.32 235.668C1127.73 234.399 1126.92 233.441 1125.89 232.792C1124.86 232.136 1123.7 231.807 1122.41 231.807C1121.1 231.807 1119.94 232.136 1118.91 232.792C1117.89 233.441 1117.07 234.399 1116.48 235.668C1115.89 236.928 1115.59 238.481 1115.59 240.324C1115.59 242.167 1115.89 243.723 1116.48 244.991C1117.07 246.252 1117.89 247.211 1118.91 247.867C1119.94 248.516 1121.1 248.84 1122.41 248.84C1123.7 248.84 1124.86 248.516 1125.89 247.867C1126.92 247.211 1127.73 246.252 1128.32 244.991C1128.92 243.723 1129.22 242.167 1129.22 240.324Z" fill="black"/>
<path d="M1084.44 228.999H1087.82V248.686H1095.3V228.999H1098.68V248.686H1106.14V228.999H1109.51V251.65H1084.44V228.999Z" fill="black"/>
<path d="M1141.96 204.082H1145.34V220.716H1145.55L1157.08 204.082H1160.24V226.733H1156.82V210.12H1156.61L1145.11 226.733H1141.96V204.082Z" fill="black"/>
<path d="M1122.42 207.024V204.082H1139.95V207.024H1132.88V226.733H1129.48V207.024H1122.42Z" fill="black"/>
<path d="M1115.29 226.733H1111.86V207.013H1107.57C1106.45 207.013 1105.54 207.182 1104.84 207.521C1104.14 207.853 1103.63 208.332 1103.3 208.959C1102.98 209.586 1102.81 210.327 1102.81 211.182C1102.81 212.03 1102.98 212.756 1103.3 213.361C1103.63 213.966 1104.13 214.427 1104.83 214.744C1105.52 215.061 1106.42 215.219 1107.54 215.219H1113.34V218.161H1107.22C1105.47 218.161 1104.01 217.87 1102.85 217.288C1101.69 216.705 1100.82 215.89 1100.24 214.843C1099.66 213.789 1099.38 212.568 1099.38 211.182C1099.38 209.789 1099.66 208.561 1100.24 207.499C1100.81 206.43 1101.68 205.593 1102.84 204.988C1104 204.384 1105.46 204.082 1107.21 204.082H1115.29V226.733ZM1104.11 216.513H1107.89L1102.39 226.733H1098.51L1104.11 216.513Z" fill="black"/>
<path d="M1077 226.733V223.769L1077.66 223.747C1078.56 223.725 1079.27 223.419 1079.79 222.829C1080.31 222.239 1080.69 221.288 1080.93 219.975C1081.17 218.663 1081.33 216.911 1081.41 214.722L1081.8 204.082H1096.12V226.733H1092.75V206.979H1085.02L1084.66 215.628C1084.57 218.054 1084.33 220.093 1083.93 221.745C1083.54 223.389 1082.88 224.632 1081.94 225.472C1081.01 226.313 1079.69 226.733 1077.97 226.733H1077Z" fill="black"/>
<path d="M1119.17 151.927C1133.62 151.927 1145.33 163.806 1145.33 178.46C1145.33 178.671 1145.33 178.882 1145.32 179.092H1142.21C1142.21 178.882 1142.22 178.671 1142.22 178.46C1142.22 165.551 1131.9 155.086 1119.17 155.086C1106.44 155.086 1096.12 165.551 1096.12 178.46C1096.12 178.671 1096.12 178.882 1096.13 179.092H1093.02C1093.01 178.882 1093.01 178.671 1093.01 178.46C1093.01 163.806 1104.72 151.927 1119.17 151.927Z" fill="black"/>
<path d="M1118.91 195.818C1114.18 195.818 1110.07 193.141 1107.96 189.199H1111.7C1113.41 191.312 1116.01 192.659 1118.91 192.659C1121.82 192.659 1124.42 191.312 1126.13 189.199H1129.87C1127.76 193.141 1123.65 195.818 1118.91 195.818Z" fill="black"/>
<path d="M1142.22 179.092H1145.33V200.571H1142.22V179.092Z" fill="black"/>
<path d="M1131.66 148.698C1131.85 148.119 1132.65 148.119 1132.84 148.698L1134.77 154.652C1134.84 154.842 1134.98 154.992 1135.17 155.054L1141.04 157.013C1141.61 157.203 1141.61 158.022 1141.04 158.213L1135.17 160.171C1134.98 160.234 1134.84 160.383 1134.77 160.574L1132.84 166.527C1132.65 167.107 1131.85 167.107 1131.66 166.527L1129.73 160.574C1129.67 160.383 1129.52 160.234 1129.33 160.171L1123.46 158.213C1122.89 158.022 1122.89 157.203 1123.46 157.013L1129.33 155.054C1129.52 154.992 1129.67 154.842 1129.73 154.652L1131.66 148.698Z" fill="black"/>
<path d="M1130.53 148.145C1131.17 146.618 1133.33 146.618 1133.97 148.145L1134.03 148.303L1135.86 153.954L1141.43 155.813L1141.59 155.871C1143.09 156.514 1143.09 158.712 1141.59 159.354L1141.43 159.413L1135.86 161.271L1134.03 166.922C1133.48 168.605 1131.19 168.658 1130.53 167.08L1130.48 166.922L1128.64 161.271L1123.07 159.413C1121.36 158.841 1121.36 156.384 1123.07 155.813L1128.64 153.954L1130.48 148.303L1130.53 148.145ZM1132.84 148.698C1132.65 148.119 1131.85 148.119 1131.66 148.698L1129.73 154.652L1129.7 154.721C1129.63 154.878 1129.5 155 1129.33 155.054L1123.46 157.013C1122.89 157.203 1122.89 158.022 1123.46 158.213L1129.33 160.171C1129.52 160.234 1129.67 160.383 1129.73 160.574L1131.66 166.527C1131.84 167.07 1132.56 167.104 1132.8 166.629L1132.84 166.527L1134.77 160.574C1134.84 160.383 1134.98 160.234 1135.17 160.171L1141.04 158.213C1141.58 158.034 1141.61 157.303 1141.14 157.056L1141.04 157.013L1135.17 155.054C1135.01 155 1134.87 154.878 1134.8 154.721L1134.77 154.652L1132.84 148.698Z" fill="white"/>
<path d="M1093.01 179.092H1096.12V200.571H1093.01V179.092Z" fill="black"/>
<path d="M1134.12 177.196C1134.12 178.941 1132.73 180.355 1131 180.355C1129.28 180.355 1127.89 178.941 1127.89 177.196C1127.89 175.452 1129.28 174.038 1131 174.038C1132.73 174.038 1134.12 175.452 1134.12 177.196Z" fill="black"/>
<path d="M1111.07 177.196C1111.07 178.941 1109.68 180.355 1107.96 180.355C1106.24 180.355 1104.84 178.941 1104.84 177.196C1104.84 175.452 1106.24 174.038 1107.96 174.038C1109.68 174.038 1111.07 175.452 1111.07 177.196Z" fill="black"/>
<g clip-path="url(#clip0_14_618)">
<path d="M1281.08 185.975H1276.18V206.777H1269V159.445H1276.18V178.411H1281.08V159.445H1288.26V206.832H1281.08V185.975Z" fill="black"/>
<path d="M1300.62 207.332H1299.23C1293.5 207.332 1290.43 204.218 1290.43 198.378V188.867H1297.56V197.154C1297.56 199.323 1298.28 200.491 1299.9 200.491C1301.62 200.491 1302.24 199.323 1302.24 196.431V195.374C1302.24 191.982 1301.9 190.814 1299.29 187.421L1294.78 181.47C1291.71 177.521 1290.82 174.462 1290.82 169.734V168.233C1290.82 161.948 1294 159 1299.68 159H1301.01C1306.91 159 1309.25 161.614 1309.25 167.232V175.018H1302.29V168.177C1302.29 166.564 1301.96 165.396 1300.23 165.396C1298.51 165.396 1298.12 166.453 1298.12 168.733V169.623C1298.12 172.293 1298.62 173.739 1301.07 176.909L1305.63 182.805C1308.86 187.032 1309.92 189.423 1309.92 194.763V196.264C1309.92 203.217 1306.91 207.332 1300.62 207.332Z" fill="black"/>
<path d="M1328.35 159.445V166.342H1319.16V178.745H1326.34V185.92H1319.16V199.602H1328.74V206.777H1311.98V159.445H1328.35Z" fill="black"/>
<path d="M1348.17 197.878H1342.93L1341.99 206.777H1335.53L1341.32 159.39H1349.84L1356.02 206.777H1349.06L1348.17 197.878ZM1347.39 190.814L1345.49 173.294L1343.66 190.814H1347.39Z" fill="black"/>
<path d="M1364.42 206.832H1357.24V159.445H1368.93C1373.72 159.445 1376.11 161.503 1376.11 166.787V175.185C1376.11 179.134 1374.28 180.636 1373 181.248C1374.61 181.971 1376.11 183.25 1376.11 186.42V203.05C1376.11 204.941 1376.5 205.831 1376.84 206.554V206.888H1369.71C1369.38 206.387 1368.99 205.553 1368.99 202.995V188.645C1368.99 186.531 1368.6 185.642 1366.32 185.642H1364.48L1364.42 206.832ZM1364.42 178.912H1366.32C1368.32 178.912 1368.93 177.633 1368.93 175.519V168.9C1368.93 166.843 1368.49 165.841 1366.32 165.841H1364.42V178.912Z" fill="black"/>
<path d="M1390.64 166.286V206.777H1383.52V166.286H1377.45V159.445H1396.71V166.342L1390.64 166.286Z" fill="black"/>
<path d="M1415.97 197.878H1410.74L1409.8 206.777H1403.34L1409.13 159.39H1417.64L1423.82 206.777H1416.87L1415.97 197.878ZM1415.2 190.814L1413.3 173.294L1411.47 190.814H1415.2Z" fill="black"/>
<path d="M1431.51 159.445L1437.69 184.863V159.445H1444.26V206.832H1438.41L1431.51 179.579V206.832H1424.99V159.445H1431.51Z" fill="black"/>
<path d="M1446.93 159.445H1458.01C1464.19 159.445 1466.08 162.949 1466.08 168.567V197.433C1466.08 203.217 1463.91 206.832 1458.01 206.832H1446.98V159.445H1446.93ZM1454.17 199.936H1455.89C1458.06 199.936 1458.68 198.768 1458.68 196.265V169.568C1458.68 166.843 1457.95 165.897 1456.17 165.897H1454.11V199.936H1454.17Z" fill="black"/>
<path d="M1269 209.279H1280.02C1286.2 209.279 1288.1 212.783 1288.1 218.401V247.267C1288.1 253.051 1285.92 256.666 1280.02 256.666H1269V209.279ZM1276.18 249.825H1277.91C1280.08 249.825 1280.69 248.657 1280.69 246.154V219.457C1280.69 216.732 1279.97 215.787 1278.19 215.787H1276.13V249.825H1276.18Z" fill="black"/>
<path d="M1307.08 209.279V216.176H1297.89V228.579H1305.08V235.754H1297.89V249.436H1307.47V256.611H1290.66V209.279H1307.08Z" fill="black"/>
<path d="M1318.94 257.166H1317.55C1311.81 257.166 1308.75 254.052 1308.75 248.212V238.701H1315.88V246.988C1315.88 249.157 1316.6 250.325 1318.21 250.325C1319.94 250.325 1320.55 249.157 1320.55 246.265V245.209C1320.55 241.816 1320.22 240.648 1317.6 237.255L1313.04 231.415C1309.97 227.466 1309.08 224.407 1309.08 219.68V218.178C1309.08 211.893 1312.26 208.945 1317.94 208.945H1319.27C1325.23 208.945 1327.51 211.559 1327.51 217.177V224.963H1320.55V218.122C1320.55 216.509 1320.22 215.341 1318.49 215.341C1316.77 215.341 1316.38 216.398 1316.38 218.679V219.568C1316.38 222.238 1316.88 223.684 1319.33 226.854L1323.89 232.75C1327.12 236.977 1328.18 239.369 1328.18 244.708V246.21C1328.24 253.051 1325.23 257.166 1318.94 257.166Z" fill="black"/>
<path d="M1337.48 256.666H1330.3V209.279H1337.48V256.666Z" fill="black"/>
<path d="M1346.83 257.334C1342.6 257.334 1339.93 253.552 1339.93 248.657V219.013C1339.93 213.729 1341.99 208.834 1348.78 208.834H1350.17C1357.91 208.834 1358.8 213.84 1358.8 219.458V224.296H1351.78V218.957C1351.78 216.844 1351.28 215.731 1349.5 215.731C1348 215.731 1347.28 216.899 1347.28 218.957V246.655C1347.28 248.88 1348.17 250.048 1349.61 250.048C1351.45 250.048 1352.29 248.768 1352.29 246.989V235.142H1349.06V227.856H1359.13V256.666H1355.07C1355.01 256.388 1354.46 254.052 1353.84 251.994C1353.34 253.607 1350.89 257.278 1347.28 257.278H1346.83V257.334Z" fill="black"/>
<path d="M1368.15 209.279L1374.33 234.697V209.279H1380.9V256.666H1375.06L1368.15 229.413V256.666H1361.64V209.279H1368.15Z" fill="black"/>
<path d="M1399.72 257.166H1398.33C1392.59 257.166 1389.53 254.052 1389.53 248.212V238.701H1396.66V246.988C1396.66 249.157 1397.38 250.325 1398.99 250.325C1400.72 250.325 1401.33 249.157 1401.33 246.265V245.209C1401.33 241.816 1401 240.648 1398.38 237.255L1393.82 231.415C1390.76 227.466 1389.86 224.407 1389.86 219.68V218.178C1389.86 211.893 1393.04 208.945 1398.72 208.945H1400.05C1405.95 208.945 1408.29 211.559 1408.29 217.177V224.963H1401.33V218.122C1401.33 216.509 1401 215.341 1399.27 215.341C1397.55 215.341 1397.16 216.398 1397.16 218.679V219.568C1397.16 222.238 1397.66 223.684 1400.11 226.854L1404.67 232.75C1407.9 236.977 1408.96 239.369 1408.96 244.708V246.21C1409.02 253.051 1406.01 257.166 1399.72 257.166Z" fill="black"/>
<path d="M1422.82 247.044V236.032H1429.89V246.989C1429.89 252.106 1428.22 257.222 1421.26 257.222H1419.65C1412.36 257.222 1410.8 251.994 1410.8 247.211V218.29C1410.8 213.451 1412.91 208.779 1419.43 208.779H1421.1C1429 208.779 1429.89 214.007 1429.89 218.623V227.077H1422.82V218.735C1422.82 216.677 1422.21 215.62 1420.37 215.62C1418.59 215.62 1418.15 216.621 1418.15 218.735V246.877C1418.15 248.991 1418.87 250.103 1420.43 250.103C1422.21 250.27 1422.82 248.991 1422.82 247.044Z" fill="black"/>
<path d="M1444.31 235.865H1439.41V256.666H1432.23V209.279H1439.41V228.245H1444.31V209.279H1451.49V256.666H1444.31V235.865Z" fill="black"/>
<path d="M1473.71 246.099C1473.71 252.717 1471.48 257.222 1464.52 257.222H1463.3C1456.39 257.222 1454 252.717 1454 246.099V219.736C1454 213.173 1456.5 208.834 1463.24 208.834H1464.47C1471.48 208.834 1473.71 213.173 1473.71 219.68V246.099ZM1466.36 219.346C1466.36 216.844 1465.52 215.731 1463.85 215.731C1462.02 215.731 1461.29 216.955 1461.29 219.346V246.599C1461.29 248.657 1461.85 250.215 1463.91 250.215C1465.8 250.215 1466.36 248.602 1466.36 246.599V219.346Z" fill="black"/>
<path d="M1495.7 246.099C1495.7 252.717 1493.47 257.222 1486.51 257.222H1485.29C1478.38 257.222 1475.99 252.717 1475.99 246.099V219.736C1475.99 213.173 1478.49 208.834 1485.23 208.834H1486.46C1493.47 208.834 1495.7 213.173 1495.7 219.68V246.099ZM1488.35 219.346C1488.35 216.844 1487.51 215.731 1485.84 215.731C1484.01 215.731 1483.28 216.955 1483.28 219.346V246.599C1483.28 248.657 1483.84 250.215 1485.9 250.215C1487.79 250.215 1488.35 248.602 1488.35 246.599V219.346Z" fill="black"/>
<path d="M1505.38 209.279V249.325H1514.18V256.666H1498.2V209.279H1505.38Z" fill="black"/>
<path fill-rule="evenodd" clip-rule="evenodd" d="M1524.26 208.779C1518.91 208.779 1514.51 213.117 1514.51 218.512C1514.51 223.851 1518.86 228.245 1524.26 228.245C1529.66 228.245 1534 223.907 1534 218.512C1533.94 213.117 1529.6 208.779 1524.26 208.779Z" fill="#002D6E"/>
<path fill-rule="evenodd" clip-rule="evenodd" d="M1525.87 217.622C1526.48 217.344 1526.87 216.955 1527.15 216.677C1527.65 216.12 1527.82 215.453 1527.82 214.786C1527.82 214.285 1527.65 213.228 1526.76 212.505C1526.15 212.005 1525.59 211.782 1524.26 211.782H1523.59H1523.53H1520.75V224.797H1528.6V222.294C1528.66 219.903 1527.88 218.29 1525.87 217.622ZM1526.87 224.074H1525.43V219.736H1523.81V224.074H1522.59V212.394H1523.87C1524.37 212.394 1525.09 212.505 1525.59 213.117C1525.87 213.451 1526.04 213.896 1526.09 214.285H1523.81V214.952H1526.09C1526.09 215.342 1525.98 215.842 1525.59 216.343C1525.26 216.788 1524.65 217.177 1523.81 217.177V217.845C1526.04 217.845 1526.87 219.291 1526.87 222.016V224.074Z" fill="white"/>
</g>
<defs>
<clipPath id="clip0_14_618">
<rect width="265" height="98.3333" fill="white" transform="translate(1269 159)"/>
</clipPath>
</defs>
</svg>
