<svg width="1269" height="122" viewBox="0 0 1269 122" fill="none" xmlns="http://www.w3.org/2000/svg">
<path d="M571.131 115L574.753 93.1818H587.484L587.186 94.9716H576.447L575.148 102.77H581.337C582.772 102.77 583.958 103.018 584.895 103.516C585.84 104.013 586.511 104.712 586.909 105.614C587.307 106.509 587.406 107.564 587.207 108.778C586.994 110.028 586.547 111.119 585.865 112.049C585.183 112.979 584.288 113.704 583.18 114.222C582.079 114.741 580.79 115 579.313 115H571.131ZM573.422 113.242H579.611C580.655 113.242 581.572 113.04 582.36 112.635C583.155 112.223 583.802 111.68 584.299 111.005C584.796 110.323 585.112 109.567 585.247 108.736C585.439 107.543 585.169 106.548 584.437 105.753C583.713 104.957 582.58 104.56 581.039 104.56H574.849L573.422 113.242ZM593.852 104.954H598.636C600.468 104.954 601.81 105.405 602.663 106.307C603.522 107.209 603.827 108.43 603.579 109.972C603.408 110.973 603.036 111.854 602.46 112.614C601.885 113.366 601.132 113.952 600.202 114.371C599.278 114.79 598.199 115 596.963 115H590.592L593.32 98.6364H595.227L592.798 113.21H597.261C598.412 113.21 599.392 112.933 600.202 112.379C601.011 111.825 601.494 111.033 601.651 110.004C601.828 108.952 601.608 108.146 600.99 107.585C600.379 107.024 599.499 106.744 598.348 106.744H593.554L593.852 104.954ZM605.486 115L608.213 98.6364H610.109L607.382 115H605.486ZM613.865 100.426L614.152 98.6364H626.936L626.649 100.426H621.237L618.861 115H616.954L619.33 100.426H613.865ZM631.467 104.954H636.25C638.083 104.954 639.425 105.405 640.277 106.307C641.137 107.209 641.442 108.43 641.193 109.972C641.023 110.973 640.65 111.854 640.075 112.614C639.5 113.366 638.747 113.952 637.816 114.371C636.893 114.79 635.813 115 634.578 115H628.218L630.945 98.6364H632.841L630.412 113.21H634.876C636.034 113.21 637.014 112.933 637.816 112.379C638.626 111.825 639.112 111.033 639.276 110.004C639.446 108.952 639.226 108.146 638.615 107.585C638.004 107.024 637.12 106.744 635.963 106.744H631.179L631.467 104.954ZM651.335 115L651.634 113.21H652.145C652.727 113.21 653.214 113.104 653.605 112.891C654.002 112.67 654.343 112.301 654.627 111.783C654.919 111.264 655.188 110.558 655.437 109.663C655.686 108.768 655.952 107.646 656.236 106.296L657.855 98.6364H668.253L665.526 115H663.619L666.048 100.426H659.357L657.973 106.935C657.688 108.263 657.387 109.432 657.067 110.44C656.754 111.449 656.382 112.29 655.948 112.965C655.515 113.64 654.982 114.148 654.35 114.489C653.718 114.83 652.941 115 652.017 115H651.335ZM673.833 104.954H678.616C680.449 104.954 681.791 105.405 682.643 106.307C683.503 107.209 683.808 108.43 683.559 109.972C683.389 110.973 683.016 111.854 682.441 112.614C681.865 113.366 681.113 113.952 680.182 114.371C679.259 114.79 678.179 115 676.944 115H670.573L673.3 98.6364H675.207L672.778 113.21H677.242C678.392 113.21 679.373 112.933 680.182 112.379C680.992 111.825 681.475 111.033 681.631 110.004C681.809 108.952 681.588 108.146 680.971 107.585C680.36 107.024 679.479 106.744 678.329 106.744H673.534L673.833 104.954ZM685.466 115L688.194 98.6364H690.09L687.363 115H685.466ZM698.756 115.341C697.279 115.341 696.061 114.975 695.102 114.244C694.144 113.512 693.472 112.511 693.089 111.239C692.712 109.961 692.659 108.512 692.929 106.893C693.199 105.245 693.742 103.786 694.559 102.514C695.376 101.236 696.384 100.234 697.585 99.5099C698.792 98.7784 700.109 98.4126 701.537 98.4126C702.638 98.4126 703.597 98.6257 704.413 99.0518C705.23 99.4709 705.862 100.064 706.31 100.831C706.757 101.591 706.97 102.479 706.949 103.494H705.031C704.982 102.55 704.637 101.754 703.998 101.108C703.366 100.462 702.471 100.138 701.313 100.138C700.255 100.138 699.275 100.423 698.373 100.991C697.471 101.552 696.707 102.337 696.082 103.345C695.465 104.347 695.049 105.508 694.836 106.829C694.609 108.157 694.63 109.332 694.9 110.355C695.17 111.371 695.653 112.166 696.349 112.741C697.052 113.317 697.94 113.604 699.012 113.604C699.744 113.604 700.433 113.469 701.079 113.2C701.725 112.923 702.297 112.532 702.794 112.028C703.291 111.516 703.671 110.916 703.934 110.227H705.852C705.532 111.222 705.028 112.102 704.339 112.869C703.657 113.636 702.84 114.24 701.889 114.68C700.937 115.121 699.893 115.341 698.756 115.341ZM712.387 104.954H717.171C719.003 104.954 720.346 105.405 721.198 106.307C722.057 107.209 722.363 108.43 722.114 109.972C721.944 110.973 721.571 111.854 720.995 112.614C720.42 113.366 719.667 113.952 718.737 114.371C717.814 114.79 716.734 115 715.498 115H709.128L711.855 98.6364H713.762L711.333 113.21H715.797C716.947 113.21 717.927 112.933 718.737 112.379C719.547 111.825 720.03 111.033 720.186 110.004C720.363 108.952 720.143 108.146 719.525 107.585C718.914 107.024 718.034 106.744 716.883 106.744H712.089L712.387 104.954ZM724.021 115L726.748 98.6364H728.645L725.917 115H724.021ZM739.953 112.347L748.391 98.6364H750.234L740.273 115H738.76L734.339 98.6364H736.15L739.953 112.347ZM735.585 98.6364L732.858 115H730.962L733.689 98.6364H735.585ZM746.175 115L748.902 98.6364H750.798L748.071 115H746.175ZM769.197 100.224C768.529 100.231 767.851 100.394 767.162 100.714C766.473 101.033 765.884 101.456 765.394 101.982C764.903 102.507 764.605 103.082 764.499 103.707H762.624C762.737 103.011 763.011 102.347 763.444 101.715C763.877 101.083 764.417 100.522 765.063 100.032C765.71 99.5348 766.413 99.1442 767.173 98.8601C767.94 98.576 768.71 98.4339 769.484 98.4339C770.898 98.4339 772.048 98.8068 772.936 99.5526C773.824 100.298 774.438 101.286 774.779 102.514C775.12 103.743 775.17 105.089 774.928 106.552L774.843 107.148C774.595 108.604 774.094 109.954 773.341 111.197C772.588 112.433 771.64 113.427 770.496 114.18C769.36 114.925 768.089 115.298 766.683 115.298C765.568 115.298 764.598 115.043 763.774 114.531C762.957 114.02 762.354 113.335 761.963 112.475C761.572 111.609 761.466 110.65 761.644 109.599H763.519C763.405 110.288 763.49 110.93 763.774 111.527C764.065 112.116 764.492 112.592 765.053 112.955C765.621 113.317 766.264 113.501 766.981 113.509C767.975 113.501 768.888 113.192 769.719 112.582C770.557 111.964 771.256 111.172 771.818 110.206C772.386 109.233 772.759 108.214 772.936 107.148L773.021 106.552C773.199 105.472 773.17 104.453 772.936 103.494C772.702 102.528 772.272 101.744 771.647 101.14C771.022 100.536 770.205 100.231 769.197 100.224ZM773.916 105.881L773.629 107.67H766.161L766.448 105.881H773.916ZM777.927 100.426L778.215 98.6364H790.999L790.711 100.426H785.299L782.924 115H781.017L783.392 100.426H777.927ZM797.865 115.341C796.43 115.341 795.223 114.979 794.243 114.254C793.263 113.523 792.57 112.511 792.166 111.218C791.761 109.925 791.693 108.434 791.963 106.744C792.233 105.096 792.769 103.647 793.572 102.397C794.381 101.14 795.376 100.163 796.555 99.4673C797.734 98.7642 799.016 98.4126 800.401 98.4126C801.842 98.4126 803.05 98.7784 804.023 99.5099C805.003 100.241 805.695 101.254 806.1 102.546C806.512 103.839 806.583 105.334 806.313 107.031C806.043 108.672 805.504 110.117 804.694 111.367C803.884 112.61 802.89 113.583 801.711 114.286C800.539 114.989 799.257 115.341 797.865 115.341ZM797.886 113.604C799.051 113.604 800.088 113.295 800.997 112.678C801.913 112.053 802.67 111.222 803.266 110.185C803.863 109.141 804.264 107.994 804.47 106.744C804.662 105.55 804.641 104.453 804.406 103.452C804.172 102.45 803.721 101.648 803.053 101.044C802.386 100.44 801.498 100.138 800.39 100.138C799.232 100.138 798.195 100.455 797.279 101.087C796.363 101.712 795.607 102.55 795.01 103.601C794.413 104.645 794.016 105.788 793.817 107.031C793.618 108.232 793.632 109.329 793.859 110.323C794.094 111.317 794.545 112.113 795.212 112.71C795.887 113.306 796.778 113.604 797.886 113.604ZM817.593 115L820.32 98.6364H822.216L820.98 105.998H822.738L830.057 98.6364H832.529L824.645 106.509L829.951 115H827.522L823.068 107.788H820.703L819.489 115H817.593ZM832.039 121.136L835.81 98.6364H837.653L837.142 101.758H837.365C837.664 101.268 838.051 100.763 838.527 100.245C839.009 99.7266 839.61 99.2933 840.327 98.9453C841.051 98.5902 841.918 98.4126 842.926 98.4126C844.276 98.4126 845.394 98.7642 846.282 99.4673C847.177 100.17 847.802 101.158 848.157 102.429C848.519 103.7 848.558 105.178 848.274 106.861C847.997 108.551 847.468 110.032 846.687 111.303C845.906 112.575 844.951 113.565 843.821 114.276C842.699 114.986 841.47 115.341 840.135 115.341C839.148 115.341 838.349 115.163 837.738 114.808C837.134 114.453 836.673 114.016 836.353 113.498C836.034 112.972 835.803 112.461 835.661 111.964H835.49L833.956 121.136H832.039ZM836.321 106.829C836.108 108.15 836.108 109.322 836.321 110.344C836.534 111.36 836.964 112.159 837.61 112.741C838.257 113.317 839.109 113.604 840.167 113.604C841.254 113.604 842.223 113.306 843.076 112.71C843.928 112.106 844.638 111.293 845.206 110.27C845.774 109.247 846.165 108.1 846.378 106.829C846.577 105.572 846.57 104.439 846.357 103.43C846.144 102.422 845.718 101.623 845.078 101.033C844.439 100.437 843.569 100.138 842.468 100.138C841.403 100.138 840.444 100.426 839.592 101.001C838.747 101.57 838.044 102.358 837.482 103.366C836.921 104.368 836.534 105.522 836.321 106.829ZM850.813 121.136C850.436 121.136 850.088 121.101 849.769 121.03C849.456 120.959 849.211 120.881 849.033 120.795L849.832 119.123C850.429 119.329 850.976 119.393 851.473 119.315C851.977 119.244 852.457 119.002 852.911 118.59C853.366 118.178 853.813 117.564 854.254 116.747L855.148 115.085L851.91 98.6364H853.881L856.438 112.528H856.576L863.746 98.6364H865.887L855.82 117.567C855.386 118.384 854.907 119.055 854.381 119.581C853.863 120.107 853.302 120.497 852.698 120.753C852.102 121.009 851.473 121.136 850.813 121.136ZM868.308 100.426L868.596 98.6364H881.38L881.092 100.426H875.68L873.305 115H871.398L873.773 100.426H868.308ZM888.246 115.341C886.811 115.341 885.604 114.979 884.624 114.254C883.644 113.523 882.951 112.511 882.546 111.218C882.142 109.925 882.074 108.434 882.344 106.744C882.614 105.096 883.15 103.647 883.953 102.397C884.762 101.14 885.757 100.163 886.936 99.4673C888.115 98.7642 889.397 98.4126 890.781 98.4126C892.223 98.4126 893.431 98.7784 894.404 99.5099C895.384 100.241 896.076 101.254 896.481 102.546C896.893 103.839 896.964 105.334 896.694 107.031C896.424 108.672 895.884 110.117 895.075 111.367C894.265 112.61 893.271 113.583 892.092 114.286C890.92 114.989 889.638 115.341 888.246 115.341ZM888.267 113.604C889.432 113.604 890.469 113.295 891.378 112.678C892.294 112.053 893.051 111.222 893.647 110.185C894.244 109.141 894.645 107.994 894.851 106.744C895.043 105.55 895.022 104.453 894.787 103.452C894.553 102.45 894.102 101.648 893.434 101.044C892.767 100.44 891.879 100.138 890.771 100.138C889.613 100.138 888.576 100.455 887.66 101.087C886.744 101.712 885.987 102.55 885.391 103.601C884.794 104.645 884.397 105.788 884.198 107.031C883.999 108.232 884.013 109.329 884.24 110.323C884.475 111.317 884.926 112.113 885.593 112.71C886.268 113.306 887.159 113.604 888.267 113.604ZM901.262 115.16C900.836 115.16 900.477 115.011 900.186 114.712C899.902 114.414 899.76 114.052 899.76 113.626C899.76 113.2 899.916 112.841 900.228 112.55C900.541 112.259 900.907 112.113 901.326 112.113C901.745 112.113 902.103 112.262 902.402 112.56C902.7 112.859 902.842 113.214 902.828 113.626C902.821 113.91 902.743 114.169 902.593 114.403C902.451 114.631 902.263 114.815 902.029 114.957C901.802 115.092 901.546 115.16 901.262 115.16Z" fill="#606060" fill-opacity="0.933333"/>
<path d="M549.532 104.707C549.923 104.317 549.923 103.683 549.532 103.293L543.168 96.9289C542.778 96.5384 542.145 96.5384 541.754 96.9289C541.363 97.3195 541.363 97.9526 541.754 98.3432L547.411 104L541.754 109.657C541.363 110.047 541.363 110.681 541.754 111.071C542.145 111.462 542.778 111.462 543.168 111.071L549.532 104.707ZM419 104L419 105L548.825 105L548.825 104L548.825 103L419 103L419 104Z" fill="#606060"/>
<path d="M393.891 7.45454H399.643L411.575 54.9688H412.081L439.7 7.45454H445.453L436.398 62H431.71L439.061 17.9748H438.635L412.88 62H408.353L397.3 17.9748H396.874L389.523 62H384.835L393.891 7.45454ZM458.117 36.8846H470.076C474.657 36.8846 478.013 38.0121 480.143 40.267C482.292 42.522 483.055 45.576 482.434 49.429C482.008 51.9325 481.075 54.1342 479.637 56.0341C478.199 57.9162 476.317 59.381 473.991 60.4286C471.683 61.4762 468.984 62 465.894 62H449.968L456.786 21.0909H461.553L455.481 57.5256H466.64C469.517 57.5256 471.967 56.8331 473.991 55.4482C476.015 54.0632 477.222 52.0835 477.613 49.5089C478.057 46.881 477.507 44.8658 475.962 43.4631C474.435 42.0604 472.233 41.359 469.357 41.359H457.372L458.117 36.8846ZM487.201 62L494.019 21.0909H498.76L491.942 62H487.201ZM525.647 62L532.465 21.0909H548.578C552.875 21.0909 556.133 22.0497 558.353 23.9673C560.572 25.8672 561.415 28.4151 560.883 31.6112C560.474 34.0437 559.453 35.9702 557.82 37.3906C556.186 38.8111 554.145 39.832 551.694 40.4535C553.203 40.7198 554.562 41.2969 555.769 42.1847C556.994 43.0724 557.909 44.2532 558.512 45.7269C559.116 47.1829 559.249 48.9141 558.912 50.9205C558.557 53.0689 557.713 54.9776 556.382 56.6467C555.05 58.3157 553.337 59.6296 551.241 60.5884C549.164 61.5295 546.785 62 544.104 62H525.647ZM530.92 57.6055H544.849C547.335 57.6055 549.422 56.9574 551.108 55.6612C552.813 54.3651 553.825 52.6516 554.145 50.521C554.553 48.2127 554.18 46.375 553.026 45.0078C551.872 43.6406 550.141 42.957 547.832 42.957H533.37L530.92 57.6055ZM534.036 38.7489H545.888C547.699 38.7489 549.333 38.4648 550.789 37.8967C552.245 37.3107 553.434 36.494 554.358 35.4464C555.299 34.381 555.876 33.1559 556.089 31.771C556.426 29.8001 555.867 28.2642 554.411 27.1634C552.973 26.0447 550.78 25.4854 547.832 25.4854H536.247L534.036 38.7489ZM598.603 7.45454H604.355L616.287 54.9688H616.793L644.412 7.45454H650.165L641.11 62H636.422L643.773 17.9748H643.347L617.592 62H613.065L602.012 17.9748H601.585L594.235 62H589.547L598.603 7.45454ZM670.713 62.8523C667.126 62.8523 664.108 61.9467 661.657 60.1357C659.207 58.3068 657.476 55.7766 656.464 52.5451C655.452 49.3136 655.283 45.5849 655.958 41.359C656.633 37.2397 657.973 33.6175 659.979 30.4925C662.004 27.3498 664.489 24.9084 667.437 23.1683C670.384 21.4105 673.589 20.5316 677.052 20.5316C680.656 20.5316 683.674 21.446 686.107 23.2749C688.557 25.1037 690.288 27.6339 691.301 30.8654C692.33 34.0969 692.508 37.8345 691.833 42.0781C691.158 46.1797 689.809 49.793 687.785 52.918C685.761 56.0252 683.275 58.4577 680.328 60.2156C677.398 61.9734 674.193 62.8523 670.713 62.8523ZM670.766 58.511C673.678 58.511 676.27 57.7386 678.543 56.1939C680.834 54.6314 682.725 52.554 684.216 49.9616C685.707 47.3516 686.711 44.484 687.226 41.359C687.705 38.3761 687.652 35.6328 687.066 33.1293C686.48 30.6257 685.352 28.6193 683.683 27.1101C682.014 25.6009 679.795 24.8462 677.025 24.8462C674.131 24.8462 671.538 25.6364 669.248 27.2166C666.957 28.7791 665.066 30.8743 663.575 33.5021C662.084 36.1122 661.089 38.9709 660.592 42.0781C660.095 45.0788 660.13 47.8221 660.699 50.3079C661.285 52.7937 662.412 54.7823 664.081 56.2738C665.768 57.7653 667.996 58.511 670.766 58.511ZM714.811 62.8523C711.118 62.8523 708.073 61.9379 705.676 60.109C703.279 58.2802 701.601 55.7766 700.642 52.5984C699.701 49.4023 699.568 45.7802 700.243 41.7319C700.917 37.6126 702.276 33.9638 704.318 30.7855C706.36 27.5895 708.881 25.0859 711.882 23.2749C714.9 21.446 718.194 20.5316 721.763 20.5316C724.515 20.5316 726.912 21.0643 728.954 22.1296C730.996 23.1772 732.576 24.6598 733.694 26.5774C734.813 28.4773 735.346 30.6967 735.292 33.2358H730.498C730.374 30.8743 729.513 28.8857 727.915 27.2699C726.335 25.6541 724.097 24.8462 721.203 24.8462C718.558 24.8462 716.107 25.5565 713.852 26.9769C711.597 28.3796 709.689 30.3416 708.126 32.8629C706.581 35.3665 705.543 38.2695 705.01 41.5721C704.442 44.8924 704.495 47.831 705.17 50.3878C705.845 52.9268 707.052 54.9155 708.792 56.3537C710.55 57.7919 712.769 58.511 715.45 58.511C717.279 58.511 719.002 58.1737 720.617 57.4989C722.233 56.8065 723.662 55.8299 724.905 54.5692C726.148 53.2908 727.098 51.7905 727.755 50.0682H732.549C731.75 52.554 730.49 54.7557 728.767 56.6733C727.063 58.5909 725.021 60.1001 722.642 61.201C720.262 62.3018 717.652 62.8523 714.811 62.8523ZM740.686 62L747.504 21.0909H752.245L749.155 39.4947H753.55L771.847 21.0909H778.026L758.317 40.7731L771.581 62H765.508L754.375 43.9691H748.463L745.426 62H740.686ZM779.358 62L786.176 21.0909H802.289C806.586 21.0909 809.844 22.0497 812.064 23.9673C814.283 25.8672 815.126 28.4151 814.594 31.6112C814.185 34.0437 813.164 35.9702 811.531 37.3906C809.897 38.8111 807.855 39.832 805.405 40.4535C806.914 40.7198 808.273 41.2969 809.48 42.1847C810.705 43.0724 811.62 44.2532 812.223 45.7269C812.827 47.1829 812.96 48.9141 812.623 50.9205C812.268 53.0689 811.424 54.9776 810.093 56.6467C808.761 58.3157 807.048 59.6296 804.952 60.5884C802.875 61.5295 800.496 62 797.815 62H779.358ZM784.631 57.6055H798.56C801.046 57.6055 803.132 56.9574 804.819 55.6612C806.524 54.3651 807.536 52.6516 807.855 50.521C808.264 48.2127 807.891 46.375 806.737 45.0078C805.583 43.6406 803.852 42.957 801.543 42.957H787.081L784.631 57.6055ZM787.747 38.7489H799.599C801.41 38.7489 803.044 38.4648 804.5 37.8967C805.956 37.3107 807.145 36.494 808.069 35.4464C809.01 34.381 809.587 33.1559 809.8 31.771C810.137 29.8001 809.578 28.2642 808.122 27.1634C806.684 26.0447 804.491 25.4854 801.543 25.4854H789.958L787.747 38.7489ZM837.612 62.8523C833.794 62.8523 830.643 61.9645 828.157 60.1889C825.671 58.3956 823.931 55.9187 822.937 52.7582C821.942 49.5799 821.791 45.9222 822.484 41.7852C823.176 37.6658 824.544 34.0082 826.585 30.8121C828.627 27.5984 831.149 25.0859 834.149 23.2749C837.15 21.446 840.408 20.5316 843.924 20.5316C846.143 20.5316 848.221 20.94 850.156 21.7567C852.092 22.5558 853.734 23.7898 855.083 25.4588C856.451 27.1101 857.4 29.1964 857.933 31.7177C858.466 34.2212 858.448 37.1864 857.88 40.6133L857.507 42.957H825.547L826.213 38.7756H853.352C853.796 36.1477 853.672 33.7862 852.979 31.691C852.287 29.5959 851.106 27.9357 849.437 26.7106C847.786 25.4677 845.735 24.8462 843.285 24.8462C840.781 24.8462 838.411 25.5476 836.174 26.9503C833.954 28.353 832.072 30.1818 830.527 32.4368C829 34.674 828.015 37.0621 827.571 39.6012L827.038 42.744C826.47 46.2063 826.541 49.1094 827.251 51.4531C827.962 53.7791 829.249 55.5369 831.113 56.7266C832.978 57.9162 835.366 58.511 838.278 58.511C840.231 58.511 841.997 58.2092 843.578 57.6055C845.158 57.0018 846.534 56.1939 847.706 55.1818C848.878 54.152 849.819 53.0245 850.529 51.7994L854.764 53.2642C853.858 54.9865 852.58 56.5756 850.929 58.0316C849.295 59.4876 847.351 60.6594 845.096 61.5472C842.859 62.4173 840.364 62.8523 837.612 62.8523ZM880.472 7.45454L873.654 46.3661H868.966L875.092 7.45454H880.472ZM869.259 62.3995C868.176 62.3995 867.279 62.0266 866.569 61.2809C865.859 60.5352 865.504 59.6296 865.504 58.5643C865.504 57.4989 865.894 56.6023 866.676 55.8743C867.457 55.1463 868.362 54.7823 869.392 54.7823C870.458 54.7823 871.363 55.1552 872.109 55.9009C872.855 56.6467 873.21 57.5344 873.174 58.5643C873.139 59.2745 872.943 59.9226 872.588 60.5085C872.233 61.0767 871.763 61.5384 871.177 61.8935C870.591 62.2308 869.952 62.3995 869.259 62.3995Z" fill="black"/>
</svg>
