<svg width="84" height="85" viewBox="0 0 84 85" fill="none" xmlns="http://www.w3.org/2000/svg">
<path d="M42 8C65.196 8 84 26.804 84 50C84 50.3343 83.9951 50.6676 83.9873 51H78.9863C78.9951 50.6677 79 50.3344 79 50C79 29.5655 62.4345 13 42 13C21.5655 13 5 29.5655 5 50C5 50.3344 5.00486 50.6677 5.01367 51H0.0126953C0.00492854 50.6676 0 50.3343 0 50C0 26.804 18.804 8 42 8Z" fill="black"/>
<path d="M41.5908 73.4766C33.9931 73.4766 27.3853 69.2396 24 63L30.002 63C32.753 66.3438 36.9228 68.4766 41.5908 68.4766C46.2589 68.4766 50.4286 66.3438 53.1797 63L59.1816 63C55.7964 69.2396 49.1885 73.4766 41.5908 73.4766Z" fill="black"/>
<rect x="79" y="51" width="5" height="34" fill="black"/>
<path d="M61.1006 2.57617C61.7036 0.742626 64.2964 0.742618 64.8994 2.57617L67.999 12.001L77.4238 15.1006C79.2574 15.7036 79.2574 18.2964 77.4238 18.8994L67.999 21.999L64.8994 31.4238C64.2964 33.2574 61.7036 33.2574 61.1006 31.4238L58.001 21.999L48.5762 18.8994C46.7426 18.2964 46.7426 15.7036 48.5762 15.1006L58.001 12.001L61.1006 2.57617Z" fill="black" stroke="white" stroke-width="2"/>
<rect y="51" width="5" height="34" fill="black"/>
<circle cx="60" cy="46" r="5" fill="black"/>
<circle cx="23" cy="46" r="5" fill="black"/>
</svg>
