<svg width="346" height="437" viewBox="0 0 346 437" fill="none" xmlns="http://www.w3.org/2000/svg">
<path d="M327.535 340.839L326.34 407.915H313.605L312.41 340.839H327.535ZM319.995 435.867C317.451 435.867 315.275 434.978 313.467 433.201C311.659 431.392 310.77 429.216 310.801 426.672C310.77 424.159 311.659 422.014 313.467 420.236C315.275 418.428 317.451 417.524 319.995 417.524C322.478 417.524 324.623 418.428 326.432 420.236C328.24 422.014 329.159 424.159 329.19 426.672C329.159 428.358 328.715 429.906 327.857 431.316C327.029 432.695 325.926 433.798 324.547 434.626C323.168 435.453 321.65 435.867 319.995 435.867Z" fill="black"/>
<path d="M242.929 436.281V423.776H248.584C250.944 423.776 252.89 423.378 254.423 422.581C255.986 421.784 257.258 420.711 258.239 419.363C259.25 417.983 260.093 416.481 260.767 414.857L262.1 411.501L228.999 340.839H244.079L268.767 395.272L290.742 340.839H305.638L273.088 418.673C271.709 421.799 270.115 424.695 268.307 427.362C266.529 430.028 264.154 432.189 261.181 433.844C258.208 435.469 254.27 436.281 249.366 436.281H242.929Z" fill="black"/>
<path d="M231.125 387.917C231.125 397.97 229.286 406.613 225.608 413.846C221.93 421.048 216.888 426.596 210.482 430.488C204.107 434.35 196.859 436.281 188.737 436.281C180.584 436.281 173.305 434.35 166.899 430.488C160.524 426.596 155.498 421.033 151.82 413.8C148.142 406.567 146.303 397.939 146.303 387.917C146.303 377.864 148.142 369.236 151.82 362.033C155.498 354.8 160.524 349.253 166.899 345.391C173.305 341.498 180.584 339.552 188.737 339.552C196.859 339.552 204.107 341.498 210.482 345.391C216.888 349.253 221.93 354.8 225.608 362.033C229.286 369.236 231.125 377.864 231.125 387.917ZM217.057 387.917C217.057 380.254 215.815 373.803 213.333 368.562C210.881 363.29 207.509 359.305 203.218 356.608C198.958 353.881 194.131 352.517 188.737 352.517C183.312 352.517 178.469 353.881 174.209 356.608C169.949 359.305 166.577 363.29 164.095 368.562C161.643 373.803 160.417 380.254 160.417 387.917C160.417 395.579 161.643 402.046 164.095 407.318C166.577 412.559 169.949 416.543 174.209 419.271C178.469 421.968 183.312 423.316 188.737 423.316C194.131 423.316 198.958 421.968 203.218 419.271C207.509 416.543 210.881 412.559 213.333 407.318C215.815 402.046 217.057 395.579 217.057 387.917Z" fill="black"/>
<path d="M30.9067 340.839H44.9747V422.673H76.0531V340.839H90.1211V422.673H121.108V340.839H135.13V434.994H30.9067V340.839Z" fill="black"/>
<path d="M270.005 237.269H284.073V306.414H284.947L332.851 237.269H346V331.424H331.794V262.371H330.921L283.108 331.424H270.005V237.269Z" fill="black"/>
<path d="M188.802 249.498V237.269H261.67V249.498H232.293V331.424H218.133V249.498H188.802Z" fill="black"/>
<path d="M159.163 331.424H144.911V249.452H127.073C122.414 249.452 118.629 250.157 115.717 251.567C112.806 252.946 110.676 254.938 109.327 257.544C107.979 260.149 107.304 263.229 107.304 266.784C107.304 270.309 107.979 273.328 109.327 275.841C110.676 278.354 112.79 280.27 115.671 281.588C118.553 282.906 122.307 283.565 126.935 283.565H151.071V295.794H125.602C118.338 295.794 112.285 294.583 107.442 292.162C102.63 289.741 99.0136 286.354 96.5923 282.002C94.2017 277.619 93.0064 272.546 93.0064 266.784C93.0064 260.992 94.2017 255.888 96.5923 251.475C98.983 247.031 102.584 243.552 107.396 241.039C112.239 238.526 118.292 237.269 125.556 237.269H159.163V331.424ZM112.683 288.944H128.406L105.557 331.424H89.4204L112.683 288.944Z" fill="black"/>
<path d="M0 331.424V319.103L2.75844 319.011C6.49765 318.919 9.43998 317.647 11.5854 315.195C13.7615 312.743 15.34 308.789 16.3207 303.334C17.3322 297.878 18.0064 290.599 18.3436 281.496L19.9527 237.269H79.4889V331.424H65.4668V249.314H33.3311L31.8599 285.266C31.4615 295.349 30.45 303.824 28.8256 310.689C27.2012 317.524 24.4428 322.689 20.5503 326.183C16.6885 329.677 11.187 331.424 4.0457 331.424H0Z" fill="black"/>
<path d="M175.285 20.4803C235.345 20.4803 284.034 69.8581 284.034 130.769C284.034 131.646 284.021 132.522 284.001 133.394H271.052C271.075 132.522 271.087 131.647 271.087 130.769C271.087 77.1093 228.195 33.6099 175.285 33.6099C122.375 33.6099 79.4829 77.1093 79.4829 130.769C79.4829 131.647 79.4954 132.522 79.5183 133.394H66.5695C66.5494 132.522 66.5366 131.646 66.5366 130.769C66.5366 69.8581 115.225 20.4803 175.285 20.4803Z" fill="black"/>
<path d="M174.226 202.92C154.553 202.92 137.444 191.794 128.679 175.409H144.219C151.342 184.19 162.139 189.79 174.226 189.79C186.312 189.79 197.109 184.19 204.232 175.409H219.773C211.007 191.794 193.898 202.92 174.226 202.92Z" fill="black"/>
<path d="M271.087 133.394H284.034V222.675H271.087V133.394Z" fill="black"/>
<path d="M227.2 7.05775C227.98 4.65038 231.338 4.65038 232.119 7.05775L240.144 31.8058C240.401 32.598 241.014 33.2193 241.795 33.4799L266.198 41.6191C268.571 42.4108 268.571 45.8163 266.198 46.608L241.795 54.7472C241.014 55.0077 240.401 55.6291 240.144 56.4213L232.119 81.1693C231.338 83.5767 227.98 83.5767 227.2 81.1693L219.174 56.4213C218.917 55.6291 218.305 55.0077 217.523 54.7472L193.121 46.608C190.747 45.8163 190.747 42.4108 193.121 41.6191L217.523 33.4799C218.305 33.2193 218.917 32.598 219.174 31.8058L227.2 7.05775Z" fill="black"/>
<path d="M222.521 4.76075C225.156 -1.5869 234.163 -1.58693 236.797 4.76075L237.038 5.41723L244.654 28.9043L267.815 36.6307L268.463 36.8743C274.722 39.5461 274.722 48.6809 268.463 51.3527L267.815 51.5963L244.654 59.3202L237.038 82.8098C234.769 89.8062 225.244 90.0255 222.521 83.4663L222.281 82.8098L214.662 59.3202L191.503 51.5963C184.382 49.2211 184.382 39.0059 191.503 36.6307L214.662 28.9043L222.281 5.41723L222.521 4.76075ZM232.119 7.05775C231.338 4.65038 227.98 4.65038 227.2 7.05775L219.174 31.8058L219.062 32.0943C218.762 32.7477 218.207 33.2519 217.523 33.4799L193.121 41.6191C190.747 42.4108 190.747 45.8163 193.121 46.608L217.523 54.7472C218.305 55.0077 218.917 55.6291 219.174 56.4213L227.2 81.1693C227.932 83.4263 230.928 83.5667 231.943 81.5917L232.119 81.1693L240.144 56.4213C240.401 55.6291 241.014 55.0077 241.795 54.7472L266.198 46.608C268.423 45.8657 268.562 42.8272 266.614 41.7979L266.198 41.6191L241.795 33.4799C241.112 33.2519 240.557 32.7477 240.257 32.0943L240.144 31.8058L232.119 7.05775Z" fill="white"/>
<path d="M66.5366 133.394H79.4829V222.675H66.5366V133.394Z" fill="black"/>
<path d="M237.427 125.517C237.427 132.768 231.631 138.646 224.481 138.646C217.331 138.646 211.535 132.768 211.535 125.517C211.535 118.266 217.331 112.387 224.481 112.387C231.631 112.387 237.427 118.266 237.427 125.517Z" fill="black"/>
<path d="M141.625 125.517C141.625 132.768 135.829 138.646 128.679 138.646C121.529 138.646 115.732 132.768 115.732 125.517C115.732 118.266 121.529 112.387 128.679 112.387C135.829 112.387 141.625 118.266 141.625 125.517Z" fill="black"/>
</svg>
