<svg width="682" height="206" viewBox="0 0 682 206" fill="none" xmlns="http://www.w3.org/2000/svg">
<mask id="path-1-inside-1_364_22" fill="white">
<path d="M632.833 11C659.895 11 681.833 32.938 681.833 60V149C681.833 176.062 659.895 198 632.833 198H124.833C118.022 198 111.537 196.609 105.644 194.098L0.0400391 198.625L77.5137 161.77C76.4177 157.698 75.833 153.417 75.833 149V60C75.833 32.9381 97.7712 11.0001 124.833 11H632.833Z"/>
</mask>
<path d="M632.833 11C659.895 11 681.833 32.938 681.833 60V149C681.833 176.062 659.895 198 632.833 198H124.833C118.022 198 111.537 196.609 105.644 194.098L0.0400391 198.625L77.5137 161.77C76.4177 157.698 75.833 153.417 75.833 149V60C75.833 32.9381 97.7712 11.0001 124.833 11H632.833Z" fill="white"/>
<path d="M681.833 60L685.833 60V60L681.833 60ZM681.833 149L685.833 149V149H681.833ZM124.833 198L124.833 202H124.833V198ZM105.644 194.098L107.211 190.418L106.378 190.063L105.472 190.101L105.644 194.098ZM0.0400391 198.625L-1.6783 195.013L0.211366 202.621L0.0400391 198.625ZM77.5137 161.77L79.232 165.382L82.2429 163.949L81.3762 160.73L77.5137 161.77ZM75.833 149L71.833 149V149L75.833 149ZM75.833 60L71.833 60V60H75.833ZM124.833 11L124.833 7L124.833 7L124.833 11ZM632.833 11V15C657.686 15 677.833 35.1472 677.833 60L681.833 60L685.833 60C685.833 30.7289 662.104 7 632.833 7V11ZM681.833 60H677.833V149H681.833H685.833V60H681.833ZM681.833 149L677.833 149C677.833 173.853 657.686 194 632.833 194V198V202C662.104 202 685.833 178.271 685.833 149L681.833 149ZM632.833 198V194H124.833V198V202H632.833V198ZM124.833 198L124.833 194C118.572 194 112.619 192.722 107.211 190.418L105.644 194.098L104.076 197.778C110.455 200.496 117.473 202 124.833 202L124.833 198ZM105.644 194.098L105.472 190.101L-0.131288 194.629L0.0400391 198.625L0.211366 202.621L105.815 198.094L105.644 194.098ZM0.0400391 198.625L1.75838 202.237L79.232 165.382L77.5137 161.77L75.7953 158.157L-1.6783 195.013L0.0400391 198.625ZM77.5137 161.77L81.3762 160.73C80.3706 156.994 79.833 153.063 79.833 149L75.833 149L71.833 149C71.833 153.772 72.4648 158.402 73.6512 162.809L77.5137 161.77ZM75.833 149H79.833V60H75.833H71.833V149H75.833ZM75.833 60L79.833 60C79.833 35.1473 99.9803 15.0001 124.833 15L124.833 11L124.833 7C95.562 7.00014 71.833 30.729 71.833 60L75.833 60ZM124.833 11V15H632.833V11V7H124.833V11Z" fill="black" mask="url(#path-1-inside-1_364_22)"/>
<path d="M122.026 91.3977L122.452 88.9119H123.915C124.739 88.9119 125.439 88.7888 126.017 88.5426C126.595 88.2869 127.097 87.9271 127.523 87.4631C127.949 86.9896 128.351 86.4261 128.73 85.7727L129.412 84.5795L123.19 61.9091H126.031L131.259 81.4119L142.338 61.9091L145.179 61.9233L131.06 86.5682C130.482 87.5625 129.881 88.4195 129.256 89.1392C128.631 89.8589 127.873 90.4176 126.983 90.8153C126.093 91.2036 124.952 91.3977 123.56 91.3977H122.026ZM141.891 99.1818L146.919 69.1818H149.376L148.695 73.3438H148.993C149.391 72.6903 149.907 72.018 150.541 71.3267C151.185 70.6354 151.985 70.0578 152.942 69.5938C153.908 69.1203 155.063 68.8835 156.408 68.8835C158.207 68.8835 159.698 69.3523 160.882 70.2898C162.075 71.2273 162.909 72.5436 163.382 74.2386C163.865 75.9337 163.917 77.9034 163.538 80.1477C163.169 82.4015 162.464 84.3759 161.422 86.071C160.38 87.7661 159.107 89.0871 157.601 90.0341C156.105 90.9811 154.466 91.4545 152.686 91.4545C151.37 91.4545 150.304 91.2178 149.49 90.7443C148.685 90.2708 148.07 89.6884 147.643 88.9972C147.217 88.2964 146.91 87.6146 146.72 86.9517H146.493L144.447 99.1818H141.891ZM147.601 80.1051C147.317 81.8665 147.317 83.429 147.601 84.7926C147.885 86.1468 148.458 87.2121 149.32 87.9886C150.181 88.7557 151.318 89.1392 152.729 89.1392C154.178 89.1392 155.47 88.7415 156.607 87.946C157.743 87.1411 158.69 86.0568 159.447 84.6932C160.205 83.3295 160.726 81.8002 161.01 80.1051C161.275 78.429 161.266 76.9186 160.982 75.5739C160.697 74.2292 160.129 73.1638 159.277 72.3778C158.425 71.5824 157.265 71.1847 155.797 71.1847C154.376 71.1847 153.098 71.5682 151.962 72.3352C150.835 73.0928 149.897 74.1439 149.149 75.4886C148.401 76.8239 147.885 78.3627 147.601 80.1051ZM173.315 91.4972C171.998 91.4972 170.838 91.2415 169.835 90.7301C168.831 90.2093 168.083 89.4612 167.59 88.4858C167.107 87.5009 166.975 86.3078 167.192 84.9062C167.382 83.8267 167.742 82.9176 168.272 82.179C168.812 81.4403 169.494 80.8343 170.317 80.3608C171.141 79.8778 172.088 79.4991 173.158 79.2244C174.228 78.9498 175.393 78.7415 176.653 78.5994C177.884 78.4479 178.935 78.3153 179.806 78.2017C180.677 78.0881 181.354 77.9081 181.837 77.6619C182.32 77.4157 182.609 77.018 182.704 76.4688L182.789 75.9574C183.035 74.4706 182.808 73.3011 182.107 72.4489C181.406 71.5871 180.232 71.1562 178.585 71.1562C177.013 71.1562 175.649 71.5066 174.494 72.2074C173.348 72.8987 172.496 73.7083 171.937 74.6364L169.692 73.7699C170.374 72.5767 171.212 71.625 172.207 70.9148C173.201 70.1951 174.266 69.679 175.403 69.3665C176.539 69.0445 177.661 68.8835 178.769 68.8835C179.603 68.8835 180.45 68.9924 181.312 69.2102C182.174 69.428 182.945 69.8068 183.627 70.3466C184.318 70.8769 184.825 71.6203 185.147 72.5767C185.478 73.5237 185.526 74.7263 185.289 76.1847L182.817 91H180.289L180.871 87.5483H180.715C180.317 88.1922 179.768 88.8172 179.067 89.4233C178.376 90.0294 177.548 90.5265 176.582 90.9148C175.616 91.303 174.527 91.4972 173.315 91.4972ZM173.954 89.1818C175.299 89.1818 176.515 88.8835 177.604 88.2869C178.703 87.6903 179.603 86.8996 180.303 85.9148C181.013 84.9205 181.468 83.8267 181.667 82.6335L182.192 79.4801C181.984 79.66 181.643 79.821 181.17 79.9631C180.706 80.1051 180.18 80.233 179.593 80.3466C179.015 80.4508 178.433 80.5407 177.846 80.6165C177.268 80.6922 176.757 80.7585 176.312 80.8153C175.052 80.9669 173.954 81.2036 173.016 81.5256C172.088 81.8475 171.345 82.2926 170.786 82.8608C170.228 83.4195 169.877 84.1392 169.735 85.0199C169.517 86.3456 169.806 87.3731 170.602 88.1023C171.406 88.822 172.524 89.1818 173.954 89.1818ZM197.924 61.9091L194.288 82.6619H191.788L195.055 61.9091H197.924ZM191.944 91.2131C191.366 91.2131 190.888 91.0142 190.509 90.6165C190.13 90.2187 189.941 89.7358 189.941 89.1676C189.941 88.5994 190.149 88.1212 190.566 87.733C190.983 87.3447 191.466 87.1506 192.015 87.1506C192.583 87.1506 193.066 87.3494 193.464 87.7472C193.862 88.1449 194.051 88.6184 194.032 89.1676C194.013 89.5464 193.909 89.892 193.719 90.2045C193.53 90.5076 193.279 90.7538 192.967 90.9432C192.654 91.1231 192.313 91.2131 191.944 91.2131ZM212.217 91L217.047 61.9091H226.862C228.756 61.9091 230.281 62.2405 231.436 62.9034C232.591 63.5663 233.387 64.4706 233.822 65.6165C234.268 66.7623 234.362 68.0644 234.107 69.5227C233.908 70.7348 233.534 71.7718 232.984 72.6335C232.435 73.4858 231.768 74.1818 230.982 74.7216C230.205 75.2519 229.367 75.6354 228.467 75.8722L228.425 76.0994C229.353 76.1657 230.21 76.4972 230.996 77.0938C231.782 77.6809 232.369 78.5047 232.757 79.5653C233.155 80.6259 233.235 81.8949 232.999 83.3722C232.752 84.84 232.203 86.1515 231.351 87.3068C230.508 88.4527 229.353 89.357 227.885 90.0199C226.427 90.6733 224.656 91 222.572 91H212.217ZM215.271 88.6136H222.97C225.214 88.6136 226.957 88.1165 228.197 87.1222C229.438 86.1278 230.191 84.8778 230.456 83.3722C230.636 82.2642 230.532 81.2604 230.143 80.3608C229.755 79.4517 229.121 78.732 228.24 78.2017C227.359 77.6714 226.266 77.4062 224.959 77.4062H217.146L215.271 88.6136ZM217.544 75.0483H224.945C226.09 75.0483 227.132 74.8116 228.07 74.3381C229.007 73.8646 229.784 73.2112 230.399 72.3778C231.015 71.5445 231.408 70.5928 231.578 69.5227C231.843 67.9792 231.554 66.7244 230.712 65.7585C229.878 64.7831 228.463 64.2955 226.464 64.2955H219.305L217.544 75.0483ZM241.965 77.6051H248.343C250.786 77.6051 252.576 78.2064 253.712 79.4091C254.858 80.6117 255.265 82.2405 254.934 84.2955C254.707 85.6307 254.21 86.8049 253.442 87.8182C252.675 88.822 251.672 89.6032 250.431 90.1619C249.2 90.7206 247.761 91 246.113 91H237.619L241.255 69.1818H243.798L240.559 88.6136H246.511C248.045 88.6136 249.352 88.2443 250.431 87.5057C251.511 86.767 252.155 85.7112 252.363 84.3381C252.6 82.9366 252.306 81.8617 251.482 81.1136C250.668 80.3655 249.494 79.9915 247.96 79.9915H241.567L241.965 77.6051ZM257.477 91L261.113 69.1818H263.641L260.005 91H257.477ZM274.387 97.2074L275.836 88.6136H277.697C278.246 88.0833 278.748 87.5104 279.202 86.8949C279.657 86.2794 280.078 85.5786 280.467 84.7926C280.864 83.9972 281.243 83.0739 281.603 82.0227C281.963 80.9621 282.323 79.7263 282.683 78.3153L284.969 69.1818H297.896L294.7 88.6136H297.938L296.489 97.2074H293.947L294.969 91H277.938L276.93 97.2074H274.387ZM280.637 88.6136H292.157L294.969 71.5682H286.944L285.183 78.3153C284.576 80.6259 283.928 82.6288 283.237 84.3239C282.545 86.0095 281.679 87.4394 280.637 88.6136ZM310.935 91.4545C309.022 91.4545 307.413 90.9716 306.106 90.0057C304.799 89.0303 303.876 87.6809 303.336 85.9574C302.796 84.2339 302.706 82.2453 303.066 79.9915C303.426 77.7945 304.141 75.8627 305.211 74.196C306.29 72.5199 307.616 71.2178 309.188 70.2898C310.76 69.3523 312.469 68.8835 314.316 68.8835C316.238 68.8835 317.848 69.3712 319.146 70.3466C320.452 71.322 321.376 72.6714 321.915 74.3949C322.465 76.1184 322.559 78.1117 322.2 80.375C321.84 82.5625 321.12 84.4896 320.04 86.1562C318.961 87.8134 317.635 89.1108 316.063 90.0483C314.501 90.9858 312.791 91.4545 310.935 91.4545ZM310.964 89.1392C312.517 89.1392 313.899 88.7273 315.112 87.9034C316.333 87.0701 317.342 85.9621 318.137 84.5795C318.933 83.1875 319.468 81.6581 319.742 79.9915C319.998 78.4006 319.969 76.9375 319.657 75.6023C319.344 74.267 318.743 73.197 317.853 72.392C316.963 71.5871 315.779 71.1847 314.302 71.1847C312.758 71.1847 311.376 71.6061 310.154 72.4489C308.933 73.2822 307.924 74.3996 307.129 75.8011C306.333 77.1932 305.803 78.7178 305.538 80.375C305.272 81.9754 305.291 83.4384 305.594 84.7642C305.907 86.09 306.508 87.1506 307.398 87.946C308.298 88.7415 309.487 89.1392 310.964 89.1392ZM346.699 61L347.75 62.6051C347.059 63.1828 346.282 63.5805 345.42 63.7983C344.559 64.0066 343.616 64.125 342.594 64.1534C341.571 64.1818 340.473 64.2244 339.298 64.2812C337.603 64.357 336.145 64.7973 334.923 65.6023C333.702 66.4072 332.684 67.553 331.869 69.0398C331.055 70.517 330.402 72.3116 329.909 74.4233H330.193C331.169 72.9366 332.371 71.8049 333.801 71.0284C335.241 70.2519 336.756 69.8636 338.347 69.8636C340.023 69.8636 341.467 70.2756 342.679 71.0994C343.901 71.9138 344.777 73.1165 345.307 74.7074C345.847 76.2888 345.927 78.2301 345.548 80.5312C345.179 82.7661 344.478 84.7027 343.446 86.3409C342.414 87.9697 341.121 89.2292 339.568 90.1193C338.025 91.0095 336.301 91.4545 334.398 91.4545C332.513 91.4545 330.927 91.0047 329.639 90.1051C328.351 89.2055 327.447 87.8797 326.926 86.1278C326.405 84.3759 326.348 82.2311 326.756 79.6932L327.153 77.4062C327.996 72.321 329.436 68.4953 331.472 65.929C333.508 63.3627 336.206 62.0227 339.568 61.9091C340.657 61.8712 341.637 61.8617 342.509 61.8807C343.389 61.8902 344.17 61.8475 344.852 61.7528C345.544 61.6487 346.159 61.3977 346.699 61ZM334.71 89.1392C336.15 89.1392 337.442 88.7841 338.588 88.0739C339.734 87.3542 340.686 86.3456 341.443 85.0483C342.21 83.7415 342.741 82.2074 343.034 80.446C343.318 78.6941 343.271 77.2027 342.892 75.9716C342.523 74.7405 341.874 73.803 340.946 73.1591C340.027 72.5057 338.891 72.179 337.537 72.179C336.457 72.179 335.454 72.392 334.526 72.8182C333.598 73.2348 332.769 73.8267 332.04 74.5938C331.311 75.3513 330.7 76.2415 330.207 77.2642C329.724 78.2775 329.379 79.3854 329.17 80.5881C328.735 83.2112 329.024 85.2945 330.037 86.8381C331.06 88.3722 332.617 89.1392 334.71 89.1392ZM355.424 91.4972C354.108 91.4972 352.948 91.2415 351.944 90.7301C350.94 90.2093 350.192 89.4612 349.7 88.4858C349.217 87.5009 349.084 86.3078 349.302 84.9062C349.491 83.8267 349.851 82.9176 350.381 82.179C350.921 81.4403 351.603 80.8343 352.427 80.3608C353.251 79.8778 354.198 79.4991 355.268 79.2244C356.338 78.9498 357.503 78.7415 358.762 78.5994C359.993 78.4479 361.044 78.3153 361.915 78.2017C362.787 78.0881 363.464 77.9081 363.947 77.6619C364.43 77.4157 364.719 77.018 364.813 76.4688L364.898 75.9574C365.145 74.4706 364.917 73.3011 364.217 72.4489C363.516 71.5871 362.342 71.1562 360.694 71.1562C359.122 71.1562 357.758 71.5066 356.603 72.2074C355.457 72.8987 354.605 73.7083 354.046 74.6364L351.802 73.7699C352.484 72.5767 353.322 71.625 354.316 70.9148C355.31 70.1951 356.376 69.679 357.512 69.3665C358.648 69.0445 359.771 68.8835 360.879 68.8835C361.712 68.8835 362.559 68.9924 363.421 69.2102C364.283 69.428 365.055 69.8068 365.737 70.3466C366.428 70.8769 366.934 71.6203 367.256 72.5767C367.588 73.5237 367.635 74.7263 367.398 76.1847L364.927 91H362.398L362.981 87.5483H362.825C362.427 88.1922 361.878 88.8172 361.177 89.4233C360.486 90.0294 359.657 90.5265 358.691 90.9148C357.725 91.303 356.636 91.4972 355.424 91.4972ZM356.063 89.1818C357.408 89.1818 358.625 88.8835 359.714 88.2869C360.812 87.6903 361.712 86.8996 362.413 85.9148C363.123 84.9205 363.577 83.8267 363.776 82.6335L364.302 79.4801C364.094 79.66 363.753 79.821 363.279 79.9631C362.815 80.1051 362.29 80.233 361.702 80.3466C361.125 80.4508 360.542 80.5407 359.955 80.6165C359.378 80.6922 358.866 80.7585 358.421 80.8153C357.162 80.9669 356.063 81.2036 355.126 81.5256C354.198 81.8475 353.454 82.2926 352.896 82.8608C352.337 83.4195 351.987 84.1392 351.844 85.0199C351.627 86.3456 351.915 87.3731 352.711 88.1023C353.516 88.822 354.633 89.1818 356.063 89.1818ZM371.653 91L375.289 69.1818H383.883C386.174 69.1818 387.912 69.6932 389.096 70.7159C390.28 71.7292 390.729 73.0881 390.445 74.7926C390.228 76.09 389.683 77.1174 388.812 77.875C387.941 78.6326 386.852 79.1771 385.545 79.5085C386.35 79.6506 387.074 79.9583 387.718 80.4318C388.371 80.9053 388.859 81.535 389.181 82.321C389.503 83.0975 389.574 84.0208 389.394 85.0909C389.205 86.2367 388.755 87.2547 388.045 88.1449C387.335 89.035 386.421 89.7358 385.303 90.2472C384.195 90.7491 382.926 91 381.496 91H371.653ZM374.465 88.6562H381.894C383.22 88.6562 384.333 88.3106 385.232 87.6193C386.141 86.928 386.681 86.0142 386.852 84.8778C387.069 83.6468 386.871 82.6667 386.255 81.9375C385.639 81.2083 384.716 80.8438 383.485 80.8438H375.772L374.465 88.6562ZM376.127 78.5994H382.448C383.414 78.5994 384.285 78.4479 385.062 78.1449C385.838 77.8324 386.473 77.3968 386.965 76.8381C387.467 76.2699 387.775 75.6165 387.888 74.8778C388.068 73.8267 387.77 73.0076 386.994 72.4205C386.227 71.8239 385.057 71.5256 383.485 71.5256H377.306L376.127 78.5994ZM391.812 91L392.21 88.6136H392.892C393.669 88.6136 394.317 88.4716 394.838 88.1875C395.368 87.8939 395.823 87.4015 396.202 86.7102C396.59 86.0189 396.95 85.0767 397.281 83.8835C397.613 82.6903 397.968 81.1941 398.347 79.3949L400.506 69.1818H414.369L410.733 91H408.19L411.429 71.5682H402.509L400.662 80.2472C400.283 82.018 399.881 83.5758 399.455 84.9205C399.038 86.2652 398.541 87.3873 397.963 88.2869C397.385 89.1866 396.675 89.8636 395.832 90.3182C394.99 90.7727 393.953 91 392.722 91H391.812ZM426.198 91.4545C424.162 91.4545 422.481 90.9811 421.156 90.0341C419.83 89.0777 418.902 87.7566 418.371 86.071C417.841 84.3759 417.761 82.4252 418.13 80.2188C418.499 78.0218 419.228 76.071 420.317 74.3665C421.406 72.6525 422.751 71.3125 424.352 70.3466C425.952 69.3712 427.69 68.8835 429.565 68.8835C430.748 68.8835 431.856 69.1013 432.888 69.5369C433.921 69.9631 434.797 70.6212 435.516 71.5114C436.246 72.392 436.752 73.5047 437.036 74.8494C437.32 76.1847 437.311 77.7661 437.008 79.5938L436.809 80.8438H419.763L420.119 78.6136H434.593C434.83 77.2121 434.763 75.9527 434.394 74.8352C434.025 73.7178 433.395 72.8324 432.505 72.179C431.624 71.5161 430.531 71.1847 429.224 71.1847C427.888 71.1847 426.624 71.5587 425.431 72.3068C424.247 73.0549 423.244 74.0303 422.42 75.233C421.605 76.4261 421.08 77.6998 420.843 79.054L420.559 80.7301C420.256 82.5767 420.294 84.125 420.673 85.375C421.051 86.6155 421.738 87.553 422.732 88.1875C423.727 88.822 425 89.1392 426.553 89.1392C427.595 89.1392 428.537 88.9782 429.38 88.6562C430.223 88.3343 430.957 87.9034 431.582 87.3636C432.207 86.8144 432.709 86.2131 433.087 85.5597L435.346 86.3409C434.863 87.2595 434.181 88.107 433.3 88.8835C432.429 89.66 431.392 90.285 430.19 90.7585C428.996 91.2225 427.666 91.4545 426.198 91.4545ZM457.395 78.9119L457.011 81.2983H444.17L444.568 78.9119H457.395ZM446.841 69.1818L443.205 91H440.676L444.298 69.1818H446.841ZM460.903 69.1818L457.267 91H454.739L458.361 69.1818H460.903ZM468.371 77.6051H474.749C477.192 77.6051 478.982 78.2064 480.119 79.4091C481.264 80.6117 481.672 82.2405 481.34 84.2955C481.113 85.6307 480.616 86.8049 479.849 87.8182C479.082 88.822 478.078 89.6032 476.837 90.1619C475.606 90.7206 474.167 91 472.519 91H464.025L467.661 69.1818H470.204L466.965 88.6136H472.917C474.451 88.6136 475.758 88.2443 476.837 87.5057C477.917 86.767 478.561 85.7112 478.769 84.3381C479.006 82.9366 478.712 81.8617 477.888 81.1136C477.074 80.3655 475.9 79.9915 474.366 79.9915H467.974L468.371 77.6051ZM483.883 91L487.519 69.1818H490.048L486.411 91H483.883ZM504.387 91L508.023 69.1818H516.617C518.909 69.1818 520.647 69.6932 521.83 70.7159C523.014 71.7292 523.464 73.0881 523.18 74.7926C522.962 76.09 522.417 77.1174 521.546 77.875C520.675 78.6326 519.586 79.1771 518.279 79.5085C519.084 79.6506 519.808 79.9583 520.452 80.4318C521.106 80.9053 521.594 81.535 521.915 82.321C522.237 83.0975 522.308 84.0208 522.129 85.0909C521.939 86.2367 521.489 87.2547 520.779 88.1449C520.069 89.035 519.155 89.7358 518.038 90.2472C516.93 90.7491 515.661 91 514.231 91H504.387ZM507.2 88.6562H514.629C515.954 88.6562 517.067 88.3106 517.967 87.6193C518.876 86.928 519.415 86.0142 519.586 84.8778C519.804 83.6468 519.605 82.6667 518.989 81.9375C518.374 81.2083 517.451 80.8438 516.219 80.8438H508.506L507.2 88.6562ZM508.862 78.5994H515.183C516.148 78.5994 517.02 78.4479 517.796 78.1449C518.573 77.8324 519.207 77.3968 519.7 76.8381C520.201 76.2699 520.509 75.6165 520.623 74.8778C520.803 73.8267 520.504 73.0076 519.728 72.4205C518.961 71.8239 517.791 71.5256 516.219 71.5256H510.04L508.862 78.5994ZM558.652 61L559.703 62.6051C559.012 63.1828 558.235 63.5805 557.374 63.7983C556.512 64.0066 555.57 64.125 554.547 64.1534C553.524 64.1818 552.426 64.2244 551.251 64.2812C549.556 64.357 548.098 64.7973 546.876 65.6023C545.655 66.4072 544.637 67.553 543.822 69.0398C543.008 70.517 542.355 72.3116 541.862 74.4233H542.146C543.122 72.9366 544.324 71.8049 545.754 71.0284C547.194 70.2519 548.709 69.8636 550.3 69.8636C551.976 69.8636 553.42 70.2756 554.632 71.0994C555.854 71.9138 556.73 73.1165 557.26 74.7074C557.8 76.2888 557.88 78.2301 557.501 80.5312C557.132 82.7661 556.431 84.7027 555.399 86.3409C554.367 87.9697 553.074 89.2292 551.521 90.1193C549.978 91.0095 548.254 91.4545 546.351 91.4545C544.466 91.4545 542.88 91.0047 541.592 90.1051C540.304 89.2055 539.4 87.8797 538.879 86.1278C538.358 84.3759 538.302 82.2311 538.709 79.6932L539.107 77.4062C539.949 72.321 541.389 68.4953 543.425 65.929C545.461 63.3627 548.16 62.0227 551.521 61.9091C552.61 61.8712 553.59 61.8617 554.462 61.8807C555.342 61.8902 556.124 61.8475 556.805 61.7528C557.497 61.6487 558.112 61.3977 558.652 61ZM546.663 89.1392C548.103 89.1392 549.395 88.7841 550.541 88.0739C551.687 87.3542 552.639 86.3456 553.396 85.0483C554.163 83.7415 554.694 82.2074 554.987 80.446C555.271 78.6941 555.224 77.2027 554.845 75.9716C554.476 74.7405 553.827 73.803 552.899 73.1591C551.981 72.5057 550.844 72.179 549.49 72.179C548.411 72.179 547.407 72.392 546.479 72.8182C545.551 73.2348 544.722 73.8267 543.993 74.5938C543.264 75.3513 542.653 76.2415 542.161 77.2642C541.678 78.2775 541.332 79.3854 541.124 80.5881C540.688 83.2112 540.977 85.2945 541.99 86.8381C543.013 88.3722 544.571 89.1392 546.663 89.1392ZM567.377 91.4972C566.061 91.4972 564.901 91.2415 563.897 90.7301C562.893 90.2093 562.145 89.4612 561.653 88.4858C561.17 87.5009 561.037 86.3078 561.255 84.9062C561.444 83.8267 561.804 82.9176 562.335 82.179C562.874 81.4403 563.556 80.8343 564.38 80.3608C565.204 79.8778 566.151 79.4991 567.221 79.2244C568.291 78.9498 569.456 78.7415 570.715 78.5994C571.946 78.4479 572.997 78.3153 573.869 78.2017C574.74 78.0881 575.417 77.9081 575.9 77.6619C576.383 77.4157 576.672 77.018 576.766 76.4688L576.852 75.9574C577.098 74.4706 576.871 73.3011 576.17 72.4489C575.469 71.5871 574.295 71.1562 572.647 71.1562C571.075 71.1562 569.711 71.5066 568.556 72.2074C567.41 72.8987 566.558 73.7083 565.999 74.6364L563.755 73.7699C564.437 72.5767 565.275 71.625 566.269 70.9148C567.263 70.1951 568.329 69.679 569.465 69.3665C570.602 69.0445 571.724 68.8835 572.832 68.8835C573.665 68.8835 574.513 68.9924 575.374 69.2102C576.236 69.428 577.008 69.8068 577.69 70.3466C578.381 70.8769 578.888 71.6203 579.21 72.5767C579.541 73.5237 579.588 74.7263 579.352 76.1847L576.88 91H574.352L574.934 87.5483H574.778C574.38 88.1922 573.831 88.8172 573.13 89.4233C572.439 90.0294 571.61 90.5265 570.644 90.9148C569.678 91.303 568.589 91.4972 567.377 91.4972ZM568.016 89.1818C569.361 89.1818 570.578 88.8835 571.667 88.2869C572.765 87.6903 573.665 86.8996 574.366 85.9148C575.076 84.9205 575.531 83.8267 575.729 82.6335L576.255 79.4801C576.047 79.66 575.706 79.821 575.232 79.9631C574.768 80.1051 574.243 80.233 573.656 80.3466C573.078 80.4508 572.496 80.5407 571.908 80.6165C571.331 80.6922 570.819 80.7585 570.374 80.8153C569.115 80.9669 568.016 81.2036 567.079 81.5256C566.151 81.8475 565.407 82.2926 564.849 82.8608C564.29 83.4195 563.94 84.1392 563.798 85.0199C563.58 86.3456 563.869 87.3731 564.664 88.1023C565.469 88.822 566.586 89.1818 568.016 89.1818ZM583.151 85.4318H585.836C585.713 86.5966 586.054 87.5057 586.859 88.1591C587.664 88.8125 588.824 89.1392 590.339 89.1392C591.901 89.1392 593.26 88.7888 594.415 88.0881C595.571 87.3778 596.257 86.3456 596.475 84.9915C596.617 84.1676 596.546 83.4527 596.262 82.8466C595.987 82.2405 595.547 81.767 594.941 81.4261C594.344 81.0758 593.629 80.8958 592.796 80.8864H588.989L589.373 78.571H593.151C594.458 78.4953 595.495 78.1449 596.262 77.5199C597.039 76.8854 597.512 76.0568 597.683 75.0341C597.872 73.8693 597.621 72.9366 596.93 72.2358C596.238 71.5256 595.187 71.1705 593.776 71.1705C592.346 71.1705 591.092 71.5208 590.012 72.2216C588.933 72.9223 588.27 73.822 588.023 74.9205H585.367C585.613 73.7367 586.144 72.6951 586.958 71.7955C587.772 70.8864 588.786 70.1761 589.998 69.6648C591.219 69.1534 592.555 68.8977 594.004 68.8977C595.471 68.8977 596.707 69.1629 597.711 69.6932C598.715 70.2235 599.439 70.9479 599.884 71.8665C600.329 72.7756 600.452 73.8078 600.254 74.9631C600.064 76.1657 599.572 77.1553 598.776 77.9318C597.99 78.6989 597.062 79.2386 595.992 79.5511L595.95 79.7642C596.707 79.8494 597.342 80.1335 597.853 80.6165C598.374 81.0994 598.743 81.7197 598.961 82.4773C599.179 83.2348 599.212 84.0729 599.06 84.9915C598.843 86.2794 598.317 87.411 597.484 88.3864C596.65 89.3523 595.59 90.1051 594.302 90.6449C593.023 91.1847 591.598 91.4545 590.026 91.4545C588.521 91.4545 587.223 91.2036 586.134 90.7017C585.045 90.1903 584.236 89.4848 583.705 88.5852C583.175 87.6761 582.99 86.625 583.151 85.4318ZM603.68 99.1818C603.179 99.1818 602.714 99.1345 602.288 99.0398C601.872 98.9451 601.545 98.8409 601.308 98.7273L602.374 96.4972C603.169 96.7718 603.898 96.857 604.561 96.7528C605.233 96.6581 605.873 96.3362 606.479 95.7869C607.085 95.2377 607.681 94.4186 608.268 93.3295L609.462 91.1136L605.143 69.1818H607.771L611.18 87.7045H611.365L620.925 69.1818H623.78L610.357 94.4233C609.779 95.5123 609.14 96.4072 608.439 97.108C607.748 97.8087 607 98.3295 606.195 98.6705C605.399 99.0114 604.561 99.1818 603.68 99.1818ZM626.024 91.2131C625.456 91.2131 624.978 91.0142 624.589 90.6165C624.211 90.2187 624.021 89.7358 624.021 89.1676C624.021 88.5994 624.23 88.1212 624.646 87.733C625.063 87.3447 625.551 87.1506 626.109 87.1506C626.668 87.1506 627.146 87.3494 627.544 87.7472C627.942 88.1449 628.131 88.6184 628.112 89.1676C628.103 89.5464 627.999 89.892 627.8 90.2045C627.61 90.5076 627.359 90.7538 627.047 90.9432C626.744 91.1231 626.403 91.2131 626.024 91.2131ZM125.875 114.909H128.943L135.307 140.25H135.577L150.307 114.909H153.375L148.545 144H146.045L149.966 120.52H149.739L136.003 144H133.588L127.693 120.52H127.466L123.545 144H121.045L125.875 114.909ZM160.129 130.605H166.507C168.95 130.605 170.74 131.206 171.876 132.409C173.022 133.612 173.429 135.241 173.098 137.295C172.871 138.631 172.374 139.805 171.607 140.818C170.839 141.822 169.836 142.603 168.595 143.162C167.364 143.721 165.925 144 164.277 144H155.783L159.419 122.182H161.962L158.723 141.614H164.675C166.209 141.614 167.516 141.244 168.595 140.506C169.675 139.767 170.319 138.711 170.527 137.338C170.764 135.937 170.47 134.862 169.646 134.114C168.832 133.366 167.658 132.991 166.124 132.991H159.732L160.129 130.605ZM175.641 144L179.277 122.182H181.805L178.169 144H175.641ZM196.145 144L199.781 122.182H208.375C210.667 122.182 212.404 122.693 213.588 123.716C214.772 124.729 215.222 126.088 214.938 127.793C214.72 129.09 214.175 130.117 213.304 130.875C212.433 131.633 211.344 132.177 210.037 132.509C210.842 132.651 211.566 132.958 212.21 133.432C212.864 133.905 213.351 134.535 213.673 135.321C213.995 136.098 214.066 137.021 213.886 138.091C213.697 139.237 213.247 140.255 212.537 141.145C211.827 142.035 210.913 142.736 209.795 143.247C208.688 143.749 207.419 144 205.989 144H196.145ZM198.957 141.656H206.386C207.712 141.656 208.825 141.311 209.724 140.619C210.634 139.928 211.173 139.014 211.344 137.878C211.562 136.647 211.363 135.667 210.747 134.938C210.132 134.208 209.208 133.844 207.977 133.844H200.264L198.957 141.656ZM200.619 131.599H206.94C207.906 131.599 208.777 131.448 209.554 131.145C210.33 130.832 210.965 130.397 211.457 129.838C211.959 129.27 212.267 128.616 212.381 127.878C212.561 126.827 212.262 126.008 211.486 125.42C210.719 124.824 209.549 124.526 207.977 124.526H201.798L200.619 131.599ZM224.487 144.497C223.17 144.497 222.01 144.241 221.006 143.73C220.003 143.209 219.254 142.461 218.762 141.486C218.279 140.501 218.147 139.308 218.364 137.906C218.554 136.827 218.914 135.918 219.444 135.179C219.984 134.44 220.665 133.834 221.489 133.361C222.313 132.878 223.26 132.499 224.33 132.224C225.4 131.95 226.565 131.741 227.825 131.599C229.056 131.448 230.107 131.315 230.978 131.202C231.849 131.088 232.526 130.908 233.009 130.662C233.492 130.416 233.781 130.018 233.876 129.469L233.961 128.957C234.207 127.471 233.98 126.301 233.279 125.449C232.578 124.587 231.404 124.156 229.756 124.156C228.184 124.156 226.821 124.507 225.665 125.207C224.52 125.899 223.667 126.708 223.109 127.636L220.864 126.77C221.546 125.577 222.384 124.625 223.379 123.915C224.373 123.195 225.438 122.679 226.575 122.366C227.711 122.045 228.833 121.884 229.941 121.884C230.774 121.884 231.622 121.992 232.484 122.21C233.345 122.428 234.117 122.807 234.799 123.347C235.49 123.877 235.997 124.62 236.319 125.577C236.65 126.524 236.698 127.726 236.461 129.185L233.989 144H231.461L232.043 140.548H231.887C231.489 141.192 230.94 141.817 230.239 142.423C229.548 143.029 228.719 143.527 227.754 143.915C226.788 144.303 225.699 144.497 224.487 144.497ZM225.126 142.182C226.47 142.182 227.687 141.884 228.776 141.287C229.875 140.69 230.774 139.9 231.475 138.915C232.185 137.92 232.64 136.827 232.839 135.634L233.364 132.48C233.156 132.66 232.815 132.821 232.342 132.963C231.878 133.105 231.352 133.233 230.765 133.347C230.187 133.451 229.605 133.541 229.018 133.616C228.44 133.692 227.929 133.759 227.484 133.815C226.224 133.967 225.126 134.204 224.188 134.526C223.26 134.848 222.517 135.293 221.958 135.861C221.399 136.42 221.049 137.139 220.907 138.02C220.689 139.346 220.978 140.373 221.773 141.102C222.578 141.822 223.696 142.182 225.126 142.182ZM252.704 140.463L263.954 122.182H266.411L253.13 144H251.113L245.218 122.182H247.633L252.704 140.463ZM246.88 122.182L243.244 144H240.715L244.352 122.182H246.88ZM260.999 144L264.636 122.182H267.164L263.528 144H260.999ZM298.215 131.912L297.832 134.298H284.991L285.388 131.912H298.215ZM287.661 122.182L284.025 144H281.496L285.119 122.182H287.661ZM301.724 122.182L298.087 144H295.559L299.181 122.182H301.724ZM310.854 144.497C309.537 144.497 308.377 144.241 307.374 143.73C306.37 143.209 305.622 142.461 305.129 141.486C304.646 140.501 304.514 139.308 304.732 137.906C304.921 136.827 305.281 135.918 305.811 135.179C306.351 134.44 307.033 133.834 307.857 133.361C308.68 132.878 309.627 132.499 310.697 132.224C311.768 131.95 312.932 131.741 314.192 131.599C315.423 131.448 316.474 131.315 317.345 131.202C318.216 131.088 318.893 130.908 319.376 130.662C319.859 130.416 320.148 130.018 320.243 129.469L320.328 128.957C320.574 127.471 320.347 126.301 319.646 125.449C318.946 124.587 317.771 124.156 316.124 124.156C314.552 124.156 313.188 124.507 312.033 125.207C310.887 125.899 310.035 126.708 309.476 127.636L307.232 126.77C307.913 125.577 308.751 124.625 309.746 123.915C310.74 123.195 311.805 122.679 312.942 122.366C314.078 122.045 315.2 121.884 316.308 121.884C317.142 121.884 317.989 121.992 318.851 122.21C319.713 122.428 320.484 122.807 321.166 123.347C321.857 123.877 322.364 124.62 322.686 125.577C323.018 126.524 323.065 127.726 322.828 129.185L320.357 144H317.828L318.411 140.548H318.254C317.857 141.192 317.307 141.817 316.607 142.423C315.915 143.029 315.087 143.527 314.121 143.915C313.155 144.303 312.066 144.497 310.854 144.497ZM311.493 142.182C312.838 142.182 314.054 141.884 315.143 141.287C316.242 140.69 317.142 139.9 317.842 138.915C318.553 137.92 319.007 136.827 319.206 135.634L319.732 132.48C319.523 132.66 319.182 132.821 318.709 132.963C318.245 133.105 317.719 133.233 317.132 133.347C316.554 133.451 315.972 133.541 315.385 133.616C314.807 133.692 314.296 133.759 313.851 133.815C312.591 133.967 311.493 134.204 310.555 134.526C309.627 134.848 308.884 135.293 308.325 135.861C307.767 136.42 307.416 137.139 307.274 138.02C307.056 139.346 307.345 140.373 308.141 141.102C308.946 141.822 310.063 142.182 311.493 142.182ZM327.111 144L330.747 122.182H347.267L343.631 144H341.088L344.327 124.568H332.892L329.653 144H327.111ZM353.478 140.406L367.967 122.182H371.035L367.398 144H364.87L367.881 125.776L353.421 144H350.325L353.961 122.182H356.489L353.478 140.406ZM377.711 122.182H380.239L377.001 141.614H385.95L389.188 122.182H391.717L388.478 141.614H397.427L400.665 122.182H403.194L399.558 144H374.075L377.711 122.182ZM415.026 144.455C412.99 144.455 411.309 143.981 409.984 143.034C408.658 142.078 407.73 140.757 407.2 139.071C406.669 137.376 406.589 135.425 406.958 133.219C407.327 131.022 408.057 129.071 409.146 127.366C410.235 125.652 411.579 124.312 413.18 123.347C414.78 122.371 416.518 121.884 418.393 121.884C419.576 121.884 420.684 122.101 421.717 122.537C422.749 122.963 423.625 123.621 424.344 124.511C425.074 125.392 425.58 126.505 425.864 127.849C426.148 129.185 426.139 130.766 425.836 132.594L425.637 133.844H408.592L408.947 131.614H423.421C423.658 130.212 423.592 128.953 423.222 127.835C422.853 126.718 422.223 125.832 421.333 125.179C420.452 124.516 419.359 124.185 418.052 124.185C416.717 124.185 415.452 124.559 414.259 125.307C413.076 126.055 412.072 127.03 411.248 128.233C410.433 129.426 409.908 130.7 409.671 132.054L409.387 133.73C409.084 135.577 409.122 137.125 409.501 138.375C409.879 139.616 410.566 140.553 411.56 141.188C412.555 141.822 413.828 142.139 415.381 142.139C416.423 142.139 417.365 141.978 418.208 141.656C419.051 141.334 419.785 140.903 420.41 140.364C421.035 139.814 421.537 139.213 421.915 138.56L424.174 139.341C423.691 140.259 423.009 141.107 422.129 141.884C421.257 142.66 420.22 143.285 419.018 143.759C417.825 144.223 416.494 144.455 415.026 144.455ZM441.493 140.463L452.743 122.182H455.2L441.919 144H439.902L434.007 122.182H436.422L441.493 140.463ZM435.669 122.182L432.033 144H429.504L433.141 122.182H435.669ZM449.788 144L453.425 122.182H455.953L452.317 144H449.788ZM467.416 114.909L463.78 135.662H461.28L464.547 114.909H467.416ZM461.436 144.213C460.858 144.213 460.38 144.014 460.001 143.616C459.623 143.219 459.433 142.736 459.433 142.168C459.433 141.599 459.642 141.121 460.058 140.733C460.475 140.345 460.958 140.151 461.507 140.151C462.075 140.151 462.558 140.349 462.956 140.747C463.354 141.145 463.543 141.618 463.524 142.168C463.505 142.546 463.401 142.892 463.212 143.205C463.022 143.508 462.771 143.754 462.459 143.943C462.146 144.123 461.805 144.213 461.436 144.213Z" fill="#020202"/>
</svg>
