<svg width="85" height="123" viewBox="0 0 85 123" fill="none" xmlns="http://www.w3.org/2000/svg">
<path d="M38.3625 86.8157L38.2318 86.19C36.9155 79.5359 36.5079 74.1069 37.0089 69.9031C37.51 65.6992 38.7232 62.1267 40.6487 59.1854C42.5741 56.2441 45.0261 53.3925 48.0047 50.6304C49.7945 48.9509 51.3285 47.089 52.6068 45.0446C53.8778 42.9655 54.7468 40.6982 55.2138 38.2427C55.7155 35.78 55.6797 33.1755 55.1065 30.4293C54.3954 27.0226 52.9792 24.2347 50.8577 22.0656C48.7362 19.8965 46.1956 18.4135 43.236 17.6164C40.2763 16.8194 37.1626 16.7619 33.895 17.444C31.0445 18.0389 28.4216 19.2031 26.0264 20.9365C23.6312 22.6698 21.812 24.9904 20.5688 27.898C19.3256 30.8057 18.993 34.3396 19.5711 38.4996L6.431 41.2423C5.4756 35.2746 5.94941 29.8975 7.85243 25.1108C9.79021 20.3169 12.8212 16.3286 16.9455 13.146C21.1044 9.95624 25.9997 7.77361 31.6312 6.59816C37.7493 5.32113 43.3219 5.42767 48.3489 6.91776C53.4106 8.4006 57.6182 11.0049 60.9715 14.7307C64.3596 18.4493 66.6196 23.02 67.7515 28.4429C68.5496 32.2668 68.6806 35.849 68.1445 39.1895C67.6431 42.5228 66.5514 45.6347 64.8693 48.5251C63.2219 51.4084 61.0646 54.1078 58.3974 56.6235C55.7374 59.1739 53.7075 61.7016 52.3077 64.2067C50.9006 66.677 50.0811 69.4418 49.849 72.5012C49.617 75.5606 49.916 79.2529 50.7462 83.5779L50.8768 84.2036L38.3625 86.8157ZM51.48 116.291C48.9076 116.828 46.5079 116.368 44.2809 114.91C42.054 113.452 40.672 111.437 40.1351 108.865C39.5982 106.292 40.0586 103.893 41.5165 101.666C42.9743 99.4387 44.9894 98.0568 47.5618 97.5198C50.1342 96.9829 52.5339 97.4433 54.7609 98.9012C56.9878 100.359 58.3698 102.374 58.9067 104.947C59.2622 106.65 59.1542 108.305 58.5827 109.912C58.0459 111.511 57.1555 112.894 55.9117 114.06C54.6953 115.185 53.2181 115.929 51.48 116.291Z" fill="black"/>
</svg>
