<svg width="84" height="122" viewBox="0 0 84 122" fill="none" xmlns="http://www.w3.org/2000/svg">
<path d="M37.1941 86.3068L37.0762 85.6786C35.8942 78.9993 35.596 73.5632 36.1817 69.3703C36.7673 65.1774 38.0523 61.63 40.0367 58.7282C42.021 55.8263 44.53 53.0246 47.5636 50.3232C49.3869 48.6801 50.9581 46.8494 52.2773 44.8312C53.59 42.7781 54.5045 40.5288 55.0208 38.0832C55.5721 35.6311 55.5888 33.0265 55.0711 30.2693C54.4288 26.849 53.069 24.0331 50.9916 21.8217C48.9143 19.6102 46.4041 18.0763 43.4611 17.2198C40.5181 16.3633 37.4062 16.243 34.1255 16.8591C31.2636 17.3965 28.6178 18.5076 26.1881 20.1923C23.7585 21.8771 21.8929 24.1605 20.5913 27.0425C19.2898 29.9246 18.8861 33.451 19.3802 37.6218L6.18754 40.0991C5.35259 34.1135 5.93467 28.747 7.93376 23.9996C9.96775 19.2457 13.0785 15.3193 17.266 12.2205C21.4885 9.11515 26.4267 7.03161 32.0807 5.96989C38.2234 4.81641 43.7926 5.03521 48.7886 6.6263C53.8194 8.21085 57.9736 10.8994 61.2512 14.6921C64.5637 18.4782 66.7311 23.0935 67.7535 28.5381C68.4744 32.3773 68.5332 35.9614 67.9299 39.2904C67.3614 42.6129 66.2072 45.7022 64.4672 48.5581C62.7621 51.4076 60.5508 54.063 57.8334 56.5244C55.1225 59.0207 53.0421 61.5071 51.5921 63.9834C50.1356 66.4248 49.2605 69.1726 48.9668 72.2267C48.6732 75.2808 48.8978 78.9783 49.6406 83.3192L49.7586 83.9474L37.1941 86.3068ZM49.715 116.041C47.1323 116.526 44.7424 116.017 42.5453 114.515C40.3481 113.012 39.0071 110.97 38.5221 108.387C38.0371 105.804 38.5458 103.414 40.0483 101.217C41.5507 99.0201 43.5932 97.6791 46.1759 97.1941C48.7586 96.7091 51.1485 97.2178 53.3457 98.7203C55.5428 100.223 56.8838 102.265 57.3688 104.848C57.69 106.558 57.5486 108.211 56.9448 109.805C56.3759 111.394 55.4579 112.758 54.1908 113.9C52.952 114.999 51.4601 115.713 49.715 116.041Z" fill="black"/>
</svg>
