<svg width="100" height="127" viewBox="0 0 100 127" fill="none" xmlns="http://www.w3.org/2000/svg">
<path d="M32.0493 82.6441L32.2857 82.0502C34.8605 75.7749 37.5168 71.0226 40.2548 67.7936C42.9928 64.5645 45.9762 62.2549 49.2052 60.8649C52.4341 59.4748 56.0527 58.4501 60.061 57.7907C62.4804 57.3779 64.7873 56.6719 66.9815 55.6726C69.1889 54.6403 71.1649 53.2291 72.9095 51.4393C74.6871 49.6625 76.0947 47.4709 77.1323 44.8644C78.4196 41.6311 78.7772 38.5246 78.2052 35.5449C77.6333 32.5653 76.3332 29.9264 74.305 27.6282C72.2768 25.3301 69.712 23.5637 66.6107 22.3291C63.9053 21.252 61.0755 20.7752 58.1215 20.8987C55.1675 21.0223 52.3697 21.9533 49.7282 23.6919C47.0867 25.4305 44.859 28.1939 43.0452 31.9819L30.5739 27.017C33.0707 21.5133 36.4336 17.2907 40.6623 14.3494C44.924 11.4211 49.6528 9.76816 54.8485 9.39042C60.0772 9.02581 65.3639 9.90743 70.7088 12.0353C76.5155 14.347 81.1037 17.5114 84.4734 21.5284C87.876 25.5586 89.9473 30.0526 90.6874 35.0103C91.4604 39.9811 90.8224 45.04 88.7734 50.1869C87.3285 53.8161 85.4607 56.8756 83.17 59.3654C80.9122 61.8683 78.2843 63.8608 75.2863 65.3428C72.3213 66.8379 69.0325 67.8984 65.4198 68.5241C61.794 69.1828 58.7062 70.1704 56.1564 71.4868C53.6196 72.7703 51.4103 74.6236 49.5283 77.0467C47.6462 79.4699 45.8579 82.7139 44.1632 86.7788L43.9267 87.3727L32.0493 82.6441ZM26.7202 114.464C24.2787 113.492 22.5317 111.783 21.4792 109.339C20.4268 106.894 20.3865 104.451 21.3585 102.009C22.3305 99.5677 24.0388 97.8208 26.4836 96.7683C28.9284 95.7158 31.3715 95.6756 33.813 96.6475C36.2545 97.6195 38.0014 99.3279 39.0539 101.773C40.1064 104.217 40.1466 106.661 39.1747 109.102C38.531 110.719 37.5276 112.039 36.1642 113.064C34.8339 114.101 33.3281 114.763 31.6471 115.049C30.0121 115.316 28.3698 115.12 26.7202 114.464Z" fill="black"/>
</svg>
