<svg width="1274" height="132" viewBox="0 0 1274 132" fill="none" xmlns="http://www.w3.org/2000/svg">
<path d="M0 40C0 17.9086 17.9086 0 40 0H1234C1256.09 0 1274 17.9086 1274 40V92C1274 114.091 1256.09 132 1234 132H40C17.9086 132 0 114.091 0 92V40Z" fill="black"/>
<path d="M70.8963 59V37.1818H79.6321C81.2372 37.1818 82.576 37.4197 83.6484 37.8956C84.7209 38.3714 85.527 39.032 86.0668 39.8771C86.6065 40.7152 86.8764 41.6811 86.8764 42.7749C86.8764 43.6271 86.706 44.3764 86.3651 45.0227C86.0241 45.6619 85.5554 46.1875 84.9588 46.5994C84.3693 47.0043 83.6946 47.2919 82.9347 47.4624V47.6754C83.7656 47.7109 84.5433 47.9453 85.2678 48.3786C85.9993 48.8118 86.5923 49.419 87.0469 50.2003C87.5014 50.9744 87.7287 51.8977 87.7287 52.9702C87.7287 54.1278 87.4411 55.1612 86.8658 56.0703C86.2976 56.9723 85.456 57.6861 84.3409 58.2116C83.2259 58.7372 81.8516 59 80.218 59H70.8963ZM75.5092 55.2287H79.2699C80.5554 55.2287 81.4929 54.9837 82.0824 54.4936C82.6719 53.9964 82.9666 53.3359 82.9666 52.5121C82.9666 51.9084 82.821 51.3757 82.5298 50.9141C82.2386 50.4524 81.8232 50.0902 81.2834 49.8274C80.7507 49.5646 80.1151 49.4332 79.3764 49.4332H75.5092V55.2287ZM75.5092 46.3118H78.929C79.5611 46.3118 80.1222 46.2017 80.6122 45.9815C81.1094 45.7543 81.5 45.4347 81.7841 45.0227C82.0753 44.6108 82.2209 44.1172 82.2209 43.5419C82.2209 42.7536 81.9403 42.1179 81.3793 41.6349C80.8253 41.152 80.0369 40.9105 79.0142 40.9105H75.5092V46.3118ZM102.034 49.0071V52.576H93.4895V49.0071H102.034ZM94.981 42.6364V59H90.6451V42.6364H94.981ZM104.878 42.6364V59H100.574V42.6364H104.878ZM112.735 53.0128L118.626 42.6364H123.101V59H118.775V48.5916L112.905 59H108.399V42.6364H112.735V53.0128ZM136.412 53.9822L140.844 42.6364H144.296L137.914 59H134.899L128.667 42.6364H132.108L136.412 53.9822ZM131.075 42.6364V59H126.739V42.6364H131.075ZM141.973 59V42.6364H146.256V59H141.973ZM154.432 59.3089C153.388 59.3089 152.458 59.1278 151.641 58.7656C150.824 58.3963 150.178 57.853 149.702 57.1357C149.233 56.4112 148.999 55.5092 148.999 54.4297C148.999 53.5206 149.166 52.7571 149.5 52.1392C149.834 51.5213 150.288 51.0241 150.863 50.6477C151.439 50.2713 152.092 49.9872 152.824 49.7955C153.562 49.6037 154.336 49.4688 155.146 49.3906C156.098 49.2912 156.865 49.1989 157.447 49.1136C158.03 49.0213 158.452 48.8864 158.715 48.7088C158.978 48.5312 159.109 48.2685 159.109 47.9205V47.8565C159.109 47.1818 158.896 46.6598 158.47 46.2905C158.051 45.9212 157.454 45.7365 156.68 45.7365C155.863 45.7365 155.214 45.9176 154.731 46.2798C154.248 46.6349 153.928 47.0824 153.772 47.6222L149.574 47.2812C149.787 46.2869 150.206 45.4276 150.831 44.7031C151.456 43.9716 152.263 43.4105 153.25 43.0199C154.244 42.6222 155.395 42.4233 156.702 42.4233C157.611 42.4233 158.481 42.5298 159.312 42.7429C160.15 42.956 160.892 43.2862 161.538 43.7337C162.192 44.1811 162.706 44.7564 163.083 45.4595C163.459 46.1555 163.648 46.9901 163.648 47.9631V59H159.344V56.7308H159.216C158.953 57.2422 158.601 57.6932 158.161 58.0838C157.721 58.4673 157.192 58.7692 156.574 58.9893C155.956 59.2024 155.242 59.3089 154.432 59.3089ZM155.732 56.1768C156.4 56.1768 156.989 56.0455 157.501 55.7827C158.012 55.5128 158.413 55.1506 158.704 54.696C158.996 54.2415 159.141 53.7266 159.141 53.1513V51.4148C158.999 51.5071 158.804 51.5923 158.555 51.6705C158.314 51.7415 158.04 51.8089 157.735 51.8729C157.43 51.9297 157.124 51.983 156.819 52.0327C156.513 52.0753 156.236 52.1143 155.988 52.1499C155.455 52.228 154.99 52.3523 154.592 52.5227C154.194 52.6932 153.885 52.924 153.665 53.2152C153.445 53.4993 153.335 53.8544 153.335 54.2805C153.335 54.8984 153.559 55.3707 154.006 55.6974C154.461 56.017 155.036 56.1768 155.732 56.1768ZM178.557 49.0071V52.576H170.013V49.0071H178.557ZM171.504 42.6364V59H167.169V42.6364H171.504ZM181.401 42.6364V59H177.097V42.6364H181.401ZM189.258 53.0128L195.15 42.6364H199.624V59H195.299V48.5916L189.429 59H184.922V42.6364H189.258V53.0128ZM210.72 59.3196C209.036 59.3196 207.588 58.9787 206.373 58.2969C205.166 57.608 204.235 56.6349 203.582 55.3778C202.928 54.1136 202.602 52.6186 202.602 50.8928C202.602 49.2095 202.928 47.7322 203.582 46.4609C204.235 45.1896 205.155 44.1989 206.341 43.4886C207.534 42.7784 208.933 42.4233 210.539 42.4233C211.618 42.4233 212.623 42.5973 213.553 42.9453C214.491 43.2862 215.308 43.8011 216.004 44.4901C216.707 45.179 217.254 46.0455 217.644 47.0895C218.035 48.1264 218.23 49.3409 218.23 50.733V51.9794H204.413V49.1669H213.958C213.958 48.5135 213.816 47.9347 213.532 47.4304C213.248 46.9261 212.854 46.532 212.35 46.2479C211.852 45.9567 211.274 45.8111 210.613 45.8111C209.924 45.8111 209.313 45.9709 208.781 46.2905C208.255 46.603 207.843 47.0256 207.545 47.5582C207.247 48.0838 207.094 48.6697 207.087 49.3161V51.9901C207.087 52.7997 207.236 53.4993 207.534 54.0888C207.84 54.6783 208.269 55.1328 208.823 55.4524C209.377 55.772 210.034 55.9318 210.794 55.9318C211.298 55.9318 211.76 55.8608 212.179 55.7188C212.598 55.5767 212.957 55.3636 213.255 55.0795C213.553 54.7955 213.781 54.4474 213.937 54.0355L218.134 54.3125C217.921 55.321 217.485 56.2017 216.824 56.9545C216.171 57.7003 215.325 58.2827 214.289 58.7017C213.259 59.1136 212.069 59.3196 210.72 59.3196ZM226.615 37.1818L226.199 52.4588H222.3L221.874 37.1818H226.615ZM224.249 59.277C223.546 59.277 222.943 59.0284 222.438 58.5312C221.934 58.027 221.686 57.4233 221.693 56.7202C221.686 56.0241 221.934 55.4276 222.438 54.9304C222.943 54.4332 223.546 54.1847 224.249 54.1847C224.924 54.1847 225.517 54.4332 226.029 54.9304C226.54 55.4276 226.799 56.0241 226.806 56.7202C226.799 57.1889 226.675 57.6186 226.433 58.0092C226.199 58.3928 225.89 58.7017 225.507 58.9361C225.123 59.1634 224.704 59.277 224.249 59.277ZM256.508 37.1818V59H253.866V39.5256H242.872V59H240.23V37.1818H256.508ZM261.496 65.1364V42.6364H263.925V45.2358H264.224C264.408 44.9517 264.664 44.5895 264.991 44.1491C265.325 43.7017 265.8 43.304 266.418 42.956C267.043 42.6009 267.888 42.4233 268.954 42.4233C270.332 42.4233 271.546 42.7678 272.597 43.4567C273.648 44.1456 274.469 45.1222 275.058 46.3864C275.648 47.6506 275.942 49.142 275.942 50.8608C275.942 52.5938 275.648 54.0959 275.058 55.3672C274.469 56.6314 273.652 57.6115 272.608 58.3075C271.564 58.9964 270.36 59.3409 268.996 59.3409C267.945 59.3409 267.104 59.1669 266.472 58.8189C265.839 58.4638 265.353 58.0625 265.012 57.6151C264.671 57.1605 264.408 56.7841 264.224 56.4858H264.011V65.1364H261.496ZM263.968 50.8182C263.968 52.054 264.149 53.1442 264.511 54.0888C264.874 55.0263 265.403 55.7614 266.099 56.294C266.795 56.8196 267.647 57.0824 268.656 57.0824C269.707 57.0824 270.584 56.8054 271.287 56.2514C271.997 55.6903 272.53 54.9375 272.885 53.9929C273.247 53.0412 273.428 51.983 273.428 50.8182C273.428 49.6676 273.251 48.6307 272.896 47.7074C272.548 46.777 272.018 46.0419 271.308 45.5021C270.605 44.9553 269.721 44.6818 268.656 44.6818C267.633 44.6818 266.773 44.9411 266.077 45.4595C265.381 45.9709 264.856 46.6882 264.501 47.6115C264.146 48.5277 263.968 49.5966 263.968 50.8182ZM286.425 59.3409C284.948 59.3409 283.652 58.9893 282.537 58.2862C281.429 57.5831 280.562 56.5994 279.938 55.3352C279.32 54.071 279.011 52.5937 279.011 50.9034C279.011 49.1989 279.32 47.7109 279.938 46.4396C280.562 45.1683 281.429 44.1811 282.537 43.478C283.652 42.7749 284.948 42.4233 286.425 42.4233C287.903 42.4233 289.195 42.7749 290.303 43.478C291.418 44.1811 292.285 45.1683 292.903 46.4396C293.528 47.7109 293.84 49.1989 293.84 50.9034C293.84 52.5937 293.528 54.071 292.903 55.3352C292.285 56.5994 291.418 57.5831 290.303 58.2862C289.195 58.9893 287.903 59.3409 286.425 59.3409ZM286.425 57.0824C287.548 57.0824 288.471 56.7947 289.195 56.2195C289.92 55.6442 290.456 54.8878 290.804 53.9503C291.152 53.0128 291.326 51.9972 291.326 50.9034C291.326 49.8097 291.152 48.7905 290.804 47.8459C290.456 46.9013 289.92 46.1378 289.195 45.5554C288.471 44.973 287.548 44.6818 286.425 44.6818C285.303 44.6818 284.38 44.973 283.656 45.5554C282.931 46.1378 282.395 46.9013 282.047 47.8459C281.699 48.7905 281.525 49.8097 281.525 50.9034C281.525 51.9972 281.699 53.0128 282.047 53.9503C282.395 54.8878 282.931 55.6442 283.656 56.2195C284.38 56.7947 285.303 57.0824 286.425 57.0824ZM295.931 63.6875V56.6562H297.295C297.628 56.3082 297.916 55.9318 298.157 55.527C298.399 55.1222 298.608 54.6428 298.786 54.0888C298.971 53.5277 299.127 52.8459 299.255 52.0433C299.383 51.2337 299.496 50.2571 299.596 49.1136L300.15 42.6364H310.547V56.6562H313.062V63.6875H310.547V59H298.445V63.6875H295.931ZM300.15 56.6562H308.033V44.9801H302.493L302.067 49.1136C301.89 50.8253 301.67 52.3203 301.407 53.5987C301.144 54.8771 300.725 55.8963 300.15 56.6562ZM321.214 59.3835C320.177 59.3835 319.236 59.1882 318.391 58.7976C317.546 58.3999 316.875 57.8281 316.377 57.0824C315.88 56.3295 315.632 55.4205 315.632 54.3551C315.632 53.4176 315.816 52.6577 316.186 52.0753C316.555 51.4858 317.049 51.0241 317.667 50.6903C318.284 50.3565 318.966 50.108 319.712 49.9446C320.465 49.7741 321.221 49.6392 321.981 49.5398C322.975 49.4119 323.782 49.3161 324.4 49.2521C325.025 49.1811 325.479 49.0639 325.763 48.9006C326.054 48.7372 326.2 48.4531 326.2 48.0483V47.9631C326.2 46.9119 325.912 46.0952 325.337 45.5128C324.769 44.9304 323.906 44.6392 322.748 44.6392C321.548 44.6392 320.607 44.902 319.925 45.4276C319.243 45.9531 318.764 46.5142 318.487 47.1108L316.1 46.2585C316.527 45.2642 317.095 44.4901 317.805 43.9361C318.522 43.375 319.304 42.9844 320.149 42.7642C321.001 42.5369 321.839 42.4233 322.663 42.4233C323.189 42.4233 323.792 42.4872 324.474 42.6151C325.163 42.7358 325.827 42.9879 326.466 43.3714C327.113 43.755 327.649 44.3338 328.075 45.108C328.501 45.8821 328.714 46.919 328.714 48.2188V59H326.2V56.7841H326.072C325.902 57.1392 325.618 57.5192 325.22 57.924C324.822 58.3288 324.293 58.6733 323.632 58.9574C322.972 59.2415 322.166 59.3835 321.214 59.3835ZM321.598 57.125C322.592 57.125 323.43 56.9297 324.112 56.5391C324.801 56.1484 325.319 55.6442 325.667 55.0263C326.022 54.4084 326.2 53.7585 326.2 53.0767V50.7756C326.093 50.9034 325.859 51.0206 325.497 51.1271C325.142 51.2266 324.73 51.3153 324.261 51.3935C323.799 51.4645 323.348 51.5284 322.908 51.5852C322.475 51.6349 322.123 51.6776 321.853 51.7131C321.2 51.7983 320.589 51.9368 320.021 52.1286C319.46 52.3132 319.005 52.5937 318.657 52.9702C318.316 53.3395 318.146 53.8437 318.146 54.483C318.146 55.3565 318.469 56.017 319.115 56.4645C319.769 56.9048 320.596 57.125 321.598 57.125ZM332.28 59L338.928 50.6903L332.366 42.6364H335.349L340.803 49.625H342.167V42.6364H344.681V49.625H346.002L351.456 42.6364H354.439L347.92 50.6903L354.525 59H351.499L345.959 51.9688H344.681V59H342.167V51.9688H340.888L335.306 59H332.28ZM362.933 59.3835C361.896 59.3835 360.955 59.1882 360.11 58.7976C359.265 58.3999 358.593 57.8281 358.096 57.0824C357.599 56.3295 357.35 55.4205 357.35 54.3551C357.35 53.4176 357.535 52.6577 357.904 52.0753C358.274 51.4858 358.767 51.0241 359.385 50.6903C360.003 50.3565 360.685 50.108 361.431 49.9446C362.184 49.7741 362.94 49.6392 363.7 49.5398C364.694 49.4119 365.5 49.3161 366.118 49.2521C366.743 49.1811 367.198 49.0639 367.482 48.9006C367.773 48.7372 367.919 48.4531 367.919 48.0483V47.9631C367.919 46.9119 367.631 46.0952 367.056 45.5128C366.488 44.9304 365.625 44.6392 364.467 44.6392C363.267 44.6392 362.326 44.902 361.644 45.4276C360.962 45.9531 360.483 46.5142 360.206 47.1108L357.819 46.2585C358.245 45.2642 358.814 44.4901 359.524 43.9361C360.241 43.375 361.022 42.9844 361.868 42.7642C362.72 42.5369 363.558 42.4233 364.382 42.4233C364.907 42.4233 365.511 42.4872 366.193 42.6151C366.882 42.7358 367.546 42.9879 368.185 43.3714C368.831 43.755 369.368 44.3338 369.794 45.108C370.22 45.8821 370.433 46.919 370.433 48.2188V59H367.919V56.7841H367.791C367.62 57.1392 367.336 57.5192 366.939 57.924C366.541 58.3288 366.012 58.6733 365.351 58.9574C364.691 59.2415 363.885 59.3835 362.933 59.3835ZM363.316 57.125C364.311 57.125 365.149 56.9297 365.831 56.5391C366.52 56.1484 367.038 55.6442 367.386 55.0263C367.741 54.4084 367.919 53.7585 367.919 53.0767V50.7756C367.812 50.9034 367.578 51.0206 367.216 51.1271C366.86 51.2266 366.449 51.3153 365.98 51.3935C365.518 51.4645 365.067 51.5284 364.627 51.5852C364.194 51.6349 363.842 51.6776 363.572 51.7131C362.919 51.7983 362.308 51.9368 361.74 52.1286C361.179 52.3132 360.724 52.5937 360.376 52.9702C360.035 53.3395 359.865 53.8437 359.865 54.483C359.865 55.3565 360.188 56.017 360.834 56.4645C361.488 56.9048 362.315 57.125 363.316 57.125ZM395.604 36.5L396.883 38.0341C396.385 38.517 395.81 38.8544 395.157 39.0462C394.503 39.2379 393.765 39.3551 392.941 39.3977C392.117 39.4403 391.201 39.483 390.192 39.5256C389.056 39.5682 388.115 39.8452 387.369 40.3565C386.623 40.8679 386.048 41.6065 385.643 42.5724C385.238 43.5384 384.979 44.7244 384.866 46.1307H385.079C385.633 45.108 386.4 44.3551 387.38 43.8722C388.36 43.3892 389.411 43.1477 390.533 43.1477C391.812 43.1477 392.962 43.446 393.985 44.0426C395.008 44.6392 395.817 45.5234 396.414 46.6953C397.01 47.8672 397.309 49.3125 397.309 51.0312C397.309 52.7429 397.003 54.2202 396.393 55.4631C395.789 56.706 394.94 57.6648 393.846 58.3395C392.76 59.0071 391.485 59.3409 390.022 59.3409C388.559 59.3409 387.277 58.9964 386.176 58.3075C385.075 57.6115 384.219 56.5817 383.608 55.218C382.998 53.8473 382.692 52.1534 382.692 50.1364V48.3892C382.692 44.7457 383.31 41.983 384.546 40.1009C385.789 38.2187 387.657 37.2457 390.15 37.1818C391.03 37.1534 391.815 37.1463 392.504 37.1605C393.193 37.1747 393.793 37.1428 394.305 37.0646C394.816 36.9865 395.249 36.7983 395.604 36.5ZM390.022 57.0824C391.009 57.0824 391.858 56.8338 392.568 56.3366C393.285 55.8395 393.836 55.1399 394.219 54.2379C394.603 53.3288 394.795 52.2599 394.795 51.0312C394.795 49.8381 394.599 48.8224 394.209 47.9844C393.825 47.1463 393.275 46.5071 392.557 46.0668C391.84 45.6264 390.981 45.4062 389.979 45.4062C389.248 45.4062 388.591 45.5305 388.008 45.7791C387.426 46.0277 386.929 46.3935 386.517 46.8764C386.105 47.3594 385.785 47.9489 385.558 48.6449C385.338 49.3409 385.221 50.1364 385.206 51.0312C385.206 52.8636 385.636 54.3303 386.496 55.4311C387.355 56.532 388.53 57.0824 390.022 57.0824ZM403.669 55.2926L411.552 42.6364H414.45V59H411.936V46.3438L404.095 59H401.155V42.6364H403.669V55.2926ZM417.606 59V56.6562H418.203C418.693 56.6562 419.101 56.5604 419.428 56.3686C419.755 56.1697 420.017 55.8253 420.216 55.3352C420.422 54.8381 420.578 54.1491 420.685 53.2685C420.799 52.3807 420.88 51.2514 420.93 49.8807L421.228 42.6364H432.137V59H429.623V44.9801H423.615L423.359 50.8182C423.302 52.1605 423.181 53.343 422.997 54.3658C422.819 55.3814 422.546 56.2337 422.176 56.9226C421.814 57.6115 421.331 58.13 420.728 58.478C420.124 58.826 419.368 59 418.458 59H417.606ZM443.611 59.3409C442.034 59.3409 440.674 58.9929 439.531 58.2969C438.395 57.5938 437.517 56.6136 436.9 55.3565C436.289 54.0923 435.983 52.6222 435.983 50.946C435.983 49.2699 436.289 47.7926 436.9 46.5142C437.517 45.2287 438.377 44.2273 439.478 43.5099C440.586 42.7855 441.878 42.4233 443.355 42.4233C444.208 42.4233 445.049 42.5653 445.88 42.8494C446.711 43.1335 447.468 43.5952 448.15 44.2344C448.831 44.8665 449.375 45.7045 449.779 46.7486C450.184 47.7926 450.387 49.0781 450.387 50.6051V51.6705H437.773V49.4972H447.83C447.83 48.5739 447.645 47.75 447.276 47.0256C446.914 46.3011 446.395 45.7294 445.721 45.3104C445.053 44.8913 444.265 44.6818 443.355 44.6818C442.354 44.6818 441.488 44.9304 440.756 45.4276C440.032 45.9176 439.474 46.5568 439.083 47.3452C438.693 48.1335 438.498 48.9787 438.498 49.8807V51.3295C438.498 52.5653 438.711 53.6129 439.137 54.4723C439.57 55.3246 440.17 55.9744 440.937 56.4219C441.704 56.8622 442.596 57.0824 443.611 57.0824C444.272 57.0824 444.868 56.9901 445.401 56.8054C445.941 56.6136 446.406 56.3295 446.797 55.9531C447.187 55.5696 447.489 55.0937 447.702 54.5256L450.131 55.2074C449.875 56.0312 449.446 56.7557 448.842 57.3807C448.238 57.9986 447.493 58.4815 446.605 58.8295C445.717 59.1705 444.719 59.3409 443.611 59.3409ZM452.688 44.9801V42.6364H465.983V44.9801H460.614V59H458.1V44.9801H452.688ZM475.449 59.3409C473.972 59.3409 472.675 58.9893 471.56 58.2862C470.452 57.5831 469.586 56.5994 468.961 55.3352C468.343 54.071 468.034 52.5937 468.034 50.9034C468.034 49.1989 468.343 47.7109 468.961 46.4396C469.586 45.1683 470.452 44.1811 471.56 43.478C472.675 42.7749 473.972 42.4233 475.449 42.4233C476.926 42.4233 478.219 42.7749 479.327 43.478C480.442 44.1811 481.308 45.1683 481.926 46.4396C482.551 47.7109 482.864 49.1989 482.864 50.9034C482.864 52.5937 482.551 54.071 481.926 55.3352C481.308 56.5994 480.442 57.5831 479.327 58.2862C478.219 58.9893 476.926 59.3409 475.449 59.3409ZM475.449 57.0824C476.571 57.0824 477.494 56.7947 478.219 56.2195C478.943 55.6442 479.479 54.8878 479.827 53.9503C480.175 53.0128 480.349 51.9972 480.349 50.9034C480.349 49.8097 480.175 48.7905 479.827 47.8459C479.479 46.9013 478.943 46.1378 478.219 45.5554C477.494 44.973 476.571 44.6818 475.449 44.6818C474.327 44.6818 473.403 44.973 472.679 45.5554C471.955 46.1378 471.418 46.9013 471.07 47.8459C470.722 48.7905 470.548 49.8097 470.548 50.9034C470.548 51.9972 470.722 53.0128 471.07 53.9503C471.418 54.8878 471.955 55.6442 472.679 56.2195C473.403 56.7947 474.327 57.0824 475.449 57.0824ZM486.702 59V42.6364H493.392C495.153 42.6364 496.552 43.0341 497.589 43.8295C498.626 44.625 499.145 45.6761 499.145 46.983C499.145 47.9773 498.85 48.7479 498.26 49.2947C497.671 49.8345 496.915 50.2003 495.991 50.392C496.595 50.4773 497.181 50.6903 497.749 51.0312C498.324 51.3722 498.8 51.8409 499.177 52.4375C499.553 53.027 499.741 53.7514 499.741 54.6108C499.741 55.4489 499.528 56.1982 499.102 56.8587C498.676 57.5192 498.065 58.0412 497.27 58.4247C496.474 58.8082 495.523 59 494.415 59H486.702ZM489.088 56.6989H494.415C495.281 56.6989 495.959 56.4929 496.449 56.081C496.939 55.669 497.184 55.108 497.184 54.3977C497.184 53.5526 496.939 52.8885 496.449 52.4055C495.959 51.9155 495.281 51.6705 494.415 51.6705H489.088V56.6989ZM489.088 49.4972H493.392C494.067 49.4972 494.645 49.4048 495.128 49.2202C495.611 49.0284 495.981 48.7585 496.236 48.4105C496.499 48.0554 496.631 47.6364 496.631 47.1534C496.631 46.4645 496.343 45.9247 495.768 45.5341C495.192 45.1364 494.4 44.9375 493.392 44.9375H489.088V49.4972ZM522.936 49.6676V52.0114H513.902V49.6676H522.936ZM514.499 42.6364V59H511.985V42.6364H514.499ZM524.854 42.6364V59H522.34V42.6364H524.854ZM534.261 59.3835C533.224 59.3835 532.283 59.1882 531.438 58.7976C530.593 58.3999 529.922 57.8281 529.424 57.0824C528.927 56.3295 528.679 55.4205 528.679 54.3551C528.679 53.4176 528.863 52.6577 529.233 52.0753C529.602 51.4858 530.096 51.0241 530.713 50.6903C531.331 50.3565 532.013 50.108 532.759 49.9446C533.512 49.7741 534.268 49.6392 535.028 49.5398C536.022 49.4119 536.828 49.3161 537.446 49.2521C538.071 49.1811 538.526 49.0639 538.81 48.9006C539.101 48.7372 539.247 48.4531 539.247 48.0483V47.9631C539.247 46.9119 538.959 46.0952 538.384 45.5128C537.816 44.9304 536.953 44.6392 535.795 44.6392C534.595 44.6392 533.654 44.902 532.972 45.4276C532.29 45.9531 531.811 46.5142 531.534 47.1108L529.147 46.2585C529.574 45.2642 530.142 44.4901 530.852 43.9361C531.569 43.375 532.35 42.9844 533.196 42.7642C534.048 42.5369 534.886 42.4233 535.71 42.4233C536.235 42.4233 536.839 42.4872 537.521 42.6151C538.21 42.7358 538.874 42.9879 539.513 43.3714C540.159 43.755 540.696 44.3338 541.122 45.108C541.548 45.8821 541.761 46.919 541.761 48.2188V59H539.247V56.7841H539.119C538.949 57.1392 538.664 57.5192 538.267 57.924C537.869 58.3288 537.34 58.6733 536.679 58.9574C536.019 59.2415 535.213 59.3835 534.261 59.3835ZM534.645 57.125C535.639 57.125 536.477 56.9297 537.159 56.5391C537.848 56.1484 538.366 55.6442 538.714 55.0263C539.069 54.4084 539.247 53.7585 539.247 53.0767V50.7756C539.14 50.9034 538.906 51.0206 538.544 51.1271C538.189 51.2266 537.777 51.3153 537.308 51.3935C536.846 51.4645 536.395 51.5284 535.955 51.5852C535.522 51.6349 535.17 51.6776 534.9 51.7131C534.247 51.7983 533.636 51.9368 533.068 52.1286C532.507 52.3132 532.052 52.5937 531.704 52.9702C531.363 53.3395 531.193 53.8437 531.193 54.483C531.193 55.3565 531.516 56.017 532.162 56.4645C532.816 56.9048 533.643 57.125 534.645 57.125ZM558.964 42.6364V59H556.449V42.6364H558.964ZM557.983 50.4347V52.7784C557.415 52.9915 556.851 53.1797 556.29 53.343C555.729 53.4993 555.139 53.6236 554.521 53.7159C553.903 53.8011 553.225 53.8438 552.486 53.8438C550.633 53.8438 549.145 53.343 548.023 52.3416C546.907 51.3402 546.35 49.8381 546.35 47.8352V42.5938H548.864V47.8352C548.864 48.6733 549.024 49.3622 549.344 49.902C549.663 50.4418 550.096 50.843 550.643 51.1058C551.19 51.3686 551.805 51.5 552.486 51.5C553.552 51.5 554.514 51.4041 555.373 51.2124C556.24 51.0135 557.11 50.7543 557.983 50.4347ZM574.528 49.6676V52.0114H565.494V49.6676H574.528ZM566.091 42.6364V59H563.577V42.6364H566.091ZM576.446 42.6364V59H573.932V42.6364H576.446ZM587.898 59.3409C586.322 59.3409 584.961 58.9929 583.818 58.2969C582.682 57.5938 581.805 56.6136 581.187 55.3565C580.576 54.0923 580.27 52.6222 580.27 50.946C580.27 49.2699 580.576 47.7926 581.187 46.5142C581.805 45.2287 582.664 44.2273 583.765 43.5099C584.873 42.7855 586.165 42.4233 587.643 42.4233C588.495 42.4233 589.336 42.5653 590.167 42.8494C590.998 43.1335 591.755 43.5952 592.437 44.2344C593.118 44.8665 593.662 45.7045 594.067 46.7486C594.471 47.7926 594.674 49.0781 594.674 50.6051V51.6705H582.06V49.4972H592.117C592.117 48.5739 591.932 47.75 591.563 47.0256C591.201 46.3011 590.682 45.7294 590.008 45.3104C589.34 44.8913 588.552 44.6818 587.643 44.6818C586.641 44.6818 585.775 44.9304 585.043 45.4276C584.319 45.9176 583.761 46.5568 583.371 47.3452C582.98 48.1335 582.785 48.9787 582.785 49.8807V51.3295C582.785 52.5653 582.998 53.6129 583.424 54.4723C583.857 55.3246 584.457 55.9744 585.224 56.4219C585.991 56.8622 586.883 57.0824 587.898 57.0824C588.559 57.0824 589.155 56.9901 589.688 56.8054C590.228 56.6136 590.693 56.3295 591.084 55.9531C591.474 55.5696 591.776 55.0937 591.989 54.5256L594.418 55.2074C594.162 56.0312 593.733 56.7557 593.129 57.3807C592.525 57.9986 591.78 58.4815 590.892 58.8295C590.004 59.1705 589.006 59.3409 587.898 59.3409ZM584.447 39.9091C583.999 39.9091 583.601 39.7386 583.253 39.3977C582.912 39.0497 582.742 38.652 582.742 38.2045C582.742 37.7145 582.912 37.3097 583.253 36.9901C583.601 36.6634 583.999 36.5 584.447 36.5C584.937 36.5 585.341 36.6634 585.661 36.9901C585.988 37.3097 586.151 37.7145 586.151 38.2045C586.151 38.652 585.988 39.0497 585.661 39.3977C585.341 39.7386 584.937 39.9091 584.447 39.9091ZM590.583 39.9091C590.135 39.9091 589.738 39.7386 589.39 39.3977C589.049 39.0497 588.878 38.652 588.878 38.2045C588.878 37.7145 589.049 37.3097 589.39 36.9901C589.738 36.6634 590.135 36.5 590.583 36.5C591.073 36.5 591.478 36.6634 591.797 36.9901C592.124 37.3097 592.287 37.7145 592.287 38.2045C592.287 38.652 592.124 39.0497 591.797 39.3977C591.478 39.7386 591.073 39.9091 590.583 39.9091ZM596.975 44.9801V42.6364H610.27V44.9801H604.901V59H602.387V44.9801H596.975ZM619.736 59.3409C618.202 59.3409 616.881 58.9787 615.773 58.2543C614.665 57.5298 613.813 56.532 613.216 55.2607C612.619 53.9893 612.321 52.5369 612.321 50.9034C612.321 49.2415 612.627 47.7749 613.237 46.5036C613.855 45.2251 614.715 44.2273 615.816 43.5099C616.923 42.7855 618.216 42.4233 619.693 42.4233C620.844 42.4233 621.881 42.6364 622.804 43.0625C623.727 43.4886 624.484 44.0852 625.073 44.8523C625.663 45.6193 626.029 46.5142 626.171 47.5369H623.656C623.465 46.7912 623.039 46.1307 622.378 45.5554C621.725 44.973 620.844 44.6818 619.736 44.6818C618.756 44.6818 617.896 44.9375 617.158 45.4489C616.426 45.9531 615.855 46.6669 615.443 47.5902C615.038 48.5064 614.835 49.5824 614.835 50.8182C614.835 52.0824 615.034 53.1832 615.432 54.1207C615.837 55.0582 616.405 55.7862 617.137 56.3047C617.875 56.8232 618.742 57.0824 619.736 57.0824C620.389 57.0824 620.982 56.9688 621.515 56.7415C622.048 56.5142 622.499 56.1875 622.868 55.7614C623.237 55.3352 623.5 54.8239 623.656 54.2273H626.171C626.029 55.1932 625.677 56.0632 625.116 56.8374C624.562 57.6044 623.827 58.2152 622.911 58.6697C622.002 59.1172 620.943 59.3409 619.736 59.3409ZM639.69 59V44.9375H635.343C634.363 44.9375 633.593 45.1648 633.031 45.6193C632.47 46.0739 632.19 46.6989 632.19 47.4943C632.19 48.2756 632.442 48.8899 632.946 49.3374C633.458 49.7848 634.157 50.0085 635.045 50.0085H640.329V52.3523H635.045C633.937 52.3523 632.982 52.157 632.179 51.7663C631.377 51.3757 630.759 50.8182 630.325 50.0938C629.892 49.3622 629.676 48.4957 629.676 47.4943C629.676 46.4858 629.903 45.6193 630.357 44.8949C630.812 44.1705 631.462 43.6129 632.307 43.2223C633.159 42.8317 634.171 42.6364 635.343 42.6364H642.076V59H639.69ZM628.781 59L633.426 50.8608H636.153L631.508 59H628.781ZM662.757 37.1818V59H660.115V39.9517H659.987L654.661 43.4886V40.804L660.115 37.1818H662.757ZM692.683 59H690.04V39.5256H685.396C684.217 39.5256 683.268 39.7067 682.551 40.0689C681.834 40.424 681.312 40.9283 680.985 41.5817C680.658 42.2351 680.495 42.9986 680.495 43.8722C680.495 44.7457 680.655 45.4986 680.974 46.1307C681.301 46.7557 681.82 47.2386 682.53 47.5795C683.247 47.9205 684.188 48.0909 685.353 48.0909H691.234V50.4773H685.268C683.577 50.4773 682.189 50.1967 681.102 49.6357C680.016 49.0675 679.21 48.2862 678.684 47.2919C678.158 46.2976 677.896 45.1577 677.896 43.8722C677.896 42.5866 678.158 41.4396 678.684 40.4311C679.21 39.4226 680.019 38.6307 681.113 38.0554C682.207 37.473 683.606 37.1818 685.31 37.1818H692.683V59ZM682.413 49.1989H685.396L680.112 59H677.043L682.413 49.1989ZM708.591 49.6676V52.0114H699.557V49.6676H708.591ZM700.153 42.6364V59H697.639V42.6364H700.153ZM710.508 42.6364V59H707.994V42.6364H710.508ZM715.1 59V42.6364H721.79C723.552 42.6364 724.951 43.0341 725.988 43.8295C727.025 44.625 727.543 45.6761 727.543 46.983C727.543 47.9773 727.248 48.7479 726.659 49.2947C726.069 49.8345 725.313 50.2003 724.39 50.392C724.993 50.4773 725.579 50.6903 726.148 51.0312C726.723 51.3722 727.199 51.8409 727.575 52.4375C727.952 53.027 728.14 53.7514 728.14 54.6108C728.14 55.4489 727.927 56.1982 727.501 56.8587C727.074 57.5192 726.464 58.0412 725.668 58.4247C724.873 58.8082 723.921 59 722.813 59H715.1ZM717.486 56.6989H722.813C723.68 56.6989 724.358 56.4929 724.848 56.081C725.338 55.669 725.583 55.108 725.583 54.3977C725.583 53.5526 725.338 52.8885 724.848 52.4055C724.358 51.9155 723.68 51.6705 722.813 51.6705H717.486V56.6989ZM717.486 49.4972H721.79C722.465 49.4972 723.044 49.4048 723.527 49.2202C724.01 49.0284 724.379 48.7585 724.635 48.4105C724.898 48.0554 725.029 47.6364 725.029 47.1534C725.029 46.4645 724.741 45.9247 724.166 45.5341C723.591 45.1364 722.799 44.9375 721.79 44.9375H717.486V49.4972ZM736.761 59.3835C735.724 59.3835 734.783 59.1882 733.938 58.7976C733.093 58.3999 732.422 57.8281 731.924 57.0824C731.427 56.3295 731.179 55.4205 731.179 54.3551C731.179 53.4176 731.363 52.6577 731.733 52.0753C732.102 51.4858 732.596 51.0241 733.213 50.6903C733.831 50.3565 734.513 50.108 735.259 49.9446C736.012 49.7741 736.768 49.6392 737.528 49.5398C738.522 49.4119 739.328 49.3161 739.946 49.2521C740.571 49.1811 741.026 49.0639 741.31 48.9006C741.601 48.7372 741.747 48.4531 741.747 48.0483V47.9631C741.747 46.9119 741.459 46.0952 740.884 45.5128C740.316 44.9304 739.453 44.6392 738.295 44.6392C737.095 44.6392 736.154 44.902 735.472 45.4276C734.79 45.9531 734.311 46.5142 734.034 47.1108L731.647 46.2585C732.074 45.2642 732.642 44.4901 733.352 43.9361C734.069 43.375 734.85 42.9844 735.696 42.7642C736.548 42.5369 737.386 42.4233 738.21 42.4233C738.735 42.4233 739.339 42.4872 740.021 42.6151C740.71 42.7358 741.374 42.9879 742.013 43.3714C742.659 43.755 743.196 44.3338 743.622 45.108C744.048 45.8821 744.261 46.919 744.261 48.2188V59H741.747V56.7841H741.619C741.449 57.1392 741.164 57.5192 740.767 57.924C740.369 58.3288 739.84 58.6733 739.179 58.9574C738.519 59.2415 737.713 59.3835 736.761 59.3835ZM737.145 57.125C738.139 57.125 738.977 56.9297 739.659 56.5391C740.348 56.1484 740.866 55.6442 741.214 55.0263C741.569 54.4084 741.747 53.7585 741.747 53.0767V50.7756C741.64 50.9034 741.406 51.0206 741.044 51.1271C740.689 51.2266 740.277 51.3153 739.808 51.3935C739.346 51.4645 738.895 51.5284 738.455 51.5852C738.022 51.6349 737.67 51.6776 737.4 51.7131C736.747 51.7983 736.136 51.9368 735.568 52.1286C735.007 52.3132 734.552 52.5937 734.204 52.9702C733.863 53.3395 733.693 53.8437 733.693 54.483C733.693 55.3565 734.016 56.017 734.662 56.4645C735.316 56.9048 736.143 57.125 737.145 57.125ZM748.85 65.1364V42.6364H751.279V45.2358H751.577C751.762 44.9517 752.018 44.5895 752.344 44.1491C752.678 43.7017 753.154 43.304 753.772 42.956C754.397 42.6009 755.242 42.4233 756.307 42.4233C757.685 42.4233 758.9 42.7678 759.951 43.4567C761.002 44.1456 761.822 45.1222 762.412 46.3864C763.001 47.6506 763.296 49.142 763.296 50.8608C763.296 52.5938 763.001 54.0959 762.412 55.3672C761.822 56.6314 761.006 57.6115 759.961 58.3075C758.917 58.9964 757.714 59.3409 756.35 59.3409C755.299 59.3409 754.457 59.1669 753.825 58.8189C753.193 58.4638 752.706 58.0625 752.366 57.6151C752.025 57.1605 751.762 56.7841 751.577 56.4858H751.364V65.1364H748.85ZM751.322 50.8182C751.322 52.054 751.503 53.1442 751.865 54.0888C752.227 55.0263 752.756 55.7614 753.452 56.294C754.148 56.8196 755.001 57.0824 756.009 57.0824C757.06 57.0824 757.937 56.8054 758.64 56.2514C759.351 55.6903 759.883 54.9375 760.238 53.9929C760.601 53.0412 760.782 51.983 760.782 50.8182C760.782 49.6676 760.604 48.6307 760.249 47.7074C759.901 46.777 759.372 46.0419 758.662 45.5021C757.959 44.9553 757.074 44.6818 756.009 44.6818C754.986 44.6818 754.127 44.9411 753.431 45.4595C752.735 45.9709 752.209 46.6882 751.854 47.6115C751.499 48.5277 751.322 49.5966 751.322 50.8182ZM776.975 59V44.9375H772.628C771.648 44.9375 770.878 45.1648 770.317 45.6193C769.756 46.0739 769.475 46.6989 769.475 47.4943C769.475 48.2756 769.727 48.8899 770.231 49.3374C770.743 49.7848 771.442 50.0085 772.33 50.0085H777.614V52.3523H772.33C771.222 52.3523 770.267 52.157 769.464 51.7663C768.662 51.3757 768.044 50.8182 767.611 50.0938C767.177 49.3622 766.961 48.4957 766.961 47.4943C766.961 46.4858 767.188 45.6193 767.643 44.8949C768.097 44.1705 768.747 43.6129 769.592 43.2223C770.444 42.8317 771.456 42.6364 772.628 42.6364H779.361V59H776.975ZM766.066 59L770.711 50.8608H773.438L768.793 59H766.066ZM792.372 59V57.0824L799.574 49.1989C800.419 48.2756 801.115 47.473 801.662 46.7912C802.208 46.1023 802.613 45.456 802.876 44.8523C803.146 44.2415 803.281 43.6023 803.281 42.9347C803.281 42.1676 803.096 41.5036 802.727 40.9425C802.365 40.3814 801.868 39.9482 801.235 39.6428C800.603 39.3374 799.893 39.1847 799.105 39.1847C798.267 39.1847 797.535 39.3587 796.91 39.7067C796.292 40.0476 795.813 40.527 795.472 41.1449C795.138 41.7628 794.971 42.4872 794.971 43.3182H792.457C792.457 42.0398 792.752 40.9176 793.341 39.9517C793.931 38.9858 794.733 38.233 795.749 37.6932C796.772 37.1534 797.919 36.8835 799.19 36.8835C800.468 36.8835 801.601 37.1534 802.588 37.6932C803.576 38.233 804.35 38.9609 804.911 39.8771C805.472 40.7933 805.752 41.8125 805.752 42.9347C805.752 43.7372 805.607 44.522 805.316 45.2891C805.032 46.049 804.534 46.8977 803.824 47.8352C803.121 48.7656 802.145 49.902 800.895 51.2443L795.994 56.4858V56.6562H806.136V59H792.372ZM817.652 59.2983C816.047 59.2983 814.68 58.8615 813.551 57.9879C812.422 57.1072 811.559 55.8324 810.962 54.1634C810.365 52.4872 810.067 50.4631 810.067 48.0909C810.067 45.733 810.365 43.7195 810.962 42.0504C811.566 40.3743 812.432 39.0959 813.561 38.2152C814.698 37.3274 816.061 36.8835 817.652 36.8835C819.243 36.8835 820.603 37.3274 821.733 38.2152C822.869 39.0959 823.735 40.3743 824.332 42.0504C824.936 43.7195 825.238 45.733 825.238 48.0909C825.238 50.4631 824.939 52.4872 824.343 54.1634C823.746 55.8324 822.883 57.1072 821.754 57.9879C820.625 58.8615 819.257 59.2983 817.652 59.2983ZM817.652 56.9545C819.243 56.9545 820.479 56.1875 821.36 54.6534C822.24 53.1193 822.681 50.9318 822.681 48.0909C822.681 46.2017 822.478 44.593 822.074 43.2649C821.676 41.9368 821.1 40.9247 820.348 40.2287C819.602 39.5327 818.703 39.1847 817.652 39.1847C816.076 39.1847 814.843 39.9624 813.956 41.5178C813.068 43.0661 812.624 45.2571 812.624 48.0909C812.624 49.9801 812.823 51.5852 813.221 52.9062C813.618 54.2273 814.19 55.2322 814.936 55.9212C815.689 56.6101 816.594 56.9545 817.652 56.9545ZM829.286 59V57.0824L836.488 49.1989C837.333 48.2756 838.029 47.473 838.576 46.7912C839.123 46.1023 839.527 45.456 839.79 44.8523C840.06 44.2415 840.195 43.6023 840.195 42.9347C840.195 42.1676 840.01 41.5036 839.641 40.9425C839.279 40.3814 838.782 39.9482 838.15 39.6428C837.517 39.3374 836.807 39.1847 836.019 39.1847C835.181 39.1847 834.449 39.3587 833.824 39.7067C833.206 40.0476 832.727 40.527 832.386 41.1449C832.052 41.7628 831.885 42.4872 831.885 43.3182H829.371C829.371 42.0398 829.666 40.9176 830.255 39.9517C830.845 38.9858 831.647 38.233 832.663 37.6932C833.686 37.1534 834.833 36.8835 836.104 36.8835C837.382 36.8835 838.515 37.1534 839.502 37.6932C840.49 38.233 841.264 38.9609 841.825 39.8771C842.386 40.7933 842.667 41.8125 842.667 42.9347C842.667 43.7372 842.521 44.522 842.23 45.2891C841.946 46.049 841.449 46.8977 840.738 47.8352C840.035 48.7656 839.059 49.902 837.809 51.2443L832.908 56.4858V56.6562H843.05V59H829.286ZM854.694 59.2983C853.799 59.2841 852.904 59.1136 852.01 58.7869C851.115 58.4602 850.298 57.9098 849.559 57.1357C848.821 56.3544 848.228 55.2997 847.78 53.9716C847.333 52.6364 847.109 50.9602 847.109 48.9432C847.109 47.0114 847.29 45.2997 847.652 43.8082C848.015 42.3097 848.54 41.049 849.229 40.0263C849.918 38.9964 850.749 38.2152 851.722 37.6825C852.702 37.1499 853.806 36.8835 855.035 36.8835C856.257 36.8835 857.343 37.1286 858.295 37.6186C859.254 38.1016 860.035 38.7763 860.639 39.6428C861.243 40.5092 861.633 41.5071 861.811 42.6364H859.211C858.97 41.6562 858.501 40.843 857.805 40.1967C857.109 39.5504 856.186 39.2273 855.035 39.2273C853.345 39.2273 852.013 39.9624 851.04 41.4325C850.074 42.9027 849.588 44.9659 849.581 47.6222H849.751C850.149 47.0185 850.621 46.5036 851.168 46.0774C851.722 45.6442 852.333 45.3104 853 45.076C853.668 44.8416 854.375 44.7244 855.12 44.7244C856.37 44.7244 857.514 45.0369 858.551 45.6619C859.588 46.2798 860.419 47.1357 861.044 48.2294C861.669 49.3161 861.981 50.5625 861.981 51.9688C861.981 53.3182 861.679 54.554 861.076 55.6761C860.472 56.7912 859.623 57.679 858.529 58.3395C857.443 58.9929 856.164 59.3125 854.694 59.2983ZM854.694 56.9545C855.589 56.9545 856.392 56.7308 857.102 56.2834C857.819 55.8359 858.384 55.2358 858.796 54.483C859.215 53.7301 859.424 52.892 859.424 51.9688C859.424 51.0668 859.222 50.2464 858.817 49.5078C858.419 48.7621 857.869 48.169 857.166 47.7287C856.47 47.2884 855.674 47.0682 854.779 47.0682C854.105 47.0682 853.476 47.2031 852.894 47.473C852.311 47.7358 851.8 48.098 851.36 48.5597C850.926 49.0213 850.586 49.5504 850.337 50.147C850.088 50.7365 849.964 51.358 849.964 52.0114C849.964 52.8778 850.167 53.6875 850.571 54.4403C850.983 55.1932 851.544 55.8004 852.255 56.2621C852.972 56.7237 853.785 56.9545 854.694 56.9545ZM867.02 59.1705C866.495 59.1705 866.044 58.9822 865.667 58.6058C865.291 58.2294 865.103 57.7784 865.103 57.2528C865.103 56.7273 865.291 56.2763 865.667 55.8999C866.044 55.5234 866.495 55.3352 867.02 55.3352C867.546 55.3352 867.997 55.5234 868.373 55.8999C868.75 56.2763 868.938 56.7273 868.938 57.2528C868.938 57.6009 868.849 57.9205 868.672 58.2116C868.501 58.5028 868.27 58.7372 867.979 58.9148C867.695 59.0852 867.375 59.1705 867.02 59.1705ZM889.217 59.2983C887.81 59.2983 886.557 59.0568 885.456 58.5739C884.362 58.0909 883.492 57.4197 882.846 56.5604C882.207 55.6939 881.859 54.6889 881.802 53.5455H884.487C884.543 54.2486 884.785 54.8558 885.211 55.3672C885.637 55.8714 886.195 56.2621 886.884 56.5391C887.572 56.8161 888.336 56.9545 889.174 56.9545C890.112 56.9545 890.942 56.7912 891.667 56.4645C892.391 56.1378 892.96 55.6832 893.371 55.1009C893.783 54.5185 893.989 53.8438 893.989 53.0767C893.989 52.2741 893.79 51.5675 893.393 50.9567C892.995 50.3388 892.413 49.8558 891.646 49.5078C890.879 49.1598 889.941 48.9858 888.833 48.9858H887.086V46.642H888.833C889.7 46.642 890.46 46.4858 891.113 46.1733C891.773 45.8608 892.288 45.4205 892.658 44.8523C893.034 44.2841 893.222 43.6165 893.222 42.8494C893.222 42.1108 893.059 41.468 892.732 40.9212C892.406 40.3743 891.944 39.9482 891.347 39.6428C890.758 39.3374 890.062 39.1847 889.259 39.1847C888.506 39.1847 887.796 39.3232 887.129 39.6001C886.468 39.87 885.928 40.2642 885.509 40.7827C885.09 41.294 884.863 41.9119 884.827 42.6364H882.271C882.313 41.4929 882.658 40.4915 883.304 39.6321C883.95 38.7656 884.795 38.0909 885.839 37.608C886.891 37.125 888.045 36.8835 889.302 36.8835C890.651 36.8835 891.809 37.157 892.775 37.7038C893.741 38.2436 894.483 38.9574 895.001 39.8452C895.52 40.733 895.779 41.6918 895.779 42.7216C895.779 43.9503 895.456 44.9979 894.81 45.8643C894.17 46.7308 893.3 47.331 892.2 47.6648V47.8352C893.577 48.0625 894.653 48.6484 895.428 49.593C896.202 50.5305 896.589 51.6918 896.589 53.0767C896.589 54.2628 896.266 55.3281 895.619 56.2727C894.98 57.2102 894.107 57.9489 892.999 58.4886C891.891 59.0284 890.63 59.2983 889.217 59.2983ZM905.804 59.3835C904.767 59.3835 903.826 59.1882 902.981 58.7976C902.136 58.3999 901.464 57.8281 900.967 57.0824C900.47 56.3295 900.222 55.4205 900.222 54.3551C900.222 53.4176 900.406 52.6577 900.776 52.0753C901.145 51.4858 901.638 51.0241 902.256 50.6903C902.874 50.3565 903.556 50.108 904.302 49.9446C905.055 49.7741 905.811 49.6392 906.571 49.5398C907.565 49.4119 908.371 49.3161 908.989 49.2521C909.614 49.1811 910.069 49.0639 910.353 48.9006C910.644 48.7372 910.79 48.4531 910.79 48.0483V47.9631C910.79 46.9119 910.502 46.0952 909.927 45.5128C909.359 44.9304 908.496 44.6392 907.338 44.6392C906.138 44.6392 905.197 44.902 904.515 45.4276C903.833 45.9531 903.354 46.5142 903.077 47.1108L900.69 46.2585C901.116 45.2642 901.685 44.4901 902.395 43.9361C903.112 43.375 903.893 42.9844 904.739 42.7642C905.591 42.5369 906.429 42.4233 907.253 42.4233C907.778 42.4233 908.382 42.4872 909.064 42.6151C909.753 42.7358 910.417 42.9879 911.056 43.3714C911.702 43.755 912.239 44.3338 912.665 45.108C913.091 45.8821 913.304 46.919 913.304 48.2188V59H910.79V56.7841H910.662C910.491 57.1392 910.207 57.5192 909.81 57.924C909.412 58.3288 908.883 58.6733 908.222 58.9574C907.562 59.2415 906.756 59.3835 905.804 59.3835ZM906.188 57.125C907.182 57.125 908.02 56.9297 908.702 56.5391C909.391 56.1484 909.909 55.6442 910.257 55.0263C910.612 54.4084 910.79 53.7585 910.79 53.0767V50.7756C910.683 50.9034 910.449 51.0206 910.087 51.1271C909.732 51.2266 909.32 51.3153 908.851 51.3935C908.389 51.4645 907.938 51.5284 907.498 51.5852C907.065 51.6349 906.713 51.6776 906.443 51.7131C905.79 51.7983 905.179 51.9368 904.611 52.1286C904.05 52.3132 903.595 52.5937 903.247 52.9702C902.906 53.3395 902.736 53.8437 902.736 54.483C902.736 55.3565 903.059 56.017 903.705 56.4645C904.359 56.9048 905.186 57.125 906.188 57.125ZM917.893 59V42.6364H930.762V59H928.248V44.9801H920.407V59H917.893ZM942.002 59.3409C940.524 59.3409 939.228 58.9893 938.113 58.2862C937.005 57.5831 936.139 56.5994 935.514 55.3352C934.896 54.071 934.587 52.5937 934.587 50.9034C934.587 49.1989 934.896 47.7109 935.514 46.4396C936.139 45.1683 937.005 44.1811 938.113 43.478C939.228 42.7749 940.524 42.4233 942.002 42.4233C943.479 42.4233 944.771 42.7749 945.879 43.478C946.994 44.1811 947.861 45.1683 948.479 46.4396C949.104 47.7109 949.416 49.1989 949.416 50.9034C949.416 52.5937 949.104 54.071 948.479 55.3352C947.861 56.5994 946.994 57.5831 945.879 58.2862C944.771 58.9893 943.479 59.3409 942.002 59.3409ZM942.002 57.0824C943.124 57.0824 944.047 56.7947 944.771 56.2195C945.496 55.6442 946.032 54.8878 946.38 53.9503C946.728 53.0128 946.902 51.9972 946.902 50.9034C946.902 49.8097 946.728 48.7905 946.38 47.8459C946.032 46.9013 945.496 46.1378 944.771 45.5554C944.047 44.973 943.124 44.6818 942.002 44.6818C940.879 44.6818 939.956 44.973 939.232 45.5554C938.507 46.1378 937.971 46.9013 937.623 47.8459C937.275 48.7905 937.101 49.8097 937.101 50.9034C937.101 51.9972 937.275 53.0128 937.623 53.9503C937.971 54.8878 938.507 55.6442 939.232 56.2195C939.956 56.7947 940.879 57.0824 942.002 57.0824ZM951.805 59V56.6562H952.402C952.892 56.6562 953.3 56.5604 953.627 56.3686C953.954 56.1697 954.217 55.8253 954.415 55.3352C954.621 54.8381 954.778 54.1491 954.884 53.2685C954.998 52.3807 955.08 51.2514 955.129 49.8807L955.428 42.6364H966.337V59H963.822V44.9801H957.814L957.558 50.8182C957.501 52.1605 957.381 53.343 957.196 54.3658C957.018 55.3814 956.745 56.2337 956.376 56.9226C956.013 57.6115 955.531 58.13 954.927 58.478C954.323 58.826 953.567 59 952.658 59H951.805ZM981.901 49.6676V52.0114H972.867V49.6676H981.901ZM973.464 42.6364V59H970.95V42.6364H973.464ZM983.819 42.6364V59H981.305V42.6364H983.819ZM998.254 59V44.9375H993.908C992.928 44.9375 992.157 45.1648 991.596 45.6193C991.035 46.0739 990.754 46.6989 990.754 47.4943C990.754 48.2756 991.006 48.8899 991.511 49.3374C992.022 49.7848 992.722 50.0085 993.609 50.0085H998.893V52.3523H993.609C992.501 52.3523 991.546 52.157 990.744 51.7663C989.941 51.3757 989.323 50.8182 988.89 50.0938C988.457 49.3622 988.24 48.4957 988.24 47.4943C988.24 46.4858 988.467 45.6193 988.922 44.8949C989.376 44.1705 990.026 43.6129 990.871 43.2223C991.724 42.8317 992.736 42.6364 993.908 42.6364H1000.64V59H998.254ZM987.345 59L991.99 50.8608H994.717L990.072 59H987.345ZM1015.1 59V44.9375H1010.75C1009.77 44.9375 1009 45.1648 1008.44 45.6193C1007.88 46.0739 1007.6 46.6989 1007.6 47.4943C1007.6 48.2756 1007.85 48.8899 1008.36 49.3374C1008.87 49.7848 1009.57 50.0085 1010.46 50.0085H1015.74V52.3523H1010.46C1009.35 52.3523 1008.39 52.157 1007.59 51.7663C1006.79 51.3757 1006.17 50.8182 1005.74 50.0938C1005.3 49.3622 1005.09 48.4957 1005.09 47.4943C1005.09 46.4858 1005.31 45.6193 1005.77 44.8949C1006.22 44.1705 1006.87 43.6129 1007.72 43.2223C1008.57 42.8317 1009.58 42.6364 1010.75 42.6364H1017.49V59H1015.1ZM1004.19 59L1008.84 50.8608H1011.56L1006.92 59H1004.19ZM1037.19 64.5824V37.1818H1039.7V64.5824H1037.19ZM1037.19 59.3409C1036.08 59.3409 1035.07 59.142 1034.16 58.7443C1033.25 58.3395 1032.47 57.7678 1031.82 57.0291C1031.16 56.2834 1030.66 55.392 1030.31 54.3551C1029.95 53.3182 1029.77 52.1676 1029.77 50.9034C1029.77 49.625 1029.95 48.4673 1030.31 47.4304C1030.66 46.3864 1031.16 45.4915 1031.82 44.7457C1032.47 44 1033.25 43.4283 1034.16 43.0305C1035.07 42.6257 1036.08 42.4233 1037.19 42.4233H1037.95V59.3409H1037.19ZM1037.19 57.0824H1037.61V44.6818H1037.19C1036.35 44.6818 1035.62 44.8523 1035 45.1932C1034.39 45.527 1033.87 45.9851 1033.47 46.5675C1033.07 47.1428 1032.77 47.8033 1032.57 48.549C1032.38 49.2947 1032.29 50.0795 1032.29 50.9034C1032.29 51.9972 1032.46 53.0128 1032.81 53.9503C1033.16 54.8878 1033.69 55.6442 1034.42 56.2195C1035.14 56.7947 1036.06 57.0824 1037.19 57.0824ZM1039.7 59.3409H1038.93V42.4233H1039.7C1040.81 42.4233 1041.82 42.6257 1042.73 43.0305C1043.64 43.4283 1044.42 44 1045.07 44.7457C1045.72 45.4915 1046.23 46.3864 1046.58 47.4304C1046.94 48.4673 1047.12 49.625 1047.12 50.9034C1047.12 52.1676 1046.94 53.3182 1046.58 54.3551C1046.23 55.392 1045.72 56.2834 1045.07 57.0291C1044.42 57.7678 1043.64 58.3395 1042.73 58.7443C1041.82 59.142 1040.81 59.3409 1039.7 59.3409ZM1039.7 57.0824C1040.55 57.0824 1041.27 56.919 1041.89 56.5923C1042.5 56.2585 1043.01 55.804 1043.41 55.2287C1043.81 54.6463 1044.11 53.9858 1044.3 53.2472C1044.5 52.5014 1044.6 51.7202 1044.6 50.9034C1044.6 49.8097 1044.43 48.7905 1044.08 47.8459C1043.73 46.9013 1043.2 46.1378 1042.47 45.5554C1041.75 44.973 1040.82 44.6818 1039.7 44.6818H1039.28V57.0824H1039.7ZM1057.61 59.3409C1056.13 59.3409 1054.83 58.9893 1053.72 58.2862C1052.61 57.5831 1051.74 56.5994 1051.12 55.3352C1050.5 54.071 1050.19 52.5937 1050.19 50.9034C1050.19 49.1989 1050.5 47.7109 1051.12 46.4396C1051.74 45.1683 1052.61 44.1811 1053.72 43.478C1054.83 42.7749 1056.13 42.4233 1057.61 42.4233C1059.08 42.4233 1060.38 42.7749 1061.48 43.478C1062.6 44.1811 1063.47 45.1683 1064.08 46.4396C1064.71 47.7109 1065.02 49.1989 1065.02 50.9034C1065.02 52.5937 1064.71 54.071 1064.08 55.3352C1063.47 56.5994 1062.6 57.5831 1061.48 58.2862C1060.38 58.9893 1059.08 59.3409 1057.61 59.3409ZM1057.61 57.0824C1058.73 57.0824 1059.65 56.7947 1060.38 56.2195C1061.1 55.6442 1061.64 54.8878 1061.99 53.9503C1062.33 53.0128 1062.51 51.9972 1062.51 50.9034C1062.51 49.8097 1062.33 48.7905 1061.99 47.8459C1061.64 46.9013 1061.1 46.1378 1060.38 45.5554C1059.65 44.973 1058.73 44.6818 1057.61 44.6818C1056.48 44.6818 1055.56 44.973 1054.84 45.5554C1054.11 46.1378 1053.58 46.9013 1053.23 47.8459C1052.88 48.7905 1052.71 49.8097 1052.71 50.9034C1052.71 51.9972 1052.88 53.0128 1053.23 53.9503C1053.58 54.8878 1054.11 55.6442 1054.84 56.2195C1055.56 56.7947 1056.48 57.0824 1057.61 57.0824ZM1068.86 65.1364V42.6364H1071.29V45.2358H1071.59C1071.77 44.9517 1072.03 44.5895 1072.35 44.1491C1072.69 43.7017 1073.16 43.304 1073.78 42.956C1074.41 42.6009 1075.25 42.4233 1076.32 42.4233C1077.69 42.4233 1078.91 42.7678 1079.96 43.4567C1081.01 44.1456 1081.83 45.1222 1082.42 46.3864C1083.01 47.6506 1083.31 49.142 1083.31 50.8608C1083.31 52.5938 1083.01 54.0959 1082.42 55.3672C1081.83 56.6314 1081.02 57.6115 1079.97 58.3075C1078.93 58.9964 1077.72 59.3409 1076.36 59.3409C1075.31 59.3409 1074.47 59.1669 1073.83 58.8189C1073.2 58.4638 1072.72 58.0625 1072.38 57.6151C1072.03 57.1605 1071.77 56.7841 1071.59 56.4858H1071.37V65.1364H1068.86ZM1071.33 50.8182C1071.33 52.054 1071.51 53.1442 1071.87 54.0888C1072.24 55.0263 1072.77 55.7614 1073.46 56.294C1074.16 56.8196 1075.01 57.0824 1076.02 57.0824C1077.07 57.0824 1077.95 56.8054 1078.65 56.2514C1079.36 55.6903 1079.89 54.9375 1080.25 53.9929C1080.61 53.0412 1080.79 51.983 1080.79 50.8182C1080.79 49.6676 1080.61 48.6307 1080.26 47.7074C1079.91 46.777 1079.38 46.0419 1078.67 45.5021C1077.97 44.9553 1077.08 44.6818 1076.02 44.6818C1075 44.6818 1074.14 44.9411 1073.44 45.4595C1072.74 45.9709 1072.22 46.6882 1071.86 47.6115C1071.51 48.5277 1071.33 49.5966 1071.33 50.8182ZM1096.09 55.5909L1101.8 42.6364H1104.19L1097.11 59H1095.07L1088.12 42.6364H1090.46L1096.09 55.5909ZM1089.66 42.6364V59H1087.14V42.6364H1089.66ZM1102.52 59V42.6364H1105.04V59H1102.52ZM1110.67 65.1364C1110.25 65.1364 1109.87 65.1009 1109.53 65.0298C1109.2 64.9659 1108.97 64.902 1108.84 64.8381L1109.48 62.6222C1110.09 62.7784 1110.63 62.8352 1111.1 62.7926C1111.57 62.75 1111.98 62.5405 1112.35 62.1641C1112.72 61.7947 1113.05 61.1946 1113.36 60.3636L1113.83 59.0852L1107.78 42.6364H1110.5L1115.02 55.6761H1115.19L1119.71 42.6364H1122.44L1115.49 61.3864C1115.18 62.2315 1114.79 62.9311 1114.33 63.4851C1113.87 64.0462 1113.33 64.4616 1112.72 64.7315C1112.12 65.0014 1111.43 65.1364 1110.67 65.1364ZM82.2528 85.6676V88.0114H73.2188V85.6676H82.2528ZM73.8153 78.6364V95H71.3011V78.6364H73.8153ZM84.1705 78.6364V95H81.6562V78.6364H84.1705ZM91.2763 91.2926L99.1598 78.6364H102.058V95H99.5433V82.3438L91.7024 95H88.7621V78.6364H91.2763V91.2926ZM105.64 95L112.287 86.6903L105.725 78.6364H108.708L114.162 85.625H115.526V78.6364H118.04V85.625H119.361L124.816 78.6364H127.799L121.279 86.6903L127.884 95H124.858L119.319 87.9688H118.04V95H115.526V87.9688H114.248L108.665 95H105.64ZM137.664 95.3409C136.087 95.3409 134.727 94.9929 133.584 94.2969C132.447 93.5938 131.57 92.6136 130.952 91.3565C130.341 90.0923 130.036 88.6222 130.036 86.946C130.036 85.2699 130.341 83.7926 130.952 82.5142C131.57 81.2287 132.43 80.2273 133.53 79.5099C134.638 78.7855 135.931 78.4233 137.408 78.4233C138.26 78.4233 139.102 78.5653 139.933 78.8494C140.764 79.1335 141.52 79.5952 142.202 80.2344C142.884 80.8665 143.427 81.7045 143.832 82.7486C144.237 83.7926 144.439 85.0781 144.439 86.6051V87.6705H131.826V85.4972H141.883C141.883 84.5739 141.698 83.75 141.329 83.0256C140.966 82.3011 140.448 81.7294 139.773 81.3104C139.106 80.8913 138.317 80.6818 137.408 80.6818C136.407 80.6818 135.54 80.9304 134.809 81.4276C134.084 81.9176 133.527 82.5568 133.136 83.3452C132.746 84.1335 132.55 84.9787 132.55 85.8807V87.3295C132.55 88.5653 132.763 89.6129 133.189 90.4723C133.623 91.3246 134.223 91.9744 134.99 92.4219C135.757 92.8622 136.648 93.0824 137.664 93.0824C138.324 93.0824 138.921 92.9901 139.454 92.8054C139.993 92.6136 140.459 92.3295 140.849 91.9531C141.24 91.5696 141.542 91.0937 141.755 90.5256L144.184 91.2074C143.928 92.0312 143.498 92.7557 142.895 93.3807C142.291 93.9986 141.545 94.4815 140.657 94.8295C139.77 95.1705 138.772 95.3409 137.664 95.3409ZM156.702 95V78.6364H163.392C165.153 78.6364 166.552 79.0341 167.589 79.8295C168.626 80.625 169.145 81.6761 169.145 82.983C169.145 83.9773 168.85 84.7479 168.26 85.2947C167.671 85.8345 166.915 86.2003 165.991 86.392C166.595 86.4773 167.181 86.6903 167.749 87.0312C168.324 87.3722 168.8 87.8409 169.177 88.4375C169.553 89.027 169.741 89.7514 169.741 90.6108C169.741 91.4489 169.528 92.1982 169.102 92.8587C168.676 93.5192 168.065 94.0412 167.27 94.4247C166.474 94.8082 165.523 95 164.415 95H156.702ZM159.088 92.6989H164.415C165.281 92.6989 165.959 92.4929 166.449 92.081C166.939 91.669 167.184 91.108 167.184 90.3977C167.184 89.5526 166.939 88.8885 166.449 88.4055C165.959 87.9155 165.281 87.6705 164.415 87.6705H159.088V92.6989ZM159.088 85.4972H163.392C164.067 85.4972 164.645 85.4048 165.128 85.2202C165.611 85.0284 165.981 84.7585 166.236 84.4105C166.499 84.0554 166.631 83.6364 166.631 83.1534C166.631 82.4645 166.343 81.9247 165.768 81.5341C165.192 81.1364 164.4 80.9375 163.392 80.9375H159.088V85.4972ZM175.721 84.5597H180.408C182.326 84.5597 183.792 85.0462 184.808 86.0192C185.824 86.9922 186.331 88.2244 186.331 89.7159C186.331 90.696 186.104 91.5874 185.65 92.3899C185.195 93.1854 184.527 93.821 183.647 94.2969C182.766 94.7656 181.686 95 180.408 95H173.547V78.6364H176.061V92.6562H180.408C181.402 92.6562 182.219 92.3935 182.858 91.8679C183.498 91.3423 183.817 90.6676 183.817 89.8438C183.817 88.9773 183.498 88.2706 182.858 87.7237C182.219 87.1768 181.402 86.9034 180.408 86.9034H175.721V84.5597ZM188.931 95V78.6364H191.445V95H188.931ZM203.036 95V92.6562H203.632C204.123 92.6562 204.531 92.5604 204.858 92.3686C205.184 92.1697 205.447 91.8253 205.646 91.3352C205.852 90.8381 206.008 90.1491 206.115 89.2685C206.228 88.3807 206.31 87.2514 206.36 85.8807L206.658 78.6364H217.567V95H215.053V80.9801H209.044L208.789 86.8182C208.732 88.1605 208.611 89.343 208.426 90.3658C208.249 91.3814 207.975 92.2337 207.606 92.9226C207.244 93.6115 206.761 94.13 206.157 94.478C205.554 94.826 204.797 95 203.888 95H203.036ZM224.694 91.2926L232.578 78.6364H235.475V95H232.961V82.3438L225.12 95H222.18V78.6364H224.694V91.2926ZM240.08 78.6364H242.595V92.6562H248.774V78.6364H251.288V92.6562H257.467V78.6364H259.981V95H240.08V78.6364ZM266.746 84.5597H271.433C273.351 84.5597 274.818 85.0462 275.833 86.0192C276.849 86.9922 277.357 88.2244 277.357 89.7159C277.357 90.696 277.129 91.5874 276.675 92.3899C276.22 93.1854 275.553 93.821 274.672 94.2969C273.791 94.7656 272.712 95 271.433 95H264.573V78.6364H267.087V92.6562H271.433C272.428 92.6562 273.244 92.3935 273.884 91.8679C274.523 91.3423 274.843 90.6676 274.843 89.8438C274.843 88.9773 274.523 88.2706 273.884 87.7237C273.244 87.1768 272.428 86.9034 271.433 86.9034H266.746V84.5597ZM289.621 101.136V78.6364H292.05V81.2358H292.349C292.533 80.9517 292.789 80.5895 293.116 80.1491C293.45 79.7017 293.925 79.304 294.543 78.956C295.168 78.6009 296.013 78.4233 297.079 78.4233C298.457 78.4233 299.671 78.7678 300.722 79.4567C301.773 80.1456 302.594 81.1222 303.183 82.3864C303.773 83.6506 304.067 85.142 304.067 86.8608C304.067 88.5938 303.773 90.0959 303.183 91.3672C302.594 92.6314 301.777 93.6115 300.733 94.3075C299.689 94.9964 298.485 95.3409 297.121 95.3409C296.07 95.3409 295.229 95.1669 294.597 94.8189C293.964 94.4638 293.478 94.0625 293.137 93.6151C292.796 93.1605 292.533 92.7841 292.349 92.4858H292.136V101.136H289.621ZM292.093 86.8182C292.093 88.054 292.274 89.1442 292.636 90.0888C292.999 91.0263 293.528 91.7614 294.224 92.294C294.92 92.8196 295.772 93.0824 296.781 93.0824C297.832 93.0824 298.709 92.8054 299.412 92.2514C300.122 91.6903 300.655 90.9375 301.01 89.9929C301.372 89.0412 301.553 87.983 301.553 86.8182C301.553 85.6676 301.376 84.6307 301.021 83.7074C300.673 82.777 300.143 82.0419 299.433 81.5021C298.73 80.9553 297.846 80.6818 296.781 80.6818C295.758 80.6818 294.898 80.9411 294.202 81.4595C293.506 81.9709 292.981 82.6882 292.626 83.6115C292.271 84.5277 292.093 85.5966 292.093 86.8182ZM314.763 95.3409C313.187 95.3409 311.827 94.9929 310.683 94.2969C309.547 93.5938 308.67 92.6136 308.052 91.3565C307.441 90.0923 307.136 88.6222 307.136 86.946C307.136 85.2699 307.441 83.7926 308.052 82.5142C308.67 81.2287 309.529 80.2273 310.63 79.5099C311.738 78.7855 313.031 78.4233 314.508 78.4233C315.36 78.4233 316.202 78.5653 317.033 78.8494C317.864 79.1335 318.62 79.5952 319.302 80.2344C319.984 80.8665 320.527 81.7045 320.932 82.7486C321.337 83.7926 321.539 85.0781 321.539 86.6051V87.6705H308.925V85.4972H318.982C318.982 84.5739 318.798 83.75 318.428 83.0256C318.066 82.3011 317.548 81.7294 316.873 81.3104C316.205 80.8913 315.417 80.6818 314.508 80.6818C313.506 80.6818 312.64 80.9304 311.908 81.4276C311.184 81.9176 310.626 82.5568 310.236 83.3452C309.845 84.1335 309.65 84.9787 309.65 85.8807V87.3295C309.65 88.5653 309.863 89.6129 310.289 90.4723C310.722 91.3246 311.322 91.9744 312.089 92.4219C312.857 92.8622 313.748 93.0824 314.763 93.0824C315.424 93.0824 316.021 92.9901 316.553 92.8054C317.093 92.6136 317.558 92.3295 317.949 91.9531C318.339 91.5696 318.641 91.0937 318.854 90.5256L321.283 91.2074C321.028 92.0312 320.598 92.7557 319.994 93.3807C319.391 93.9986 318.645 94.4815 317.757 94.8295C316.869 95.1705 315.871 95.3409 314.763 95.3409ZM324.341 90.8239H327.026C327.082 91.5625 327.416 92.1236 328.027 92.5071C328.645 92.8906 329.447 93.0824 330.435 93.0824C331.443 93.0824 332.306 92.8764 333.023 92.4645C333.741 92.0455 334.099 91.3707 334.099 90.4403C334.099 89.8935 333.964 89.4176 333.695 89.0128C333.425 88.6009 333.045 88.2812 332.555 88.054C332.065 87.8267 331.486 87.7131 330.818 87.7131H328.006V85.4545H330.818C331.82 85.4545 332.558 85.2273 333.034 84.7727C333.517 84.3182 333.759 83.75 333.759 83.0682C333.759 82.3366 333.499 81.7507 332.981 81.3104C332.462 80.8629 331.727 80.6392 330.776 80.6392C329.817 80.6392 329.018 80.8558 328.379 81.2891C327.739 81.7152 327.402 82.2656 327.366 82.9403H324.724C324.753 82.0597 325.023 81.282 325.534 80.6072C326.045 79.9254 326.741 79.3928 327.622 79.0092C328.503 78.6186 329.511 78.4233 330.648 78.4233C331.798 78.4233 332.796 78.6257 333.641 79.0305C334.494 79.4283 335.151 79.9716 335.612 80.6605C336.081 81.3423 336.315 82.1165 336.315 82.983C336.315 83.9062 336.056 84.652 335.538 85.2202C335.019 85.7884 334.369 86.1932 333.588 86.4347V86.6051C334.206 86.6477 334.742 86.8466 335.197 87.2017C335.658 87.5497 336.017 88.0078 336.273 88.576C336.528 89.1371 336.656 89.7585 336.656 90.4403C336.656 91.4347 336.39 92.3011 335.857 93.0398C335.325 93.7713 334.593 94.3395 333.663 94.7443C332.732 95.142 331.67 95.3409 330.477 95.3409C329.32 95.3409 328.283 95.1527 327.366 94.7763C326.45 94.3928 325.722 93.8636 325.183 93.1889C324.65 92.5071 324.369 91.7188 324.341 90.8239ZM347.049 95.3409C345.472 95.3409 344.112 94.9929 342.968 94.2969C341.832 93.5938 340.955 92.6136 340.337 91.3565C339.726 90.0923 339.421 88.6222 339.421 86.946C339.421 85.2699 339.726 83.7926 340.337 82.5142C340.955 81.2287 341.814 80.2273 342.915 79.5099C344.023 78.7855 345.316 78.4233 346.793 78.4233C347.645 78.4233 348.487 78.5653 349.318 78.8494C350.149 79.1335 350.905 79.5952 351.587 80.2344C352.269 80.8665 352.812 81.7045 353.217 82.7486C353.622 83.7926 353.824 85.0781 353.824 86.6051V87.6705H341.211V85.4972H351.267C351.267 84.5739 351.083 83.75 350.713 83.0256C350.351 82.3011 349.833 81.7294 349.158 81.3104C348.49 80.8913 347.702 80.6818 346.793 80.6818C345.792 80.6818 344.925 80.9304 344.194 81.4276C343.469 81.9176 342.912 82.5568 342.521 83.3452C342.13 84.1335 341.935 84.9787 341.935 85.8807V87.3295C341.935 88.5653 342.148 89.6129 342.574 90.4723C343.007 91.3246 343.608 91.9744 344.375 92.4219C345.142 92.8622 346.033 93.0824 347.049 93.0824C347.709 93.0824 348.306 92.9901 348.838 92.8054C349.378 92.6136 349.843 92.3295 350.234 91.9531C350.625 91.5696 350.926 91.0937 351.14 90.5256L353.569 91.2074C353.313 92.0312 352.883 92.7557 352.279 93.3807C351.676 93.9986 350.93 94.4815 350.042 94.8295C349.154 95.1705 348.157 95.3409 347.049 95.3409ZM357.649 101.136V78.6364H360.078V81.2358H360.376C360.561 80.9517 360.816 80.5895 361.143 80.1491C361.477 79.7017 361.953 79.304 362.571 78.956C363.196 78.6009 364.041 78.4233 365.106 78.4233C366.484 78.4233 367.699 78.7678 368.75 79.4567C369.801 80.1456 370.621 81.1222 371.211 82.3864C371.8 83.6506 372.095 85.142 372.095 86.8608C372.095 88.5938 371.8 90.0959 371.211 91.3672C370.621 92.6314 369.804 93.6115 368.76 94.3075C367.716 94.9964 366.512 95.3409 365.149 95.3409C364.098 95.3409 363.256 95.1669 362.624 94.8189C361.992 94.4638 361.505 94.0625 361.164 93.6151C360.824 93.1605 360.561 92.7841 360.376 92.4858H360.163V101.136H357.649ZM360.12 86.8182C360.12 88.054 360.301 89.1442 360.664 90.0888C361.026 91.0263 361.555 91.7614 362.251 92.294C362.947 92.8196 363.799 93.0824 364.808 93.0824C365.859 93.0824 366.736 92.8054 367.439 92.2514C368.15 91.6903 368.682 90.9375 369.037 89.9929C369.4 89.0412 369.581 87.983 369.581 86.8182C369.581 85.6676 369.403 84.6307 369.048 83.7074C368.7 82.777 368.171 82.0419 367.461 81.5021C366.757 80.9553 365.873 80.6818 364.808 80.6818C363.785 80.6818 362.926 80.9411 362.23 81.4595C361.534 81.9709 361.008 82.6882 360.653 83.6115C360.298 84.5277 360.12 85.5966 360.12 86.8182ZM375.93 95V78.6364H382.62C384.382 78.6364 385.781 79.0341 386.818 79.8295C387.855 80.625 388.373 81.6761 388.373 82.983C388.373 83.9773 388.078 84.7479 387.489 85.2947C386.9 85.8345 386.143 86.2003 385.22 86.392C385.824 86.4773 386.409 86.6903 386.978 87.0312C387.553 87.3722 388.029 87.8409 388.405 88.4375C388.782 89.027 388.97 89.7514 388.97 90.6108C388.97 91.4489 388.757 92.1982 388.331 92.8587C387.904 93.5192 387.294 94.0412 386.498 94.4247C385.703 94.8082 384.751 95 383.643 95H375.93ZM378.316 92.6989H383.643C384.51 92.6989 385.188 92.4929 385.678 92.081C386.168 91.669 386.413 91.108 386.413 90.3977C386.413 89.5526 386.168 88.8885 385.678 88.4055C385.188 87.9155 384.51 87.6705 383.643 87.6705H378.316V92.6989ZM378.316 85.4972H382.62C383.295 85.4972 383.874 85.4048 384.357 85.2202C384.84 85.0284 385.209 84.7585 385.465 84.4105C385.728 84.0554 385.859 83.6364 385.859 83.1534C385.859 82.4645 385.571 81.9247 384.996 81.5341C384.421 81.1364 383.629 80.9375 382.62 80.9375H378.316V85.4972ZM395.29 91.2926L403.173 78.6364H406.071V95H403.557V82.3438L395.716 95H392.776V78.6364H395.29V91.2926ZM410.676 101.136V78.6364H413.105V81.2358H413.403C413.588 80.9517 413.844 80.5895 414.17 80.1491C414.504 79.7017 414.98 79.304 415.598 78.956C416.223 78.6009 417.068 78.4233 418.134 78.4233C419.511 78.4233 420.726 78.7678 421.777 79.4567C422.828 80.1456 423.648 81.1222 424.238 82.3864C424.827 83.6506 425.122 85.142 425.122 86.8608C425.122 88.5938 424.827 90.0959 424.238 91.3672C423.648 92.6314 422.832 93.6115 421.788 94.3075C420.744 94.9964 419.54 95.3409 418.176 95.3409C417.125 95.3409 416.283 95.1669 415.651 94.8189C415.019 94.4638 414.533 94.0625 414.192 93.6151C413.851 93.1605 413.588 92.7841 413.403 92.4858H413.19V101.136H410.676ZM413.148 86.8182C413.148 88.054 413.329 89.1442 413.691 90.0888C414.053 91.0263 414.582 91.7614 415.278 92.294C415.974 92.8196 416.827 93.0824 417.835 93.0824C418.886 93.0824 419.763 92.8054 420.467 92.2514C421.177 91.6903 421.71 90.9375 422.065 89.9929C422.427 89.0412 422.608 87.983 422.608 86.8182C422.608 85.6676 422.43 84.6307 422.075 83.7074C421.727 82.777 421.198 82.0419 420.488 81.5021C419.785 80.9553 418.901 80.6818 417.835 80.6818C416.813 80.6818 415.953 80.9411 415.257 81.4595C414.561 81.9709 414.036 82.6882 413.68 83.6115C413.325 84.5277 413.148 85.5966 413.148 86.8182ZM429.991 101.136C429.565 101.136 429.185 101.101 428.851 101.03C428.517 100.966 428.286 100.902 428.158 100.838L428.798 98.6222C429.408 98.7784 429.948 98.8352 430.417 98.7926C430.886 98.75 431.301 98.5405 431.663 98.1641C432.033 97.7947 432.37 97.1946 432.675 96.3636L433.144 95.0852L427.093 78.6364H429.82L434.337 91.6761H434.508L439.025 78.6364H441.752L434.806 97.3864C434.494 98.2315 434.107 98.9311 433.645 99.4851C433.183 100.046 432.647 100.462 432.036 100.732C431.433 101.001 430.751 101.136 429.991 101.136ZM451.346 95.3409C449.769 95.3409 448.409 94.9929 447.265 94.2969C446.129 93.5938 445.252 92.6136 444.634 91.3565C444.023 90.0923 443.718 88.6222 443.718 86.946C443.718 85.2699 444.023 83.7926 444.634 82.5142C445.252 81.2287 446.111 80.2273 447.212 79.5099C448.32 78.7855 449.613 78.4233 451.09 78.4233C451.942 78.4233 452.784 78.5653 453.615 78.8494C454.446 79.1335 455.202 79.5952 455.884 80.2344C456.566 80.8665 457.109 81.7045 457.514 82.7486C457.919 83.7926 458.121 85.0781 458.121 86.6051V87.6705H445.507V85.4972H455.564C455.564 84.5739 455.38 83.75 455.01 83.0256C454.648 82.3011 454.13 81.7294 453.455 81.3104C452.787 80.8913 451.999 80.6818 451.09 80.6818C450.088 80.6818 449.222 80.9304 448.49 81.4276C447.766 81.9176 447.208 82.5568 446.818 83.3452C446.427 84.1335 446.232 84.9787 446.232 85.8807V87.3295C446.232 88.5653 446.445 89.6129 446.871 90.4723C447.304 91.3246 447.904 91.9744 448.672 92.4219C449.439 92.8622 450.33 93.0824 451.346 93.0824C452.006 93.0824 452.603 92.9901 453.135 92.8054C453.675 92.6136 454.14 92.3295 454.531 91.9531C454.922 91.5696 455.223 91.0937 455.436 90.5256L457.865 91.2074C457.61 92.0312 457.18 92.7557 456.576 93.3807C455.973 93.9986 455.227 94.4815 454.339 94.8295C453.451 95.1705 452.453 95.3409 451.346 95.3409ZM460.422 80.9801V78.6364H473.718V80.9801H468.348V95H465.834V80.9801H460.422ZM483.396 95.3409C481.82 95.3409 480.46 94.9929 479.316 94.2969C478.18 93.5938 477.303 92.6136 476.685 91.3565C476.074 90.0923 475.768 88.6222 475.768 86.946C475.768 85.2699 476.074 83.7926 476.685 82.5142C477.303 81.2287 478.162 80.2273 479.263 79.5099C480.371 78.7855 481.663 78.4233 483.141 78.4233C483.993 78.4233 484.835 78.5653 485.665 78.8494C486.496 79.1335 487.253 79.5952 487.935 80.2344C488.616 80.8665 489.16 81.7045 489.565 82.7486C489.969 83.7926 490.172 85.0781 490.172 86.6051V87.6705H477.558V85.4972H487.615C487.615 84.5739 487.43 83.75 487.061 83.0256C486.699 82.3011 486.18 81.7294 485.506 81.3104C484.838 80.8913 484.05 80.6818 483.141 80.6818C482.139 80.6818 481.273 80.9304 480.541 81.4276C479.817 81.9176 479.259 82.5568 478.869 83.3452C478.478 84.1335 478.283 84.9787 478.283 85.8807V87.3295C478.283 88.5653 478.496 89.6129 478.922 90.4723C479.355 91.3246 479.955 91.9744 480.722 92.4219C481.489 92.8622 482.381 93.0824 483.396 93.0824C484.057 93.0824 484.653 92.9901 485.186 92.8054C485.726 92.6136 486.191 92.3295 486.582 91.9531C486.972 91.5696 487.274 91.0937 487.487 90.5256L489.916 91.2074C489.661 92.0312 489.231 92.7557 488.627 93.3807C488.023 93.9986 487.278 94.4815 486.39 94.8295C485.502 95.1705 484.504 95.3409 483.396 95.3409ZM514.579 72.5L515.857 74.0341C515.36 74.517 514.785 74.8544 514.131 75.0462C513.478 75.2379 512.739 75.3551 511.915 75.3977C511.092 75.4403 510.175 75.483 509.167 75.5256C508.031 75.5682 507.089 75.8452 506.344 76.3565C505.598 76.8679 505.023 77.6065 504.618 78.5724C504.213 79.5384 503.954 80.7244 503.84 82.1307H504.053C504.607 81.108 505.374 80.3551 506.354 79.8722C507.335 79.3892 508.386 79.1477 509.508 79.1477C510.786 79.1477 511.937 79.446 512.96 80.0426C513.982 80.6392 514.792 81.5234 515.388 82.6953C515.985 83.8672 516.283 85.3125 516.283 87.0312C516.283 88.7429 515.978 90.2202 515.367 91.4631C514.763 92.706 513.915 93.6648 512.821 94.3395C511.734 95.0071 510.46 95.3409 508.996 95.3409C507.533 95.3409 506.251 94.9964 505.151 94.3075C504.05 93.6115 503.194 92.5817 502.583 91.218C501.972 89.8473 501.667 88.1534 501.667 86.1364V84.3892C501.667 80.7457 502.285 77.983 503.521 76.1009C504.763 74.2187 506.631 73.2457 509.124 73.1818C510.005 73.1534 510.79 73.1463 511.479 73.1605C512.168 73.1747 512.768 73.1428 513.279 73.0646C513.79 72.9865 514.224 72.7983 514.579 72.5ZM508.996 93.0824C509.984 93.0824 510.832 92.8338 511.543 92.3366C512.26 91.8395 512.81 91.1399 513.194 90.2379C513.577 89.3288 513.769 88.2599 513.769 87.0312C513.769 85.8381 513.574 84.8224 513.183 83.9844C512.8 83.1463 512.249 82.5071 511.532 82.0668C510.815 81.6264 509.955 81.4062 508.954 81.4062C508.222 81.4062 507.565 81.5305 506.983 81.7791C506.401 82.0277 505.903 82.3935 505.491 82.8764C505.08 83.3594 504.76 83.9489 504.533 84.6449C504.312 85.3409 504.195 86.1364 504.181 87.0312C504.181 88.8636 504.611 90.3303 505.47 91.4311C506.33 92.532 507.505 93.0824 508.996 93.0824ZM522.643 91.2926L530.527 78.6364H533.425V95H530.911V82.3438L523.07 95H520.129V78.6364H522.643V91.2926ZM536.581 95V92.6562H537.177C537.667 92.6562 538.076 92.5604 538.403 92.3686C538.729 92.1697 538.992 91.8253 539.191 91.3352C539.397 90.8381 539.553 90.1491 539.66 89.2685C539.773 88.3807 539.855 87.2514 539.905 85.8807L540.203 78.6364H551.112V95H548.598V80.9801H542.589L542.334 86.8182C542.277 88.1605 542.156 89.343 541.971 90.3658C541.794 91.3814 541.52 92.2337 541.151 92.9226C540.789 93.6115 540.306 94.13 539.702 94.478C539.099 94.826 538.342 95 537.433 95H536.581ZM562.586 95.3409C561.009 95.3409 559.649 94.9929 558.506 94.2969C557.369 93.5938 556.492 92.6136 555.874 91.3565C555.263 90.0923 554.958 88.6222 554.958 86.946C554.958 85.2699 555.263 83.7926 555.874 82.5142C556.492 81.2287 557.351 80.2273 558.452 79.5099C559.56 78.7855 560.853 78.4233 562.33 78.4233C563.182 78.4233 564.024 78.5653 564.855 78.8494C565.686 79.1335 566.442 79.5952 567.124 80.2344C567.806 80.8665 568.349 81.7045 568.754 82.7486C569.159 83.7926 569.361 85.0781 569.361 86.6051V87.6705H556.748V85.4972H566.805C566.805 84.5739 566.62 83.75 566.251 83.0256C565.888 82.3011 565.37 81.7294 564.695 81.3104C564.028 80.8913 563.239 80.6818 562.33 80.6818C561.329 80.6818 560.462 80.9304 559.731 81.4276C559.006 81.9176 558.449 82.5568 558.058 83.3452C557.667 84.1335 557.472 84.9787 557.472 85.8807V87.3295C557.472 88.5653 557.685 89.6129 558.111 90.4723C558.545 91.3246 559.145 91.9744 559.912 92.4219C560.679 92.8622 561.57 93.0824 562.586 93.0824C563.246 93.0824 563.843 92.9901 564.376 92.8054C564.915 92.6136 565.381 92.3295 565.771 91.9531C566.162 91.5696 566.464 91.0937 566.677 90.5256L569.106 91.2074C568.85 92.0312 568.42 92.7557 567.817 93.3807C567.213 93.9986 566.467 94.4815 565.579 94.8295C564.692 95.1705 563.694 95.3409 562.586 95.3409ZM571.662 80.9801V78.6364H584.958V80.9801H579.589V95H577.074V80.9801H571.662ZM589.651 92.017L589.48 93.1676C589.36 93.9773 589.175 94.8438 588.926 95.767C588.685 96.6903 588.433 97.5604 588.17 98.3771C587.907 99.1939 587.691 99.8438 587.52 100.327H585.602C585.695 99.8722 585.816 99.272 585.965 98.5263C586.114 97.7805 586.263 96.946 586.412 96.0227C586.568 95.1065 586.696 94.169 586.796 93.2102L586.923 92.017H589.651ZM613.698 85.6676V88.0114H604.664V85.6676H613.698ZM605.261 78.6364V95H602.746V78.6364H605.261ZM615.616 78.6364V95H613.102V78.6364H615.616ZM626.855 95.3409C625.378 95.3409 624.082 94.9893 622.967 94.2862C621.859 93.5831 620.992 92.5994 620.367 91.3352C619.749 90.071 619.44 88.5937 619.44 86.9034C619.44 85.1989 619.749 83.7109 620.367 82.4396C620.992 81.1683 621.859 80.1811 622.967 79.478C624.082 78.7749 625.378 78.4233 626.855 78.4233C628.332 78.4233 629.625 78.7749 630.733 79.478C631.848 80.1811 632.714 81.1683 633.332 82.4396C633.957 83.7109 634.27 85.1989 634.27 86.9034C634.27 88.5937 633.957 90.071 633.332 91.3352C632.714 92.5994 631.848 93.5831 630.733 94.2862C629.625 94.9893 628.332 95.3409 626.855 95.3409ZM626.855 93.0824C627.977 93.0824 628.901 92.7947 629.625 92.2195C630.349 91.6442 630.886 90.8878 631.234 89.9503C631.582 89.0128 631.756 87.9972 631.756 86.9034C631.756 85.8097 631.582 84.7905 631.234 83.8459C630.886 82.9013 630.349 82.1378 629.625 81.5554C628.901 80.973 627.977 80.6818 626.855 80.6818C625.733 80.6818 624.81 80.973 624.085 81.5554C623.361 82.1378 622.825 82.9013 622.477 83.8459C622.129 84.7905 621.955 85.8097 621.955 86.9034C621.955 87.9972 622.129 89.0128 622.477 89.9503C622.825 90.8878 623.361 91.6442 624.085 92.2195C624.81 92.7947 625.733 93.0824 626.855 93.0824ZM657.497 85.6676V88.0114H648.463V85.6676H657.497ZM649.059 78.6364V95H646.545V78.6364H649.059ZM659.415 78.6364V95H656.9V78.6364H659.415ZM670.867 95.3409C669.29 95.3409 667.93 94.9929 666.787 94.2969C665.65 93.5938 664.773 92.6136 664.155 91.3565C663.545 90.0923 663.239 88.6222 663.239 86.946C663.239 85.2699 663.545 83.7926 664.155 82.5142C664.773 81.2287 665.633 80.2273 666.733 79.5099C667.841 78.7855 669.134 78.4233 670.611 78.4233C671.464 78.4233 672.305 78.5653 673.136 78.8494C673.967 79.1335 674.724 79.5952 675.405 80.2344C676.087 80.8665 676.631 81.7045 677.035 82.7486C677.44 83.7926 677.643 85.0781 677.643 86.6051V87.6705H665.029V85.4972H675.086C675.086 84.5739 674.901 83.75 674.532 83.0256C674.17 82.3011 673.651 81.7294 672.976 81.3104C672.309 80.8913 671.52 80.6818 670.611 80.6818C669.61 80.6818 668.743 80.9304 668.012 81.4276C667.287 81.9176 666.73 82.5568 666.339 83.3452C665.949 84.1335 665.753 84.9787 665.753 85.8807V87.3295C665.753 88.5653 665.966 89.6129 666.393 90.4723C666.826 91.3246 667.426 91.9744 668.193 92.4219C668.96 92.8622 669.851 93.0824 670.867 93.0824C671.528 93.0824 672.124 92.9901 672.657 92.8054C673.197 92.6136 673.662 92.3295 674.052 91.9531C674.443 91.5696 674.745 91.0937 674.958 90.5256L677.387 91.2074C677.131 92.0312 676.702 92.7557 676.098 93.3807C675.494 93.9986 674.748 94.4815 673.861 94.8295C672.973 95.1705 671.975 95.3409 670.867 95.3409ZM689.905 95V78.6364H702.774V95H700.26V80.9801H692.419V95H689.905ZM714.013 95.3409C712.536 95.3409 711.24 94.9893 710.125 94.2862C709.017 93.5831 708.15 92.5994 707.525 91.3352C706.907 90.071 706.599 88.5937 706.599 86.9034C706.599 85.1989 706.907 83.7109 707.525 82.4396C708.15 81.1683 709.017 80.1811 710.125 79.478C711.24 78.7749 712.536 78.4233 714.013 78.4233C715.491 78.4233 716.783 78.7749 717.891 79.478C719.006 80.1811 719.873 81.1683 720.491 82.4396C721.116 83.7109 721.428 85.1989 721.428 86.9034C721.428 88.5937 721.116 90.071 720.491 91.3352C719.873 92.5994 719.006 93.5831 717.891 94.2862C716.783 94.9893 715.491 95.3409 714.013 95.3409ZM714.013 93.0824C715.135 93.0824 716.059 92.7947 716.783 92.2195C717.508 91.6442 718.044 90.8878 718.392 89.9503C718.74 89.0128 718.914 87.9972 718.914 86.9034C718.914 85.8097 718.74 84.7905 718.392 83.8459C718.044 82.9013 717.508 82.1378 716.783 81.5554C716.059 80.973 715.135 80.6818 714.013 80.6818C712.891 80.6818 711.968 80.973 711.243 81.5554C710.519 82.1378 709.983 82.9013 709.635 83.8459C709.287 84.7905 709.113 85.8097 709.113 86.9034C709.113 87.9972 709.287 89.0128 709.635 89.9503C709.983 90.8878 710.519 91.6442 711.243 92.2195C711.968 92.7947 712.891 93.0824 714.013 93.0824ZM725.266 95V78.6364H727.78V85.7528H729.442L735.323 78.6364H738.561L731.956 86.5199L738.647 95H735.408L730.039 88.0966H727.78V95H725.266ZM742.999 101.136C742.572 101.136 742.192 101.101 741.859 101.03C741.525 100.966 741.294 100.902 741.166 100.838L741.805 98.6222C742.416 98.7784 742.956 98.8352 743.425 98.7926C743.893 98.75 744.309 98.5405 744.671 98.1641C745.04 97.7947 745.378 97.1946 745.683 96.3636L746.152 95.0852L740.101 78.6364H742.828L747.345 91.6761H747.516L752.033 78.6364H754.76L747.814 97.3864C747.501 98.2315 747.114 98.9311 746.653 99.4851C746.191 100.046 745.655 100.462 745.044 100.732C744.44 101.001 743.759 101.136 742.999 101.136ZM758.078 95V78.6364H770.948V95H768.434V80.9801H760.593V95H758.078ZM780.355 95.3835C779.318 95.3835 778.377 95.1882 777.532 94.7976C776.686 94.3999 776.015 93.8281 775.518 93.0824C775.021 92.3295 774.772 91.4205 774.772 90.3551C774.772 89.4176 774.957 88.6577 775.326 88.0753C775.696 87.4858 776.189 87.0241 776.807 86.6903C777.425 86.3565 778.107 86.108 778.853 85.9446C779.605 85.7741 780.362 85.6392 781.122 85.5398C782.116 85.4119 782.922 85.3161 783.54 85.2521C784.165 85.1811 784.62 85.0639 784.904 84.9006C785.195 84.7372 785.341 84.4531 785.341 84.0483V83.9631C785.341 82.9119 785.053 82.0952 784.478 81.5128C783.909 80.9304 783.047 80.6392 781.889 80.6392C780.689 80.6392 779.748 80.902 779.066 81.4276C778.384 81.9531 777.904 82.5142 777.627 83.1108L775.241 82.2585C775.667 81.2642 776.235 80.4901 776.946 79.9361C777.663 79.375 778.444 78.9844 779.289 78.7642C780.142 78.5369 780.98 78.4233 781.804 78.4233C782.329 78.4233 782.933 78.4872 783.615 78.6151C784.304 78.7358 784.968 78.9879 785.607 79.3714C786.253 79.755 786.789 80.3338 787.216 81.108C787.642 81.8821 787.855 82.919 787.855 84.2188V95H785.341V92.7841H785.213C785.042 93.1392 784.758 93.5192 784.36 93.924C783.963 94.3288 783.434 94.6733 782.773 94.9574C782.113 95.2415 781.306 95.3835 780.355 95.3835ZM780.738 93.125C781.733 93.125 782.571 92.9297 783.252 92.5391C783.941 92.1484 784.46 91.6442 784.808 91.0263C785.163 90.4084 785.341 89.7585 785.341 89.0767V86.7756C785.234 86.9034 785 87.0206 784.637 87.1271C784.282 87.2266 783.87 87.3153 783.402 87.3935C782.94 87.4645 782.489 87.5284 782.049 87.5852C781.615 87.6349 781.264 87.6776 780.994 87.7131C780.341 87.7983 779.73 87.9368 779.162 88.1286C778.6 88.3132 778.146 88.5937 777.798 88.9702C777.457 89.3395 777.287 89.8437 777.287 90.483C777.287 91.3565 777.61 92.017 778.256 92.4645C778.909 92.9048 779.737 93.125 780.738 93.125ZM799.305 95.3409C797.728 95.3409 796.368 94.9929 795.224 94.2969C794.088 93.5938 793.211 92.6136 792.593 91.3565C791.982 90.0923 791.677 88.6222 791.677 86.946C791.677 85.2699 791.982 83.7926 792.593 82.5142C793.211 81.2287 794.07 80.2273 795.171 79.5099C796.279 78.7855 797.572 78.4233 799.049 78.4233C799.901 78.4233 800.743 78.5653 801.574 78.8494C802.405 79.1335 803.161 79.5952 803.843 80.2344C804.525 80.8665 805.068 81.7045 805.473 82.7486C805.878 83.7926 806.08 85.0781 806.08 86.6051V87.6705H793.466V85.4972H803.523C803.523 84.5739 803.339 83.75 802.969 83.0256C802.607 82.3011 802.089 81.7294 801.414 81.3104C800.746 80.8913 799.958 80.6818 799.049 80.6818C798.047 80.6818 797.181 80.9304 796.449 81.4276C795.725 81.9176 795.167 82.5568 794.777 83.3452C794.386 84.1335 794.191 84.9787 794.191 85.8807V87.3295C794.191 88.5653 794.404 89.6129 794.83 90.4723C795.263 91.3246 795.863 91.9744 796.631 92.4219C797.398 92.8622 798.289 93.0824 799.305 93.0824C799.965 93.0824 800.562 92.9901 801.094 92.8054C801.634 92.6136 802.099 92.3295 802.49 91.9531C802.881 91.5696 803.182 91.0937 803.395 90.5256L805.824 91.2074C805.569 92.0312 805.139 92.7557 804.535 93.3807C803.932 93.9986 803.186 94.4815 802.298 94.8295C801.41 95.1705 800.412 95.3409 799.305 95.3409ZM808.381 80.9801V78.6364H821.677V80.9801H816.307V95H813.793V80.9801H808.381ZM831.355 95.3409C829.779 95.3409 828.419 94.9929 827.275 94.2969C826.139 93.5938 825.262 92.6136 824.644 91.3565C824.033 90.0923 823.727 88.6222 823.727 86.946C823.727 85.2699 824.033 83.7926 824.644 82.5142C825.262 81.2287 826.121 80.2273 827.222 79.5099C828.33 78.7855 829.622 78.4233 831.1 78.4233C831.952 78.4233 832.794 78.5653 833.624 78.8494C834.455 79.1335 835.212 79.5952 835.894 80.2344C836.575 80.8665 837.119 81.7045 837.524 82.7486C837.928 83.7926 838.131 85.0781 838.131 86.6051V87.6705H825.517V85.4972H835.574C835.574 84.5739 835.389 83.75 835.02 83.0256C834.658 82.3011 834.139 81.7294 833.465 81.3104C832.797 80.8913 832.009 80.6818 831.1 80.6818C830.098 80.6818 829.232 80.9304 828.5 81.4276C827.776 81.9176 827.218 82.5568 826.828 83.3452C826.437 84.1335 826.242 84.9787 826.242 85.8807V87.3295C826.242 88.5653 826.455 89.6129 826.881 90.4723C827.314 91.3246 827.914 91.9744 828.681 92.4219C829.448 92.8622 830.34 93.0824 831.355 93.0824C832.016 93.0824 832.612 92.9901 833.145 92.8054C833.685 92.6136 834.15 92.3295 834.541 91.9531C834.931 91.5696 835.233 91.0937 835.446 90.5256L837.875 91.2074C837.619 92.0312 837.19 92.7557 836.586 93.3807C835.982 93.9986 835.237 94.4815 834.349 94.8295C833.461 95.1705 832.463 95.3409 831.355 95.3409ZM857.254 95.3409C855.677 95.3409 854.317 94.9929 853.173 94.2969C852.037 93.5938 851.16 92.6136 850.542 91.3565C849.931 90.0923 849.626 88.6222 849.626 86.946C849.626 85.2699 849.931 83.7926 850.542 82.5142C851.16 81.2287 852.019 80.2273 853.12 79.5099C854.228 78.7855 855.521 78.4233 856.998 78.4233C857.85 78.4233 858.692 78.5653 859.523 78.8494C860.354 79.1335 861.11 79.5952 861.792 80.2344C862.474 80.8665 863.017 81.7045 863.422 82.7486C863.827 83.7926 864.029 85.0781 864.029 86.6051V87.6705H851.416V85.4972H861.472C861.472 84.5739 861.288 83.75 860.919 83.0256C860.556 82.3011 860.038 81.7294 859.363 81.3104C858.695 80.8913 857.907 80.6818 856.998 80.6818C855.997 80.6818 855.13 80.9304 854.399 81.4276C853.674 81.9176 853.117 82.5568 852.726 83.3452C852.335 84.1335 852.14 84.9787 852.14 85.8807V87.3295C852.14 88.5653 852.353 89.6129 852.779 90.4723C853.213 91.3246 853.813 91.9744 854.58 92.4219C855.347 92.8622 856.238 93.0824 857.254 93.0824C857.914 93.0824 858.511 92.9901 859.044 92.8054C859.583 92.6136 860.048 92.3295 860.439 91.9531C860.83 91.5696 861.132 91.0937 861.345 90.5256L863.774 91.2074C863.518 92.0312 863.088 92.7557 862.485 93.3807C861.881 93.9986 861.135 94.4815 860.247 94.8295C859.36 95.1705 858.362 95.3409 857.254 95.3409ZM877.953 78.6364V80.9801H870.368V95H867.854V78.6364H877.953ZM887.422 95.3409C885.944 95.3409 884.648 94.9893 883.533 94.2862C882.425 93.5831 881.559 92.5994 880.934 91.3352C880.316 90.071 880.007 88.5937 880.007 86.9034C880.007 85.1989 880.316 83.7109 880.934 82.4396C881.559 81.1683 882.425 80.1811 883.533 79.478C884.648 78.7749 885.944 78.4233 887.422 78.4233C888.899 78.4233 890.191 78.7749 891.299 79.478C892.414 80.1811 893.281 81.1683 893.899 82.4396C894.524 83.7109 894.836 85.1989 894.836 86.9034C894.836 88.5937 894.524 90.071 893.899 91.3352C893.281 92.5994 892.414 93.5831 891.299 94.2862C890.191 94.9893 888.899 95.3409 887.422 95.3409ZM887.422 93.0824C888.544 93.0824 889.467 92.7947 890.191 92.2195C890.916 91.6442 891.452 90.8878 891.8 89.9503C892.148 89.0128 892.322 87.9972 892.322 86.9034C892.322 85.8097 892.148 84.7905 891.8 83.8459C891.452 82.9013 890.916 82.1378 890.191 81.5554C889.467 80.973 888.544 80.6818 887.422 80.6818C886.299 80.6818 885.376 80.973 884.652 81.5554C883.927 82.1378 883.391 82.9013 883.043 83.8459C882.695 84.7905 882.521 85.8097 882.521 86.9034C882.521 87.9972 882.695 89.0128 883.043 89.9503C883.391 90.8878 883.927 91.6442 884.652 92.2195C885.376 92.7947 886.299 93.0824 887.422 93.0824Z" fill="white"/>
</svg>
