<svg width="1269" height="275" viewBox="0 0 1269 275" fill="none" xmlns="http://www.w3.org/2000/svg">
<path d="M1.27841 69.8068V57.0938H3.62216C4.42708 56.3598 5.18466 55.3241 5.89489 53.9865C6.61695 52.6371 7.22656 50.8378 7.72372 48.5888C8.23272 46.3279 8.57008 43.4574 8.7358 39.9773L9.51705 24.6364H31.108V57.0938H35.2983V69.7358H31.108V61H5.46875V69.8068H1.27841ZM8.87784 57.0938H26.9176V28.5426H13.4943L12.9261 39.9773C12.7841 42.6288 12.5355 45.0317 12.1804 47.1861C11.8253 49.3286 11.3696 51.2285 10.8132 52.8857C10.2569 54.531 9.61174 55.9337 8.87784 57.0938ZM49.4096 61.6392C47.6814 61.6392 46.113 61.3137 44.7044 60.6626C43.2958 59.9998 42.1771 59.0469 41.3485 57.804C40.5199 56.5492 40.1056 55.0341 40.1056 53.2585C40.1056 51.696 40.4134 50.4295 41.0289 49.4588C41.6445 48.4763 42.4672 47.7069 43.497 47.1506C44.5268 46.5942 45.6632 46.1799 46.9061 45.9077C48.1608 45.6236 49.4215 45.3987 50.688 45.233C52.3452 45.0199 53.6887 44.8601 54.7186 44.7536C55.7602 44.6352 56.5178 44.4399 56.9913 44.1676C57.4766 43.8954 57.7193 43.4219 57.7193 42.7472V42.6051C57.7193 40.8532 57.2399 39.492 56.2811 38.5213C55.3341 37.5507 53.8959 37.0653 51.9664 37.0653C49.966 37.0653 48.3976 37.5033 47.2612 38.3793C46.1248 39.2552 45.3258 40.1903 44.8642 41.1847L40.8869 39.7642C41.5971 38.107 42.5441 36.8168 43.7278 35.8935C44.9234 34.9583 46.2254 34.3073 47.6341 33.9403C49.0545 33.5616 50.4513 33.3722 51.8244 33.3722C52.7003 33.3722 53.7065 33.4787 54.8429 33.6918C55.9911 33.893 57.0978 34.3132 58.1632 34.9524C59.2404 35.5916 60.1341 36.5563 60.8443 37.8466C61.5545 39.1368 61.9096 40.8651 61.9096 43.0312V61H57.7193V57.3068H57.5062C57.2221 57.8987 56.7486 58.532 56.0858 59.2067C55.4229 59.8814 54.541 60.4555 53.4402 60.929C52.3393 61.4025 50.9958 61.6392 49.4096 61.6392ZM50.0488 57.875C51.706 57.875 53.1028 57.5495 54.2392 56.8984C55.3874 56.2474 56.2515 55.407 56.8315 54.3771C57.4234 53.3473 57.7193 52.2642 57.7193 51.1278V47.2926C57.5417 47.5057 57.1511 47.701 56.5474 47.8786C55.9556 48.0443 55.269 48.1922 54.4877 48.3224C53.7183 48.4408 52.9667 48.5473 52.2328 48.642C51.5107 48.7249 50.9248 48.7959 50.475 48.8551C49.3859 48.9972 48.368 49.228 47.421 49.5476C46.4859 49.8554 45.7283 50.3229 45.1483 50.9503C44.5801 51.5658 44.296 52.4062 44.296 53.4716C44.296 54.9276 44.8346 56.0284 45.9118 56.7741C47.0008 57.508 48.3798 57.875 50.0488 57.875ZM65.8469 37.6335V33.7273H88.006V37.6335H79.0572V61H74.8668V37.6335H65.8469ZM100.728 61.6392C98.9998 61.6392 97.4313 61.3137 96.0227 60.6626C94.6141 59.9998 93.4955 59.0469 92.6669 57.804C91.8383 56.5492 91.424 55.0341 91.424 53.2585C91.424 51.696 91.7318 50.4295 92.3473 49.4588C92.9628 48.4763 93.7855 47.7069 94.8153 47.1506C95.8452 46.5942 96.9815 46.1799 98.2244 45.9077C99.4792 45.6236 100.74 45.3987 102.006 45.233C103.664 45.0199 105.007 44.8601 106.037 44.7536C107.079 44.6352 107.836 44.4399 108.31 44.1676C108.795 43.8954 109.038 43.4219 109.038 42.7472V42.6051C109.038 40.8532 108.558 39.492 107.599 38.5213C106.652 37.5507 105.214 37.0653 103.285 37.0653C101.284 37.0653 99.7159 37.5033 98.5795 38.3793C97.4432 39.2552 96.6442 40.1903 96.1825 41.1847L92.2053 39.7642C92.9155 38.107 93.8625 36.8168 95.0462 35.8935C96.2417 34.9583 97.5438 34.3073 98.9524 33.9403C100.373 33.5616 101.77 33.3722 103.143 33.3722C104.019 33.3722 105.025 33.4787 106.161 33.6918C107.309 33.893 108.416 34.3132 109.482 34.9524C110.559 35.5916 111.452 36.5563 112.163 37.8466C112.873 39.1368 113.228 40.8651 113.228 43.0312V61H109.038V57.3068H108.825C108.54 57.8987 108.067 58.532 107.404 59.2067C106.741 59.8814 105.859 60.4555 104.759 60.929C103.658 61.4025 102.314 61.6392 100.728 61.6392ZM101.367 57.875C103.024 57.875 104.421 57.5495 105.558 56.8984C106.706 56.2474 107.57 55.407 108.15 54.3771C108.742 53.3473 109.038 52.2642 109.038 51.1278V47.2926C108.86 47.5057 108.469 47.701 107.866 47.8786C107.274 48.0443 106.587 48.1922 105.806 48.3224C105.037 48.4408 104.285 48.5473 103.551 48.642C102.829 48.7249 102.243 48.7959 101.793 48.8551C100.704 48.9972 99.6863 49.228 98.7393 49.5476C97.8042 49.8554 97.0466 50.3229 96.4666 50.9503C95.8984 51.5658 95.6143 52.4062 95.6143 53.4716C95.6143 54.9276 96.1529 56.0284 97.2301 56.7741C98.3191 57.508 99.6982 57.875 101.367 57.875ZM134.939 61V33.7273H156.388V61H152.197V37.6335H139.129V61H134.939ZM164.04 71.2273V33.7273H168.089V38.0597H168.586C168.894 37.5862 169.32 36.9825 169.864 36.2486C170.421 35.5028 171.214 34.84 172.243 34.2599C173.285 33.6681 174.694 33.3722 176.469 33.3722C178.766 33.3722 180.79 33.9463 182.542 35.0945C184.294 36.2427 185.661 37.8703 186.643 39.9773C187.626 42.0843 188.117 44.5701 188.117 47.4347C188.117 50.3229 187.626 52.8265 186.643 54.9453C185.661 57.0523 184.3 58.6858 182.559 59.8459C180.819 60.9941 178.813 61.5682 176.54 61.5682C174.788 61.5682 173.386 61.2782 172.332 60.6982C171.279 60.1063 170.468 59.4375 169.9 58.6918C169.331 57.9342 168.894 57.3068 168.586 56.8097H168.231V71.2273H164.04ZM168.16 47.3636C168.16 49.4233 168.461 51.2403 169.065 52.8146C169.669 54.3771 170.551 55.6023 171.711 56.4901C172.871 57.366 174.291 57.804 175.972 57.804C177.724 57.804 179.186 57.3423 180.358 56.419C181.541 55.4839 182.429 54.2292 183.021 52.6548C183.625 51.0687 183.927 49.3049 183.927 47.3636C183.927 45.446 183.631 43.7178 183.039 42.179C182.459 40.6283 181.577 39.4032 180.393 38.5036C179.221 37.5921 177.748 37.1364 175.972 37.1364C174.268 37.1364 172.835 37.5684 171.675 38.4325C170.515 39.2848 169.639 40.4804 169.047 42.0192C168.456 43.5462 168.16 45.3277 168.16 47.3636ZM205.589 61.5682C203.126 61.5682 200.966 60.9822 199.108 59.8104C197.261 58.6385 195.817 56.9991 194.775 54.892C193.746 52.785 193.231 50.3229 193.231 47.5057C193.231 44.6648 193.746 42.1849 194.775 40.0661C195.817 37.9472 197.261 36.3018 199.108 35.13C200.966 33.9581 203.126 33.3722 205.589 33.3722C208.051 33.3722 210.205 33.9581 212.052 35.13C213.91 36.3018 215.354 37.9472 216.384 40.0661C217.426 42.1849 217.947 44.6648 217.947 47.5057C217.947 50.3229 217.426 52.785 216.384 54.892C215.354 56.9991 213.91 58.6385 212.052 59.8104C210.205 60.9822 208.051 61.5682 205.589 61.5682ZM205.589 57.804C207.459 57.804 208.998 57.3246 210.205 56.3658C211.412 55.407 212.306 54.1463 212.886 52.5838C213.466 51.0213 213.756 49.3286 213.756 47.5057C213.756 45.6828 213.466 43.9841 212.886 42.4098C212.306 40.8355 211.412 39.563 210.205 38.5923C208.998 37.6217 207.459 37.1364 205.589 37.1364C203.718 37.1364 202.18 37.6217 200.972 38.5923C199.765 39.563 198.871 40.8355 198.291 42.4098C197.711 43.9841 197.421 45.6828 197.421 47.5057C197.421 49.3286 197.711 51.0213 198.291 52.5838C198.871 54.1463 199.765 55.407 200.972 56.3658C202.18 57.3246 203.718 57.804 205.589 57.804ZM224.343 61V33.7273H235.494C238.429 33.7273 240.761 34.3902 242.489 35.7159C244.218 37.0417 245.082 38.7936 245.082 40.9716C245.082 42.6288 244.59 43.9131 243.608 44.8246C242.625 45.7242 241.365 46.3338 239.826 46.6534C240.832 46.7955 241.809 47.1506 242.756 47.7188C243.714 48.2869 244.508 49.0682 245.135 50.0625C245.762 51.045 246.076 52.2524 246.076 53.6847C246.076 55.0814 245.721 56.3303 245.011 57.4311C244.3 58.532 243.282 59.402 241.957 60.0412C240.631 60.6804 239.045 61 237.198 61H224.343ZM228.32 57.1648H237.198C238.642 57.1648 239.773 56.8215 240.589 56.1349C241.406 55.4484 241.815 54.5133 241.815 53.3295C241.815 51.9209 241.406 50.8142 240.589 50.0092C239.773 49.1925 238.642 48.7841 237.198 48.7841H228.32V57.1648ZM228.32 45.1619H235.494C236.618 45.1619 237.583 45.008 238.388 44.7003C239.193 44.3807 239.808 43.9309 240.234 43.3509C240.672 42.759 240.891 42.0606 240.891 41.2557C240.891 40.1075 240.412 39.2079 239.453 38.5568C238.494 37.8939 237.174 37.5625 235.494 37.5625H228.32V45.1619ZM263.854 61.5682C261.226 61.5682 258.959 60.9882 257.053 59.8281C255.16 58.6562 253.698 57.0227 252.668 54.9276C251.65 52.8205 251.141 50.3703 251.141 47.5767C251.141 44.7831 251.65 42.321 252.668 40.1903C253.698 38.0478 255.13 36.3788 256.965 35.1832C258.811 33.9759 260.966 33.3722 263.428 33.3722C264.848 33.3722 266.251 33.6089 267.636 34.0824C269.021 34.5559 270.281 35.3253 271.418 36.3906C272.554 37.4441 273.46 38.8409 274.134 40.581C274.809 42.321 275.146 44.4635 275.146 47.0085V48.7841H254.124V45.1619H270.885C270.885 43.6231 270.577 42.25 269.962 41.0426C269.358 39.8352 268.494 38.8823 267.369 38.1839C266.257 37.4856 264.943 37.1364 263.428 37.1364C261.759 37.1364 260.315 37.5507 259.095 38.3793C257.888 39.196 256.959 40.2614 256.308 41.5753C255.657 42.8892 255.331 44.2978 255.331 45.8011V48.2159C255.331 50.2756 255.686 52.0215 256.396 53.4538C257.119 54.8743 258.119 55.9574 259.397 56.7031C260.676 57.437 262.161 57.804 263.854 57.804C264.955 57.804 265.949 57.6501 266.837 57.3423C267.736 57.0227 268.512 56.5492 269.163 55.9219C269.814 55.2827 270.317 54.4896 270.672 53.5426L274.72 54.679C274.294 56.0521 273.578 57.2595 272.572 58.3011C271.566 59.331 270.323 60.1359 268.843 60.7159C267.364 61.2841 265.7 61.5682 263.854 61.5682ZM278.609 68.8125V57.0938H280.882C281.438 56.5137 281.917 55.8864 282.32 55.2116C282.722 54.5369 283.071 53.7379 283.367 52.8146C283.675 51.8795 283.936 50.7431 284.149 49.4055C284.362 48.0561 284.551 46.4285 284.717 44.5227L285.64 33.7273H302.97V57.0938H307.16V68.8125H302.97V61H282.799V68.8125H278.609ZM285.64 57.0938H298.779V37.6335H289.546L288.836 44.5227C288.54 47.3755 288.173 49.8672 287.735 51.9979C287.297 54.1286 286.599 55.8272 285.64 57.0938ZM324.157 61.5682C321.529 61.5682 319.262 60.9882 317.356 59.8281C315.462 58.6562 314 57.0227 312.971 54.9276C311.953 52.8205 311.444 50.3703 311.444 47.5767C311.444 44.7831 311.953 42.321 312.971 40.1903C314 38.0478 315.433 36.3788 317.267 35.1832C319.114 33.9759 321.268 33.3722 323.73 33.3722C325.151 33.3722 326.554 33.6089 327.939 34.0824C329.324 34.5559 330.584 35.3253 331.721 36.3906C332.857 37.4441 333.762 38.8409 334.437 40.581C335.112 42.321 335.449 44.4635 335.449 47.0085V48.7841H314.426V45.1619H331.188C331.188 43.6231 330.88 42.25 330.265 41.0426C329.661 39.8352 328.797 38.8823 327.672 38.1839C326.56 37.4856 325.246 37.1364 323.73 37.1364C322.061 37.1364 320.617 37.5507 319.398 38.3793C318.191 39.196 317.261 40.2614 316.61 41.5753C315.959 42.8892 315.634 44.2978 315.634 45.8011V48.2159C315.634 50.2756 315.989 52.0215 316.699 53.4538C317.421 54.8743 318.422 55.9574 319.7 56.7031C320.978 57.437 322.464 57.804 324.157 57.804C325.257 57.804 326.252 57.6501 327.14 57.3423C328.039 57.0227 328.815 56.5492 329.466 55.9219C330.117 55.2827 330.62 54.4896 330.975 53.5426L335.023 54.679C334.597 56.0521 333.881 57.2595 332.875 58.3011C331.868 59.331 330.626 60.1359 329.146 60.7159C327.666 61.2841 326.003 61.5682 324.157 61.5682ZM360.076 45.446V49.3523H345.02V45.446H360.076ZM346.014 33.7273V61H341.824V33.7273H346.014ZM363.272 33.7273V61H359.082V33.7273H363.272ZM375.115 54.821L388.255 33.7273H393.084V61H388.894V39.9062L375.826 61H370.925V33.7273H375.115V54.821ZM417.165 61V37.5625H409.921C408.287 37.5625 407.003 37.9413 406.068 38.6989C405.133 39.4564 404.665 40.4981 404.665 41.8239C404.665 43.1259 405.086 44.1499 405.926 44.8956C406.778 45.6413 407.944 46.0142 409.424 46.0142H418.231V49.9205H409.424C407.577 49.9205 405.985 49.5949 404.648 48.9439C403.31 48.2929 402.28 47.3636 401.558 46.1562C400.836 44.937 400.475 43.4929 400.475 41.8239C400.475 40.143 400.854 38.6989 401.611 37.4915C402.369 36.2841 403.452 35.3549 404.861 34.7038C406.281 34.0528 407.968 33.7273 409.921 33.7273H421.143V61H417.165ZM398.983 61L406.725 47.4347H411.27L403.529 61H398.983ZM431.889 61.2841C431.013 61.2841 430.262 60.9704 429.634 60.343C429.007 59.7157 428.693 58.964 428.693 58.0881C428.693 57.2121 429.007 56.4605 429.634 55.8331C430.262 55.2057 431.013 54.892 431.889 54.892C432.765 54.892 433.517 55.2057 434.144 55.8331C434.772 56.4605 435.085 57.2121 435.085 58.0881C435.085 58.6681 434.937 59.2008 434.641 59.6861C434.357 60.1714 433.973 60.562 433.487 60.858C433.014 61.142 432.481 61.2841 431.889 61.2841ZM431.889 41.0426C431.013 41.0426 430.262 40.7289 429.634 40.1016C429.007 39.4742 428.693 38.7225 428.693 37.8466C428.693 36.9706 429.007 36.219 429.634 35.5916C430.262 34.9643 431.013 34.6506 431.889 34.6506C432.765 34.6506 433.517 34.9643 434.144 35.5916C434.772 36.219 435.085 36.9706 435.085 37.8466C435.085 38.4266 434.937 38.9593 434.641 39.4446C434.357 39.9299 433.973 40.3205 433.487 40.6165C433.014 40.9006 432.481 41.0426 431.889 41.0426Z" fill="black"/>
<path d="M4.40341 156V119.636H8.80682V135.83H28.196V119.636H32.5994V156H28.196V139.736H8.80682V156H4.40341ZM48.8725 156.639C47.1443 156.639 45.5759 156.314 44.1673 155.663C42.7586 155 41.64 154.047 40.8114 152.804C39.9828 151.549 39.5685 150.034 39.5685 148.259C39.5685 146.696 39.8763 145.429 40.4918 144.459C41.1074 143.476 41.93 142.707 42.9599 142.151C43.9897 141.594 45.1261 141.18 46.369 140.908C47.6237 140.624 48.8844 140.399 50.1509 140.233C51.8081 140.02 53.1516 139.86 54.1815 139.754C55.2231 139.635 55.9807 139.44 56.4542 139.168C56.9395 138.895 57.1822 138.422 57.1822 137.747V137.605C57.1822 135.853 56.7028 134.492 55.744 133.521C54.797 132.551 53.3588 132.065 51.4293 132.065C49.4289 132.065 47.8604 132.503 46.7241 133.379C45.5877 134.255 44.7887 135.19 44.3271 136.185L40.3498 134.764C41.06 133.107 42.007 131.817 43.1907 130.893C44.3862 129.958 45.6883 129.307 47.0969 128.94C48.5174 128.562 49.9142 128.372 51.2873 128.372C52.1632 128.372 53.1694 128.479 54.3058 128.692C55.454 128.893 56.5607 129.313 57.6261 129.952C58.7032 130.592 59.5969 131.556 60.3072 132.847C61.0174 134.137 61.3725 135.865 61.3725 138.031V156H57.1822V152.307H56.9691C56.685 152.899 56.2115 153.532 55.5487 154.207C54.8858 154.881 54.0039 155.455 52.9031 155.929C51.8022 156.402 50.4587 156.639 48.8725 156.639ZM49.5117 152.875C51.1689 152.875 52.5657 152.549 53.7021 151.898C54.8503 151.247 55.7144 150.407 56.2944 149.377C56.8862 148.347 57.1822 147.264 57.1822 146.128V142.293C57.0046 142.506 56.614 142.701 56.0103 142.879C55.4184 143.044 54.7319 143.192 53.9506 143.322C53.1812 143.441 52.4296 143.547 51.6957 143.642C50.9736 143.725 50.3877 143.796 49.9379 143.855C48.8488 143.997 47.8308 144.228 46.8839 144.548C45.9487 144.855 45.1912 145.323 44.6112 145.95C44.043 146.566 43.7589 147.406 43.7589 148.472C43.7589 149.928 44.2975 151.028 45.3746 151.774C46.4637 152.508 47.8427 152.875 49.5117 152.875ZM90.0435 128.727V156H85.8532V128.727H90.0435ZM88.41 141.724V145.631C87.463 145.986 86.522 146.299 85.5868 146.572C84.6517 146.832 83.6692 147.039 82.6394 147.193C81.6096 147.335 80.4791 147.406 79.248 147.406C76.1586 147.406 73.6787 146.572 71.8084 144.903C69.95 143.234 69.0208 140.73 69.0208 137.392V128.656H73.2111V137.392C73.2111 138.789 73.4775 139.937 74.0101 140.837C74.5428 141.736 75.2649 142.405 76.1763 142.843C77.0878 143.281 78.1117 143.5 79.248 143.5C81.0236 143.5 82.6275 143.34 84.0598 143.021C85.504 142.689 86.954 142.257 88.41 141.724ZM105.757 156.639C104.029 156.639 102.461 156.314 101.052 155.663C99.6434 155 98.5248 154.047 97.6962 152.804C96.8676 151.549 96.4533 150.034 96.4533 148.259C96.4533 146.696 96.7611 145.429 97.3766 144.459C97.9921 143.476 98.8148 142.707 99.8446 142.151C100.874 141.594 102.011 141.18 103.254 140.908C104.508 140.624 105.769 140.399 107.036 140.233C108.693 140.02 110.036 139.86 111.066 139.754C112.108 139.635 112.865 139.44 113.339 139.168C113.824 138.895 114.067 138.422 114.067 137.747V137.605C114.067 135.853 113.588 134.492 112.629 133.521C111.682 132.551 110.244 132.065 108.314 132.065C106.314 132.065 104.745 132.503 103.609 133.379C102.472 134.255 101.673 135.19 101.212 136.185L97.2346 134.764C97.9448 133.107 98.8917 131.817 100.075 130.893C101.271 129.958 102.573 129.307 103.982 128.94C105.402 128.562 106.799 128.372 108.172 128.372C109.048 128.372 110.054 128.479 111.191 128.692C112.339 128.893 113.445 129.313 114.511 129.952C115.588 130.592 116.482 131.556 117.192 132.847C117.902 134.137 118.257 135.865 118.257 138.031V156H114.067V152.307H113.854C113.57 152.899 113.096 153.532 112.433 154.207C111.771 154.881 110.889 155.455 109.788 155.929C108.687 156.402 107.343 156.639 105.757 156.639ZM106.396 152.875C108.054 152.875 109.45 152.549 110.587 151.898C111.735 151.247 112.599 150.407 113.179 149.377C113.771 148.347 114.067 147.264 114.067 146.128V142.293C113.889 142.506 113.499 142.701 112.895 142.879C112.303 143.044 111.617 143.192 110.835 143.322C110.066 143.441 109.314 143.547 108.58 143.642C107.858 143.725 107.272 143.796 106.823 143.855C105.734 143.997 104.716 144.228 103.769 144.548C102.834 144.855 102.076 145.323 101.496 145.95C100.928 146.566 100.644 147.406 100.644 148.472C100.644 149.928 101.182 151.028 102.259 151.774C103.348 152.508 104.727 152.875 106.396 152.875ZM123.491 156V152.094H124.485C125.302 152.094 125.982 151.934 126.527 151.614C127.071 151.283 127.509 150.709 127.841 149.892C128.184 149.063 128.445 147.915 128.622 146.447C128.812 144.968 128.948 143.086 129.031 140.801L129.528 128.727H147.71V156H143.519V132.634H133.505L133.079 142.364C132.984 144.601 132.783 146.572 132.475 148.276C132.179 149.969 131.723 151.389 131.108 152.538C130.504 153.686 129.699 154.55 128.693 155.13C127.687 155.71 126.426 156 124.911 156H123.491ZM166.477 156.568C164.015 156.568 161.855 155.982 159.996 154.81C158.15 153.638 156.706 151.999 155.664 149.892C154.634 147.785 154.119 145.323 154.119 142.506C154.119 139.665 154.634 137.185 155.664 135.066C156.706 132.947 158.15 131.302 159.996 130.13C161.855 128.958 164.015 128.372 166.477 128.372C168.939 128.372 171.094 128.958 172.94 130.13C174.799 131.302 176.243 132.947 177.273 135.066C178.314 137.185 178.835 139.665 178.835 142.506C178.835 145.323 178.314 147.785 177.273 149.892C176.243 151.999 174.799 153.638 172.94 154.81C171.094 155.982 168.939 156.568 166.477 156.568ZM166.477 152.804C168.348 152.804 169.886 152.325 171.094 151.366C172.301 150.407 173.195 149.146 173.775 147.584C174.355 146.021 174.645 144.329 174.645 142.506C174.645 140.683 174.355 138.984 173.775 137.41C173.195 135.835 172.301 134.563 171.094 133.592C169.886 132.622 168.348 132.136 166.477 132.136C164.607 132.136 163.068 132.622 161.861 133.592C160.653 134.563 159.76 135.835 159.18 137.41C158.6 138.984 158.31 140.683 158.31 142.506C158.31 144.329 158.6 146.021 159.18 147.584C159.76 149.146 160.653 150.407 161.861 151.366C163.068 152.325 164.607 152.804 166.477 152.804ZM199.294 156V128.727H220.743V156H216.553V132.634H203.485V156H199.294ZM228.396 166.227V128.727H232.444V133.06H232.941C233.249 132.586 233.675 131.982 234.22 131.249C234.776 130.503 235.569 129.84 236.599 129.26C237.641 128.668 239.049 128.372 240.825 128.372C243.121 128.372 245.145 128.946 246.897 130.094C248.649 131.243 250.016 132.87 250.999 134.977C251.981 137.084 252.472 139.57 252.472 142.435C252.472 145.323 251.981 147.826 250.999 149.945C250.016 152.052 248.655 153.686 246.915 154.846C245.175 155.994 243.169 156.568 240.896 156.568C239.144 156.568 237.741 156.278 236.688 155.698C235.634 155.106 234.823 154.437 234.255 153.692C233.687 152.934 233.249 152.307 232.941 151.81H232.586V166.227H228.396ZM232.515 142.364C232.515 144.423 232.817 146.24 233.421 147.815C234.024 149.377 234.906 150.602 236.066 151.49C237.226 152.366 238.647 152.804 240.328 152.804C242.079 152.804 243.541 152.342 244.713 151.419C245.897 150.484 246.785 149.229 247.377 147.655C247.98 146.069 248.282 144.305 248.282 142.364C248.282 140.446 247.986 138.718 247.394 137.179C246.814 135.628 245.932 134.403 244.749 133.504C243.577 132.592 242.103 132.136 240.328 132.136C238.623 132.136 237.191 132.568 236.031 133.433C234.871 134.285 233.995 135.48 233.403 137.019C232.811 138.546 232.515 140.328 232.515 142.364ZM269.944 156.568C267.482 156.568 265.322 155.982 263.463 154.81C261.617 153.638 260.173 151.999 259.131 149.892C258.101 147.785 257.586 145.323 257.586 142.506C257.586 139.665 258.101 137.185 259.131 135.066C260.173 132.947 261.617 131.302 263.463 130.13C265.322 128.958 267.482 128.372 269.944 128.372C272.406 128.372 274.561 128.958 276.407 130.13C278.266 131.302 279.71 132.947 280.74 135.066C281.781 137.185 282.302 139.665 282.302 142.506C282.302 145.323 281.781 147.785 280.74 149.892C279.71 151.999 278.266 153.638 276.407 154.81C274.561 155.982 272.406 156.568 269.944 156.568ZM269.944 152.804C271.814 152.804 273.353 152.325 274.561 151.366C275.768 150.407 276.662 149.146 277.242 147.584C277.822 146.021 278.112 144.329 278.112 142.506C278.112 140.683 277.822 138.984 277.242 137.41C276.662 135.835 275.768 134.563 274.561 133.592C273.353 132.622 271.814 132.136 269.944 132.136C268.074 132.136 266.535 132.622 265.328 133.592C264.12 134.563 263.227 135.835 262.646 137.41C262.066 138.984 261.776 140.683 261.776 142.506C261.776 144.329 262.066 146.021 262.646 147.584C263.227 149.146 264.12 150.407 265.328 151.366C266.535 152.325 268.074 152.804 269.944 152.804ZM285.787 163.812V152.094H288.059C288.616 151.514 289.095 150.886 289.498 150.212C289.9 149.537 290.249 148.738 290.545 147.815C290.853 146.879 291.113 145.743 291.326 144.406C291.539 143.056 291.729 141.429 291.895 139.523L292.818 128.727H310.147V152.094H314.338V163.812H310.147V156H289.977V163.812H285.787ZM292.818 152.094H305.957V132.634H296.724L296.014 139.523C295.718 142.375 295.351 144.867 294.913 146.998C294.475 149.129 293.777 150.827 292.818 152.094ZM327.925 156.639C326.197 156.639 324.629 156.314 323.22 155.663C321.811 155 320.693 154.047 319.864 152.804C319.036 151.549 318.621 150.034 318.621 148.259C318.621 146.696 318.929 145.429 319.545 144.459C320.16 143.476 320.983 142.707 322.013 142.151C323.042 141.594 324.179 141.18 325.422 140.908C326.676 140.624 327.937 140.399 329.204 140.233C330.861 140.02 332.204 139.86 333.234 139.754C334.276 139.635 335.033 139.44 335.507 139.168C335.992 138.895 336.235 138.422 336.235 137.747V137.605C336.235 135.853 335.756 134.492 334.797 133.521C333.85 132.551 332.412 132.065 330.482 132.065C328.482 132.065 326.913 132.503 325.777 133.379C324.64 134.255 323.841 135.19 323.38 136.185L319.403 134.764C320.113 133.107 321.06 131.817 322.243 130.893C323.439 129.958 324.741 129.307 326.15 128.94C327.57 128.562 328.967 128.372 330.34 128.372C331.216 128.372 332.222 128.479 333.358 128.692C334.507 128.893 335.613 129.313 336.679 129.952C337.756 130.592 338.65 131.556 339.36 132.847C340.07 134.137 340.425 135.865 340.425 138.031V156H336.235V152.307H336.022C335.738 152.899 335.264 153.532 334.601 154.207C333.939 154.881 333.057 155.455 331.956 155.929C330.855 156.402 329.511 156.639 327.925 156.639ZM328.564 152.875C330.222 152.875 331.618 152.549 332.755 151.898C333.903 151.247 334.767 150.407 335.347 149.377C335.939 148.347 336.235 147.264 336.235 146.128V142.293C336.057 142.506 335.667 142.701 335.063 142.879C334.471 143.044 333.785 143.192 333.003 143.322C332.234 143.441 331.482 143.547 330.748 143.642C330.026 143.725 329.44 143.796 328.991 143.855C327.902 143.997 326.884 144.228 325.937 144.548C325.001 144.855 324.244 145.323 323.664 145.95C323.096 146.566 322.812 147.406 322.812 148.472C322.812 149.928 323.35 151.028 324.427 151.774C325.516 152.508 326.895 152.875 328.564 152.875ZM346.369 156L357.449 142.151L346.511 128.727H351.483L360.574 140.375H362.846V128.727H367.037V140.375H369.238L378.329 128.727H383.301L372.434 142.151L383.443 156H378.4L369.167 144.281H367.037V156H362.846V144.281H360.716L351.412 156H346.369ZM423.735 118.5L425.866 121.057C425.037 121.862 424.078 122.424 422.989 122.744C421.9 123.063 420.669 123.259 419.296 123.33C417.923 123.401 416.396 123.472 414.715 123.543C412.821 123.614 411.253 124.075 410.01 124.928C408.767 125.78 407.808 127.011 407.133 128.621C406.459 130.231 406.027 132.207 405.837 134.551H406.192C407.116 132.847 408.394 131.592 410.028 130.787C411.661 129.982 413.413 129.58 415.283 129.58C417.414 129.58 419.331 130.077 421.036 131.071C422.741 132.065 424.09 133.539 425.084 135.492C426.079 137.445 426.576 139.854 426.576 142.719C426.576 145.571 426.067 148.034 425.049 150.105C424.043 152.177 422.628 153.775 420.805 154.899C418.994 156.012 416.869 156.568 414.431 156.568C411.992 156.568 409.856 155.994 408.021 154.846C406.186 153.686 404.76 151.969 403.742 149.697C402.724 147.412 402.215 144.589 402.215 141.227V138.315C402.215 132.243 403.245 127.638 405.305 124.501C407.376 121.365 410.489 119.743 414.644 119.636C416.112 119.589 417.42 119.577 418.568 119.601C419.716 119.625 420.716 119.571 421.569 119.441C422.421 119.311 423.143 118.997 423.735 118.5ZM414.431 152.804C416.076 152.804 417.491 152.39 418.675 151.561C419.87 150.732 420.787 149.567 421.427 148.063C422.066 146.548 422.385 144.767 422.385 142.719C422.385 140.73 422.06 139.037 421.409 137.641C420.77 136.244 419.852 135.179 418.657 134.445C417.461 133.711 416.029 133.344 414.36 133.344C413.141 133.344 412.046 133.551 411.075 133.965C410.104 134.379 409.276 134.989 408.589 135.794C407.903 136.599 407.37 137.581 406.991 138.741C406.624 139.902 406.429 141.227 406.405 142.719C406.405 145.773 407.122 148.217 408.554 150.052C409.986 151.887 411.945 152.804 414.431 152.804ZM437.176 149.821L450.315 128.727H455.145V156H450.954V134.906L437.886 156H432.986V128.727H437.176V149.821ZM460.405 156V152.094H461.399C462.216 152.094 462.897 151.934 463.441 151.614C463.986 151.283 464.424 150.709 464.755 149.892C465.098 149.063 465.359 147.915 465.536 146.447C465.726 144.968 465.862 143.086 465.945 140.801L466.442 128.727H484.624V156H480.433V132.634H470.419L469.993 142.364C469.898 144.601 469.697 146.572 469.389 148.276C469.093 149.969 468.638 151.389 468.022 152.538C467.418 153.686 466.613 154.55 465.607 155.13C464.601 155.71 463.34 156 461.825 156H460.405ZM503.746 156.568C501.119 156.568 498.852 155.988 496.946 154.828C495.052 153.656 493.59 152.023 492.56 149.928C491.542 147.821 491.033 145.37 491.033 142.577C491.033 139.783 491.542 137.321 492.56 135.19C493.59 133.048 495.022 131.379 496.857 130.183C498.704 128.976 500.858 128.372 503.32 128.372C504.741 128.372 506.143 128.609 507.528 129.082C508.913 129.556 510.174 130.325 511.31 131.391C512.447 132.444 513.352 133.841 514.027 135.581C514.702 137.321 515.039 139.464 515.039 142.009V143.784H494.016V140.162H510.778C510.778 138.623 510.47 137.25 509.854 136.043C509.251 134.835 508.387 133.882 507.262 133.184C506.149 132.486 504.835 132.136 503.32 132.136C501.651 132.136 500.207 132.551 498.988 133.379C497.781 134.196 496.851 135.261 496.2 136.575C495.549 137.889 495.224 139.298 495.224 140.801V143.216C495.224 145.276 495.579 147.022 496.289 148.454C497.011 149.874 498.011 150.957 499.29 151.703C500.568 152.437 502.054 152.804 503.746 152.804C504.847 152.804 505.842 152.65 506.729 152.342C507.629 152.023 508.404 151.549 509.055 150.922C509.706 150.283 510.21 149.49 510.565 148.543L514.613 149.679C514.187 151.052 513.471 152.259 512.464 153.301C511.458 154.331 510.215 155.136 508.736 155.716C507.256 156.284 505.593 156.568 503.746 156.568ZM518.874 132.634V128.727H541.033V132.634H532.085V156H527.894V132.634H518.874ZM556.809 156.568C554.347 156.568 552.187 155.982 550.328 154.81C548.482 153.638 547.038 151.999 545.996 149.892C544.966 147.785 544.451 145.323 544.451 142.506C544.451 139.665 544.966 137.185 545.996 135.066C547.038 132.947 548.482 131.302 550.328 130.13C552.187 128.958 554.347 128.372 556.809 128.372C559.271 128.372 561.426 128.958 563.272 130.13C565.131 131.302 566.575 132.947 567.605 135.066C568.646 137.185 569.167 139.665 569.167 142.506C569.167 145.323 568.646 147.785 567.605 149.892C566.575 151.999 565.131 153.638 563.272 154.81C561.426 155.982 559.271 156.568 556.809 156.568ZM556.809 152.804C558.68 152.804 560.218 152.325 561.426 151.366C562.633 150.407 563.527 149.146 564.107 147.584C564.687 146.021 564.977 144.329 564.977 142.506C564.977 140.683 564.687 138.984 564.107 137.41C563.527 135.835 562.633 134.563 561.426 133.592C560.218 132.622 558.68 132.136 556.809 132.136C554.939 132.136 553.4 132.622 552.193 133.592C550.985 134.563 550.092 135.835 549.512 137.41C548.932 138.984 548.642 140.683 548.642 142.506C548.642 144.329 548.932 146.021 549.512 147.584C550.092 149.146 550.985 150.407 552.193 151.366C553.4 152.325 554.939 152.804 556.809 152.804ZM575.564 156V128.727H586.714C589.65 128.727 591.982 129.39 593.71 130.716C595.438 132.042 596.302 133.794 596.302 135.972C596.302 137.629 595.811 138.913 594.829 139.825C593.846 140.724 592.586 141.334 591.047 141.653C592.053 141.795 593.029 142.151 593.976 142.719C594.935 143.287 595.728 144.068 596.356 145.062C596.983 146.045 597.297 147.252 597.297 148.685C597.297 150.081 596.942 151.33 596.231 152.431C595.521 153.532 594.503 154.402 593.177 155.041C591.852 155.68 590.265 156 588.419 156H575.564ZM579.541 152.165H588.419C589.863 152.165 590.993 151.821 591.81 151.135C592.627 150.448 593.035 149.513 593.035 148.33C593.035 146.921 592.627 145.814 591.81 145.009C590.993 144.192 589.863 143.784 588.419 143.784H579.541V152.165ZM579.541 140.162H586.714C587.839 140.162 588.804 140.008 589.608 139.7C590.413 139.381 591.029 138.931 591.455 138.351C591.893 137.759 592.112 137.061 592.112 136.256C592.112 135.107 591.633 134.208 590.674 133.557C589.715 132.894 588.395 132.562 586.714 132.562H579.541V140.162ZM606.694 156.284C605.818 156.284 605.066 155.97 604.439 155.343C603.812 154.716 603.498 153.964 603.498 153.088C603.498 152.212 603.812 151.46 604.439 150.833C605.066 150.206 605.818 149.892 606.694 149.892C607.57 149.892 608.321 150.206 608.949 150.833C609.576 151.46 609.89 152.212 609.89 153.088C609.89 153.668 609.742 154.201 609.446 154.686C609.162 155.171 608.777 155.562 608.292 155.858C607.818 156.142 607.286 156.284 606.694 156.284ZM606.694 136.043C605.818 136.043 605.066 135.729 604.439 135.102C603.812 134.474 603.498 133.723 603.498 132.847C603.498 131.971 603.812 131.219 604.439 130.592C605.066 129.964 605.818 129.651 606.694 129.651C607.57 129.651 608.321 129.964 608.949 130.592C609.576 131.219 609.89 131.971 609.89 132.847C609.89 133.427 609.742 133.959 609.446 134.445C609.162 134.93 608.777 135.321 608.292 135.616C607.818 135.901 607.286 136.043 606.694 136.043Z" fill="black"/>
<path d="M4.40341 251V214.636H16.6903C19.5431 214.636 21.875 215.151 23.6861 216.181C25.509 217.199 26.8584 218.578 27.7344 220.318C28.6103 222.058 29.0483 224 29.0483 226.142C29.0483 228.285 28.6103 230.232 27.7344 231.984C26.8703 233.736 25.5327 235.132 23.7216 236.174C21.9105 237.204 19.5904 237.719 16.7614 237.719H7.95455V233.812H16.6193C18.5724 233.812 20.1409 233.475 21.3246 232.8C22.5083 232.126 23.3665 231.214 23.8991 230.066C24.4437 228.906 24.7159 227.598 24.7159 226.142C24.7159 224.686 24.4437 223.384 23.8991 222.236C23.3665 221.088 22.5024 220.188 21.3068 219.537C20.1113 218.874 18.5251 218.543 16.5483 218.543H8.80682V251H4.40341ZM46.7152 251.568C44.0874 251.568 41.8205 250.988 39.9148 249.828C38.0208 248.656 36.5589 247.023 35.5291 244.928C34.5111 242.821 34.0021 240.37 34.0021 237.577C34.0021 234.783 34.5111 232.321 35.5291 230.19C36.5589 228.048 37.9912 226.379 39.826 225.183C41.6726 223.976 43.8269 223.372 46.2891 223.372C47.7095 223.372 49.1122 223.609 50.4972 224.082C51.8821 224.556 53.1428 225.325 54.2791 226.391C55.4155 227.444 56.321 228.841 56.9957 230.581C57.6705 232.321 58.0078 234.464 58.0078 237.009V238.784H36.9851V235.162H53.7464C53.7464 233.623 53.4387 232.25 52.8232 231.043C52.2195 229.835 51.3554 228.882 50.2308 228.184C49.1181 227.486 47.8042 227.136 46.2891 227.136C44.62 227.136 43.1759 227.551 41.9567 228.379C40.7493 229.196 39.8201 230.261 39.169 231.575C38.518 232.889 38.1925 234.298 38.1925 235.801V238.216C38.1925 240.276 38.5476 242.022 39.2578 243.454C39.9799 244.874 40.9801 245.957 42.2585 246.703C43.5369 247.437 45.0225 247.804 46.7152 247.804C47.8161 247.804 48.8104 247.65 49.6982 247.342C50.5978 247.023 51.3731 246.549 52.0241 245.922C52.6752 245.283 53.1783 244.49 53.5334 243.543L57.5817 244.679C57.1555 246.052 56.4394 247.259 55.4332 248.301C54.4271 249.331 53.1842 250.136 51.7045 250.716C50.2249 251.284 48.5618 251.568 46.7152 251.568ZM62.6776 244.04H67.152C67.2467 245.271 67.803 246.206 68.821 246.845C69.8509 247.484 71.1884 247.804 72.8338 247.804C74.5147 247.804 75.9529 247.461 77.1484 246.774C78.344 246.076 78.9418 244.951 78.9418 243.401C78.9418 242.489 78.7169 241.696 78.267 241.021C77.8172 240.335 77.1839 239.802 76.3672 239.423C75.5504 239.045 74.5857 238.855 73.473 238.855H68.7855V235.091H73.473C75.142 235.091 76.3731 234.712 77.1662 233.955C77.9711 233.197 78.3736 232.25 78.3736 231.114C78.3736 229.894 77.9415 228.918 77.0774 228.184C76.2133 227.438 74.9882 227.065 73.402 227.065C71.804 227.065 70.4723 227.426 69.407 228.148C68.3416 228.859 67.7794 229.776 67.7202 230.901H63.3168C63.3641 229.433 63.8139 228.137 64.6662 227.012C65.5185 225.876 66.6785 224.988 68.1463 224.349C69.6141 223.698 71.295 223.372 73.1889 223.372C75.1065 223.372 76.7696 223.71 78.1783 224.384C79.5987 225.047 80.6937 225.953 81.4631 227.101C82.2443 228.237 82.6349 229.527 82.6349 230.972C82.6349 232.51 82.2029 233.753 81.3388 234.7C80.4747 235.647 79.3916 236.322 78.0895 236.724V237.009C79.1193 237.08 80.013 237.411 80.7706 238.003C81.54 238.583 82.1378 239.346 82.5639 240.293C82.9901 241.228 83.2031 242.264 83.2031 243.401C83.2031 245.058 82.7592 246.502 81.8714 247.733C80.9837 248.952 79.7644 249.899 78.2138 250.574C76.6631 251.237 74.8935 251.568 72.9048 251.568C70.9754 251.568 69.2472 251.254 67.7202 250.627C66.1932 249.988 64.9799 249.106 64.0803 247.982C63.1925 246.845 62.7249 245.531 62.6776 244.04ZM100.524 251.568C97.896 251.568 95.6291 250.988 93.7234 249.828C91.8294 248.656 90.3675 247.023 89.3377 244.928C88.3197 242.821 87.8107 240.37 87.8107 237.577C87.8107 234.783 88.3197 232.321 89.3377 230.19C90.3675 228.048 91.7998 226.379 93.6346 225.183C95.4812 223.976 97.6355 223.372 100.098 223.372C101.518 223.372 102.921 223.609 104.306 224.082C105.691 224.556 106.951 225.325 108.088 226.391C109.224 227.444 110.13 228.841 110.804 230.581C111.479 232.321 111.816 234.464 111.816 237.009V238.784H90.7937V235.162H107.555C107.555 233.623 107.247 232.25 106.632 231.043C106.028 229.835 105.164 228.882 104.039 228.184C102.927 227.486 101.613 227.136 100.098 227.136C98.4286 227.136 96.9845 227.551 95.7653 228.379C94.5579 229.196 93.6287 230.261 92.9776 231.575C92.3266 232.889 92.0011 234.298 92.0011 235.801V238.216C92.0011 240.276 92.3562 242.022 93.0664 243.454C93.7885 244.874 94.7887 245.957 96.0671 246.703C97.3455 247.437 98.8311 247.804 100.524 247.804C101.625 247.804 102.619 247.65 103.507 247.342C104.406 247.023 105.182 246.549 105.833 245.922C106.484 245.283 106.987 244.49 107.342 243.543L111.39 244.679C110.964 246.052 110.248 247.259 109.242 248.301C108.236 249.331 106.993 250.136 105.513 250.716C104.033 251.284 102.37 251.568 100.524 251.568ZM118.191 261.227V223.727H122.239V228.06H122.736C123.044 227.586 123.47 226.982 124.015 226.249C124.571 225.503 125.364 224.84 126.394 224.26C127.435 223.668 128.844 223.372 130.62 223.372C132.916 223.372 134.94 223.946 136.692 225.094C138.444 226.243 139.811 227.87 140.794 229.977C141.776 232.084 142.267 234.57 142.267 237.435C142.267 240.323 141.776 242.826 140.794 244.945C139.811 247.052 138.45 248.686 136.71 249.846C134.97 250.994 132.963 251.568 130.691 251.568C128.939 251.568 127.536 251.278 126.483 250.698C125.429 250.106 124.618 249.437 124.05 248.692C123.482 247.934 123.044 247.307 122.736 246.81H122.381V261.227H118.191ZM122.31 237.364C122.31 239.423 122.612 241.24 123.216 242.815C123.819 244.377 124.701 245.602 125.861 246.49C127.021 247.366 128.442 247.804 130.123 247.804C131.874 247.804 133.336 247.342 134.508 246.419C135.692 245.484 136.58 244.229 137.172 242.655C137.775 241.069 138.077 239.305 138.077 237.364C138.077 235.446 137.781 233.718 137.189 232.179C136.609 230.628 135.727 229.403 134.544 228.504C133.372 227.592 131.898 227.136 130.123 227.136C128.418 227.136 126.986 227.568 125.826 228.433C124.666 229.285 123.79 230.48 123.198 232.019C122.606 233.546 122.31 235.328 122.31 237.364ZM148.659 251V223.727H159.81C162.746 223.727 165.078 224.39 166.806 225.716C168.534 227.042 169.398 228.794 169.398 230.972C169.398 232.629 168.907 233.913 167.924 234.825C166.942 235.724 165.681 236.334 164.142 236.653C165.149 236.795 166.125 237.151 167.072 237.719C168.031 238.287 168.824 239.068 169.451 240.062C170.079 241.045 170.392 242.252 170.392 243.685C170.392 245.081 170.037 246.33 169.327 247.431C168.617 248.532 167.599 249.402 166.273 250.041C164.947 250.68 163.361 251 161.515 251H148.659ZM152.637 247.165H161.515C162.959 247.165 164.089 246.821 164.906 246.135C165.723 245.448 166.131 244.513 166.131 243.33C166.131 241.921 165.723 240.814 164.906 240.009C164.089 239.192 162.959 238.784 161.515 238.784H152.637V247.165ZM152.637 235.162H159.81C160.935 235.162 161.899 235.008 162.704 234.7C163.509 234.381 164.125 233.931 164.551 233.351C164.989 232.759 165.208 232.061 165.208 231.256C165.208 230.107 164.728 229.208 163.77 228.557C162.811 227.894 161.491 227.562 159.81 227.562H152.637V235.162ZM180.926 244.821L194.065 223.727H198.895V251H194.704V229.906L181.636 251H176.736V223.727H180.926V244.821ZM206.57 261.227V223.727H210.618V228.06H211.115C211.423 227.586 211.849 226.982 212.393 226.249C212.95 225.503 213.743 224.84 214.773 224.26C215.814 223.668 217.223 223.372 218.999 223.372C221.295 223.372 223.319 223.946 225.071 225.094C226.823 226.243 228.19 227.87 229.173 229.977C230.155 232.084 230.646 234.57 230.646 237.435C230.646 240.323 230.155 242.826 229.173 244.945C228.19 247.052 226.829 248.686 225.089 249.846C223.349 250.994 221.342 251.568 219.07 251.568C217.318 251.568 215.915 251.278 214.862 250.698C213.808 250.106 212.997 249.437 212.429 248.692C211.861 247.934 211.423 247.307 211.115 246.81H210.76V261.227H206.57ZM210.689 237.364C210.689 239.423 210.991 241.24 211.594 242.815C212.198 244.377 213.08 245.602 214.24 246.49C215.4 247.366 216.821 247.804 218.501 247.804C220.253 247.804 221.715 247.342 222.887 246.419C224.071 245.484 224.959 244.229 225.55 242.655C226.154 241.069 226.456 239.305 226.456 237.364C226.456 235.446 226.16 233.718 225.568 232.179C224.988 230.628 224.106 229.403 222.923 228.504C221.751 227.592 220.277 227.136 218.501 227.136C216.797 227.136 215.365 227.568 214.205 228.433C213.045 229.285 212.169 230.48 211.577 232.019C210.985 233.546 210.689 235.328 210.689 237.364ZM248.118 251.568C245.656 251.568 243.496 250.982 241.637 249.81C239.79 248.638 238.346 246.999 237.305 244.892C236.275 242.785 235.76 240.323 235.76 237.506C235.76 234.665 236.275 232.185 237.305 230.066C238.346 227.947 239.79 226.302 241.637 225.13C243.496 223.958 245.656 223.372 248.118 223.372C250.58 223.372 252.734 223.958 254.581 225.13C256.439 226.302 257.884 227.947 258.913 230.066C259.955 232.185 260.476 234.665 260.476 237.506C260.476 240.323 259.955 242.785 258.913 244.892C257.884 246.999 256.439 248.638 254.581 249.81C252.734 250.982 250.58 251.568 248.118 251.568ZM248.118 247.804C249.988 247.804 251.527 247.325 252.734 246.366C253.942 245.407 254.835 244.146 255.415 242.584C255.996 241.021 256.286 239.329 256.286 237.506C256.286 235.683 255.996 233.984 255.415 232.41C254.835 230.835 253.942 229.563 252.734 228.592C251.527 227.622 249.988 227.136 248.118 227.136C246.248 227.136 244.709 227.622 243.501 228.592C242.294 229.563 241.4 230.835 240.82 232.41C240.24 233.984 239.95 235.683 239.95 237.506C239.95 239.329 240.24 241.021 240.82 242.584C241.4 244.146 242.294 245.407 243.501 246.366C244.709 247.325 246.248 247.804 248.118 247.804ZM266.872 251V223.727H278.023C280.959 223.727 283.29 224.39 285.019 225.716C286.747 227.042 287.611 228.794 287.611 230.972C287.611 232.629 287.12 233.913 286.137 234.825C285.155 235.724 283.894 236.334 282.355 236.653C283.361 236.795 284.338 237.151 285.285 237.719C286.244 238.287 287.037 239.068 287.664 240.062C288.292 241.045 288.605 242.252 288.605 243.685C288.605 245.081 288.25 246.33 287.54 247.431C286.83 248.532 285.812 249.402 284.486 250.041C283.16 250.68 281.574 251 279.727 251H266.872ZM270.85 247.165H279.727C281.172 247.165 282.302 246.821 283.119 246.135C283.936 245.448 284.344 244.513 284.344 243.33C284.344 241.921 283.936 240.814 283.119 240.009C282.302 239.192 281.172 238.784 279.727 238.784H270.85V247.165ZM270.85 235.162H278.023C279.147 235.162 280.112 235.008 280.917 234.7C281.722 234.381 282.338 233.931 282.764 233.351C283.202 232.759 283.421 232.061 283.421 231.256C283.421 230.107 282.941 229.208 281.982 228.557C281.024 227.894 279.704 227.562 278.023 227.562H270.85V235.162ZM302.974 251.639C301.246 251.639 299.677 251.314 298.269 250.663C296.86 250 295.742 249.047 294.913 247.804C294.084 246.549 293.67 245.034 293.67 243.259C293.67 241.696 293.978 240.429 294.593 239.459C295.209 238.476 296.032 237.707 297.061 237.151C298.091 236.594 299.228 236.18 300.471 235.908C301.725 235.624 302.986 235.399 304.252 235.233C305.91 235.02 307.253 234.86 308.283 234.754C309.325 234.635 310.082 234.44 310.556 234.168C311.041 233.895 311.284 233.422 311.284 232.747V232.605C311.284 230.853 310.804 229.492 309.846 228.521C308.899 227.551 307.46 227.065 305.531 227.065C303.53 227.065 301.962 227.503 300.826 228.379C299.689 229.255 298.89 230.19 298.429 231.185L294.451 229.764C295.162 228.107 296.109 226.817 297.292 225.893C298.488 224.958 299.79 224.307 301.199 223.94C302.619 223.562 304.016 223.372 305.389 223.372C306.265 223.372 307.271 223.479 308.407 223.692C309.556 223.893 310.662 224.313 311.728 224.952C312.805 225.592 313.699 226.556 314.409 227.847C315.119 229.137 315.474 230.865 315.474 233.031V251H311.284V247.307H311.071C310.787 247.899 310.313 248.532 309.65 249.207C308.987 249.881 308.105 250.455 307.005 250.929C305.904 251.402 304.56 251.639 302.974 251.639ZM303.613 247.875C305.27 247.875 306.667 247.549 307.804 246.898C308.952 246.247 309.816 245.407 310.396 244.377C310.988 243.347 311.284 242.264 311.284 241.128V237.293C311.106 237.506 310.716 237.701 310.112 237.879C309.52 238.044 308.833 238.192 308.052 238.322C307.283 238.441 306.531 238.547 305.797 238.642C305.075 238.725 304.489 238.796 304.039 238.855C302.95 238.997 301.932 239.228 300.985 239.548C300.05 239.855 299.293 240.323 298.713 240.95C298.145 241.566 297.86 242.406 297.86 243.472C297.86 244.928 298.399 246.028 299.476 246.774C300.565 247.508 301.944 247.875 303.613 247.875ZM341.375 235.446V239.352H326.318V235.446H341.375ZM327.313 223.727V251H323.122V223.727H327.313ZM344.571 223.727V251H340.381V223.727H344.571ZM356.414 244.821L369.553 223.727H374.383V251H370.193V229.906L357.124 251H352.224V223.727H356.414V244.821ZM393.493 251.568C390.865 251.568 388.598 250.988 386.692 249.828C384.798 248.656 383.336 247.023 382.306 244.928C381.288 242.821 380.779 240.37 380.779 237.577C380.779 234.783 381.288 232.321 382.306 230.19C383.336 228.048 384.769 226.379 386.603 225.183C388.45 223.976 390.604 223.372 393.066 223.372C394.487 223.372 395.89 223.609 397.275 224.082C398.659 224.556 399.92 225.325 401.056 226.391C402.193 227.444 403.098 228.841 403.773 230.581C404.448 232.321 404.785 234.464 404.785 237.009V238.784H383.762V235.162H400.524C400.524 233.623 400.216 232.25 399.6 231.043C398.997 229.835 398.133 228.882 397.008 228.184C395.895 227.486 394.582 227.136 393.066 227.136C391.397 227.136 389.953 227.551 388.734 228.379C387.527 229.196 386.597 230.261 385.946 231.575C385.295 232.889 384.97 234.298 384.97 235.801V238.216C384.97 240.276 385.325 242.022 386.035 243.454C386.757 244.874 387.757 245.957 389.036 246.703C390.314 247.437 391.8 247.804 393.493 247.804C394.593 247.804 395.588 247.65 396.475 247.342C397.375 247.023 398.15 246.549 398.801 245.922C399.453 245.283 399.956 244.49 400.311 243.543L404.359 244.679C403.933 246.052 403.217 247.259 402.211 248.301C401.204 249.331 399.962 250.136 398.482 250.716C397.002 251.284 395.339 251.568 393.493 251.568ZM425.79 251V214.636H447.736V218.543H430.194V229.906H439.426C442.031 229.906 444.226 230.332 446.014 231.185C447.813 232.037 449.174 233.238 450.098 234.789C451.033 236.34 451.5 238.169 451.5 240.276C451.5 242.383 451.033 244.241 450.098 245.851C449.174 247.461 447.813 248.721 446.014 249.633C444.226 250.544 442.031 251 439.426 251H425.79ZM430.194 247.165H439.426C441.084 247.165 442.486 246.833 443.635 246.17C444.795 245.496 445.671 244.632 446.262 243.578C446.866 242.513 447.168 241.388 447.168 240.205C447.168 238.464 446.499 236.967 445.162 235.712C443.824 234.446 441.912 233.812 439.426 233.812H430.194V247.165ZM462.371 244.821L475.51 223.727H480.34V251H476.15V229.906L463.081 251H458.181V223.727H462.371V244.821ZM485.6 251V247.094H486.594C487.411 247.094 488.092 246.934 488.636 246.614C489.181 246.283 489.619 245.709 489.95 244.892C490.294 244.063 490.554 242.915 490.732 241.447C490.921 239.968 491.057 238.086 491.14 235.801L491.637 223.727H509.819V251H505.629V227.634H495.614L495.188 237.364C495.094 239.601 494.892 241.572 494.585 243.276C494.289 244.969 493.833 246.389 493.217 247.538C492.614 248.686 491.809 249.55 490.803 250.13C489.796 250.71 488.536 251 487.021 251H485.6ZM528.942 251.568C526.314 251.568 524.047 250.988 522.141 249.828C520.247 248.656 518.786 247.023 517.756 244.928C516.738 242.821 516.229 240.37 516.229 237.577C516.229 234.783 516.738 232.321 517.756 230.19C518.786 228.048 520.218 226.379 522.053 225.183C523.899 223.976 526.054 223.372 528.516 223.372C529.936 223.372 531.339 223.609 532.724 224.082C534.109 224.556 535.369 225.325 536.506 226.391C537.642 227.444 538.548 228.841 539.222 230.581C539.897 232.321 540.234 234.464 540.234 237.009V238.784H519.212V235.162H535.973C535.973 233.623 535.665 232.25 535.05 231.043C534.446 229.835 533.582 228.882 532.457 228.184C531.345 227.486 530.031 227.136 528.516 227.136C526.847 227.136 525.402 227.551 524.183 228.379C522.976 229.196 522.047 230.261 521.396 231.575C520.745 232.889 520.419 234.298 520.419 235.801V238.216C520.419 240.276 520.774 242.022 521.484 243.454C522.206 244.874 523.207 245.957 524.485 246.703C525.763 247.437 527.249 247.804 528.942 247.804C530.043 247.804 531.037 247.65 531.925 247.342C532.824 247.023 533.6 246.549 534.251 245.922C534.902 245.283 535.405 244.49 535.76 243.543L539.808 244.679C539.382 246.052 538.666 247.259 537.66 248.301C536.654 249.331 535.411 250.136 533.931 250.716C532.451 251.284 530.788 251.568 528.942 251.568ZM544.07 227.634V223.727H566.229V227.634H557.28V251H553.089V227.634H544.07ZM582.005 251.568C579.542 251.568 577.382 250.982 575.524 249.81C573.677 248.638 572.233 246.999 571.191 244.892C570.162 242.785 569.647 240.323 569.647 237.506C569.647 234.665 570.162 232.185 571.191 230.066C572.233 227.947 573.677 226.302 575.524 225.13C577.382 223.958 579.542 223.372 582.005 223.372C584.467 223.372 586.621 223.958 588.468 225.13C590.326 226.302 591.77 227.947 592.8 230.066C593.842 232.185 594.363 234.665 594.363 237.506C594.363 240.323 593.842 242.785 592.8 244.892C591.77 246.999 590.326 248.638 588.468 249.81C586.621 250.982 584.467 251.568 582.005 251.568ZM582.005 247.804C583.875 247.804 585.414 247.325 586.621 246.366C587.828 245.407 588.722 244.146 589.302 242.584C589.882 241.021 590.172 239.329 590.172 237.506C590.172 235.683 589.882 233.984 589.302 232.41C588.722 230.835 587.828 229.563 586.621 228.592C585.414 227.622 583.875 227.136 582.005 227.136C580.134 227.136 578.596 227.622 577.388 228.592C576.181 229.563 575.287 230.835 574.707 232.41C574.127 233.984 573.837 235.683 573.837 237.506C573.837 239.329 574.127 241.021 574.707 242.584C575.287 244.146 576.181 245.407 577.388 246.366C578.596 247.325 580.134 247.804 582.005 247.804ZM600.759 251V223.727H611.91C614.845 223.727 617.177 224.39 618.905 225.716C620.634 227.042 621.498 228.794 621.498 230.972C621.498 232.629 621.006 233.913 620.024 234.825C619.041 235.724 617.781 236.334 616.242 236.653C617.248 236.795 618.225 237.151 619.172 237.719C620.131 238.287 620.924 239.068 621.551 240.062C622.178 241.045 622.492 242.252 622.492 243.685C622.492 245.081 622.137 246.33 621.427 247.431C620.716 248.532 619.698 249.402 618.373 250.041C617.047 250.68 615.461 251 613.614 251H600.759ZM604.736 247.165H613.614C615.058 247.165 616.189 246.821 617.006 246.135C617.822 245.448 618.231 244.513 618.231 243.33C618.231 241.921 617.822 240.814 617.006 240.009C616.189 239.192 615.058 238.784 613.614 238.784H604.736V247.165ZM604.736 235.162H611.91C613.034 235.162 613.999 235.008 614.804 234.7C615.609 234.381 616.224 233.931 616.65 233.351C617.088 232.759 617.307 232.061 617.307 231.256C617.307 230.107 616.828 229.208 615.869 228.557C614.91 227.894 613.59 227.562 611.91 227.562H604.736V235.162ZM631.889 251.284C631.013 251.284 630.262 250.97 629.634 250.343C629.007 249.716 628.693 248.964 628.693 248.088C628.693 247.212 629.007 246.46 629.634 245.833C630.262 245.206 631.013 244.892 631.889 244.892C632.765 244.892 633.517 245.206 634.144 245.833C634.772 246.46 635.085 247.212 635.085 248.088C635.085 248.668 634.937 249.201 634.641 249.686C634.357 250.171 633.973 250.562 633.487 250.858C633.014 251.142 632.481 251.284 631.889 251.284ZM631.889 231.043C631.013 231.043 630.262 230.729 629.634 230.102C629.007 229.474 628.693 228.723 628.693 227.847C628.693 226.971 629.007 226.219 629.634 225.592C630.262 224.964 631.013 224.651 631.889 224.651C632.765 224.651 633.517 224.964 634.144 225.592C634.772 226.219 635.085 226.971 635.085 227.847C635.085 228.427 634.937 228.959 634.641 229.445C634.357 229.93 633.973 230.321 633.487 230.616C633.014 230.901 632.481 231.043 631.889 231.043Z" fill="black"/>
<path d="M792.708 61H784.47L803.06 24.6364H812.968L819.466 61H811.227L806.806 32.946H806.522L792.708 61ZM794.59 46.7067H814.051L813.021 52.7081H793.561L794.59 46.7067ZM823.754 61L828.3 33.7273H839.912C843.262 33.7273 845.807 34.3665 847.547 35.6449C849.299 36.9233 849.973 38.7403 849.571 41.0959C849.334 42.5755 848.582 43.8066 847.316 44.7891C846.049 45.7715 844.416 46.4344 842.415 46.7777C844.037 46.8961 845.369 47.2689 846.41 47.8963C847.464 48.5118 848.21 49.3108 848.648 50.2933C849.097 51.2758 849.228 52.3648 849.038 53.5604C848.778 55.111 848.139 56.4427 847.121 57.5554C846.114 58.6681 844.771 59.5204 843.09 60.1122C841.421 60.7041 839.444 61 837.16 61H823.754ZM831.726 55.3359H838.101C839.166 55.3359 840.042 55.0814 840.729 54.5724C841.415 54.0634 841.823 53.3769 841.954 52.5128C842.131 51.5421 841.96 50.7786 841.439 50.2223C840.93 49.666 840.148 49.3878 839.095 49.3878H832.721L831.726 55.3359ZM833.466 44.9489H838.207C838.953 44.9489 839.616 44.8423 840.196 44.6293C840.776 44.4044 841.243 44.0848 841.599 43.6705C841.965 43.2562 842.196 42.7649 842.291 42.1967C842.433 41.3681 842.202 40.7171 841.599 40.2436C840.995 39.7583 840.107 39.5156 838.935 39.5156H834.354L833.466 44.9489ZM875.818 33.7273L874.842 39.6754H863.513L859.945 61H852.612L857.157 33.7273H875.818ZM878.899 71.2273C877.928 71.2273 877.04 71.1503 876.235 70.9964C875.431 70.8544 874.768 70.6709 874.247 70.446L876.91 64.7997C877.751 65.072 878.514 65.214 879.201 65.2259C879.899 65.2377 880.538 65.0601 881.118 64.6932C881.698 64.3262 882.231 63.7225 882.716 62.8821L883.391 61.728L878.277 33.7273H885.948L888.256 53.7912H888.54L897.578 33.7273H905.87L890.262 63.9474C889.493 65.4271 888.582 66.7114 887.528 67.8004C886.486 68.8894 885.249 69.7299 883.817 70.3217C882.397 70.9254 880.757 71.2273 878.899 71.2273ZM916.567 61.5327C913.762 61.5327 911.454 60.9408 909.643 59.7571C907.844 58.5616 906.583 56.9044 905.861 54.7855C905.151 52.6667 905.026 50.2282 905.488 47.4702C905.938 44.6766 906.879 42.2263 908.311 40.1193C909.743 38.0005 911.56 36.3492 913.762 35.1655C915.976 33.9699 918.461 33.3722 921.219 33.3722C923.599 33.3722 925.611 33.8042 927.256 34.6683C928.902 35.5324 930.109 36.7457 930.879 38.3082C931.648 39.8707 931.908 41.7055 931.66 43.8125H924.54C924.552 42.4631 924.202 41.3681 923.492 40.5277C922.782 39.6873 921.74 39.267 920.367 39.267C919.183 39.267 918.094 39.5866 917.1 40.2259C916.118 40.8532 915.283 41.7706 914.597 42.978C913.922 44.1854 913.448 45.6473 913.176 47.3636C912.892 49.1037 912.886 50.5833 913.158 51.8026C913.431 53.0218 913.951 53.951 914.721 54.5902C915.49 55.2294 916.461 55.549 917.633 55.549C918.509 55.549 919.32 55.3714 920.065 55.0163C920.823 54.6612 921.486 54.1463 922.054 53.4716C922.622 52.785 923.06 51.9624 923.368 51.0036H930.506C930.02 53.0987 929.138 54.9335 927.86 56.5078C926.594 58.0821 925.001 59.3132 923.084 60.201C921.166 61.0888 918.994 61.5327 916.567 61.5327ZM935.353 39.6754L936.347 33.7273H961.063L960.069 39.6754H951.298L947.764 61H940.538L944.089 39.6754H935.353ZM972.604 61L973.545 55.4602L988.46 43.4751C989.739 42.4098 990.822 41.451 991.71 40.5987C992.609 39.7464 993.319 38.9119 993.84 38.0952C994.373 37.2666 994.722 36.3729 994.888 35.4141C995.065 34.3487 994.977 33.4313 994.621 32.6619C994.278 31.8807 993.722 31.2829 992.952 30.8686C992.195 30.4425 991.283 30.2294 990.218 30.2294C989.105 30.2294 988.093 30.4543 987.182 30.9041C986.27 31.3539 985.513 31.9991 984.909 32.8395C984.305 33.6799 983.903 34.6802 983.702 35.8402H976.404C976.807 33.4609 977.7 31.3954 979.085 29.6435C980.47 27.8916 982.21 26.5362 984.305 25.5774C986.401 24.6186 988.721 24.1392 991.266 24.1392C993.87 24.1392 996.06 24.6009 997.835 25.5241C999.623 26.4356 1000.92 27.7022 1001.72 29.3239C1002.53 30.9455 1002.75 32.804 1002.4 34.8991C1002.16 36.2841 1001.66 37.6454 1000.89 38.983C1000.12 40.3087 998.912 41.7884 997.267 43.4219C995.622 45.0436 993.367 46.9908 990.502 49.2635L984.341 54.4659L984.288 54.7145H999.575L998.528 61H972.604ZM1018.36 61.4972C1016.44 61.4972 1014.64 61.1716 1012.96 60.5206C1011.29 59.8696 1009.87 58.8338 1008.7 57.4134C1007.53 55.9811 1006.73 54.099 1006.3 51.767C1005.87 49.4351 1005.95 46.5883 1006.51 43.2266C1007.01 40.2199 1007.79 37.5388 1008.86 35.1832C1009.93 32.8158 1011.24 30.8153 1012.76 29.1818C1014.29 27.5365 1016.01 26.2876 1017.93 25.4354C1019.86 24.5713 1021.93 24.1392 1024.13 24.1392C1026.55 24.1392 1028.64 24.6068 1030.38 25.5419C1032.12 26.4652 1033.44 27.7318 1034.35 29.3416C1035.27 30.9396 1035.67 32.7448 1035.58 34.7571H1028.16C1028.13 33.455 1027.72 32.4607 1026.91 31.7741C1026.12 31.0758 1025.05 30.7266 1023.7 30.7266C1021.29 30.7266 1019.24 31.7741 1017.58 33.8693C1015.91 35.9645 1014.75 38.8172 1014.11 42.4276L1014.4 42.0192C1015.12 40.9538 1015.99 40.0542 1017.01 39.3203C1018.04 38.5864 1019.16 38.0301 1020.36 37.6513C1021.58 37.2725 1022.84 37.0831 1024.13 37.0831C1026.33 37.0831 1028.21 37.6098 1029.77 38.6634C1031.34 39.705 1032.46 41.1432 1033.15 42.978C1033.85 44.8127 1034 46.8961 1033.61 49.228C1033.21 51.6309 1032.3 53.7557 1030.89 55.6023C1029.48 57.4489 1027.7 58.8989 1025.53 59.9524C1023.38 60.9941 1020.98 61.509 1018.36 61.4972ZM1018.62 55.4602C1019.87 55.4602 1021.03 55.1584 1022.12 54.5547C1023.21 53.951 1024.12 53.1342 1024.85 52.1044C1025.6 51.0627 1026.07 49.8968 1026.26 48.6065C1026.45 47.482 1026.36 46.4699 1026.01 45.5703C1025.67 44.6707 1025.1 43.9605 1024.32 43.4396C1023.54 42.907 1022.58 42.6406 1021.45 42.6406C1020.52 42.6406 1019.63 42.8182 1018.76 43.1733C1017.91 43.5284 1017.14 44.0196 1016.44 44.647C1015.74 45.2744 1015.15 46.0024 1014.68 46.831C1014.21 47.6477 1013.9 48.5237 1013.76 49.4588C1013.58 50.5952 1013.66 51.6191 1014.01 52.5305C1014.36 53.4302 1014.94 54.1463 1015.73 54.679C1016.52 55.1998 1017.49 55.4602 1018.62 55.4602ZM1057.69 39.8175L1056.71 45.8189H1040.11L1041.08 39.8175H1057.69ZM1074.06 61.4972C1071.34 61.4972 1068.99 61.0414 1067.03 60.13C1065.06 59.2185 1063.61 57.9519 1062.66 56.3303C1061.73 54.7086 1061.42 52.8383 1061.76 50.7195H1069.39C1069.27 51.5954 1069.41 52.3707 1069.8 53.0455C1070.2 53.7202 1070.8 54.241 1071.59 54.608C1072.4 54.9749 1073.34 55.1584 1074.43 55.1584C1075.65 55.1584 1076.78 54.9276 1077.81 54.4659C1078.84 54.0043 1079.69 53.3769 1080.36 52.5838C1081.05 51.7789 1081.47 50.8733 1081.62 49.8672C1081.78 48.9084 1081.65 48.0916 1081.23 47.4169C1080.82 46.7304 1080.16 46.2036 1079.25 45.8366C1078.33 45.4697 1077.2 45.2862 1075.85 45.2862H1072.32L1073.26 39.6399H1076.46C1077.64 39.6399 1078.72 39.4209 1079.71 38.983C1080.7 38.545 1081.52 37.9354 1082.17 37.1541C1082.83 36.3729 1083.23 35.4673 1083.4 34.4375C1083.54 33.5971 1083.48 32.8632 1083.2 32.2358C1082.94 31.5966 1082.48 31.1053 1081.82 30.7621C1081.17 30.407 1080.32 30.2294 1079.28 30.2294C1078.23 30.2294 1077.2 30.4188 1076.21 30.7976C1075.21 31.1645 1074.37 31.6913 1073.69 32.3778C1073 33.0644 1072.58 33.8693 1072.43 34.7926H1065.09C1065.46 32.6974 1066.34 30.8509 1067.72 29.2528C1069.12 27.6548 1070.85 26.406 1072.92 25.5064C1075.01 24.5949 1077.26 24.1392 1079.67 24.1392C1082.24 24.1392 1084.41 24.6364 1086.17 25.6307C1087.93 26.6132 1089.21 27.9152 1090 29.5369C1090.81 31.1468 1091.06 32.8987 1090.75 34.7926C1090.41 36.8759 1089.5 38.5272 1088.02 39.7464C1086.55 40.9538 1084.72 41.7351 1082.53 42.0902V42.3565C1084.98 42.688 1086.83 43.6645 1088.07 45.2862C1089.32 46.9079 1089.76 48.8788 1089.38 51.1989C1089.06 53.2112 1088.19 54.9927 1086.77 56.5433C1085.35 58.094 1083.55 59.3073 1081.36 60.1832C1079.17 61.0592 1076.74 61.4972 1074.06 61.4972ZM1107.39 61.799C1104.34 61.799 1101.83 61.0533 1099.88 59.5618C1097.93 58.0585 1096.6 55.8923 1095.89 53.0632C1095.19 50.2341 1095.17 46.831 1095.83 42.8537C1096.51 38.8883 1097.66 35.5088 1099.3 32.7152C1100.94 29.9216 1102.98 27.7969 1105.4 26.3409C1107.84 24.8731 1110.58 24.1392 1113.62 24.1392C1116.65 24.1392 1119.15 24.8731 1121.1 26.3409C1123.05 27.8087 1124.39 29.9335 1125.11 32.7152C1125.85 35.4969 1125.88 38.8764 1125.22 42.8537C1124.56 46.8428 1123.4 50.2519 1121.76 53.081C1120.11 55.8982 1118.07 58.0585 1115.63 59.5618C1113.19 61.0533 1110.45 61.799 1107.39 61.799ZM1108.46 55.4247C1110.55 55.4247 1112.39 54.3771 1113.96 52.282C1115.54 50.1868 1116.67 47.044 1117.37 42.8537C1117.83 40.1075 1117.93 37.817 1117.67 35.9822C1117.42 34.1357 1116.86 32.7507 1115.99 31.8274C1115.11 30.9041 1113.98 30.4425 1112.59 30.4425C1110.52 30.4425 1108.69 31.4841 1107.09 33.5675C1105.5 35.639 1104.37 38.7344 1103.68 42.8537C1103.22 45.6473 1103.12 47.9792 1103.38 49.8494C1103.64 51.7079 1104.21 53.1046 1105.08 54.0398C1105.96 54.9631 1107.08 55.4247 1108.46 55.4247ZM1139.25 61L1140.2 55.4602L1155.11 43.4751C1156.39 42.4098 1157.47 41.451 1158.36 40.5987C1159.26 39.7464 1159.97 38.9119 1160.49 38.0952C1161.02 37.2666 1161.37 36.3729 1161.54 35.4141C1161.72 34.3487 1161.63 33.4313 1161.27 32.6619C1160.93 31.8807 1160.37 31.2829 1159.6 30.8686C1158.85 30.4425 1157.93 30.2294 1156.87 30.2294C1155.76 30.2294 1154.74 30.4543 1153.83 30.9041C1152.92 31.3539 1152.16 31.9991 1151.56 32.8395C1150.96 33.6799 1150.55 34.6802 1150.35 35.8402H1143.05C1143.46 33.4609 1144.35 31.3954 1145.74 29.6435C1147.12 27.8916 1148.86 26.5362 1150.96 25.5774C1153.05 24.6186 1155.37 24.1392 1157.92 24.1392C1160.52 24.1392 1162.71 24.6009 1164.49 25.5241C1166.27 26.4356 1167.57 27.7022 1168.37 29.3239C1169.18 30.9455 1169.4 32.804 1169.05 34.8991C1168.81 36.2841 1168.31 37.6454 1167.54 38.983C1166.77 40.3087 1165.56 41.7884 1163.92 43.4219C1162.27 45.0436 1160.02 46.9908 1157.15 49.2635L1150.99 54.4659L1150.94 54.7145H1166.23L1165.18 61H1139.25ZM1184.88 61.799C1181.83 61.799 1179.32 61.0533 1177.37 59.5618C1175.42 58.0585 1174.09 55.8923 1173.38 53.0632C1172.68 50.2341 1172.66 46.831 1173.32 42.8537C1174 38.8883 1175.15 35.5088 1176.79 32.7152C1178.43 29.9216 1180.47 27.7969 1182.89 26.3409C1185.33 24.8731 1188.07 24.1392 1191.11 24.1392C1194.15 24.1392 1196.64 24.8731 1198.59 26.3409C1200.54 27.8087 1201.88 29.9335 1202.6 32.7152C1203.34 35.4969 1203.37 38.8764 1202.71 42.8537C1202.05 46.8428 1200.89 50.2519 1199.25 53.081C1197.6 55.8982 1195.56 58.0585 1193.12 59.5618C1190.68 61.0533 1187.94 61.799 1184.88 61.799ZM1185.95 55.4247C1188.04 55.4247 1189.88 54.3771 1191.45 52.282C1193.03 50.1868 1194.16 47.044 1194.86 42.8537C1195.32 40.1075 1195.42 37.817 1195.16 35.9822C1194.91 34.1357 1194.35 32.7507 1193.48 31.8274C1192.6 30.9041 1191.47 30.4425 1190.08 30.4425C1188.01 30.4425 1186.18 31.4841 1184.58 33.5675C1182.99 35.639 1181.86 38.7344 1181.17 42.8537C1180.71 45.6473 1180.61 47.9792 1180.87 49.8494C1181.13 51.7079 1181.7 53.1046 1182.57 54.0398C1183.45 54.9631 1184.57 55.4247 1185.95 55.4247ZM1205.17 61L1206.11 55.4602L1221.03 43.4751C1222.31 42.4098 1223.39 41.451 1224.28 40.5987C1225.18 39.7464 1225.89 38.9119 1226.41 38.0952C1226.94 37.2666 1227.29 36.3729 1227.46 35.4141C1227.63 34.3487 1227.54 33.4313 1227.19 32.6619C1226.85 31.8807 1226.29 31.2829 1225.52 30.8686C1224.76 30.4425 1223.85 30.2294 1222.79 30.2294C1221.67 30.2294 1220.66 30.4543 1219.75 30.9041C1218.84 31.3539 1218.08 31.9991 1217.48 32.8395C1216.87 33.6799 1216.47 34.6802 1216.27 35.8402H1208.97C1209.37 33.4609 1210.27 31.3954 1211.65 29.6435C1213.04 27.8916 1214.78 26.5362 1216.87 25.5774C1218.97 24.6186 1221.29 24.1392 1223.83 24.1392C1226.44 24.1392 1228.63 24.6009 1230.4 25.5241C1232.19 26.4356 1233.49 27.7022 1234.29 29.3239C1235.1 30.9455 1235.32 32.804 1234.97 34.8991C1234.73 36.2841 1234.23 37.6454 1233.46 38.983C1232.69 40.3087 1231.48 41.7884 1229.84 43.4219C1228.19 45.0436 1225.94 46.9908 1223.07 49.2635L1216.91 54.4659L1216.86 54.7145H1232.14L1231.1 61H1205.17ZM1250.92 61.4972C1249.01 61.4972 1247.21 61.1716 1245.53 60.5206C1243.86 59.8696 1242.44 58.8338 1241.27 57.4134C1240.09 55.9811 1239.29 54.099 1238.87 51.767C1238.44 49.4351 1238.51 46.5883 1239.08 43.2266C1239.58 40.2199 1240.36 37.5388 1241.43 35.1832C1242.5 32.8158 1243.8 30.8153 1245.33 29.1818C1246.86 27.5365 1248.58 26.2876 1250.5 25.4354C1252.43 24.5713 1254.49 24.1392 1256.7 24.1392C1259.12 24.1392 1261.21 24.6068 1262.95 25.5419C1264.69 26.4652 1266.01 27.7318 1266.92 29.3416C1267.83 30.9396 1268.24 32.7448 1268.15 34.7571H1260.73C1260.7 33.455 1260.29 32.4607 1259.48 31.7741C1258.69 31.0758 1257.62 30.7266 1256.27 30.7266C1253.85 30.7266 1251.81 31.7741 1250.14 33.8693C1248.47 35.9645 1247.32 38.8172 1246.68 42.4276L1246.97 42.0192C1247.69 40.9538 1248.56 40.0542 1249.58 39.3203C1250.61 38.5864 1251.72 38.0301 1252.93 37.6513C1254.15 37.2725 1255.41 37.0831 1256.7 37.0831C1258.9 37.0831 1260.78 37.6098 1262.34 38.6634C1263.9 39.705 1265.03 41.1432 1265.72 42.978C1266.41 44.8127 1266.57 46.8961 1266.18 49.228C1265.77 51.6309 1264.87 53.7557 1263.46 55.6023C1262.05 57.4489 1260.26 58.8989 1258.1 59.9524C1255.94 60.9941 1253.55 61.509 1250.92 61.4972ZM1251.19 55.4602C1252.43 55.4602 1253.6 55.1584 1254.69 54.5547C1255.78 53.951 1256.69 53.1342 1257.42 52.1044C1258.17 51.0627 1258.64 49.8968 1258.83 48.6065C1259.02 47.482 1258.93 46.4699 1258.58 45.5703C1258.23 44.6707 1257.67 43.9605 1256.89 43.4396C1256.11 42.907 1255.15 42.6406 1254.01 42.6406C1253.09 42.6406 1252.2 42.8182 1251.33 43.1733C1250.48 43.5284 1249.71 44.0196 1249.01 44.647C1248.31 45.2744 1247.72 46.0024 1247.25 46.831C1246.78 47.6477 1246.47 48.5237 1246.33 49.4588C1246.15 50.5952 1246.23 51.6191 1246.57 52.5305C1246.93 53.4302 1247.5 54.1463 1248.3 54.679C1249.09 55.1998 1250.05 55.4602 1251.19 55.4602Z" fill="black"/>
<path d="M931.229 119.636L925.192 156H917.504L922.334 126.934H922.121L912.923 132.154L914.059 125.336L924.003 119.636H931.229ZM973.497 156H965.808L970.798 125.922H965.613C964.133 125.922 962.867 126.141 961.813 126.579C960.772 127.005 959.937 127.632 959.31 128.461C958.694 129.29 958.286 130.308 958.085 131.515C957.895 132.71 957.972 133.711 958.316 134.516C958.671 135.321 959.298 135.924 960.198 136.327C961.109 136.729 962.299 136.93 963.767 136.93H972.112L971.082 143.109H961.476C958.694 143.109 956.392 142.648 954.569 141.724C952.758 140.801 951.474 139.475 950.716 137.747C949.959 136.007 949.775 133.93 950.166 131.515C950.58 129.112 951.444 127.023 952.758 125.247C954.084 123.46 955.8 122.081 957.907 121.11C960.014 120.128 962.441 119.636 965.187 119.636H979.516L973.497 156ZM956.611 139.452H964.903L953.308 156H944.839L956.611 139.452ZM1001.46 139.345L1000.47 145.293H986.227L987.204 139.345H1001.46ZM991.465 128.727L986.92 156H979.711L984.257 128.727H991.465ZM1007.96 128.727L1003.41 156H996.242L1000.79 128.727H1007.96ZM1009.35 156L1013.9 128.727H1025.51C1028.86 128.727 1031.4 129.366 1033.14 130.645C1034.89 131.923 1035.57 133.74 1035.17 136.096C1034.93 137.576 1034.18 138.807 1032.91 139.789C1031.65 140.772 1030.01 141.434 1028.01 141.778C1029.63 141.896 1030.96 142.269 1032.01 142.896C1033.06 143.512 1033.81 144.311 1034.24 145.293C1034.69 146.276 1034.82 147.365 1034.63 148.56C1034.37 150.111 1033.73 151.443 1032.72 152.555C1031.71 153.668 1030.37 154.52 1028.69 155.112C1027.02 155.704 1025.04 156 1022.76 156H1009.35ZM1017.32 150.336H1023.7C1024.76 150.336 1025.64 150.081 1026.32 149.572C1027.01 149.063 1027.42 148.377 1027.55 147.513C1027.73 146.542 1027.56 145.779 1027.03 145.222C1026.53 144.666 1025.74 144.388 1024.69 144.388H1018.32L1017.32 150.336ZM1019.06 139.949H1023.8C1024.55 139.949 1025.21 139.842 1025.79 139.629C1026.37 139.404 1026.84 139.085 1027.19 138.67C1027.56 138.256 1027.79 137.765 1027.89 137.197C1028.03 136.368 1027.8 135.717 1027.19 135.244C1026.59 134.758 1025.7 134.516 1024.53 134.516H1019.95L1019.06 139.949ZM1045.86 156.515C1044.13 156.515 1042.63 156.213 1041.37 155.609C1040.11 154.994 1039.19 154.082 1038.6 152.875C1038.01 151.668 1037.86 150.17 1038.15 148.383C1038.41 146.868 1038.91 145.601 1039.63 144.583C1040.36 143.553 1041.26 142.725 1042.31 142.097C1043.36 141.47 1044.53 140.991 1045.81 140.659C1047.1 140.328 1048.43 140.103 1049.8 139.984C1051.39 139.819 1052.68 139.659 1053.67 139.505C1054.68 139.351 1055.43 139.132 1055.93 138.848C1056.42 138.552 1056.73 138.114 1056.83 137.534V137.428C1057.01 136.315 1056.8 135.451 1056.21 134.835C1055.63 134.208 1054.7 133.894 1053.42 133.894C1052.07 133.894 1050.93 134.19 1049.98 134.782C1049.04 135.374 1048.38 136.125 1047.97 137.037L1041.08 136.469C1041.7 134.812 1042.63 133.379 1043.87 132.172C1045.13 130.953 1046.64 130.018 1048.4 129.366C1050.16 128.704 1052.14 128.372 1054.33 128.372C1055.84 128.372 1057.26 128.55 1058.57 128.905C1059.9 129.26 1061.04 129.81 1062 130.556C1062.97 131.302 1063.67 132.261 1064.09 133.433C1064.53 134.593 1064.62 135.983 1064.36 137.605L1061.29 156H1054.12L1054.76 152.218H1054.54C1053.96 153.07 1053.25 153.822 1052.41 154.473C1051.57 155.112 1050.61 155.615 1049.52 155.982C1048.43 156.337 1047.21 156.515 1045.86 156.515ZM1048.9 151.295C1050 151.295 1051.01 151.076 1051.93 150.638C1052.87 150.188 1053.64 149.584 1054.24 148.827C1054.86 148.069 1055.25 147.211 1055.41 146.252L1055.87 143.358C1055.64 143.512 1055.29 143.648 1054.84 143.766C1054.41 143.885 1053.93 143.997 1053.41 144.104C1052.9 144.198 1052.38 144.287 1051.86 144.37C1051.34 144.441 1050.87 144.512 1050.46 144.583C1049.55 144.713 1048.73 144.92 1048.01 145.205C1047.29 145.489 1046.7 145.873 1046.25 146.359C1045.8 146.832 1045.52 147.424 1045.42 148.134C1045.25 149.164 1045.49 149.951 1046.14 150.496C1046.81 151.028 1047.72 151.295 1048.9 151.295ZM1065.51 166.227L1071.79 128.727H1079.25L1078.49 133.308H1078.82C1079.27 132.574 1079.87 131.829 1080.62 131.071C1081.37 130.302 1082.32 129.662 1083.44 129.153C1084.56 128.633 1085.88 128.372 1087.4 128.372C1089.4 128.372 1091.15 128.893 1092.64 129.935C1094.13 130.964 1095.21 132.521 1095.87 134.604C1096.54 136.676 1096.62 139.274 1096.1 142.399C1095.6 145.441 1094.69 148.01 1093.35 150.105C1092.02 152.188 1090.43 153.769 1088.57 154.846C1086.72 155.911 1084.77 156.444 1082.69 156.444C1081.23 156.444 1080.02 156.201 1079.07 155.716C1078.14 155.231 1077.41 154.621 1076.89 153.887C1076.37 153.141 1076 152.39 1075.79 151.632H1075.5L1073.09 166.227H1065.51ZM1076.92 142.364C1076.66 143.985 1076.65 145.4 1076.89 146.607C1077.14 147.815 1077.63 148.756 1078.38 149.43C1079.13 150.093 1080.11 150.425 1081.33 150.425C1082.56 150.425 1083.65 150.087 1084.61 149.413C1085.57 148.726 1086.37 147.779 1087.01 146.572C1087.65 145.353 1088.1 143.95 1088.38 142.364C1088.62 140.789 1088.63 139.404 1088.39 138.209C1088.16 137.013 1087.67 136.078 1086.94 135.403C1086.2 134.729 1085.21 134.391 1083.95 134.391C1082.74 134.391 1081.64 134.717 1080.67 135.368C1079.71 136.019 1078.91 136.942 1078.27 138.138C1077.63 139.333 1077.18 140.742 1076.92 142.364ZM1114.83 156L1118.4 134.658H1113.28C1111.89 134.658 1110.77 134.977 1109.94 135.616C1109.12 136.256 1108.64 137.013 1108.51 137.889C1108.34 138.777 1108.56 139.529 1109.16 140.144C1109.77 140.748 1110.76 141.05 1112.13 141.05H1119.83L1118.98 146.163H1111.28C1108.93 146.163 1106.97 145.808 1105.38 145.098C1103.8 144.388 1102.65 143.399 1101.95 142.133C1101.26 140.854 1101.05 139.369 1101.33 137.676C1101.62 135.901 1102.33 134.344 1103.48 133.006C1104.63 131.657 1106.12 130.609 1107.96 129.864C1109.8 129.106 1111.9 128.727 1114.26 128.727H1126.42L1121.88 156H1114.83ZM1097.5 156L1107.44 141.795H1114.67L1104.74 156H1097.5ZM1139.25 156L1140.2 150.46L1155.11 138.475C1156.39 137.41 1157.47 136.451 1158.36 135.599C1159.26 134.746 1159.97 133.912 1160.49 133.095C1161.02 132.267 1161.37 131.373 1161.54 130.414C1161.72 129.349 1161.63 128.431 1161.27 127.662C1160.93 126.881 1160.37 126.283 1159.6 125.869C1158.85 125.442 1157.93 125.229 1156.87 125.229C1155.76 125.229 1154.74 125.454 1153.83 125.904C1152.92 126.354 1152.16 126.999 1151.56 127.839C1150.96 128.68 1150.55 129.68 1150.35 130.84H1143.05C1143.46 128.461 1144.35 126.395 1145.74 124.643C1147.12 122.892 1148.86 121.536 1150.96 120.577C1153.05 119.619 1155.37 119.139 1157.92 119.139C1160.52 119.139 1162.71 119.601 1164.49 120.524C1166.27 121.436 1167.57 122.702 1168.37 124.324C1169.18 125.946 1169.4 127.804 1169.05 129.899C1168.81 131.284 1168.31 132.645 1167.54 133.983C1166.77 135.309 1165.56 136.788 1163.92 138.422C1162.27 140.044 1160.02 141.991 1157.15 144.263L1150.99 149.466L1150.94 149.714H1166.23L1165.18 156H1139.25ZM1184.88 156.799C1181.83 156.799 1179.32 156.053 1177.37 154.562C1175.42 153.058 1174.09 150.892 1173.38 148.063C1172.68 145.234 1172.66 141.831 1173.32 137.854C1174 133.888 1175.15 130.509 1176.79 127.715C1178.43 124.922 1180.47 122.797 1182.89 121.341C1185.33 119.873 1188.07 119.139 1191.11 119.139C1194.15 119.139 1196.64 119.873 1198.59 121.341C1200.54 122.809 1201.88 124.933 1202.6 127.715C1203.34 130.497 1203.37 133.876 1202.71 137.854C1202.05 141.843 1200.89 145.252 1199.25 148.081C1197.6 150.898 1195.56 153.058 1193.12 154.562C1190.68 156.053 1187.94 156.799 1184.88 156.799ZM1185.95 150.425C1188.04 150.425 1189.88 149.377 1191.45 147.282C1193.03 145.187 1194.16 142.044 1194.86 137.854C1195.32 135.107 1195.42 132.817 1195.16 130.982C1194.91 129.136 1194.35 127.751 1193.48 126.827C1192.6 125.904 1191.47 125.442 1190.08 125.442C1188.01 125.442 1186.18 126.484 1184.58 128.567C1182.99 130.639 1181.86 133.734 1181.17 137.854C1180.71 140.647 1180.61 142.979 1180.87 144.849C1181.13 146.708 1181.7 148.105 1182.57 149.04C1183.45 149.963 1184.57 150.425 1185.95 150.425ZM1205.17 156L1206.11 150.46L1221.03 138.475C1222.31 137.41 1223.39 136.451 1224.28 135.599C1225.18 134.746 1225.89 133.912 1226.41 133.095C1226.94 132.267 1227.29 131.373 1227.46 130.414C1227.63 129.349 1227.54 128.431 1227.19 127.662C1226.85 126.881 1226.29 126.283 1225.52 125.869C1224.76 125.442 1223.85 125.229 1222.79 125.229C1221.67 125.229 1220.66 125.454 1219.75 125.904C1218.84 126.354 1218.08 126.999 1217.48 127.839C1216.87 128.68 1216.47 129.68 1216.27 130.84H1208.97C1209.37 128.461 1210.27 126.395 1211.65 124.643C1213.04 122.892 1214.78 121.536 1216.87 120.577C1218.97 119.619 1221.29 119.139 1223.83 119.139C1226.44 119.139 1228.63 119.601 1230.4 120.524C1232.19 121.436 1233.49 122.702 1234.29 124.324C1235.1 125.946 1235.32 127.804 1234.97 129.899C1234.73 131.284 1234.23 132.645 1233.46 133.983C1232.69 135.309 1231.48 136.788 1229.84 138.422C1228.19 140.044 1225.94 141.991 1223.07 144.263L1216.91 149.466L1216.86 149.714H1232.14L1231.1 156H1205.17ZM1250.92 156.497C1249.01 156.497 1247.21 156.172 1245.53 155.521C1243.86 154.87 1242.44 153.834 1241.27 152.413C1240.09 150.981 1239.29 149.099 1238.87 146.767C1238.44 144.435 1238.51 141.588 1239.08 138.227C1239.58 135.22 1240.36 132.539 1241.43 130.183C1242.5 127.816 1243.8 125.815 1245.33 124.182C1246.86 122.536 1248.58 121.288 1250.5 120.435C1252.43 119.571 1254.49 119.139 1256.7 119.139C1259.12 119.139 1261.21 119.607 1262.95 120.542C1264.69 121.465 1266.01 122.732 1266.92 124.342C1267.83 125.94 1268.24 127.745 1268.15 129.757H1260.73C1260.7 128.455 1260.29 127.461 1259.48 126.774C1258.69 126.076 1257.62 125.727 1256.27 125.727C1253.85 125.727 1251.81 126.774 1250.14 128.869C1248.47 130.964 1247.32 133.817 1246.68 137.428L1246.97 137.019C1247.69 135.954 1248.56 135.054 1249.58 134.32C1250.61 133.586 1251.72 133.03 1252.93 132.651C1254.15 132.272 1255.41 132.083 1256.7 132.083C1258.9 132.083 1260.78 132.61 1262.34 133.663C1263.9 134.705 1265.03 136.143 1265.72 137.978C1266.41 139.813 1266.57 141.896 1266.18 144.228C1265.77 146.631 1264.87 148.756 1263.46 150.602C1262.05 152.449 1260.26 153.899 1258.1 154.952C1255.94 155.994 1253.55 156.509 1250.92 156.497ZM1251.19 150.46C1252.43 150.46 1253.6 150.158 1254.69 149.555C1255.78 148.951 1256.69 148.134 1257.42 147.104C1258.17 146.063 1258.64 144.897 1258.83 143.607C1259.02 142.482 1258.93 141.47 1258.58 140.57C1258.23 139.671 1257.67 138.96 1256.89 138.44C1256.11 137.907 1255.15 137.641 1254.01 137.641C1253.09 137.641 1252.2 137.818 1251.33 138.173C1250.48 138.528 1249.71 139.02 1249.01 139.647C1248.31 140.274 1247.72 141.002 1247.25 141.831C1246.78 142.648 1246.47 143.524 1246.33 144.459C1246.15 145.595 1246.23 146.619 1246.57 147.531C1246.93 148.43 1247.5 149.146 1248.3 149.679C1249.09 150.2 1250.05 150.46 1251.19 150.46Z" fill="black"/>
<path d="M1063.62 233.315C1062.96 237.198 1061.68 240.495 1059.77 243.205C1057.88 245.916 1055.56 247.976 1052.83 249.384C1050.11 250.793 1047.17 251.497 1044.02 251.497C1040.72 251.497 1037.87 250.746 1035.48 249.242C1033.1 247.739 1031.38 245.567 1030.31 242.726C1029.25 239.873 1029.05 236.434 1029.71 232.41C1030.35 228.515 1031.62 225.213 1033.53 222.502C1035.43 219.78 1037.76 217.708 1040.51 216.288C1043.25 214.855 1046.21 214.139 1049.37 214.139C1052.65 214.139 1055.47 214.897 1057.85 216.412C1060.24 217.927 1061.97 220.117 1063.02 222.982C1064.09 225.834 1064.29 229.279 1063.62 233.315ZM1055.97 232.41C1056.39 229.912 1056.37 227.817 1055.92 226.124C1055.48 224.42 1054.68 223.129 1053.5 222.254C1052.33 221.378 1050.85 220.94 1049.06 220.94C1047.12 220.94 1045.34 221.425 1043.72 222.396C1042.11 223.366 1040.75 224.775 1039.64 226.621C1038.54 228.456 1037.77 230.687 1037.35 233.315C1036.92 235.825 1036.93 237.92 1037.38 239.601C1037.84 241.282 1038.67 242.554 1039.85 243.418C1041.05 244.271 1042.53 244.697 1044.31 244.697C1046.24 244.697 1048 244.223 1049.6 243.276C1051.21 242.317 1052.56 240.927 1053.66 239.104C1054.76 237.269 1055.53 235.038 1055.97 232.41ZM1068.36 229.675L1069.36 223.727H1094.07L1093.08 229.675H1084.31L1080.77 251H1073.55L1077.1 229.675H1068.36ZM1094.16 251L1098.71 223.727H1106.26L1104.48 234.31H1106.61L1115.81 223.727H1124.7L1112.81 237.257L1120.25 251H1111.28L1106.17 241.323H1103.34L1101.71 251H1094.16ZM1121.76 261.227L1128.04 223.727H1135.5L1134.74 228.308H1135.07C1135.52 227.574 1136.12 226.829 1136.87 226.071C1137.62 225.302 1138.57 224.662 1139.69 224.153C1140.81 223.633 1142.13 223.372 1143.65 223.372C1145.65 223.372 1147.4 223.893 1148.89 224.935C1150.38 225.964 1151.46 227.521 1152.12 229.604C1152.79 231.676 1152.87 234.274 1152.35 237.399C1151.85 240.441 1150.94 243.01 1149.6 245.105C1148.27 247.188 1146.68 248.769 1144.82 249.846C1142.97 250.911 1141.02 251.444 1138.94 251.444C1137.48 251.444 1136.27 251.201 1135.32 250.716C1134.39 250.231 1133.66 249.621 1133.14 248.887C1132.62 248.141 1132.25 247.39 1132.04 246.632H1131.75L1129.34 261.227H1121.76ZM1133.17 237.364C1132.91 238.985 1132.9 240.4 1133.14 241.607C1133.39 242.815 1133.88 243.756 1134.63 244.43C1135.38 245.093 1136.36 245.425 1137.58 245.425C1138.81 245.425 1139.9 245.087 1140.86 244.413C1141.82 243.726 1142.62 242.779 1143.26 241.572C1143.9 240.353 1144.35 238.95 1144.63 237.364C1144.87 235.789 1144.88 234.404 1144.64 233.209C1144.41 232.013 1143.92 231.078 1143.19 230.403C1142.45 229.729 1141.46 229.391 1140.2 229.391C1138.99 229.391 1137.89 229.717 1136.92 230.368C1135.96 231.019 1135.16 231.942 1134.52 233.138C1133.88 234.333 1133.43 235.742 1133.17 237.364ZM1163.05 232.108H1171.2C1174.8 232.108 1177.46 232.972 1179.19 234.7C1180.92 236.417 1181.55 238.713 1181.09 241.589C1180.77 243.46 1180.04 245.105 1178.89 246.526C1177.74 247.934 1176.24 249.035 1174.4 249.828C1172.56 250.609 1170.44 251 1168.02 251H1155.15L1159.7 223.727H1166.9L1163.34 245.052H1169.02C1170.3 245.052 1171.39 244.732 1172.3 244.093C1173.23 243.454 1173.77 242.637 1173.94 241.643C1174.11 240.577 1173.85 239.713 1173.14 239.05C1172.44 238.388 1171.47 238.056 1170.23 238.056H1162.06L1163.05 232.108ZM1182.37 251L1186.92 223.727H1194.46L1189.92 251H1182.37ZM1198.1 229.675L1199.09 223.727H1223.81L1222.81 229.675H1214.04L1210.51 251H1203.28L1206.83 229.675H1198.1ZM1235.23 251.533C1232.45 251.533 1230.14 250.941 1228.32 249.757C1226.5 248.562 1225.21 246.904 1224.47 244.786C1223.73 242.655 1223.6 240.175 1224.06 237.346C1224.51 234.552 1225.45 232.108 1226.87 230.013C1228.29 227.918 1230.09 226.29 1232.28 225.13C1234.47 223.958 1236.94 223.372 1239.69 223.372C1242.46 223.372 1244.75 223.97 1246.57 225.165C1248.4 226.349 1249.68 228.006 1250.43 230.137C1251.17 232.268 1251.32 234.748 1250.85 237.577C1250.39 240.358 1249.45 242.797 1248.01 244.892C1246.58 246.987 1244.78 248.621 1242.6 249.793C1240.42 250.953 1237.96 251.533 1235.23 251.533ZM1235.97 245.673C1237.25 245.673 1238.38 245.312 1239.37 244.59C1240.36 243.856 1241.18 242.862 1241.83 241.607C1242.5 240.341 1242.96 238.908 1243.22 237.31C1243.48 235.736 1243.5 234.339 1243.27 233.12C1243.05 231.889 1242.57 230.918 1241.85 230.208C1241.14 229.498 1240.16 229.143 1238.92 229.143C1237.64 229.143 1236.51 229.51 1235.51 230.244C1234.52 230.966 1233.7 231.96 1233.04 233.227C1232.39 234.493 1231.94 235.931 1231.68 237.541C1231.43 239.104 1231.41 240.5 1231.62 241.732C1231.84 242.951 1232.3 243.915 1233.03 244.626C1233.75 245.324 1234.73 245.673 1235.97 245.673ZM1268.57 214.636L1263.67 240.098H1257.21L1260.71 214.636H1268.57ZM1259 251.462C1257.81 251.462 1256.83 251.047 1256.06 250.219C1255.3 249.39 1254.96 248.384 1255.03 247.2C1255.11 246.028 1255.6 245.04 1256.5 244.235C1257.41 243.418 1258.46 243.01 1259.64 243.01C1260.78 243.01 1261.74 243.418 1262.52 244.235C1263.3 245.052 1263.64 246.04 1263.55 247.2C1263.49 247.982 1263.24 248.698 1262.79 249.349C1262.35 249.988 1261.79 250.503 1261.12 250.893C1260.44 251.272 1259.74 251.462 1259 251.462Z" fill="black"/>
<line x1="1.31134e-07" y1="178.5" x2="1269" y2="178.5" stroke="black" stroke-width="3"/>
<line x1="1.31134e-07" y1="83.5" x2="1269" y2="83.5001" stroke="black" stroke-width="3"/>
</svg>
